<?xml version="1.0" encoding="utf-8" standalone="no"?>
<!DOCTYPE svg PUBLIC "-//W3C//DTD SVG 1.1//EN"
  "http://www.w3.org/Graphics/SVG/1.1/DTD/svg11.dtd">
<!-- Created with matplotlib (https://matplotlib.org/) -->
<svg height="360pt" version="1.1" viewBox="0 0 1440 360" width="1440pt" xmlns="http://www.w3.org/2000/svg" xmlns:xlink="http://www.w3.org/1999/xlink">
 <metadata>
  <rdf:RDF xmlns:cc="http://creativecommons.org/ns#" xmlns:dc="http://purl.org/dc/elements/1.1/" xmlns:rdf="http://www.w3.org/1999/02/22-rdf-syntax-ns#">
   <cc:Work>
    <dc:type rdf:resource="http://purl.org/dc/dcmitype/StillImage"/>
    <dc:date>2020-08-17T16:10:42.679271</dc:date>
    <dc:format>image/svg+xml</dc:format>
    <dc:creator>
     <cc:Agent>
      <dc:title>Matplotlib v3.3.0, https://matplotlib.org/</dc:title>
     </cc:Agent>
    </dc:creator>
   </cc:Work>
  </rdf:RDF>
 </metadata>
 <defs>
  <style type="text/css">*{stroke-linecap:butt;stroke-linejoin:round;}</style>
 </defs>
 <g id="figure_1">
  <g id="patch_1">
   <path d="M 0 360 
L 1440 360 
L 1440 0 
L 0 0 
z
" style="fill:#ffffff;"/>
  </g>
  <g id="axes_1">
   <g id="patch_2">
    <path d="M 107.6 278.8 
L 1418.4 278.8 
L 1418.4 50.4 
L 107.6 50.4 
z
" style="fill:#ffffff;"/>
   </g>
   <g id="matplotlib.axis_1">
    <g id="xtick_1">
     <g id="line2d_1">
      <defs>
       <path d="M 0 0 
L 0 3.5 
" id="m0a9fbed9bd" style="stroke:#000000;stroke-width:0.8;"/>
      </defs>
      <g>
       <use style="stroke:#000000;stroke-width:0.8;" x="107.6" xlink:href="#m0a9fbed9bd" y="278.8"/>
      </g>
     </g>
     <g id="text_1">
      <!-- 0 -->
      <g transform="translate(101.6 302.19125)scale(0.24 -0.24)">
       <defs>
        <path d="M 47.59375 33 
Q 47.59375 26.296875 46.296875 20.34375 
Q 45 14.40625 42.453125 9.40625 
Q 39.90625 4.40625 35.40625 1.5 
Q 30.90625 -1.40625 25 -1.40625 
Q 18.90625 -1.40625 14.296875 1.6875 
Q 9.703125 4.796875 7.203125 10 
Q 4.703125 15.203125 3.546875 21.09375 
Q 2.40625 27 2.40625 33.59375 
Q 2.40625 42.90625 4.703125 50.34375 
Q 7 57.796875 12.34375 62.6875 
Q 17.703125 67.59375 25.40625 67.59375 
Q 35.203125 67.59375 41.390625 58 
Q 47.59375 48.40625 47.59375 33 
z
M 38 32.5 
Q 38 48.296875 34.640625 56.640625 
Q 31.296875 65 24.796875 65 
Q 18.59375 65 15.296875 56.59375 
Q 12 48.203125 12 32.90625 
Q 12 17.5 15.296875 9.34375 
Q 18.59375 1.203125 25 1.203125 
Q 31.296875 1.203125 34.640625 9.34375 
Q 38 17.5 38 32.5 
z
" id="STIXGeneral-Regular-48"/>
       </defs>
       <use xlink:href="#STIXGeneral-Regular-48"/>
      </g>
     </g>
    </g>
    <g id="xtick_2">
     <g id="line2d_2">
      <g>
       <use style="stroke:#000000;stroke-width:0.8;" x="233.023404" xlink:href="#m0a9fbed9bd" y="278.8"/>
      </g>
     </g>
     <g id="text_2">
      <!-- 1 -->
      <g transform="translate(227.023404 302.19125)scale(0.24 -0.24)">
       <defs>
        <path d="M 39.40625 0 
L 11.796875 0 
L 11.796875 1.5 
Q 17.296875 1.796875 19.296875 3.546875 
Q 21.296875 5.296875 21.296875 9.5 
L 21.296875 54.40625 
Q 21.296875 59.296875 18.296875 59.296875 
Q 16.90625 59.296875 13.796875 58.09375 
L 11.09375 57.09375 
L 11.09375 58.5 
L 29 67.59375 
L 29.90625 67.296875 
L 29.90625 7.59375 
Q 29.90625 4.296875 31.90625 2.890625 
Q 33.90625 1.5 39.40625 1.5 
z
" id="STIXGeneral-Regular-49"/>
       </defs>
       <use xlink:href="#STIXGeneral-Regular-49"/>
      </g>
     </g>
    </g>
    <g id="xtick_3">
     <g id="line2d_3">
      <g>
       <use style="stroke:#000000;stroke-width:0.8;" x="358.446809" xlink:href="#m0a9fbed9bd" y="278.8"/>
      </g>
     </g>
     <g id="text_3">
      <!-- 2 -->
      <g transform="translate(352.446809 302.19125)scale(0.24 -0.24)">
       <defs>
        <path d="M 47.40625 13.703125 
L 42 0 
L 2.90625 0 
L 2.90625 1.203125 
L 20.703125 20.09375 
Q 27.703125 27.40625 30.703125 33.5 
Q 33.703125 39.59375 33.703125 46.09375 
Q 33.703125 52.796875 30 56.5 
Q 26.296875 60.203125 19.796875 60.203125 
Q 14.40625 60.203125 11.25 57.390625 
Q 8.09375 54.59375 5.09375 47.203125 
L 3 47.703125 
Q 4.703125 57 9.84375 62.296875 
Q 15 67.59375 23.796875 67.59375 
Q 32.09375 67.59375 37.1875 62.59375 
Q 42.296875 57.59375 42.296875 50 
Q 42.296875 38.703125 29.5 25.203125 
L 13 7.59375 
L 36.40625 7.59375 
Q 39.703125 7.59375 41.640625 8.890625 
Q 43.59375 10.203125 46 14.296875 
z
" id="STIXGeneral-Regular-50"/>
       </defs>
       <use xlink:href="#STIXGeneral-Regular-50"/>
      </g>
     </g>
    </g>
    <g id="xtick_4">
     <g id="line2d_4">
      <g>
       <use style="stroke:#000000;stroke-width:0.8;" x="483.870213" xlink:href="#m0a9fbed9bd" y="278.8"/>
      </g>
     </g>
     <g id="text_4">
      <!-- 3 -->
      <g transform="translate(477.870213 302.19125)scale(0.24 -0.24)">
       <defs>
        <path d="M 6.09375 51 
L 4.5 51.40625 
Q 6.796875 58.90625 11.6875 63.25 
Q 16.59375 67.59375 24.09375 67.59375 
Q 31.09375 67.59375 35.390625 63.796875 
Q 39.703125 60 39.703125 53.90625 
Q 39.703125 45.703125 30.40625 40.09375 
Q 35.90625 37.703125 38.703125 34.796875 
Q 43.09375 29.90625 43.09375 21.90625 
Q 43.09375 13.90625 38.5 7.90625 
Q 35.09375 3.296875 28.75 0.9375 
Q 22.40625 -1.40625 15.296875 -1.40625 
Q 4.09375 -1.40625 4.09375 4.296875 
Q 4.09375 5.90625 5.296875 6.90625 
Q 6.5 7.90625 8.203125 7.90625 
Q 10.703125 7.90625 14.296875 5.296875 
Q 18.703125 2.203125 22.90625 2.203125 
Q 28.40625 2.203125 32.15625 6.640625 
Q 35.90625 11.09375 35.90625 17.5 
Q 35.90625 29 25.5 32 
Q 22.40625 33 15.296875 33 
L 15.296875 34.40625 
Q 20.90625 36.296875 23.703125 38 
Q 31.796875 42.59375 31.796875 51.40625 
Q 31.796875 56.40625 28.9375 59 
Q 26.09375 61.59375 21 61.59375 
Q 12 61.59375 6.09375 51 
z
" id="STIXGeneral-Regular-51"/>
       </defs>
       <use xlink:href="#STIXGeneral-Regular-51"/>
      </g>
     </g>
    </g>
    <g id="xtick_5">
     <g id="line2d_5">
      <g>
       <use style="stroke:#000000;stroke-width:0.8;" x="609.293618" xlink:href="#m0a9fbed9bd" y="278.8"/>
      </g>
     </g>
     <g id="text_5">
      <!-- 4 -->
      <g transform="translate(603.293618 302.19125)scale(0.24 -0.24)">
       <defs>
        <path d="M 47.296875 16.703125 
L 37 16.703125 
L 37 0 
L 29.203125 0 
L 29.203125 16.703125 
L 1.203125 16.703125 
L 1.203125 23.09375 
L 32.59375 67.59375 
L 37 67.59375 
L 37 23.09375 
L 47.296875 23.09375 
z
M 29.203125 23.09375 
L 29.203125 57.40625 
L 5.203125 23.09375 
z
" id="STIXGeneral-Regular-52"/>
       </defs>
       <use xlink:href="#STIXGeneral-Regular-52"/>
      </g>
     </g>
    </g>
    <g id="xtick_6">
     <g id="line2d_6">
      <g>
       <use style="stroke:#000000;stroke-width:0.8;" x="734.717022" xlink:href="#m0a9fbed9bd" y="278.8"/>
      </g>
     </g>
     <g id="text_6">
      <!-- 5 -->
      <g transform="translate(728.717022 302.19125)scale(0.24 -0.24)">
       <defs>
        <path d="M 43.796875 68.09375 
L 40.203125 59.59375 
Q 39.59375 58.296875 37.5 58.296875 
L 18.09375 58.296875 
L 14.09375 49.796875 
Q 25.09375 47.703125 30 45.25 
Q 34.90625 42.796875 39.09375 37 
Q 42.59375 32.203125 42.59375 24.296875 
Q 42.59375 17.09375 40.25 12.1875 
Q 37.90625 7.296875 32.796875 3.5 
Q 26 -1.40625 15.796875 -1.40625 
Q 10.09375 -1.40625 6.59375 0.296875 
Q 3.09375 2 3.09375 4.796875 
Q 3.09375 8.59375 7.59375 8.59375 
Q 11.203125 8.59375 15 5.5 
Q 18.90625 2.296875 22.09375 2.296875 
Q 27.296875 2.296875 31.4375 7.5 
Q 35.59375 12.703125 35.59375 19.203125 
Q 35.59375 28.796875 28.90625 34.203125 
Q 20.203125 41.203125 7.59375 41.203125 
Q 6.40625 41.203125 6.40625 42 
L 6.5 42.5 
L 17.40625 66.203125 
L 38.09375 66.203125 
Q 39.796875 66.203125 40.75 66.703125 
Q 41.703125 67.203125 42.90625 68.796875 
z
" id="STIXGeneral-Regular-53"/>
       </defs>
       <use xlink:href="#STIXGeneral-Regular-53"/>
      </g>
     </g>
    </g>
    <g id="xtick_7">
     <g id="line2d_7">
      <g>
       <use style="stroke:#000000;stroke-width:0.8;" x="860.140427" xlink:href="#m0a9fbed9bd" y="278.8"/>
      </g>
     </g>
     <g id="text_7">
      <!-- 6 -->
      <g transform="translate(854.140427 302.19125)scale(0.24 -0.24)">
       <defs>
        <path d="M 44.59375 68.40625 
L 44.796875 66.796875 
Q 33 64.90625 25.09375 57.25 
Q 17.203125 49.59375 15.203125 38.296875 
Q 21 42.796875 27.90625 42.796875 
Q 36.703125 42.796875 41.75 37.1875 
Q 46.796875 31.59375 46.796875 21.90625 
Q 46.796875 12.09375 41.703125 5.90625 
Q 35.796875 -1.40625 25.796875 -1.40625 
Q 13.59375 -1.40625 8.09375 8.703125 
Q 3.40625 17.296875 3.40625 27.90625 
Q 3.40625 44.296875 14.296875 55.5 
Q 20.5 61.90625 27.046875 64.546875 
Q 33.59375 67.203125 44.59375 68.40625 
z
M 37.796875 18.796875 
Q 37.796875 38.203125 24.296875 38.203125 
Q 19.296875 38.203125 16 35.546875 
Q 12.703125 32.90625 12.703125 26.59375 
Q 12.703125 14.90625 16.34375 8.15625 
Q 20 1.40625 26.90625 1.40625 
Q 32.203125 1.40625 35 6.15625 
Q 37.796875 10.90625 37.796875 18.796875 
z
" id="STIXGeneral-Regular-54"/>
       </defs>
       <use xlink:href="#STIXGeneral-Regular-54"/>
      </g>
     </g>
    </g>
    <g id="xtick_8">
     <g id="line2d_8">
      <g>
       <use style="stroke:#000000;stroke-width:0.8;" x="985.563831" xlink:href="#m0a9fbed9bd" y="278.8"/>
      </g>
     </g>
     <g id="text_8">
      <!-- 7 -->
      <g transform="translate(979.563831 302.19125)scale(0.24 -0.24)">
       <defs>
        <path d="M 44.90625 64.59375 
L 23.703125 -0.796875 
L 17.203125 -0.796875 
L 37 58.796875 
L 15.5 58.796875 
Q 11.203125 58.796875 9.09375 57.296875 
Q 7 55.796875 3.796875 50.59375 
L 2 51.5 
L 8 66.203125 
L 44.90625 66.203125 
z
" id="STIXGeneral-Regular-55"/>
       </defs>
       <use xlink:href="#STIXGeneral-Regular-55"/>
      </g>
     </g>
    </g>
    <g id="xtick_9">
     <g id="line2d_9">
      <g>
       <use style="stroke:#000000;stroke-width:0.8;" x="1110.987236" xlink:href="#m0a9fbed9bd" y="278.8"/>
      </g>
     </g>
     <g id="text_9">
      <!-- 8 -->
      <g transform="translate(1104.987236 302.19125)scale(0.24 -0.24)">
       <defs>
        <path d="M 44.5 15.5 
Q 44.5 7.796875 39.140625 3.1875 
Q 33.796875 -1.40625 24.796875 -1.40625 
Q 16.40625 -1.40625 11 3.1875 
Q 5.59375 7.796875 5.59375 14.90625 
Q 5.59375 20.203125 8.1875 23.953125 
Q 10.796875 27.703125 18.59375 33.203125 
Q 11.09375 39.40625 8.640625 43.203125 
Q 6.203125 47 6.203125 52 
Q 6.203125 59.09375 11.640625 63.34375 
Q 17.09375 67.59375 25.59375 67.59375 
Q 32.90625 67.59375 37.65625 63.4375 
Q 42.40625 59.296875 42.40625 53.296875 
Q 42.40625 47.796875 39.546875 44.5 
Q 36.703125 41.203125 29 37.09375 
Q 38 31.09375 41.25 26.390625 
Q 44.5 21.703125 44.5 15.5 
z
M 35.5 53.296875 
Q 35.5 58.5 32.59375 61.640625 
Q 29.703125 64.796875 24.59375 64.796875 
Q 19.5 64.796875 16.546875 62.140625 
Q 13.59375 59.5 13.59375 54.890625 
Q 13.59375 50.296875 16.546875 46.546875 
Q 19.5 42.796875 26.09375 38.90625 
Q 31.203125 41.90625 33.34375 45.25 
Q 35.5 48.59375 35.5 53.296875 
z
M 27.09375 27.203125 
L 21.203125 31.203125 
Q 16.796875 27.59375 15 24.140625 
Q 13.203125 20.703125 13.203125 15.796875 
Q 13.203125 9 16.640625 5.203125 
Q 20.09375 1.40625 25.90625 1.40625 
Q 30.796875 1.40625 33.84375 4.453125 
Q 36.90625 7.5 36.90625 12.40625 
Q 36.90625 16.90625 34.59375 20.296875 
Q 32.296875 23.703125 27.09375 27.203125 
z
" id="STIXGeneral-Regular-56"/>
       </defs>
       <use xlink:href="#STIXGeneral-Regular-56"/>
      </g>
     </g>
    </g>
    <g id="xtick_10">
     <g id="line2d_10">
      <g>
       <use style="stroke:#000000;stroke-width:0.8;" x="1236.41064" xlink:href="#m0a9fbed9bd" y="278.8"/>
      </g>
     </g>
     <g id="text_10">
      <!-- 9 -->
      <g transform="translate(1230.41064 302.19125)scale(0.24 -0.24)">
       <defs>
        <path d="M 5.90625 -2.203125 
L 5.59375 -0.203125 
Q 17.09375 1.796875 25.046875 9.5 
Q 33 17.203125 36 29.40625 
Q 30.203125 23.703125 21 23.703125 
Q 12.90625 23.703125 7.953125 29.296875 
Q 3 34.90625 3 44 
Q 3 54.09375 8.953125 60.84375 
Q 14.90625 67.59375 23.796875 67.59375 
Q 33.296875 67.59375 39.5 60 
Q 45.90625 52 45.90625 39.40625 
Q 45.90625 30.59375 42.84375 22.84375 
Q 39.796875 15.09375 33.90625 9.703125 
Q 27.703125 4.09375 21.796875 1.640625 
Q 15.90625 -0.796875 5.90625 -2.203125 
z
M 36.203125 35.5 
L 36.203125 39.40625 
Q 36.203125 64.796875 23 64.796875 
Q 18.296875 64.796875 15.703125 61.40625 
Q 14.203125 59.40625 13.203125 55.40625 
Q 12.203125 51.40625 12.203125 47.40625 
Q 12.203125 38.5 15.546875 33.25 
Q 18.90625 28 24.5 28 
Q 28.5 28 32.34375 29.953125 
Q 36.203125 31.90625 36.203125 35.5 
z
" id="STIXGeneral-Regular-57"/>
       </defs>
       <use xlink:href="#STIXGeneral-Regular-57"/>
      </g>
     </g>
    </g>
    <g id="xtick_11">
     <g id="line2d_11">
      <g>
       <use style="stroke:#000000;stroke-width:0.8;" x="1361.834045" xlink:href="#m0a9fbed9bd" y="278.8"/>
      </g>
     </g>
     <g id="text_11">
      <!-- 10 -->
      <g transform="translate(1349.834045 302.19125)scale(0.24 -0.24)">
       <use xlink:href="#STIXGeneral-Regular-49"/>
       <use x="49.999985" xlink:href="#STIXGeneral-Regular-48"/>
      </g>
     </g>
    </g>
    <g id="text_12">
     <!-- Site # -->
     <g transform="translate(728.410938 331.889063)scale(0.3 -0.3)">
      <defs>
       <path d="M 46.90625 46.296875 
L 44.40625 46.296875 
Q 42.703125 52.5 40.296875 55.703125 
Q 34.203125 63.5 25.796875 63.5 
Q 21.203125 63.5 18.453125 60.84375 
Q 15.703125 58.203125 15.703125 54 
Q 15.703125 52 16.703125 50.09375 
Q 17.703125 48.203125 18.84375 46.84375 
Q 20 45.5 22.890625 43.5 
Q 25.796875 41.5 27.59375 40.453125 
Q 29.40625 39.40625 33.59375 36.90625 
Q 41.703125 32.203125 45.390625 27.546875 
Q 49.09375 22.90625 49.09375 17.296875 
Q 49.09375 9 43.296875 3.796875 
Q 37.5 -1.40625 28.703125 -1.40625 
Q 22.203125 -1.40625 16.90625 0.90625 
Q 14.296875 2 12.203125 2 
Q 11 2 10.203125 1.09375 
Q 9.40625 0.203125 9.40625 -1.296875 
L 7.203125 -1.296875 
L 4.296875 19.90625 
L 6.5 19.90625 
Q 13.203125 2.203125 27.09375 2.203125 
Q 32.40625 2.203125 35.703125 5.34375 
Q 39 8.5 39 13.40625 
Q 39 18.09375 36.09375 21.296875 
Q 31.296875 26.5 19.296875 32.90625 
Q 7.09375 39.40625 7.09375 50.09375 
Q 7.09375 58.09375 12 62.84375 
Q 16.90625 67.59375 24.5 67.59375 
Q 29.796875 67.59375 35 65.40625 
Q 37.703125 64.203125 39.40625 64.203125 
Q 42 64.203125 42.59375 67.59375 
L 44.703125 67.59375 
z
" id="STIXGeneral-Regular-83"/>
       <path d="M 18 63.203125 
Q 18 61 16.5 59.546875 
Q 15 58.09375 12.796875 58.09375 
Q 10.703125 58.09375 9.25 59.546875 
Q 7.796875 61 7.796875 63.203125 
Q 7.796875 65.296875 9.296875 66.796875 
Q 10.796875 68.296875 12.90625 68.296875 
Q 15.09375 68.296875 16.546875 66.796875 
Q 18 65.296875 18 63.203125 
z
M 25.296875 0 
L 1.59375 0 
L 1.59375 1.5 
Q 6.796875 1.796875 8.140625 3.296875 
Q 9.5 4.796875 9.5 10.40625 
L 9.5 33.09375 
Q 9.5 36.59375 8.796875 38 
Q 8.09375 39.40625 6.203125 39.40625 
Q 3.796875 39.40625 2 38.90625 
L 2 40.5 
L 17.5 46 
L 17.90625 45.59375 
L 17.90625 10.5 
Q 17.90625 4.90625 19.15625 3.40625 
Q 20.40625 1.90625 25.296875 1.5 
z
" id="STIXGeneral-Regular-105"/>
       <path d="M 26.59375 7.703125 
L 27.90625 6.59375 
Q 23.09375 -1 15.796875 -1 
Q 7 -1 7 11.703125 
L 7 41.796875 
L 1.703125 41.796875 
Q 1.296875 42.09375 1.296875 42.5 
Q 1.296875 43.296875 3 44.40625 
Q 6.796875 46.59375 12.703125 55.09375 
Q 12.90625 55.40625 13.65625 56.34375 
Q 14.40625 57.296875 14.703125 57.90625 
Q 15.40625 57.90625 15.40625 56.59375 
L 15.40625 45 
L 25.5 45 
L 25.5 41.796875 
L 15.40625 41.796875 
L 15.40625 13.203125 
Q 15.40625 8.40625 16.59375 6.296875 
Q 17.796875 4.203125 20.59375 4.203125 
Q 23.59375 4.203125 26.59375 7.703125 
z
" id="STIXGeneral-Regular-116"/>
       <path d="M 40.796875 16.40625 
L 42.40625 15.703125 
Q 36.40625 -1 21.5 -1 
Q 12.703125 -1 7.59375 5.140625 
Q 2.5 11.296875 2.5 21.703125 
Q 2.5 32.40625 8.203125 39.203125 
Q 13.90625 46 23.203125 46 
Q 32.203125 46 37.09375 39.09375 
Q 40 35.09375 40.5 27.703125 
L 9.703125 27.703125 
Q 10.09375 21.40625 10.9375 18.09375 
Q 11.796875 14.796875 14.296875 11.40625 
Q 18.5 5.90625 25.40625 5.90625 
Q 30.296875 5.90625 33.640625 8.296875 
Q 37 10.703125 40.796875 16.40625 
z
M 9.90625 30.90625 
L 30.296875 30.90625 
Q 29.40625 37.203125 27.34375 39.796875 
Q 25.296875 42.40625 20.5 42.40625 
Q 16.296875 42.40625 13.5 39.453125 
Q 10.703125 36.5 9.90625 30.90625 
z
" id="STIXGeneral-Regular-101"/>
       <path id="STIXGeneral-Regular-32"/>
       <path d="M 49.5 40.5 
L 39.09375 40.5 
L 37.09375 27.09375 
L 47 27.09375 
L 47 21.59375 
L 36.203125 21.59375 
L 33.09375 0 
L 27.296875 0 
L 30.40625 21.59375 
L 17 21.59375 
L 13.703125 0 
L 7.90625 0 
L 11.203125 21.59375 
L 0.59375 21.59375 
L 0.59375 27.09375 
L 12.09375 27.09375 
L 14.203125 40.5 
L 3.296875 40.5 
L 3.296875 46 
L 15 46 
L 18.09375 66.203125 
L 23.90625 66.203125 
L 20.796875 46 
L 34.09375 46 
L 37.09375 66.203125 
L 42.90625 66.203125 
L 39.90625 46 
L 49.5 46 
z
M 33.296875 40.5 
L 20 40.5 
L 17.90625 27.09375 
L 31.296875 27.09375 
z
" id="STIXGeneral-Regular-35"/>
      </defs>
      <use xlink:href="#STIXGeneral-Regular-83"/>
      <use x="55.599991" xlink:href="#STIXGeneral-Regular-105"/>
      <use x="83.399979" xlink:href="#STIXGeneral-Regular-116"/>
      <use x="111.199966" xlink:href="#STIXGeneral-Regular-101"/>
      <use x="155.59996" xlink:href="#STIXGeneral-Regular-32"/>
      <use x="180.599945" xlink:href="#STIXGeneral-Regular-35"/>
     </g>
    </g>
   </g>
   <g id="matplotlib.axis_2">
    <g id="ytick_1">
     <g id="line2d_12">
      <defs>
       <path d="M 0 0 
L -3.5 0 
" id="m8493083185" style="stroke:#000000;stroke-width:0.8;"/>
      </defs>
      <g>
       <use style="stroke:#000000;stroke-width:0.8;" x="107.6" xlink:href="#m8493083185" y="277.322468"/>
      </g>
     </g>
     <g id="text_13">
      <!-- 500 -->
      <g transform="translate(64.6 285.518093)scale(0.24 -0.24)">
       <use xlink:href="#STIXGeneral-Regular-53"/>
       <use x="49.999985" xlink:href="#STIXGeneral-Regular-48"/>
       <use x="99.999969" xlink:href="#STIXGeneral-Regular-48"/>
      </g>
     </g>
    </g>
    <g id="ytick_2">
     <g id="line2d_13">
      <g>
       <use style="stroke:#000000;stroke-width:0.8;" x="107.6" xlink:href="#m8493083185" y="212.178574"/>
      </g>
     </g>
     <g id="text_14">
      <!-- 750 -->
      <g transform="translate(64.6 220.374199)scale(0.24 -0.24)">
       <use xlink:href="#STIXGeneral-Regular-55"/>
       <use x="49.999985" xlink:href="#STIXGeneral-Regular-53"/>
       <use x="99.999969" xlink:href="#STIXGeneral-Regular-48"/>
      </g>
     </g>
    </g>
    <g id="ytick_3">
     <g id="line2d_14">
      <g>
       <use style="stroke:#000000;stroke-width:0.8;" x="107.6" xlink:href="#m8493083185" y="147.03468"/>
      </g>
     </g>
     <g id="text_15">
      <!-- 1000 -->
      <g transform="translate(52.6 155.230305)scale(0.24 -0.24)">
       <use xlink:href="#STIXGeneral-Regular-49"/>
       <use x="49.999985" xlink:href="#STIXGeneral-Regular-48"/>
       <use x="99.999969" xlink:href="#STIXGeneral-Regular-48"/>
       <use x="149.999954" xlink:href="#STIXGeneral-Regular-48"/>
      </g>
     </g>
    </g>
    <g id="ytick_4">
     <g id="line2d_15">
      <g>
       <use style="stroke:#000000;stroke-width:0.8;" x="107.6" xlink:href="#m8493083185" y="81.890786"/>
      </g>
     </g>
     <g id="text_16">
      <!-- 1250 -->
      <g transform="translate(52.6 90.086411)scale(0.24 -0.24)">
       <use xlink:href="#STIXGeneral-Regular-49"/>
       <use x="49.999985" xlink:href="#STIXGeneral-Regular-50"/>
       <use x="99.999969" xlink:href="#STIXGeneral-Regular-53"/>
       <use x="149.999954" xlink:href="#STIXGeneral-Regular-48"/>
      </g>
     </g>
    </g>
    <g id="text_17">
     <!-- T$_1$ (ms) -->
     <g transform="translate(42.089062 211.25)rotate(-90)scale(0.3 -0.3)">
      <defs>
       <path d="M 59.296875 49.203125 
L 56.90625 49.203125 
Q 55.296875 57.40625 52.390625 59.703125 
Q 49.5 62 41.5 62 
L 35.59375 62 
L 35.59375 11.09375 
Q 35.59375 5.40625 37.296875 3.796875 
Q 39 2.203125 45.203125 1.90625 
L 45.203125 0 
L 16 0 
L 16 1.90625 
Q 22.296875 2.296875 23.84375 4 
Q 25.40625 5.703125 25.40625 12.296875 
L 25.40625 62 
L 19.40625 62 
Q 11.296875 62 8.4375 59.640625 
Q 5.59375 57.296875 4.09375 49.203125 
L 1.703125 49.203125 
L 2.40625 66.203125 
L 58.59375 66.203125 
z
" id="STIXGeneral-Regular-84"/>
       <path d="M 30.40625 -16.09375 
L 29.203125 -17.703125 
Q 17.59375 -11.09375 11.1875 0.5 
Q 4.796875 12.09375 4.796875 25.203125 
Q 4.796875 52.90625 29.5 67.59375 
L 30.40625 66 
Q 20.203125 57.296875 16.796875 48.84375 
Q 13.40625 40.40625 13.40625 25.5 
Q 13.40625 10.703125 16.90625 1.5 
Q 20.40625 -7.703125 30.40625 -16.09375 
z
" id="STIXGeneral-Regular-40"/>
       <path d="M 77.5 0 
L 55.703125 0 
L 55.703125 1.5 
Q 59.90625 1.90625 61.046875 3.25 
Q 62.203125 4.59375 62.203125 9 
L 62.203125 29.59375 
Q 62.203125 35.59375 60.453125 38.1875 
Q 58.703125 40.796875 54.5 40.796875 
Q 51 40.796875 48.546875 39.390625 
Q 46.09375 38 43.796875 34.703125 
L 43.796875 9.5 
Q 43.796875 4.703125 45.25 3.140625 
Q 46.703125 1.59375 51 1.5 
L 51 0 
L 28.59375 0 
L 28.59375 1.5 
Q 33 1.796875 34.203125 2.9375 
Q 35.40625 4.09375 35.40625 8.59375 
L 35.40625 29.703125 
Q 35.40625 40.796875 28.90625 40.796875 
Q 26.09375 40.796875 22.9375 39.546875 
Q 19.796875 38.296875 18.296875 36.5 
Q 17 35 17 34.796875 
L 17 7 
Q 17 3.796875 18.390625 2.75 
Q 19.796875 1.703125 23.796875 1.5 
L 23.796875 0 
L 1.59375 0 
L 1.59375 1.5 
Q 5.796875 1.59375 7.1875 3.046875 
Q 8.59375 4.5 8.59375 8.796875 
L 8.59375 33.59375 
Q 8.59375 37.296875 7.796875 38.75 
Q 7 40.203125 5.09375 40.203125 
Q 3.59375 40.203125 1.90625 39.796875 
L 1.90625 41.5 
Q 8.703125 43.40625 15.796875 46 
L 16.59375 45.703125 
L 16.59375 38.296875 
L 16.796875 38.296875 
Q 21.296875 43 24.75 44.5 
Q 28.203125 46 32.09375 46 
Q 40 46 42.703125 37.59375 
Q 50.5 46 59 46 
Q 70.59375 46 70.59375 28 
L 70.59375 7.703125 
Q 70.59375 4.40625 71.59375 3.15625 
Q 72.59375 1.90625 74.90625 1.703125 
L 77.5 1.5 
z
" id="STIXGeneral-Regular-109"/>
       <path d="M 15.59375 30.09375 
L 26 23.796875 
Q 31 20.796875 32.890625 18.1875 
Q 34.796875 15.59375 34.796875 11.5 
Q 34.796875 6.5 30.640625 2.75 
Q 26.5 -1 20.796875 -1 
Q 16.09375 -1 13.5 -0.09375 
Q 10.796875 0.796875 8.90625 0.796875 
Q 7.203125 0.796875 6.5 -0.40625 
L 5.203125 -0.40625 
L 5.203125 15.296875 
L 6.796875 15.296875 
Q 8.40625 8 11.40625 4.59375 
Q 14.40625 1.203125 19.5 1.203125 
Q 23.203125 1.203125 25.5 3.296875 
Q 27.796875 5.40625 27.796875 8.59375 
Q 27.796875 13.203125 22.5 16.09375 
L 17.09375 19.09375 
Q 5.09375 25.796875 5.09375 33.59375 
Q 5.09375 39.40625 8.84375 42.65625 
Q 12.59375 45.90625 18.90625 45.90625 
Q 23.296875 45.90625 25.59375 44.796875 
Q 27.40625 44 28.40625 44 
Q 29.09375 44 30 45 
L 31.09375 45 
L 31.59375 31.40625 
L 30.09375 31.40625 
Q 28.40625 38.203125 25.84375 40.953125 
Q 23.296875 43.703125 18.796875 43.703125 
Q 15.40625 43.703125 13.34375 42 
Q 11.296875 40.296875 11.296875 36.90625 
Q 11.296875 35.203125 12.4375 33.25 
Q 13.59375 31.296875 15.59375 30.09375 
z
" id="STIXGeneral-Regular-115"/>
       <path d="M 2.90625 66 
L 4.09375 67.59375 
Q 15.5 60.796875 22 49.1875 
Q 28.5 37.59375 28.5 24.703125 
Q 28.5 -2.59375 3.796875 -17.703125 
L 2.90625 -16.09375 
Q 13.203125 -7.59375 16.546875 0.84375 
Q 19.90625 9.296875 19.90625 24.40625 
Q 19.90625 39.59375 16.546875 48.75 
Q 13.203125 57.90625 2.90625 66 
z
" id="STIXGeneral-Regular-41"/>
      </defs>
      <use transform="translate(0 0.40625)" xlink:href="#STIXGeneral-Regular-84"/>
      <use transform="translate(62.643272 -12.821875)scale(0.7)" xlink:href="#STIXGeneral-Regular-49"/>
      <use transform="translate(102.052636 0.40625)" xlink:href="#STIXGeneral-Regular-32"/>
      <use transform="translate(127.052621 0.40625)" xlink:href="#STIXGeneral-Regular-40"/>
      <use transform="translate(160.352609 0.40625)" xlink:href="#STIXGeneral-Regular-109"/>
      <use transform="translate(238.152597 0.40625)" xlink:href="#STIXGeneral-Regular-115"/>
      <use transform="translate(277.052591 0.40625)" xlink:href="#STIXGeneral-Regular-41"/>
     </g>
    </g>
   </g>
   <g id="LineCollection_1">
    <path clip-path="url(#pbb7f9a66f9)" d="M 233.148828 103.397913 
L 233.148828 60.781818 
" style="fill:none;stroke:#1f77b4;stroke-width:3;"/>
    <path clip-path="url(#pbb7f9a66f9)" d="M 358.572232 201.716849 
L 358.572232 170.154124 
" style="fill:none;stroke:#1f77b4;stroke-width:3;"/>
    <path clip-path="url(#pbb7f9a66f9)" d="M 358.697656 193.741644 
L 358.697656 167.652627 
" style="fill:none;stroke:#1f77b4;stroke-width:3;"/>
    <path clip-path="url(#pbb7f9a66f9)" d="M 358.823079 188.609105 
L 358.823079 164.373265 
" style="fill:none;stroke:#1f77b4;stroke-width:3;"/>
    <path clip-path="url(#pbb7f9a66f9)" d="M 358.948503 175.260396 
L 358.948503 139.509087 
" style="fill:none;stroke:#1f77b4;stroke-width:3;"/>
    <path clip-path="url(#pbb7f9a66f9)" d="M 359.073926 217.442117 
L 359.073926 165.1875 
" style="fill:none;stroke:#1f77b4;stroke-width:3;"/>
    <path clip-path="url(#pbb7f9a66f9)" d="M 359.199349 226.848247 
L 359.199349 179.643839 
" style="fill:none;stroke:#1f77b4;stroke-width:3;"/>
    <path clip-path="url(#pbb7f9a66f9)" d="M 483.995637 211.118103 
L 483.995637 127.978716 
" style="fill:none;stroke:#1f77b4;stroke-width:3;"/>
    <path clip-path="url(#pbb7f9a66f9)" d="M 609.419041 202.781777 
L 609.419041 189.726781 
" style="fill:none;stroke:#1f77b4;stroke-width:3;"/>
    <path clip-path="url(#pbb7f9a66f9)" d="M 734.842446 227.161357 
L 734.842446 148.887163 
" style="fill:none;stroke:#1f77b4;stroke-width:3;"/>
    <path clip-path="url(#pbb7f9a66f9)" d="M 734.967869 206.585635 
L 734.967869 162.696259 
" style="fill:none;stroke:#1f77b4;stroke-width:3;"/>
    <path clip-path="url(#pbb7f9a66f9)" d="M 735.093293 218.459364 
L 735.093293 119.722314 
" style="fill:none;stroke:#1f77b4;stroke-width:3;"/>
    <path clip-path="url(#pbb7f9a66f9)" d="M 735.218716 212.786526 
L 735.218716 152.599763 
" style="fill:none;stroke:#1f77b4;stroke-width:3;"/>
    <path clip-path="url(#pbb7f9a66f9)" d="M 860.26585 268.418182 
L 860.26585 254.511579 
" style="fill:none;stroke:#1f77b4;stroke-width:3;"/>
    <path clip-path="url(#pbb7f9a66f9)" d="M 985.689255 201.037962 
L 985.689255 177.611334 
" style="fill:none;stroke:#1f77b4;stroke-width:3;"/>
    <path clip-path="url(#pbb7f9a66f9)" d="M 1111.112659 207.659322 
L 1111.112659 200.192968 
" style="fill:none;stroke:#1f77b4;stroke-width:3;"/>
    <path clip-path="url(#pbb7f9a66f9)" d="M 1111.238082 209.57769 
L 1111.238082 197.573652 
" style="fill:none;stroke:#1f77b4;stroke-width:3;"/>
    <path clip-path="url(#pbb7f9a66f9)" d="M 1236.536064 211.510751 
L 1236.536064 202.400443 
" style="fill:none;stroke:#1f77b4;stroke-width:3;"/>
    <path clip-path="url(#pbb7f9a66f9)" d="M 1236.661487 203.435749 
L 1236.661487 192.274762 
" style="fill:none;stroke:#1f77b4;stroke-width:3;"/>
    <path clip-path="url(#pbb7f9a66f9)" d="M 1236.78691 201.1025 
L 1236.78691 194.222359 
" style="fill:none;stroke:#1f77b4;stroke-width:3;"/>
    <path clip-path="url(#pbb7f9a66f9)" d="M 1236.912334 200.015248 
L 1236.912334 186.781493 
" style="fill:none;stroke:#1f77b4;stroke-width:3;"/>
    <path clip-path="url(#pbb7f9a66f9)" d="M 1237.037757 198.339898 
L 1237.037757 189.438693 
" style="fill:none;stroke:#1f77b4;stroke-width:3;"/>
    <path clip-path="url(#pbb7f9a66f9)" d="M 1237.163181 202.833771 
L 1237.163181 189.683125 
" style="fill:none;stroke:#1f77b4;stroke-width:3;"/>
    <path clip-path="url(#pbb7f9a66f9)" d="M 1237.288604 199.793718 
L 1237.288604 192.418827 
" style="fill:none;stroke:#1f77b4;stroke-width:3;"/>
    <path clip-path="url(#pbb7f9a66f9)" d="M 1237.414027 207.864004 
L 1237.414027 195.287503 
" style="fill:none;stroke:#1f77b4;stroke-width:3;"/>
    <path clip-path="url(#pbb7f9a66f9)" d="M 1237.539451 194.477255 
L 1237.539451 184.431343 
" style="fill:none;stroke:#1f77b4;stroke-width:3;"/>
    <path clip-path="url(#pbb7f9a66f9)" d="M 1237.664874 192.108852 
L 1237.664874 185.563575 
" style="fill:none;stroke:#1f77b4;stroke-width:3;"/>
    <path clip-path="url(#pbb7f9a66f9)" d="M 1237.790298 219.272438 
L 1237.790298 192.444189 
" style="fill:none;stroke:#1f77b4;stroke-width:3;"/>
    <path clip-path="url(#pbb7f9a66f9)" d="M 1237.915721 214.724444 
L 1237.915721 202.148973 
" style="fill:none;stroke:#1f77b4;stroke-width:3;"/>
    <path clip-path="url(#pbb7f9a66f9)" d="M 1238.041144 200.769809 
L 1238.041144 189.491546 
" style="fill:none;stroke:#1f77b4;stroke-width:3;"/>
    <path clip-path="url(#pbb7f9a66f9)" d="M 1238.166568 197.228052 
L 1238.166568 188.922462 
" style="fill:none;stroke:#1f77b4;stroke-width:3;"/>
    <path clip-path="url(#pbb7f9a66f9)" d="M 1238.291991 200.475641 
L 1238.291991 178.150493 
" style="fill:none;stroke:#1f77b4;stroke-width:3;"/>
    <path clip-path="url(#pbb7f9a66f9)" d="M 1238.417415 200.426539 
L 1238.417415 186.691232 
" style="fill:none;stroke:#1f77b4;stroke-width:3;"/>
    <path clip-path="url(#pbb7f9a66f9)" d="M 1238.542838 199.143506 
L 1238.542838 188.201486 
" style="fill:none;stroke:#1f77b4;stroke-width:3;"/>
    <path clip-path="url(#pbb7f9a66f9)" d="M 1238.668261 212.314308 
L 1238.668261 194.88029 
" style="fill:none;stroke:#1f77b4;stroke-width:3;"/>
    <path clip-path="url(#pbb7f9a66f9)" d="M 1238.793685 207.304336 
L 1238.793685 194.020537 
" style="fill:none;stroke:#1f77b4;stroke-width:3;"/>
    <path clip-path="url(#pbb7f9a66f9)" d="M 1238.919108 202.31341 
L 1238.919108 189.582275 
" style="fill:none;stroke:#1f77b4;stroke-width:3;"/>
    <path clip-path="url(#pbb7f9a66f9)" d="M 1239.044532 198.652422 
L 1239.044532 190.018379 
" style="fill:none;stroke:#1f77b4;stroke-width:3;"/>
    <path clip-path="url(#pbb7f9a66f9)" d="M 1239.169955 201.872403 
L 1239.169955 188.009554 
" style="fill:none;stroke:#1f77b4;stroke-width:3;"/>
    <path clip-path="url(#pbb7f9a66f9)" d="M 1239.295378 202.456335 
L 1239.295378 190.963196 
" style="fill:none;stroke:#1f77b4;stroke-width:3;"/>
    <path clip-path="url(#pbb7f9a66f9)" d="M 1239.420802 199.912603 
L 1239.420802 191.003317 
" style="fill:none;stroke:#1f77b4;stroke-width:3;"/>
    <path clip-path="url(#pbb7f9a66f9)" d="M 1239.546225 205.009937 
L 1239.546225 189.964709 
" style="fill:none;stroke:#1f77b4;stroke-width:3;"/>
    <path clip-path="url(#pbb7f9a66f9)" d="M 1239.671649 209.723455 
L 1239.671649 194.61315 
" style="fill:none;stroke:#1f77b4;stroke-width:3;"/>
    <path clip-path="url(#pbb7f9a66f9)" d="M 1239.797072 191.796032 
L 1239.797072 181.886462 
" style="fill:none;stroke:#1f77b4;stroke-width:3;"/>
    <path clip-path="url(#pbb7f9a66f9)" d="M 1239.922495 189.437371 
L 1239.922495 182.043781 
" style="fill:none;stroke:#1f77b4;stroke-width:3;"/>
    <path clip-path="url(#pbb7f9a66f9)" d="M 1240.047919 197.211399 
L 1240.047919 185.714232 
" style="fill:none;stroke:#1f77b4;stroke-width:3;"/>
    <path clip-path="url(#pbb7f9a66f9)" d="M 1240.173342 200.807956 
L 1240.173342 185.657333 
" style="fill:none;stroke:#1f77b4;stroke-width:3;"/>
    <path clip-path="url(#pbb7f9a66f9)" d="M 1240.298766 195.683147 
L 1240.298766 185.132864 
" style="fill:none;stroke:#1f77b4;stroke-width:3;"/>
    <path clip-path="url(#pbb7f9a66f9)" d="M 1240.424189 192.540854 
L 1240.424189 186.217652 
" style="fill:none;stroke:#1f77b4;stroke-width:3;"/>
    <path clip-path="url(#pbb7f9a66f9)" d="M 1240.549612 199.186706 
L 1240.549612 189.025482 
" style="fill:none;stroke:#1f77b4;stroke-width:3;"/>
    <path clip-path="url(#pbb7f9a66f9)" d="M 1240.675036 197.442815 
L 1240.675036 190.062692 
" style="fill:none;stroke:#1f77b4;stroke-width:3;"/>
    <path clip-path="url(#pbb7f9a66f9)" d="M 1240.800459 201.031147 
L 1240.800459 188.117029 
" style="fill:none;stroke:#1f77b4;stroke-width:3;"/>
    <path clip-path="url(#pbb7f9a66f9)" d="M 1240.925883 186.812451 
L 1240.925883 170.214573 
" style="fill:none;stroke:#1f77b4;stroke-width:3;"/>
    <path clip-path="url(#pbb7f9a66f9)" d="M 1241.051306 190.299373 
L 1241.051306 178.66983 
" style="fill:none;stroke:#1f77b4;stroke-width:3;"/>
    <path clip-path="url(#pbb7f9a66f9)" d="M 1241.176729 188.187592 
L 1241.176729 179.841455 
" style="fill:none;stroke:#1f77b4;stroke-width:3;"/>
    <path clip-path="url(#pbb7f9a66f9)" d="M 1361.959468 208.714873 
L 1361.959468 189.511755 
" style="fill:none;stroke:#1f77b4;stroke-width:3;"/>
   </g>
   <g id="line2d_16">
    <defs>
     <path d="M 10 0 
L -10 -0 
" id="m66ff1298ae" style="stroke:#1f77b4;"/>
    </defs>
    <g clip-path="url(#pbb7f9a66f9)">
     <use style="fill:#1f77b4;stroke:#1f77b4;" x="233.148828" xlink:href="#m66ff1298ae" y="103.397913"/>
     <use style="fill:#1f77b4;stroke:#1f77b4;" x="358.572232" xlink:href="#m66ff1298ae" y="201.716849"/>
     <use style="fill:#1f77b4;stroke:#1f77b4;" x="358.697656" xlink:href="#m66ff1298ae" y="193.741644"/>
     <use style="fill:#1f77b4;stroke:#1f77b4;" x="358.823079" xlink:href="#m66ff1298ae" y="188.609105"/>
     <use style="fill:#1f77b4;stroke:#1f77b4;" x="358.948503" xlink:href="#m66ff1298ae" y="175.260396"/>
     <use style="fill:#1f77b4;stroke:#1f77b4;" x="359.073926" xlink:href="#m66ff1298ae" y="217.442117"/>
     <use style="fill:#1f77b4;stroke:#1f77b4;" x="359.199349" xlink:href="#m66ff1298ae" y="226.848247"/>
     <use style="fill:#1f77b4;stroke:#1f77b4;" x="483.995637" xlink:href="#m66ff1298ae" y="211.118103"/>
     <use style="fill:#1f77b4;stroke:#1f77b4;" x="609.419041" xlink:href="#m66ff1298ae" y="202.781777"/>
     <use style="fill:#1f77b4;stroke:#1f77b4;" x="734.842446" xlink:href="#m66ff1298ae" y="227.161357"/>
     <use style="fill:#1f77b4;stroke:#1f77b4;" x="734.967869" xlink:href="#m66ff1298ae" y="206.585635"/>
     <use style="fill:#1f77b4;stroke:#1f77b4;" x="735.093293" xlink:href="#m66ff1298ae" y="218.459364"/>
     <use style="fill:#1f77b4;stroke:#1f77b4;" x="735.218716" xlink:href="#m66ff1298ae" y="212.786526"/>
     <use style="fill:#1f77b4;stroke:#1f77b4;" x="860.26585" xlink:href="#m66ff1298ae" y="268.418182"/>
     <use style="fill:#1f77b4;stroke:#1f77b4;" x="985.689255" xlink:href="#m66ff1298ae" y="201.037962"/>
     <use style="fill:#1f77b4;stroke:#1f77b4;" x="1111.112659" xlink:href="#m66ff1298ae" y="207.659322"/>
     <use style="fill:#1f77b4;stroke:#1f77b4;" x="1111.238082" xlink:href="#m66ff1298ae" y="209.57769"/>
     <use style="fill:#1f77b4;stroke:#1f77b4;" x="1236.536064" xlink:href="#m66ff1298ae" y="211.510751"/>
     <use style="fill:#1f77b4;stroke:#1f77b4;" x="1236.661487" xlink:href="#m66ff1298ae" y="203.435749"/>
     <use style="fill:#1f77b4;stroke:#1f77b4;" x="1236.78691" xlink:href="#m66ff1298ae" y="201.1025"/>
     <use style="fill:#1f77b4;stroke:#1f77b4;" x="1236.912334" xlink:href="#m66ff1298ae" y="200.015248"/>
     <use style="fill:#1f77b4;stroke:#1f77b4;" x="1237.037757" xlink:href="#m66ff1298ae" y="198.339898"/>
     <use style="fill:#1f77b4;stroke:#1f77b4;" x="1237.163181" xlink:href="#m66ff1298ae" y="202.833771"/>
     <use style="fill:#1f77b4;stroke:#1f77b4;" x="1237.288604" xlink:href="#m66ff1298ae" y="199.793718"/>
     <use style="fill:#1f77b4;stroke:#1f77b4;" x="1237.414027" xlink:href="#m66ff1298ae" y="207.864004"/>
     <use style="fill:#1f77b4;stroke:#1f77b4;" x="1237.539451" xlink:href="#m66ff1298ae" y="194.477255"/>
     <use style="fill:#1f77b4;stroke:#1f77b4;" x="1237.664874" xlink:href="#m66ff1298ae" y="192.108852"/>
     <use style="fill:#1f77b4;stroke:#1f77b4;" x="1237.790298" xlink:href="#m66ff1298ae" y="219.272438"/>
     <use style="fill:#1f77b4;stroke:#1f77b4;" x="1237.915721" xlink:href="#m66ff1298ae" y="214.724444"/>
     <use style="fill:#1f77b4;stroke:#1f77b4;" x="1238.041144" xlink:href="#m66ff1298ae" y="200.769809"/>
     <use style="fill:#1f77b4;stroke:#1f77b4;" x="1238.166568" xlink:href="#m66ff1298ae" y="197.228052"/>
     <use style="fill:#1f77b4;stroke:#1f77b4;" x="1238.291991" xlink:href="#m66ff1298ae" y="200.475641"/>
     <use style="fill:#1f77b4;stroke:#1f77b4;" x="1238.417415" xlink:href="#m66ff1298ae" y="200.426539"/>
     <use style="fill:#1f77b4;stroke:#1f77b4;" x="1238.542838" xlink:href="#m66ff1298ae" y="199.143506"/>
     <use style="fill:#1f77b4;stroke:#1f77b4;" x="1238.668261" xlink:href="#m66ff1298ae" y="212.314308"/>
     <use style="fill:#1f77b4;stroke:#1f77b4;" x="1238.793685" xlink:href="#m66ff1298ae" y="207.304336"/>
     <use style="fill:#1f77b4;stroke:#1f77b4;" x="1238.919108" xlink:href="#m66ff1298ae" y="202.31341"/>
     <use style="fill:#1f77b4;stroke:#1f77b4;" x="1239.044532" xlink:href="#m66ff1298ae" y="198.652422"/>
     <use style="fill:#1f77b4;stroke:#1f77b4;" x="1239.169955" xlink:href="#m66ff1298ae" y="201.872403"/>
     <use style="fill:#1f77b4;stroke:#1f77b4;" x="1239.295378" xlink:href="#m66ff1298ae" y="202.456335"/>
     <use style="fill:#1f77b4;stroke:#1f77b4;" x="1239.420802" xlink:href="#m66ff1298ae" y="199.912603"/>
     <use style="fill:#1f77b4;stroke:#1f77b4;" x="1239.546225" xlink:href="#m66ff1298ae" y="205.009937"/>
     <use style="fill:#1f77b4;stroke:#1f77b4;" x="1239.671649" xlink:href="#m66ff1298ae" y="209.723455"/>
     <use style="fill:#1f77b4;stroke:#1f77b4;" x="1239.797072" xlink:href="#m66ff1298ae" y="191.796032"/>
     <use style="fill:#1f77b4;stroke:#1f77b4;" x="1239.922495" xlink:href="#m66ff1298ae" y="189.437371"/>
     <use style="fill:#1f77b4;stroke:#1f77b4;" x="1240.047919" xlink:href="#m66ff1298ae" y="197.211399"/>
     <use style="fill:#1f77b4;stroke:#1f77b4;" x="1240.173342" xlink:href="#m66ff1298ae" y="200.807956"/>
     <use style="fill:#1f77b4;stroke:#1f77b4;" x="1240.298766" xlink:href="#m66ff1298ae" y="195.683147"/>
     <use style="fill:#1f77b4;stroke:#1f77b4;" x="1240.424189" xlink:href="#m66ff1298ae" y="192.540854"/>
     <use style="fill:#1f77b4;stroke:#1f77b4;" x="1240.549612" xlink:href="#m66ff1298ae" y="199.186706"/>
     <use style="fill:#1f77b4;stroke:#1f77b4;" x="1240.675036" xlink:href="#m66ff1298ae" y="197.442815"/>
     <use style="fill:#1f77b4;stroke:#1f77b4;" x="1240.800459" xlink:href="#m66ff1298ae" y="201.031147"/>
     <use style="fill:#1f77b4;stroke:#1f77b4;" x="1240.925883" xlink:href="#m66ff1298ae" y="186.812451"/>
     <use style="fill:#1f77b4;stroke:#1f77b4;" x="1241.051306" xlink:href="#m66ff1298ae" y="190.299373"/>
     <use style="fill:#1f77b4;stroke:#1f77b4;" x="1241.176729" xlink:href="#m66ff1298ae" y="188.187592"/>
     <use style="fill:#1f77b4;stroke:#1f77b4;" x="1361.959468" xlink:href="#m66ff1298ae" y="208.714873"/>
    </g>
   </g>
   <g id="line2d_17">
    <g clip-path="url(#pbb7f9a66f9)">
     <use style="fill:#1f77b4;stroke:#1f77b4;" x="233.148828" xlink:href="#m66ff1298ae" y="60.781818"/>
     <use style="fill:#1f77b4;stroke:#1f77b4;" x="358.572232" xlink:href="#m66ff1298ae" y="170.154124"/>
     <use style="fill:#1f77b4;stroke:#1f77b4;" x="358.697656" xlink:href="#m66ff1298ae" y="167.652627"/>
     <use style="fill:#1f77b4;stroke:#1f77b4;" x="358.823079" xlink:href="#m66ff1298ae" y="164.373265"/>
     <use style="fill:#1f77b4;stroke:#1f77b4;" x="358.948503" xlink:href="#m66ff1298ae" y="139.509087"/>
     <use style="fill:#1f77b4;stroke:#1f77b4;" x="359.073926" xlink:href="#m66ff1298ae" y="165.1875"/>
     <use style="fill:#1f77b4;stroke:#1f77b4;" x="359.199349" xlink:href="#m66ff1298ae" y="179.643839"/>
     <use style="fill:#1f77b4;stroke:#1f77b4;" x="483.995637" xlink:href="#m66ff1298ae" y="127.978716"/>
     <use style="fill:#1f77b4;stroke:#1f77b4;" x="609.419041" xlink:href="#m66ff1298ae" y="189.726781"/>
     <use style="fill:#1f77b4;stroke:#1f77b4;" x="734.842446" xlink:href="#m66ff1298ae" y="148.887163"/>
     <use style="fill:#1f77b4;stroke:#1f77b4;" x="734.967869" xlink:href="#m66ff1298ae" y="162.696259"/>
     <use style="fill:#1f77b4;stroke:#1f77b4;" x="735.093293" xlink:href="#m66ff1298ae" y="119.722314"/>
     <use style="fill:#1f77b4;stroke:#1f77b4;" x="735.218716" xlink:href="#m66ff1298ae" y="152.599763"/>
     <use style="fill:#1f77b4;stroke:#1f77b4;" x="860.26585" xlink:href="#m66ff1298ae" y="254.511579"/>
     <use style="fill:#1f77b4;stroke:#1f77b4;" x="985.689255" xlink:href="#m66ff1298ae" y="177.611334"/>
     <use style="fill:#1f77b4;stroke:#1f77b4;" x="1111.112659" xlink:href="#m66ff1298ae" y="200.192968"/>
     <use style="fill:#1f77b4;stroke:#1f77b4;" x="1111.238082" xlink:href="#m66ff1298ae" y="197.573652"/>
     <use style="fill:#1f77b4;stroke:#1f77b4;" x="1236.536064" xlink:href="#m66ff1298ae" y="202.400443"/>
     <use style="fill:#1f77b4;stroke:#1f77b4;" x="1236.661487" xlink:href="#m66ff1298ae" y="192.274762"/>
     <use style="fill:#1f77b4;stroke:#1f77b4;" x="1236.78691" xlink:href="#m66ff1298ae" y="194.222359"/>
     <use style="fill:#1f77b4;stroke:#1f77b4;" x="1236.912334" xlink:href="#m66ff1298ae" y="186.781493"/>
     <use style="fill:#1f77b4;stroke:#1f77b4;" x="1237.037757" xlink:href="#m66ff1298ae" y="189.438693"/>
     <use style="fill:#1f77b4;stroke:#1f77b4;" x="1237.163181" xlink:href="#m66ff1298ae" y="189.683125"/>
     <use style="fill:#1f77b4;stroke:#1f77b4;" x="1237.288604" xlink:href="#m66ff1298ae" y="192.418827"/>
     <use style="fill:#1f77b4;stroke:#1f77b4;" x="1237.414027" xlink:href="#m66ff1298ae" y="195.287503"/>
     <use style="fill:#1f77b4;stroke:#1f77b4;" x="1237.539451" xlink:href="#m66ff1298ae" y="184.431343"/>
     <use style="fill:#1f77b4;stroke:#1f77b4;" x="1237.664874" xlink:href="#m66ff1298ae" y="185.563575"/>
     <use style="fill:#1f77b4;stroke:#1f77b4;" x="1237.790298" xlink:href="#m66ff1298ae" y="192.444189"/>
     <use style="fill:#1f77b4;stroke:#1f77b4;" x="1237.915721" xlink:href="#m66ff1298ae" y="202.148973"/>
     <use style="fill:#1f77b4;stroke:#1f77b4;" x="1238.041144" xlink:href="#m66ff1298ae" y="189.491546"/>
     <use style="fill:#1f77b4;stroke:#1f77b4;" x="1238.166568" xlink:href="#m66ff1298ae" y="188.922462"/>
     <use style="fill:#1f77b4;stroke:#1f77b4;" x="1238.291991" xlink:href="#m66ff1298ae" y="178.150493"/>
     <use style="fill:#1f77b4;stroke:#1f77b4;" x="1238.417415" xlink:href="#m66ff1298ae" y="186.691232"/>
     <use style="fill:#1f77b4;stroke:#1f77b4;" x="1238.542838" xlink:href="#m66ff1298ae" y="188.201486"/>
     <use style="fill:#1f77b4;stroke:#1f77b4;" x="1238.668261" xlink:href="#m66ff1298ae" y="194.88029"/>
     <use style="fill:#1f77b4;stroke:#1f77b4;" x="1238.793685" xlink:href="#m66ff1298ae" y="194.020537"/>
     <use style="fill:#1f77b4;stroke:#1f77b4;" x="1238.919108" xlink:href="#m66ff1298ae" y="189.582275"/>
     <use style="fill:#1f77b4;stroke:#1f77b4;" x="1239.044532" xlink:href="#m66ff1298ae" y="190.018379"/>
     <use style="fill:#1f77b4;stroke:#1f77b4;" x="1239.169955" xlink:href="#m66ff1298ae" y="188.009554"/>
     <use style="fill:#1f77b4;stroke:#1f77b4;" x="1239.295378" xlink:href="#m66ff1298ae" y="190.963196"/>
     <use style="fill:#1f77b4;stroke:#1f77b4;" x="1239.420802" xlink:href="#m66ff1298ae" y="191.003317"/>
     <use style="fill:#1f77b4;stroke:#1f77b4;" x="1239.546225" xlink:href="#m66ff1298ae" y="189.964709"/>
     <use style="fill:#1f77b4;stroke:#1f77b4;" x="1239.671649" xlink:href="#m66ff1298ae" y="194.61315"/>
     <use style="fill:#1f77b4;stroke:#1f77b4;" x="1239.797072" xlink:href="#m66ff1298ae" y="181.886462"/>
     <use style="fill:#1f77b4;stroke:#1f77b4;" x="1239.922495" xlink:href="#m66ff1298ae" y="182.043781"/>
     <use style="fill:#1f77b4;stroke:#1f77b4;" x="1240.047919" xlink:href="#m66ff1298ae" y="185.714232"/>
     <use style="fill:#1f77b4;stroke:#1f77b4;" x="1240.173342" xlink:href="#m66ff1298ae" y="185.657333"/>
     <use style="fill:#1f77b4;stroke:#1f77b4;" x="1240.298766" xlink:href="#m66ff1298ae" y="185.132864"/>
     <use style="fill:#1f77b4;stroke:#1f77b4;" x="1240.424189" xlink:href="#m66ff1298ae" y="186.217652"/>
     <use style="fill:#1f77b4;stroke:#1f77b4;" x="1240.549612" xlink:href="#m66ff1298ae" y="189.025482"/>
     <use style="fill:#1f77b4;stroke:#1f77b4;" x="1240.675036" xlink:href="#m66ff1298ae" y="190.062692"/>
     <use style="fill:#1f77b4;stroke:#1f77b4;" x="1240.800459" xlink:href="#m66ff1298ae" y="188.117029"/>
     <use style="fill:#1f77b4;stroke:#1f77b4;" x="1240.925883" xlink:href="#m66ff1298ae" y="170.214573"/>
     <use style="fill:#1f77b4;stroke:#1f77b4;" x="1241.051306" xlink:href="#m66ff1298ae" y="178.66983"/>
     <use style="fill:#1f77b4;stroke:#1f77b4;" x="1241.176729" xlink:href="#m66ff1298ae" y="179.841455"/>
     <use style="fill:#1f77b4;stroke:#1f77b4;" x="1361.959468" xlink:href="#m66ff1298ae" y="189.511755"/>
    </g>
   </g>
   <g id="line2d_18">
    <defs>
     <path d="M 0 5 
C 1.326016 5 2.597899 4.473168 3.535534 3.535534 
C 4.473168 2.597899 5 1.326016 5 0 
C 5 -1.326016 4.473168 -2.597899 3.535534 -3.535534 
C 2.597899 -4.473168 1.326016 -5 0 -5 
C -1.326016 -5 -2.597899 -4.473168 -3.535534 -3.535534 
C -4.473168 -2.597899 -5 -1.326016 -5 0 
C -5 1.326016 -4.473168 2.597899 -3.535534 3.535534 
C -2.597899 4.473168 -1.326016 5 0 5 
z
" id="m4e14b4882c" style="stroke:#1f77b4;"/>
    </defs>
    <g clip-path="url(#pbb7f9a66f9)">
     <use style="fill:#1f77b4;stroke:#1f77b4;" x="233.148828" xlink:href="#m4e14b4882c" y="82.089865"/>
     <use style="fill:#1f77b4;stroke:#1f77b4;" x="358.572232" xlink:href="#m4e14b4882c" y="185.935486"/>
     <use style="fill:#1f77b4;stroke:#1f77b4;" x="358.697656" xlink:href="#m4e14b4882c" y="180.697136"/>
     <use style="fill:#1f77b4;stroke:#1f77b4;" x="358.823079" xlink:href="#m4e14b4882c" y="176.491185"/>
     <use style="fill:#1f77b4;stroke:#1f77b4;" x="358.948503" xlink:href="#m4e14b4882c" y="157.384742"/>
     <use style="fill:#1f77b4;stroke:#1f77b4;" x="359.073926" xlink:href="#m4e14b4882c" y="191.314809"/>
     <use style="fill:#1f77b4;stroke:#1f77b4;" x="359.199349" xlink:href="#m4e14b4882c" y="203.246043"/>
     <use style="fill:#1f77b4;stroke:#1f77b4;" x="483.995637" xlink:href="#m4e14b4882c" y="169.548409"/>
     <use style="fill:#1f77b4;stroke:#1f77b4;" x="609.419041" xlink:href="#m4e14b4882c" y="196.254279"/>
     <use style="fill:#1f77b4;stroke:#1f77b4;" x="734.842446" xlink:href="#m4e14b4882c" y="188.02426"/>
     <use style="fill:#1f77b4;stroke:#1f77b4;" x="734.967869" xlink:href="#m4e14b4882c" y="184.640947"/>
     <use style="fill:#1f77b4;stroke:#1f77b4;" x="735.093293" xlink:href="#m4e14b4882c" y="169.090839"/>
     <use style="fill:#1f77b4;stroke:#1f77b4;" x="735.218716" xlink:href="#m4e14b4882c" y="182.693144"/>
     <use style="fill:#1f77b4;stroke:#1f77b4;" x="860.26585" xlink:href="#m4e14b4882c" y="261.464881"/>
     <use style="fill:#1f77b4;stroke:#1f77b4;" x="985.689255" xlink:href="#m4e14b4882c" y="189.324648"/>
     <use style="fill:#1f77b4;stroke:#1f77b4;" x="1111.112659" xlink:href="#m4e14b4882c" y="203.926145"/>
     <use style="fill:#1f77b4;stroke:#1f77b4;" x="1111.238082" xlink:href="#m4e14b4882c" y="203.575671"/>
     <use style="fill:#1f77b4;stroke:#1f77b4;" x="1236.536064" xlink:href="#m4e14b4882c" y="206.955597"/>
     <use style="fill:#1f77b4;stroke:#1f77b4;" x="1236.661487" xlink:href="#m4e14b4882c" y="197.855255"/>
     <use style="fill:#1f77b4;stroke:#1f77b4;" x="1236.78691" xlink:href="#m4e14b4882c" y="197.66243"/>
     <use style="fill:#1f77b4;stroke:#1f77b4;" x="1236.912334" xlink:href="#m4e14b4882c" y="193.398371"/>
     <use style="fill:#1f77b4;stroke:#1f77b4;" x="1237.037757" xlink:href="#m4e14b4882c" y="193.889295"/>
     <use style="fill:#1f77b4;stroke:#1f77b4;" x="1237.163181" xlink:href="#m4e14b4882c" y="196.258448"/>
     <use style="fill:#1f77b4;stroke:#1f77b4;" x="1237.288604" xlink:href="#m4e14b4882c" y="196.106272"/>
     <use style="fill:#1f77b4;stroke:#1f77b4;" x="1237.414027" xlink:href="#m4e14b4882c" y="201.575754"/>
     <use style="fill:#1f77b4;stroke:#1f77b4;" x="1237.539451" xlink:href="#m4e14b4882c" y="189.454299"/>
     <use style="fill:#1f77b4;stroke:#1f77b4;" x="1237.664874" xlink:href="#m4e14b4882c" y="188.836214"/>
     <use style="fill:#1f77b4;stroke:#1f77b4;" x="1237.790298" xlink:href="#m4e14b4882c" y="205.858313"/>
     <use style="fill:#1f77b4;stroke:#1f77b4;" x="1237.915721" xlink:href="#m4e14b4882c" y="208.436708"/>
     <use style="fill:#1f77b4;stroke:#1f77b4;" x="1238.041144" xlink:href="#m4e14b4882c" y="195.130677"/>
     <use style="fill:#1f77b4;stroke:#1f77b4;" x="1238.166568" xlink:href="#m4e14b4882c" y="193.075257"/>
     <use style="fill:#1f77b4;stroke:#1f77b4;" x="1238.291991" xlink:href="#m4e14b4882c" y="189.313067"/>
     <use style="fill:#1f77b4;stroke:#1f77b4;" x="1238.417415" xlink:href="#m4e14b4882c" y="193.558885"/>
     <use style="fill:#1f77b4;stroke:#1f77b4;" x="1238.542838" xlink:href="#m4e14b4882c" y="193.672496"/>
     <use style="fill:#1f77b4;stroke:#1f77b4;" x="1238.668261" xlink:href="#m4e14b4882c" y="203.597299"/>
     <use style="fill:#1f77b4;stroke:#1f77b4;" x="1238.793685" xlink:href="#m4e14b4882c" y="200.662436"/>
     <use style="fill:#1f77b4;stroke:#1f77b4;" x="1238.919108" xlink:href="#m4e14b4882c" y="195.947842"/>
     <use style="fill:#1f77b4;stroke:#1f77b4;" x="1239.044532" xlink:href="#m4e14b4882c" y="194.335401"/>
     <use style="fill:#1f77b4;stroke:#1f77b4;" x="1239.169955" xlink:href="#m4e14b4882c" y="194.940978"/>
     <use style="fill:#1f77b4;stroke:#1f77b4;" x="1239.295378" xlink:href="#m4e14b4882c" y="196.709765"/>
     <use style="fill:#1f77b4;stroke:#1f77b4;" x="1239.420802" xlink:href="#m4e14b4882c" y="195.45796"/>
     <use style="fill:#1f77b4;stroke:#1f77b4;" x="1239.546225" xlink:href="#m4e14b4882c" y="197.487323"/>
     <use style="fill:#1f77b4;stroke:#1f77b4;" x="1239.671649" xlink:href="#m4e14b4882c" y="202.168302"/>
     <use style="fill:#1f77b4;stroke:#1f77b4;" x="1239.797072" xlink:href="#m4e14b4882c" y="186.841247"/>
     <use style="fill:#1f77b4;stroke:#1f77b4;" x="1239.922495" xlink:href="#m4e14b4882c" y="185.740576"/>
     <use style="fill:#1f77b4;stroke:#1f77b4;" x="1240.047919" xlink:href="#m4e14b4882c" y="191.462815"/>
     <use style="fill:#1f77b4;stroke:#1f77b4;" x="1240.173342" xlink:href="#m4e14b4882c" y="193.232645"/>
     <use style="fill:#1f77b4;stroke:#1f77b4;" x="1240.298766" xlink:href="#m4e14b4882c" y="190.408006"/>
     <use style="fill:#1f77b4;stroke:#1f77b4;" x="1240.424189" xlink:href="#m4e14b4882c" y="189.379253"/>
     <use style="fill:#1f77b4;stroke:#1f77b4;" x="1240.549612" xlink:href="#m4e14b4882c" y="194.106094"/>
     <use style="fill:#1f77b4;stroke:#1f77b4;" x="1240.675036" xlink:href="#m4e14b4882c" y="193.752754"/>
     <use style="fill:#1f77b4;stroke:#1f77b4;" x="1240.800459" xlink:href="#m4e14b4882c" y="194.574088"/>
     <use style="fill:#1f77b4;stroke:#1f77b4;" x="1240.925883" xlink:href="#m4e14b4882c" y="178.513512"/>
     <use style="fill:#1f77b4;stroke:#1f77b4;" x="1241.051306" xlink:href="#m4e14b4882c" y="184.484602"/>
     <use style="fill:#1f77b4;stroke:#1f77b4;" x="1241.176729" xlink:href="#m4e14b4882c" y="184.014523"/>
     <use style="fill:#1f77b4;stroke:#1f77b4;" x="1361.959468" xlink:href="#m4e14b4882c" y="199.113314"/>
    </g>
   </g>
   <g id="patch_3">
    <path d="M 107.6 278.8 
L 107.6 50.4 
" style="fill:none;stroke:#000000;stroke-linecap:square;stroke-linejoin:miter;stroke-width:4;"/>
   </g>
   <g id="patch_4">
    <path d="M 1418.4 278.8 
L 1418.4 50.4 
" style="fill:none;stroke:#000000;stroke-linecap:square;stroke-linejoin:miter;stroke-width:4;"/>
   </g>
   <g id="patch_5">
    <path d="M 107.6 278.8 
L 1418.4 278.8 
" style="fill:none;stroke:#000000;stroke-linecap:square;stroke-linejoin:miter;stroke-width:4;"/>
   </g>
   <g id="patch_6">
    <path d="M 107.6 50.4 
L 1418.4 50.4 
" style="fill:none;stroke:#000000;stroke-linecap:square;stroke-linejoin:miter;stroke-width:4;"/>
   </g>
   <g id="text_18">
    <!-- WM - Genu -->
    <g transform="translate(685.685 43.455)scale(0.32 -0.32)">
     <defs>
      <path d="M 93.203125 66.203125 
L 93.203125 64.296875 
Q 89.203125 63.5 87.75 62.34375 
Q 86.296875 61.203125 84.90625 57.296875 
Q 73.5 26.703125 64.5 -1.09375 
L 63 -1.09375 
Q 56.90625 15.796875 47 41.203125 
L 31.59375 -1.09375 
L 30.09375 -1.09375 
Q 26.703125 9 19.953125 27.390625 
Q 13.203125 45.796875 10.90625 52.296875 
Q 8.40625 59.5 6.34375 61.84375 
Q 4.296875 64.203125 0.5 64.296875 
L 0.5 66.203125 
L 24.90625 66.203125 
L 24.90625 64.296875 
Q 21.203125 64.203125 19.84375 63.5 
Q 18.5 62.796875 18.5 61.203125 
Q 18.5 59.5 19.59375 56.5 
L 34 18.90625 
L 44.40625 47.203125 
L 41.59375 54.703125 
Q 39.203125 61.203125 37.5 62.703125 
Q 35.796875 64.203125 31.40625 64.296875 
L 31.40625 66.203125 
L 57.90625 66.203125 
L 57.90625 64.296875 
Q 50.203125 64.09375 50.203125 60.796875 
Q 50.203125 59.5 51.90625 55 
L 66.203125 18.59375 
L 78.796875 52.5 
Q 80.5 57.296875 80.5 60.203125 
Q 80.5 64.203125 73.5 64.296875 
L 73.5 66.203125 
z
" id="STIXGeneral-Regular-87"/>
      <path d="M 86.40625 0 
L 58.40625 0 
L 58.40625 1.90625 
Q 64.296875 2.296875 65.84375 4.140625 
Q 67.40625 6 67.40625 12.296875 
L 67.40625 57.203125 
L 41.90625 0 
L 40.5 0 
L 15.296875 54.90625 
L 15.296875 15.09375 
Q 15.296875 7 17 4.59375 
Q 18.703125 2.203125 24.59375 1.90625 
L 24.59375 0 
L 1.203125 0 
L 1.203125 1.90625 
Q 5.59375 2.203125 7.5 3.203125 
Q 9.40625 4.203125 10.15625 6.75 
Q 10.90625 9.296875 10.90625 15.09375 
L 10.90625 54.90625 
Q 10.90625 60.59375 9.203125 62.25 
Q 7.5 63.90625 1.40625 64.296875 
L 1.40625 66.203125 
L 21.203125 66.203125 
L 44.296875 16 
L 66.40625 66.203125 
L 86.296875 66.203125 
L 86.296875 64.296875 
Q 80.90625 64.203125 79.25 62.390625 
Q 77.59375 60.59375 77.59375 55 
L 77.59375 11.203125 
Q 77.59375 5.90625 79.25 4.09375 
Q 80.90625 2.296875 86.40625 1.90625 
z
" id="STIXGeneral-Regular-77"/>
      <path d="M 28.5 19.40625 
L 3.90625 19.40625 
L 3.90625 25.703125 
L 28.5 25.703125 
z
" id="STIXGeneral-Regular-45"/>
      <path d="M 70.90625 35.40625 
L 70.90625 33.59375 
Q 66.5 33.203125 65.203125 31.796875 
Q 63.90625 30.40625 63.90625 25.59375 
L 63.90625 5.59375 
Q 55.296875 -1.40625 38.5 -1.40625 
Q 30.703125 -1.40625 23.546875 1.390625 
Q 16.40625 4.203125 11.5 9.296875 
Q 3.203125 18 3.203125 32.703125 
Q 3.203125 49.296875 13.90625 59 
Q 23.296875 67.59375 37.796875 67.59375 
Q 44.203125 67.59375 51.09375 65.296875 
Q 53.796875 64.296875 55.5 64.296875 
Q 57.09375 64.296875 58.296875 65.25 
Q 59.5 66.203125 60 67.59375 
L 62.203125 67.59375 
L 63 46.5 
L 60.703125 46.5 
Q 57.5 54.296875 53.59375 58.09375 
Q 47.796875 63.59375 39 63.59375 
Q 29 63.59375 22.296875 56.703125 
Q 14.59375 49 14.59375 32.40625 
Q 14.59375 18.59375 21.796875 10.59375 
Q 29 2.59375 40.90625 2.59375 
Q 46.59375 2.59375 50.390625 4.390625 
Q 54.203125 6.203125 54.203125 8.703125 
L 54.203125 24.40625 
Q 54.203125 30.203125 52.75 31.640625 
Q 51.296875 33.09375 45.296875 33.59375 
L 45.296875 35.40625 
z
" id="STIXGeneral-Regular-71"/>
      <path d="M 48.5 0 
L 27.703125 0 
L 27.796875 1.5 
Q 31.5 1.796875 32.75 3.640625 
Q 34 5.5 34 10.5 
L 34 30.40625 
Q 34 40.5 26.703125 40.5 
Q 24.203125 40.5 22 39.296875 
Q 19.796875 38.09375 16.40625 34.796875 
L 16.40625 7.203125 
Q 16.40625 4.203125 17.75 3 
Q 19.09375 1.796875 22.90625 1.5 
L 22.90625 0 
L 1.796875 0 
L 1.796875 1.5 
Q 5.59375 1.796875 6.796875 3.34375 
Q 8 4.90625 8 9.40625 
L 8 33.703125 
Q 8 37.40625 7.296875 38.796875 
Q 6.59375 40.203125 4.5 40.203125 
Q 2.5 40.203125 1.59375 39.796875 
L 1.59375 41.5 
Q 8.59375 43.5 15.296875 46 
L 16.09375 45.703125 
L 16.09375 37.90625 
L 16.203125 37.90625 
Q 23.296875 46 30.59375 46 
Q 36.296875 46 39.34375 42 
Q 42.40625 38 42.40625 30.59375 
L 42.40625 8.5 
Q 42.40625 4.5 43.59375 3.203125 
Q 44.796875 1.90625 48.5 1.5 
z
" id="STIXGeneral-Regular-110"/>
      <path d="M 48 5 
L 48 3.59375 
Q 40.203125 1.5 34.296875 -0.90625 
L 33.796875 -0.59375 
L 33.796875 7.59375 
L 33.59375 7.59375 
Q 27.296875 -1 19.296875 -1 
Q 13.59375 -1 10.34375 2.5 
Q 7.09375 6 7.09375 11.796875 
L 7.09375 36.90625 
Q 7.09375 40.59375 5.796875 42 
Q 4.5 43.40625 0.90625 43.59375 
L 0.90625 45 
L 15.5 45 
L 15.5 12.703125 
Q 15.5 9.296875 17.546875 7.046875 
Q 19.59375 4.796875 22.59375 4.796875 
Q 27.5 4.796875 31 7.90625 
Q 32.296875 9.09375 32.796875 10.140625 
Q 33.296875 11.203125 33.296875 13.703125 
L 33.296875 36.796875 
Q 33.296875 40.703125 31.890625 41.84375 
Q 30.5 43 25.90625 43.296875 
L 25.90625 45 
L 41.703125 45 
L 41.703125 10.703125 
Q 41.703125 7.203125 42.84375 6.09375 
Q 44 5 47.40625 5 
z
" id="STIXGeneral-Regular-117"/>
     </defs>
     <use xlink:href="#STIXGeneral-Regular-87"/>
     <use x="94.399994" xlink:href="#STIXGeneral-Regular-77"/>
     <use x="183.299988" xlink:href="#STIXGeneral-Regular-32"/>
     <use x="208.299973" xlink:href="#STIXGeneral-Regular-45"/>
     <use x="241.59996" xlink:href="#STIXGeneral-Regular-32"/>
     <use x="266.599945" xlink:href="#STIXGeneral-Regular-71"/>
     <use x="338.799927" xlink:href="#STIXGeneral-Regular-101"/>
     <use x="383.199921" xlink:href="#STIXGeneral-Regular-110"/>
     <use x="433.199905" xlink:href="#STIXGeneral-Regular-117"/>
    </g>
   </g>
  </g>
 </g>
 <defs>
  <clipPath id="pbb7f9a66f9">
   <rect height="228.4" width="1310.8" x="107.6" y="50.4"/>
  </clipPath>
 </defs>
</svg>
