<?xml version="1.0" encoding="utf-8" standalone="no"?>
<!DOCTYPE svg PUBLIC "-//W3C//DTD SVG 1.1//EN"
  "http://www.w3.org/Graphics/SVG/1.1/DTD/svg11.dtd">
<svg xmlns:xlink="http://www.w3.org/1999/xlink" width="1440pt" height="360pt" viewBox="0 0 1440 360" xmlns="http://www.w3.org/2000/svg" version="1.1">
 <metadata>
  <rdf:RDF xmlns:dc="http://purl.org/dc/elements/1.1/" xmlns:cc="http://creativecommons.org/ns#" xmlns:rdf="http://www.w3.org/1999/02/22-rdf-syntax-ns#">
   <cc:Work>
    <dc:type rdf:resource="http://purl.org/dc/dcmitype/StillImage"/>
    <dc:date>2023-03-06T20:32:39.245827</dc:date>
    <dc:format>image/svg+xml</dc:format>
    <dc:creator>
     <cc:Agent>
      <dc:title>Matplotlib v3.5.1, https://matplotlib.org/</dc:title>
     </cc:Agent>
    </dc:creator>
   </cc:Work>
  </rdf:RDF>
 </metadata>
 <defs>
  <style type="text/css">*{stroke-linejoin: round; stroke-linecap: butt}</style>
 </defs>
 <g id="figure_1">
  <g id="patch_1">
   <path d="M 0 360 
L 1440 360 
L 1440 0 
L 0 0 
z
" style="fill: #ffffff"/>
  </g>
  <g id="axes_1">
   <g id="patch_2">
    <path d="M 107.6 278.8 
L 1418.4 278.8 
L 1418.4 50.4 
L 107.6 50.4 
z
" style="fill: #ffffff"/>
   </g>
   <g id="matplotlib.axis_1">
    <g id="xtick_1">
     <g id="line2d_1">
      <defs>
       <path id="mb2d96fc9c6" d="M 0 0 
L 0 3.5 
" style="stroke: #000000; stroke-width: 0.8"/>
      </defs>
      <g>
       <use xlink:href="#mb2d96fc9c6" x="107.6" y="278.8" style="stroke: #000000; stroke-width: 0.8"/>
      </g>
     </g>
     <g id="text_1">
      <!-- 0 -->
      <g transform="translate(101.6 302.19125)scale(0.24 -0.24)">
       <defs>
        <path id="STIXGeneral-Regular-30" d="M 3046 2112 
Q 3046 1683 2963 1302 
Q 2880 922 2717 602 
Q 2554 282 2266 96 
Q 1978 -90 1600 -90 
Q 1210 -90 915 108 
Q 621 307 461 640 
Q 301 973 227 1350 
Q 154 1728 154 2150 
Q 154 2746 301 3222 
Q 448 3699 790 4012 
Q 1133 4326 1626 4326 
Q 2253 4326 2649 3712 
Q 3046 3098 3046 2112 
z
M 2432 2080 
Q 2432 3091 2217 3625 
Q 2003 4160 1587 4160 
Q 1190 4160 979 3622 
Q 768 3085 768 2106 
Q 768 1120 979 598 
Q 1190 77 1600 77 
Q 2003 77 2217 598 
Q 2432 1120 2432 2080 
z
" transform="scale(0.015625)"/>
       </defs>
       <use xlink:href="#STIXGeneral-Regular-30"/>
      </g>
     </g>
    </g>
    <g id="xtick_2">
     <g id="line2d_2">
      <g>
       <use xlink:href="#mb2d96fc9c6" x="233.023404" y="278.8" style="stroke: #000000; stroke-width: 0.8"/>
      </g>
     </g>
     <g id="text_2">
      <!-- 1 -->
      <g transform="translate(227.023404 302.19125)scale(0.24 -0.24)">
       <defs>
        <path id="STIXGeneral-Regular-31" d="M 2522 0 
L 755 0 
L 755 96 
Q 1107 115 1235 227 
Q 1363 339 1363 608 
L 1363 3482 
Q 1363 3795 1171 3795 
Q 1082 3795 883 3718 
L 710 3654 
L 710 3744 
L 1856 4326 
L 1914 4307 
L 1914 486 
Q 1914 275 2042 185 
Q 2170 96 2522 96 
L 2522 0 
z
" transform="scale(0.015625)"/>
       </defs>
       <use xlink:href="#STIXGeneral-Regular-31"/>
      </g>
     </g>
    </g>
    <g id="xtick_3">
     <g id="line2d_3">
      <g>
       <use xlink:href="#mb2d96fc9c6" x="358.446809" y="278.8" style="stroke: #000000; stroke-width: 0.8"/>
      </g>
     </g>
     <g id="text_3">
      <!-- 2 -->
      <g transform="translate(352.446809 302.19125)scale(0.24 -0.24)">
       <defs>
        <path id="STIXGeneral-Regular-32" d="M 3034 877 
L 2688 0 
L 186 0 
L 186 77 
L 1325 1286 
Q 1773 1754 1965 2144 
Q 2157 2534 2157 2950 
Q 2157 3379 1920 3616 
Q 1683 3853 1267 3853 
Q 922 3853 720 3673 
Q 518 3494 326 3021 
L 192 3053 
Q 301 3648 630 3987 
Q 960 4326 1523 4326 
Q 2054 4326 2380 4006 
Q 2707 3686 2707 3200 
Q 2707 2477 1888 1613 
L 832 486 
L 2330 486 
Q 2541 486 2665 569 
Q 2790 653 2944 915 
L 3034 877 
z
" transform="scale(0.015625)"/>
       </defs>
       <use xlink:href="#STIXGeneral-Regular-32"/>
      </g>
     </g>
    </g>
    <g id="xtick_4">
     <g id="line2d_4">
      <g>
       <use xlink:href="#mb2d96fc9c6" x="483.870213" y="278.8" style="stroke: #000000; stroke-width: 0.8"/>
      </g>
     </g>
     <g id="text_4">
      <!-- 3 -->
      <g transform="translate(477.870213 302.19125)scale(0.24 -0.24)">
       <defs>
        <path id="STIXGeneral-Regular-33" d="M 390 3264 
L 288 3290 
Q 435 3770 748 4048 
Q 1062 4326 1542 4326 
Q 1990 4326 2265 4083 
Q 2541 3840 2541 3450 
Q 2541 2925 1946 2566 
Q 2298 2413 2477 2227 
Q 2758 1914 2758 1402 
Q 2758 890 2464 506 
Q 2246 211 1840 60 
Q 1434 -90 979 -90 
Q 262 -90 262 275 
Q 262 378 339 442 
Q 416 506 525 506 
Q 685 506 915 339 
Q 1197 141 1466 141 
Q 1818 141 2058 425 
Q 2298 710 2298 1120 
Q 2298 1856 1632 2048 
Q 1434 2112 979 2112 
L 979 2202 
Q 1338 2323 1517 2432 
Q 2035 2726 2035 3290 
Q 2035 3610 1852 3776 
Q 1670 3942 1344 3942 
Q 768 3942 390 3264 
z
" transform="scale(0.015625)"/>
       </defs>
       <use xlink:href="#STIXGeneral-Regular-33"/>
      </g>
     </g>
    </g>
    <g id="xtick_5">
     <g id="line2d_5">
      <g>
       <use xlink:href="#mb2d96fc9c6" x="609.293618" y="278.8" style="stroke: #000000; stroke-width: 0.8"/>
      </g>
     </g>
     <g id="text_5">
      <!-- 4 -->
      <g transform="translate(603.293618 302.19125)scale(0.24 -0.24)">
       <defs>
        <path id="STIXGeneral-Regular-34" d="M 3027 1069 
L 2368 1069 
L 2368 0 
L 1869 0 
L 1869 1069 
L 77 1069 
L 77 1478 
L 2086 4326 
L 2368 4326 
L 2368 1478 
L 3027 1478 
L 3027 1069 
z
M 1869 1478 
L 1869 3674 
L 333 1478 
L 1869 1478 
z
" transform="scale(0.015625)"/>
       </defs>
       <use xlink:href="#STIXGeneral-Regular-34"/>
      </g>
     </g>
    </g>
    <g id="xtick_6">
     <g id="line2d_6">
      <g>
       <use xlink:href="#mb2d96fc9c6" x="734.717022" y="278.8" style="stroke: #000000; stroke-width: 0.8"/>
      </g>
     </g>
     <g id="text_6">
      <!-- 5 -->
      <g transform="translate(728.717022 302.19125)scale(0.24 -0.24)">
       <defs>
        <path id="STIXGeneral-Regular-35" d="M 2803 4358 
L 2573 3814 
Q 2534 3731 2400 3731 
L 1158 3731 
L 902 3187 
Q 1606 3053 1920 2896 
Q 2234 2739 2502 2368 
Q 2726 2061 2726 1555 
Q 2726 1094 2576 780 
Q 2426 467 2099 224 
Q 1664 -90 1011 -90 
Q 646 -90 422 19 
Q 198 128 198 307 
Q 198 550 486 550 
Q 717 550 960 352 
Q 1210 147 1414 147 
Q 1747 147 2012 480 
Q 2278 813 2278 1229 
Q 2278 1843 1850 2189 
Q 1293 2637 486 2637 
Q 410 2637 410 2688 
L 416 2720 
L 1114 4237 
L 2438 4237 
Q 2547 4237 2608 4269 
Q 2669 4301 2746 4403 
L 2803 4358 
z
" transform="scale(0.015625)"/>
       </defs>
       <use xlink:href="#STIXGeneral-Regular-35"/>
      </g>
     </g>
    </g>
    <g id="xtick_7">
     <g id="line2d_7">
      <g>
       <use xlink:href="#mb2d96fc9c6" x="860.140427" y="278.8" style="stroke: #000000; stroke-width: 0.8"/>
      </g>
     </g>
     <g id="text_7">
      <!-- 6 -->
      <g transform="translate(854.140427 302.19125)scale(0.24 -0.24)">
       <defs>
        <path id="STIXGeneral-Regular-36" d="M 2854 4378 
L 2867 4275 
Q 2112 4154 1606 3664 
Q 1101 3174 973 2451 
Q 1344 2739 1786 2739 
Q 2349 2739 2672 2380 
Q 2995 2022 2995 1402 
Q 2995 774 2669 378 
Q 2291 -90 1651 -90 
Q 870 -90 518 557 
Q 218 1107 218 1786 
Q 218 2835 915 3552 
Q 1312 3962 1731 4131 
Q 2150 4301 2854 4378 
z
M 2419 1203 
Q 2419 2445 1555 2445 
Q 1235 2445 1024 2275 
Q 813 2106 813 1702 
Q 813 954 1046 522 
Q 1280 90 1722 90 
Q 2061 90 2240 394 
Q 2419 698 2419 1203 
z
" transform="scale(0.015625)"/>
       </defs>
       <use xlink:href="#STIXGeneral-Regular-36"/>
      </g>
     </g>
    </g>
    <g id="xtick_8">
     <g id="line2d_8">
      <g>
       <use xlink:href="#mb2d96fc9c6" x="985.563831" y="278.8" style="stroke: #000000; stroke-width: 0.8"/>
      </g>
     </g>
     <g id="text_8">
      <!-- 7 -->
      <g transform="translate(979.563831 302.19125)scale(0.24 -0.24)">
       <defs>
        <path id="STIXGeneral-Regular-37" d="M 2874 4134 
L 1517 -51 
L 1101 -51 
L 2368 3763 
L 992 3763 
Q 717 3763 582 3667 
Q 448 3571 243 3238 
L 128 3296 
L 512 4237 
L 2874 4237 
L 2874 4134 
z
" transform="scale(0.015625)"/>
       </defs>
       <use xlink:href="#STIXGeneral-Regular-37"/>
      </g>
     </g>
    </g>
    <g id="xtick_9">
     <g id="line2d_9">
      <g>
       <use xlink:href="#mb2d96fc9c6" x="1110.987236" y="278.8" style="stroke: #000000; stroke-width: 0.8"/>
      </g>
     </g>
     <g id="text_9">
      <!-- 8 -->
      <g transform="translate(1104.987236 302.19125)scale(0.24 -0.24)">
       <defs>
        <path id="STIXGeneral-Regular-38" d="M 2848 992 
Q 2848 499 2505 204 
Q 2163 -90 1587 -90 
Q 1050 -90 704 204 
Q 358 499 358 954 
Q 358 1293 524 1533 
Q 691 1773 1190 2125 
Q 710 2522 553 2765 
Q 397 3008 397 3328 
Q 397 3782 745 4054 
Q 1094 4326 1638 4326 
Q 2106 4326 2410 4060 
Q 2714 3795 2714 3411 
Q 2714 3059 2531 2848 
Q 2349 2637 1856 2374 
Q 2432 1990 2640 1689 
Q 2848 1389 2848 992 
z
M 2272 3411 
Q 2272 3744 2086 3945 
Q 1901 4147 1574 4147 
Q 1248 4147 1059 3977 
Q 870 3808 870 3513 
Q 870 3219 1059 2979 
Q 1248 2739 1670 2490 
Q 1997 2682 2134 2896 
Q 2272 3110 2272 3411 
z
M 1734 1741 
L 1357 1997 
Q 1075 1766 960 1545 
Q 845 1325 845 1011 
Q 845 576 1065 333 
Q 1286 90 1658 90 
Q 1971 90 2166 285 
Q 2362 480 2362 794 
Q 2362 1082 2214 1299 
Q 2067 1517 1734 1741 
z
" transform="scale(0.015625)"/>
       </defs>
       <use xlink:href="#STIXGeneral-Regular-38"/>
      </g>
     </g>
    </g>
    <g id="xtick_10">
     <g id="line2d_10">
      <g>
       <use xlink:href="#mb2d96fc9c6" x="1236.41064" y="278.8" style="stroke: #000000; stroke-width: 0.8"/>
      </g>
     </g>
     <g id="text_10">
      <!-- 9 -->
      <g transform="translate(1230.41064 302.19125)scale(0.24 -0.24)">
       <defs>
        <path id="STIXGeneral-Regular-39" d="M 378 -141 
L 358 -13 
Q 1094 115 1603 608 
Q 2112 1101 2304 1882 
Q 1933 1517 1344 1517 
Q 826 1517 509 1875 
Q 192 2234 192 2816 
Q 192 3462 573 3894 
Q 954 4326 1523 4326 
Q 2131 4326 2528 3840 
Q 2938 3328 2938 2522 
Q 2938 1958 2742 1462 
Q 2547 966 2170 621 
Q 1773 262 1395 105 
Q 1018 -51 378 -141 
z
M 2317 2272 
L 2317 2522 
Q 2317 4147 1472 4147 
Q 1171 4147 1005 3930 
Q 909 3802 845 3546 
Q 781 3290 781 3034 
Q 781 2464 995 2128 
Q 1210 1792 1568 1792 
Q 1824 1792 2070 1917 
Q 2317 2042 2317 2272 
z
" transform="scale(0.015625)"/>
       </defs>
       <use xlink:href="#STIXGeneral-Regular-39"/>
      </g>
     </g>
    </g>
    <g id="xtick_11">
     <g id="line2d_11">
      <g>
       <use xlink:href="#mb2d96fc9c6" x="1361.834045" y="278.8" style="stroke: #000000; stroke-width: 0.8"/>
      </g>
     </g>
     <g id="text_11">
      <!-- 10 -->
      <g transform="translate(1349.834045 302.19125)scale(0.24 -0.24)">
       <use xlink:href="#STIXGeneral-Regular-31"/>
       <use xlink:href="#STIXGeneral-Regular-30" x="49.999985"/>
      </g>
     </g>
    </g>
    <g id="text_12">
     <!-- Site # -->
     <g transform="translate(728.410938 331.889063)scale(0.3 -0.3)">
      <defs>
       <path id="STIXGeneral-Regular-53" d="M 3002 2963 
L 2842 2963 
Q 2733 3360 2579 3565 
Q 2189 4064 1651 4064 
Q 1357 4064 1181 3894 
Q 1005 3725 1005 3456 
Q 1005 3328 1069 3206 
Q 1133 3085 1206 2998 
Q 1280 2912 1465 2784 
Q 1651 2656 1766 2589 
Q 1882 2522 2150 2362 
Q 2669 2061 2905 1763 
Q 3142 1466 3142 1107 
Q 3142 576 2771 243 
Q 2400 -90 1837 -90 
Q 1421 -90 1082 58 
Q 915 128 781 128 
Q 704 128 653 70 
Q 602 13 602 -83 
L 461 -83 
L 275 1274 
L 416 1274 
Q 845 141 1734 141 
Q 2074 141 2285 342 
Q 2496 544 2496 858 
Q 2496 1158 2310 1363 
Q 2003 1696 1235 2106 
Q 454 2522 454 3206 
Q 454 3718 768 4022 
Q 1082 4326 1568 4326 
Q 1907 4326 2240 4186 
Q 2413 4109 2522 4109 
Q 2688 4109 2726 4326 
L 2861 4326 
L 3002 2963 
z
" transform="scale(0.015625)"/>
       <path id="STIXGeneral-Regular-69" d="M 1152 4045 
Q 1152 3904 1056 3811 
Q 960 3718 819 3718 
Q 685 3718 592 3811 
Q 499 3904 499 4045 
Q 499 4179 595 4275 
Q 691 4371 826 4371 
Q 966 4371 1059 4275 
Q 1152 4179 1152 4045 
z
M 1619 0 
L 102 0 
L 102 96 
Q 435 115 521 211 
Q 608 307 608 666 
L 608 2118 
Q 608 2342 563 2432 
Q 518 2522 397 2522 
Q 243 2522 128 2490 
L 128 2592 
L 1120 2944 
L 1146 2918 
L 1146 672 
Q 1146 314 1226 218 
Q 1306 122 1619 96 
L 1619 0 
z
" transform="scale(0.015625)"/>
       <path id="STIXGeneral-Regular-74" d="M 1702 493 
L 1786 422 
Q 1478 -64 1011 -64 
Q 448 -64 448 749 
L 448 2675 
L 109 2675 
Q 83 2694 83 2720 
Q 83 2771 192 2842 
Q 435 2982 813 3526 
Q 826 3546 874 3606 
Q 922 3667 941 3706 
Q 986 3706 986 3622 
L 986 2880 
L 1632 2880 
L 1632 2675 
L 986 2675 
L 986 845 
Q 986 538 1062 403 
Q 1139 269 1318 269 
Q 1510 269 1702 493 
z
" transform="scale(0.015625)"/>
       <path id="STIXGeneral-Regular-65" d="M 2611 1050 
L 2714 1005 
Q 2330 -64 1376 -64 
Q 813 -64 486 329 
Q 160 723 160 1389 
Q 160 2074 525 2509 
Q 890 2944 1485 2944 
Q 2061 2944 2374 2502 
Q 2560 2246 2592 1773 
L 621 1773 
Q 646 1370 700 1158 
Q 755 947 915 730 
Q 1184 378 1626 378 
Q 1939 378 2153 531 
Q 2368 685 2611 1050 
z
M 634 1978 
L 1939 1978 
Q 1882 2381 1750 2547 
Q 1619 2714 1312 2714 
Q 1043 2714 864 2525 
Q 685 2336 634 1978 
z
" transform="scale(0.015625)"/>
       <path id="STIXGeneral-Regular-20" transform="scale(0.015625)"/>
       <path id="STIXGeneral-Regular-23" d="M 3168 2592 
L 2502 2592 
L 2374 1734 
L 3008 1734 
L 3008 1382 
L 2317 1382 
L 2118 0 
L 1747 0 
L 1946 1382 
L 1088 1382 
L 877 0 
L 506 0 
L 717 1382 
L 38 1382 
L 38 1734 
L 774 1734 
L 909 2592 
L 211 2592 
L 211 2944 
L 960 2944 
L 1158 4237 
L 1530 4237 
L 1331 2944 
L 2182 2944 
L 2374 4237 
L 2746 4237 
L 2554 2944 
L 3168 2944 
L 3168 2592 
z
M 2131 2592 
L 1280 2592 
L 1146 1734 
L 2003 1734 
L 2131 2592 
z
" transform="scale(0.015625)"/>
      </defs>
      <use xlink:href="#STIXGeneral-Regular-53"/>
      <use xlink:href="#STIXGeneral-Regular-69" x="55.599991"/>
      <use xlink:href="#STIXGeneral-Regular-74" x="83.399979"/>
      <use xlink:href="#STIXGeneral-Regular-65" x="111.199966"/>
      <use xlink:href="#STIXGeneral-Regular-20" x="155.59996"/>
      <use xlink:href="#STIXGeneral-Regular-23" x="180.599945"/>
     </g>
    </g>
   </g>
   <g id="matplotlib.axis_2">
    <g id="ytick_1">
     <g id="line2d_12">
      <defs>
       <path id="mc6f2e05721" d="M 0 0 
L -3.5 0 
" style="stroke: #000000; stroke-width: 0.8"/>
      </defs>
      <g>
       <use xlink:href="#mc6f2e05721" x="107.6" y="214.283123" style="stroke: #000000; stroke-width: 0.8"/>
      </g>
     </g>
     <g id="text_13">
      <!-- 800 -->
      <g transform="translate(64.6 222.478748)scale(0.24 -0.24)">
       <use xlink:href="#STIXGeneral-Regular-38"/>
       <use xlink:href="#STIXGeneral-Regular-30" x="49.999985"/>
       <use xlink:href="#STIXGeneral-Regular-30" x="99.999969"/>
      </g>
     </g>
    </g>
    <g id="ytick_2">
     <g id="line2d_13">
      <g>
       <use xlink:href="#mc6f2e05721" x="107.6" y="113.565612" style="stroke: #000000; stroke-width: 0.8"/>
      </g>
     </g>
     <g id="text_14">
      <!-- 1000 -->
      <g transform="translate(52.6 121.761237)scale(0.24 -0.24)">
       <use xlink:href="#STIXGeneral-Regular-31"/>
       <use xlink:href="#STIXGeneral-Regular-30" x="49.999985"/>
       <use xlink:href="#STIXGeneral-Regular-30" x="99.999969"/>
       <use xlink:href="#STIXGeneral-Regular-30" x="149.999954"/>
      </g>
     </g>
    </g>
    <g id="text_15">
     <!-- T$_1$ (ms) -->
     <g transform="translate(42.089062 211.25)rotate(-90)scale(0.3 -0.3)">
      <defs>
       <path id="STIXGeneral-Regular-54" d="M 3795 3149 
L 3642 3149 
Q 3539 3674 3353 3821 
Q 3168 3968 2656 3968 
L 2278 3968 
L 2278 710 
Q 2278 346 2387 243 
Q 2496 141 2893 122 
L 2893 0 
L 1024 0 
L 1024 122 
Q 1427 147 1526 256 
Q 1626 365 1626 787 
L 1626 3968 
L 1242 3968 
Q 723 3968 540 3817 
Q 358 3667 262 3149 
L 109 3149 
L 154 4237 
L 3750 4237 
L 3795 3149 
z
" transform="scale(0.015625)"/>
       <path id="STIXGeneral-Regular-28" d="M 1946 -1030 
L 1869 -1133 
Q 1126 -710 716 32 
Q 307 774 307 1613 
Q 307 3386 1888 4326 
L 1946 4224 
Q 1293 3667 1075 3126 
Q 858 2586 858 1632 
Q 858 685 1082 96 
Q 1306 -493 1946 -1030 
z
" transform="scale(0.015625)"/>
       <path id="STIXGeneral-Regular-6d" d="M 4960 0 
L 3565 0 
L 3565 96 
Q 3834 122 3907 208 
Q 3981 294 3981 576 
L 3981 1894 
Q 3981 2278 3869 2444 
Q 3757 2611 3488 2611 
Q 3264 2611 3107 2521 
Q 2950 2432 2803 2221 
L 2803 608 
Q 2803 301 2896 201 
Q 2989 102 3264 96 
L 3264 0 
L 1830 0 
L 1830 96 
Q 2112 115 2189 188 
Q 2266 262 2266 550 
L 2266 1901 
Q 2266 2611 1850 2611 
Q 1670 2611 1468 2531 
Q 1267 2451 1171 2336 
Q 1088 2240 1088 2227 
L 1088 448 
Q 1088 243 1177 176 
Q 1267 109 1523 96 
L 1523 0 
L 102 0 
L 102 96 
Q 371 102 460 195 
Q 550 288 550 563 
L 550 2150 
Q 550 2387 499 2480 
Q 448 2573 326 2573 
Q 230 2573 122 2547 
L 122 2656 
Q 557 2778 1011 2944 
L 1062 2925 
L 1062 2451 
L 1075 2451 
Q 1363 2752 1584 2848 
Q 1805 2944 2054 2944 
Q 2560 2944 2733 2406 
Q 3232 2944 3776 2944 
Q 4518 2944 4518 1792 
L 4518 493 
Q 4518 282 4582 202 
Q 4646 122 4794 109 
L 4960 96 
L 4960 0 
z
" transform="scale(0.015625)"/>
       <path id="STIXGeneral-Regular-73" d="M 998 1926 
L 1664 1523 
Q 1984 1331 2105 1164 
Q 2227 998 2227 736 
Q 2227 416 1961 176 
Q 1696 -64 1331 -64 
Q 1030 -64 864 -6 
Q 691 51 570 51 
Q 461 51 416 -26 
L 333 -26 
L 333 979 
L 435 979 
Q 538 512 730 294 
Q 922 77 1248 77 
Q 1485 77 1632 211 
Q 1779 346 1779 550 
Q 1779 845 1440 1030 
L 1094 1222 
Q 326 1651 326 2150 
Q 326 2522 566 2730 
Q 806 2938 1210 2938 
Q 1491 2938 1638 2867 
Q 1754 2816 1818 2816 
Q 1862 2816 1920 2880 
L 1990 2880 
L 2022 2010 
L 1926 2010 
Q 1818 2445 1654 2621 
Q 1491 2797 1203 2797 
Q 986 2797 854 2688 
Q 723 2579 723 2362 
Q 723 2253 796 2128 
Q 870 2003 998 1926 
z
" transform="scale(0.015625)"/>
       <path id="STIXGeneral-Regular-29" d="M 186 4224 
L 262 4326 
Q 992 3891 1408 3148 
Q 1824 2406 1824 1581 
Q 1824 -166 243 -1133 
L 186 -1030 
Q 845 -486 1059 54 
Q 1274 595 1274 1562 
Q 1274 2534 1059 3120 
Q 845 3706 186 4224 
z
" transform="scale(0.015625)"/>
      </defs>
      <use xlink:href="#STIXGeneral-Regular-54" transform="translate(0 0.40625)"/>
      <use xlink:href="#STIXGeneral-Regular-31" transform="translate(62.643272 -12.821875)scale(0.7)"/>
      <use xlink:href="#STIXGeneral-Regular-20" transform="translate(102.052636 0.40625)"/>
      <use xlink:href="#STIXGeneral-Regular-28" transform="translate(127.052621 0.40625)"/>
      <use xlink:href="#STIXGeneral-Regular-6d" transform="translate(160.352609 0.40625)"/>
      <use xlink:href="#STIXGeneral-Regular-73" transform="translate(238.152597 0.40625)"/>
      <use xlink:href="#STIXGeneral-Regular-29" transform="translate(277.052591 0.40625)"/>
     </g>
    </g>
   </g>
   <g id="LineCollection_1">
    <path d="M 233.148828 194.326387 
L 233.148828 140.67732 
" clip-path="url(#p145eee84aa)" style="fill: none; stroke: #1f77b4; stroke-width: 3"/>
    <path d="M 358.572232 219.244204 
L 358.572232 158.246178 
" clip-path="url(#p145eee84aa)" style="fill: none; stroke: #1f77b4; stroke-width: 3"/>
    <path d="M 358.697656 203.831348 
L 358.697656 153.411793 
" clip-path="url(#p145eee84aa)" style="fill: none; stroke: #1f77b4; stroke-width: 3"/>
    <path d="M 358.823079 193.912218 
L 358.823079 147.074109 
" clip-path="url(#p145eee84aa)" style="fill: none; stroke: #1f77b4; stroke-width: 3"/>
    <path d="M 358.948503 168.114545 
L 358.948503 99.021675 
" clip-path="url(#p145eee84aa)" style="fill: none; stroke: #1f77b4; stroke-width: 3"/>
    <path d="M 359.073926 249.634808 
L 359.073926 148.647697 
" clip-path="url(#p145eee84aa)" style="fill: none; stroke: #1f77b4; stroke-width: 3"/>
    <path d="M 359.199349 267.813066 
L 359.199349 176.585972 
" clip-path="url(#p145eee84aa)" style="fill: none; stroke: #1f77b4; stroke-width: 3"/>
    <path d="M 483.995637 237.413038 
L 483.995637 76.738116 
" clip-path="url(#p145eee84aa)" style="fill: none; stroke: #1f77b4; stroke-width: 3"/>
    <path d="M 609.419041 221.302281 
L 609.419041 196.072235 
" clip-path="url(#p145eee84aa)" style="fill: none; stroke: #1f77b4; stroke-width: 3"/>
    <path d="M 734.842446 268.418182 
L 734.842446 117.145716 
" clip-path="url(#p145eee84aa)" style="fill: none; stroke: #1f77b4; stroke-width: 3"/>
    <path d="M 734.967869 228.653604 
L 734.967869 143.833132 
" clip-path="url(#p145eee84aa)" style="fill: none; stroke: #1f77b4; stroke-width: 3"/>
    <path d="M 735.093293 251.600736 
L 735.093293 60.781818 
" clip-path="url(#p145eee84aa)" style="fill: none; stroke: #1f77b4; stroke-width: 3"/>
    <path d="M 735.218716 240.637428 
L 735.218716 124.320674 
" clip-path="url(#p145eee84aa)" style="fill: none; stroke: #1f77b4; stroke-width: 3"/>
    <path d="M 860.26585 230.200159 
L 860.26585 200.489212 
" clip-path="url(#p145eee84aa)" style="fill: none; stroke: #1f77b4; stroke-width: 3"/>
    <path d="M 985.689255 217.932189 
L 985.689255 172.65796 
" clip-path="url(#p145eee84aa)" style="fill: none; stroke: #1f77b4; stroke-width: 3"/>
    <path d="M 1111.112659 230.728609 
L 1111.112659 216.299157 
" clip-path="url(#p145eee84aa)" style="fill: none; stroke: #1f77b4; stroke-width: 3"/>
    <path d="M 1111.238082 234.436041 
L 1111.238082 211.237074 
" clip-path="url(#p145eee84aa)" style="fill: none; stroke: #1f77b4; stroke-width: 3"/>
    <path d="M 1236.536064 238.171868 
L 1236.536064 220.565316 
" clip-path="url(#p145eee84aa)" style="fill: none; stroke: #1f77b4; stroke-width: 3"/>
    <path d="M 1236.661487 222.566144 
L 1236.661487 200.996456 
" clip-path="url(#p145eee84aa)" style="fill: none; stroke: #1f77b4; stroke-width: 3"/>
    <path d="M 1236.78691 218.056915 
L 1236.78691 204.760375 
" clip-path="url(#p145eee84aa)" style="fill: none; stroke: #1f77b4; stroke-width: 3"/>
    <path d="M 1236.912334 215.955695 
L 1236.912334 190.380181 
" clip-path="url(#p145eee84aa)" style="fill: none; stroke: #1f77b4; stroke-width: 3"/>
    <path d="M 1237.037757 212.717918 
L 1237.037757 195.515477 
" clip-path="url(#p145eee84aa)" style="fill: none; stroke: #1f77b4; stroke-width: 3"/>
    <path d="M 1237.163181 221.402764 
L 1237.163181 195.987867 
" clip-path="url(#p145eee84aa)" style="fill: none; stroke: #1f77b4; stroke-width: 3"/>
    <path d="M 1237.288604 215.527566 
L 1237.288604 201.274875 
" clip-path="url(#p145eee84aa)" style="fill: none; stroke: #1f77b4; stroke-width: 3"/>
    <path d="M 1237.414027 231.124176 
L 1237.414027 206.81887 
" clip-path="url(#p145eee84aa)" style="fill: none; stroke: #1f77b4; stroke-width: 3"/>
    <path d="M 1237.539451 205.252986 
L 1237.539451 185.838288 
" clip-path="url(#p145eee84aa)" style="fill: none; stroke: #1f77b4; stroke-width: 3"/>
    <path d="M 1237.664874 200.675818 
L 1237.664874 188.026437 
" clip-path="url(#p145eee84aa)" style="fill: none; stroke: #1f77b4; stroke-width: 3"/>
    <path d="M 1237.790298 253.17208 
L 1237.790298 201.323889 
" clip-path="url(#p145eee84aa)" style="fill: none; stroke: #1f77b4; stroke-width: 3"/>
    <path d="M 1237.915721 244.382642 
L 1237.915721 220.079325 
" clip-path="url(#p145eee84aa)" style="fill: none; stroke: #1f77b4; stroke-width: 3"/>
    <path d="M 1238.041144 217.413956 
L 1238.041144 195.617621 
" clip-path="url(#p145eee84aa)" style="fill: none; stroke: #1f77b4; stroke-width: 3"/>
    <path d="M 1238.166568 210.569169 
L 1238.166568 194.51781 
" clip-path="url(#p145eee84aa)" style="fill: none; stroke: #1f77b4; stroke-width: 3"/>
    <path d="M 1238.291991 216.845448 
L 1238.291991 173.699937 
" clip-path="url(#p145eee84aa)" style="fill: none; stroke: #1f77b4; stroke-width: 3"/>
    <path d="M 1238.417415 216.750554 
L 1238.417415 190.205743 
" clip-path="url(#p145eee84aa)" style="fill: none; stroke: #1f77b4; stroke-width: 3"/>
    <path d="M 1238.542838 214.270969 
L 1238.542838 193.124456 
" clip-path="url(#p145eee84aa)" style="fill: none; stroke: #1f77b4; stroke-width: 3"/>
    <path d="M 1238.668261 239.72482 
L 1238.668261 206.031891 
" clip-path="url(#p145eee84aa)" style="fill: none; stroke: #1f77b4; stroke-width: 3"/>
    <path d="M 1238.793685 230.042563 
L 1238.793685 204.370334 
" clip-path="url(#p145eee84aa)" style="fill: none; stroke: #1f77b4; stroke-width: 3"/>
    <path d="M 1238.919108 220.397116 
L 1238.919108 195.792962 
" clip-path="url(#p145eee84aa)" style="fill: none; stroke: #1f77b4; stroke-width: 3"/>
    <path d="M 1239.044532 213.321901 
L 1239.044532 196.635778 
" clip-path="url(#p145eee84aa)" style="fill: none; stroke: #1f77b4; stroke-width: 3"/>
    <path d="M 1239.169955 219.544826 
L 1239.169955 192.753527 
" clip-path="url(#p145eee84aa)" style="fill: none; stroke: #1f77b4; stroke-width: 3"/>
    <path d="M 1239.295378 220.673331 
L 1239.295378 198.461727 
" clip-path="url(#p145eee84aa)" style="fill: none; stroke: #1f77b4; stroke-width: 3"/>
    <path d="M 1239.420802 215.757323 
L 1239.420802 198.539266 
" clip-path="url(#p145eee84aa)" style="fill: none; stroke: #1f77b4; stroke-width: 3"/>
    <path d="M 1239.546225 225.608415 
L 1239.546225 196.532053 
" clip-path="url(#p145eee84aa)" style="fill: none; stroke: #1f77b4; stroke-width: 3"/>
    <path d="M 1239.671649 234.717745 
L 1239.671649 205.515617 
" clip-path="url(#p145eee84aa)" style="fill: none; stroke: #1f77b4; stroke-width: 3"/>
    <path d="M 1239.797072 200.071263 
L 1239.797072 180.920059 
" clip-path="url(#p145eee84aa)" style="fill: none; stroke: #1f77b4; stroke-width: 3"/>
    <path d="M 1239.922495 195.512922 
L 1239.922495 181.224093 
" clip-path="url(#p145eee84aa)" style="fill: none; stroke: #1f77b4; stroke-width: 3"/>
    <path d="M 1240.047919 210.536984 
L 1240.047919 188.317596 
" clip-path="url(#p145eee84aa)" style="fill: none; stroke: #1f77b4; stroke-width: 3"/>
    <path d="M 1240.173342 217.48768 
L 1240.173342 188.207634 
" clip-path="url(#p145eee84aa)" style="fill: none; stroke: #1f77b4; stroke-width: 3"/>
    <path d="M 1240.298766 207.583491 
L 1240.298766 187.194045 
" clip-path="url(#p145eee84aa)" style="fill: none; stroke: #1f77b4; stroke-width: 3"/>
    <path d="M 1240.424189 201.510704 
L 1240.424189 189.290504 
" clip-path="url(#p145eee84aa)" style="fill: none; stroke: #1f77b4; stroke-width: 3"/>
    <path d="M 1240.549612 214.354457 
L 1240.549612 194.716907 
" clip-path="url(#p145eee84aa)" style="fill: none; stroke: #1f77b4; stroke-width: 3"/>
    <path d="M 1240.675036 210.984219 
L 1240.675036 196.721416 
" clip-path="url(#p145eee84aa)" style="fill: none; stroke: #1f77b4; stroke-width: 3"/>
    <path d="M 1240.800459 217.919018 
L 1240.800459 192.961233 
" clip-path="url(#p145eee84aa)" style="fill: none; stroke: #1f77b4; stroke-width: 3"/>
    <path d="M 1240.925883 190.440011 
L 1240.925883 158.363002 
" clip-path="url(#p145eee84aa)" style="fill: none; stroke: #1f77b4; stroke-width: 3"/>
    <path d="M 1241.051306 197.178826 
L 1241.051306 174.703605 
" clip-path="url(#p145eee84aa)" style="fill: none; stroke: #1f77b4; stroke-width: 3"/>
    <path d="M 1241.176729 193.097603 
L 1241.176729 176.967884 
" clip-path="url(#p145eee84aa)" style="fill: none; stroke: #1f77b4; stroke-width: 3"/>
    <path d="M 1361.959468 232.768564 
L 1361.959468 195.656677 
" clip-path="url(#p145eee84aa)" style="fill: none; stroke: #1f77b4; stroke-width: 3"/>
   </g>
   <g id="line2d_14">
    <defs>
     <path id="m6b7f586073" d="M 10 0 
L -10 -0 
" style="stroke: #1f77b4"/>
    </defs>
    <g clip-path="url(#p145eee84aa)">
     <use xlink:href="#m6b7f586073" x="233.148828" y="194.326387" style="fill: #1f77b4; stroke: #1f77b4"/>
     <use xlink:href="#m6b7f586073" x="358.572232" y="219.244204" style="fill: #1f77b4; stroke: #1f77b4"/>
     <use xlink:href="#m6b7f586073" x="358.697656" y="203.831348" style="fill: #1f77b4; stroke: #1f77b4"/>
     <use xlink:href="#m6b7f586073" x="358.823079" y="193.912218" style="fill: #1f77b4; stroke: #1f77b4"/>
     <use xlink:href="#m6b7f586073" x="358.948503" y="168.114545" style="fill: #1f77b4; stroke: #1f77b4"/>
     <use xlink:href="#m6b7f586073" x="359.073926" y="249.634808" style="fill: #1f77b4; stroke: #1f77b4"/>
     <use xlink:href="#m6b7f586073" x="359.199349" y="267.813066" style="fill: #1f77b4; stroke: #1f77b4"/>
     <use xlink:href="#m6b7f586073" x="483.995637" y="237.413038" style="fill: #1f77b4; stroke: #1f77b4"/>
     <use xlink:href="#m6b7f586073" x="609.419041" y="221.302281" style="fill: #1f77b4; stroke: #1f77b4"/>
     <use xlink:href="#m6b7f586073" x="734.842446" y="268.418182" style="fill: #1f77b4; stroke: #1f77b4"/>
     <use xlink:href="#m6b7f586073" x="734.967869" y="228.653604" style="fill: #1f77b4; stroke: #1f77b4"/>
     <use xlink:href="#m6b7f586073" x="735.093293" y="251.600736" style="fill: #1f77b4; stroke: #1f77b4"/>
     <use xlink:href="#m6b7f586073" x="735.218716" y="240.637428" style="fill: #1f77b4; stroke: #1f77b4"/>
     <use xlink:href="#m6b7f586073" x="860.26585" y="230.200159" style="fill: #1f77b4; stroke: #1f77b4"/>
     <use xlink:href="#m6b7f586073" x="985.689255" y="217.932189" style="fill: #1f77b4; stroke: #1f77b4"/>
     <use xlink:href="#m6b7f586073" x="1111.112659" y="230.728609" style="fill: #1f77b4; stroke: #1f77b4"/>
     <use xlink:href="#m6b7f586073" x="1111.238082" y="234.436041" style="fill: #1f77b4; stroke: #1f77b4"/>
     <use xlink:href="#m6b7f586073" x="1236.536064" y="238.171868" style="fill: #1f77b4; stroke: #1f77b4"/>
     <use xlink:href="#m6b7f586073" x="1236.661487" y="222.566144" style="fill: #1f77b4; stroke: #1f77b4"/>
     <use xlink:href="#m6b7f586073" x="1236.78691" y="218.056915" style="fill: #1f77b4; stroke: #1f77b4"/>
     <use xlink:href="#m6b7f586073" x="1236.912334" y="215.955695" style="fill: #1f77b4; stroke: #1f77b4"/>
     <use xlink:href="#m6b7f586073" x="1237.037757" y="212.717918" style="fill: #1f77b4; stroke: #1f77b4"/>
     <use xlink:href="#m6b7f586073" x="1237.163181" y="221.402764" style="fill: #1f77b4; stroke: #1f77b4"/>
     <use xlink:href="#m6b7f586073" x="1237.288604" y="215.527566" style="fill: #1f77b4; stroke: #1f77b4"/>
     <use xlink:href="#m6b7f586073" x="1237.414027" y="231.124176" style="fill: #1f77b4; stroke: #1f77b4"/>
     <use xlink:href="#m6b7f586073" x="1237.539451" y="205.252986" style="fill: #1f77b4; stroke: #1f77b4"/>
     <use xlink:href="#m6b7f586073" x="1237.664874" y="200.675818" style="fill: #1f77b4; stroke: #1f77b4"/>
     <use xlink:href="#m6b7f586073" x="1237.790298" y="253.17208" style="fill: #1f77b4; stroke: #1f77b4"/>
     <use xlink:href="#m6b7f586073" x="1237.915721" y="244.382642" style="fill: #1f77b4; stroke: #1f77b4"/>
     <use xlink:href="#m6b7f586073" x="1238.041144" y="217.413956" style="fill: #1f77b4; stroke: #1f77b4"/>
     <use xlink:href="#m6b7f586073" x="1238.166568" y="210.569169" style="fill: #1f77b4; stroke: #1f77b4"/>
     <use xlink:href="#m6b7f586073" x="1238.291991" y="216.845448" style="fill: #1f77b4; stroke: #1f77b4"/>
     <use xlink:href="#m6b7f586073" x="1238.417415" y="216.750554" style="fill: #1f77b4; stroke: #1f77b4"/>
     <use xlink:href="#m6b7f586073" x="1238.542838" y="214.270969" style="fill: #1f77b4; stroke: #1f77b4"/>
     <use xlink:href="#m6b7f586073" x="1238.668261" y="239.72482" style="fill: #1f77b4; stroke: #1f77b4"/>
     <use xlink:href="#m6b7f586073" x="1238.793685" y="230.042563" style="fill: #1f77b4; stroke: #1f77b4"/>
     <use xlink:href="#m6b7f586073" x="1238.919108" y="220.397116" style="fill: #1f77b4; stroke: #1f77b4"/>
     <use xlink:href="#m6b7f586073" x="1239.044532" y="213.321901" style="fill: #1f77b4; stroke: #1f77b4"/>
     <use xlink:href="#m6b7f586073" x="1239.169955" y="219.544826" style="fill: #1f77b4; stroke: #1f77b4"/>
     <use xlink:href="#m6b7f586073" x="1239.295378" y="220.673331" style="fill: #1f77b4; stroke: #1f77b4"/>
     <use xlink:href="#m6b7f586073" x="1239.420802" y="215.757323" style="fill: #1f77b4; stroke: #1f77b4"/>
     <use xlink:href="#m6b7f586073" x="1239.546225" y="225.608415" style="fill: #1f77b4; stroke: #1f77b4"/>
     <use xlink:href="#m6b7f586073" x="1239.671649" y="234.717745" style="fill: #1f77b4; stroke: #1f77b4"/>
     <use xlink:href="#m6b7f586073" x="1239.797072" y="200.071263" style="fill: #1f77b4; stroke: #1f77b4"/>
     <use xlink:href="#m6b7f586073" x="1239.922495" y="195.512922" style="fill: #1f77b4; stroke: #1f77b4"/>
     <use xlink:href="#m6b7f586073" x="1240.047919" y="210.536984" style="fill: #1f77b4; stroke: #1f77b4"/>
     <use xlink:href="#m6b7f586073" x="1240.173342" y="217.48768" style="fill: #1f77b4; stroke: #1f77b4"/>
     <use xlink:href="#m6b7f586073" x="1240.298766" y="207.583491" style="fill: #1f77b4; stroke: #1f77b4"/>
     <use xlink:href="#m6b7f586073" x="1240.424189" y="201.510704" style="fill: #1f77b4; stroke: #1f77b4"/>
     <use xlink:href="#m6b7f586073" x="1240.549612" y="214.354457" style="fill: #1f77b4; stroke: #1f77b4"/>
     <use xlink:href="#m6b7f586073" x="1240.675036" y="210.984219" style="fill: #1f77b4; stroke: #1f77b4"/>
     <use xlink:href="#m6b7f586073" x="1240.800459" y="217.919018" style="fill: #1f77b4; stroke: #1f77b4"/>
     <use xlink:href="#m6b7f586073" x="1240.925883" y="190.440011" style="fill: #1f77b4; stroke: #1f77b4"/>
     <use xlink:href="#m6b7f586073" x="1241.051306" y="197.178826" style="fill: #1f77b4; stroke: #1f77b4"/>
     <use xlink:href="#m6b7f586073" x="1241.176729" y="193.097603" style="fill: #1f77b4; stroke: #1f77b4"/>
     <use xlink:href="#m6b7f586073" x="1361.959468" y="232.768564" style="fill: #1f77b4; stroke: #1f77b4"/>
    </g>
   </g>
   <g id="line2d_15">
    <g clip-path="url(#p145eee84aa)">
     <use xlink:href="#m6b7f586073" x="233.148828" y="140.67732" style="fill: #1f77b4; stroke: #1f77b4"/>
     <use xlink:href="#m6b7f586073" x="358.572232" y="158.246178" style="fill: #1f77b4; stroke: #1f77b4"/>
     <use xlink:href="#m6b7f586073" x="358.697656" y="153.411793" style="fill: #1f77b4; stroke: #1f77b4"/>
     <use xlink:href="#m6b7f586073" x="358.823079" y="147.074109" style="fill: #1f77b4; stroke: #1f77b4"/>
     <use xlink:href="#m6b7f586073" x="358.948503" y="99.021675" style="fill: #1f77b4; stroke: #1f77b4"/>
     <use xlink:href="#m6b7f586073" x="359.073926" y="148.647697" style="fill: #1f77b4; stroke: #1f77b4"/>
     <use xlink:href="#m6b7f586073" x="359.199349" y="176.585972" style="fill: #1f77b4; stroke: #1f77b4"/>
     <use xlink:href="#m6b7f586073" x="483.995637" y="76.738116" style="fill: #1f77b4; stroke: #1f77b4"/>
     <use xlink:href="#m6b7f586073" x="609.419041" y="196.072235" style="fill: #1f77b4; stroke: #1f77b4"/>
     <use xlink:href="#m6b7f586073" x="734.842446" y="117.145716" style="fill: #1f77b4; stroke: #1f77b4"/>
     <use xlink:href="#m6b7f586073" x="734.967869" y="143.833132" style="fill: #1f77b4; stroke: #1f77b4"/>
     <use xlink:href="#m6b7f586073" x="735.093293" y="60.781818" style="fill: #1f77b4; stroke: #1f77b4"/>
     <use xlink:href="#m6b7f586073" x="735.218716" y="124.320674" style="fill: #1f77b4; stroke: #1f77b4"/>
     <use xlink:href="#m6b7f586073" x="860.26585" y="200.489212" style="fill: #1f77b4; stroke: #1f77b4"/>
     <use xlink:href="#m6b7f586073" x="985.689255" y="172.65796" style="fill: #1f77b4; stroke: #1f77b4"/>
     <use xlink:href="#m6b7f586073" x="1111.112659" y="216.299157" style="fill: #1f77b4; stroke: #1f77b4"/>
     <use xlink:href="#m6b7f586073" x="1111.238082" y="211.237074" style="fill: #1f77b4; stroke: #1f77b4"/>
     <use xlink:href="#m6b7f586073" x="1236.536064" y="220.565316" style="fill: #1f77b4; stroke: #1f77b4"/>
     <use xlink:href="#m6b7f586073" x="1236.661487" y="200.996456" style="fill: #1f77b4; stroke: #1f77b4"/>
     <use xlink:href="#m6b7f586073" x="1236.78691" y="204.760375" style="fill: #1f77b4; stroke: #1f77b4"/>
     <use xlink:href="#m6b7f586073" x="1236.912334" y="190.380181" style="fill: #1f77b4; stroke: #1f77b4"/>
     <use xlink:href="#m6b7f586073" x="1237.037757" y="195.515477" style="fill: #1f77b4; stroke: #1f77b4"/>
     <use xlink:href="#m6b7f586073" x="1237.163181" y="195.987867" style="fill: #1f77b4; stroke: #1f77b4"/>
     <use xlink:href="#m6b7f586073" x="1237.288604" y="201.274875" style="fill: #1f77b4; stroke: #1f77b4"/>
     <use xlink:href="#m6b7f586073" x="1237.414027" y="206.81887" style="fill: #1f77b4; stroke: #1f77b4"/>
     <use xlink:href="#m6b7f586073" x="1237.539451" y="185.838288" style="fill: #1f77b4; stroke: #1f77b4"/>
     <use xlink:href="#m6b7f586073" x="1237.664874" y="188.026437" style="fill: #1f77b4; stroke: #1f77b4"/>
     <use xlink:href="#m6b7f586073" x="1237.790298" y="201.323889" style="fill: #1f77b4; stroke: #1f77b4"/>
     <use xlink:href="#m6b7f586073" x="1237.915721" y="220.079325" style="fill: #1f77b4; stroke: #1f77b4"/>
     <use xlink:href="#m6b7f586073" x="1238.041144" y="195.617621" style="fill: #1f77b4; stroke: #1f77b4"/>
     <use xlink:href="#m6b7f586073" x="1238.166568" y="194.51781" style="fill: #1f77b4; stroke: #1f77b4"/>
     <use xlink:href="#m6b7f586073" x="1238.291991" y="173.699937" style="fill: #1f77b4; stroke: #1f77b4"/>
     <use xlink:href="#m6b7f586073" x="1238.417415" y="190.205743" style="fill: #1f77b4; stroke: #1f77b4"/>
     <use xlink:href="#m6b7f586073" x="1238.542838" y="193.124456" style="fill: #1f77b4; stroke: #1f77b4"/>
     <use xlink:href="#m6b7f586073" x="1238.668261" y="206.031891" style="fill: #1f77b4; stroke: #1f77b4"/>
     <use xlink:href="#m6b7f586073" x="1238.793685" y="204.370334" style="fill: #1f77b4; stroke: #1f77b4"/>
     <use xlink:href="#m6b7f586073" x="1238.919108" y="195.792962" style="fill: #1f77b4; stroke: #1f77b4"/>
     <use xlink:href="#m6b7f586073" x="1239.044532" y="196.635778" style="fill: #1f77b4; stroke: #1f77b4"/>
     <use xlink:href="#m6b7f586073" x="1239.169955" y="192.753527" style="fill: #1f77b4; stroke: #1f77b4"/>
     <use xlink:href="#m6b7f586073" x="1239.295378" y="198.461727" style="fill: #1f77b4; stroke: #1f77b4"/>
     <use xlink:href="#m6b7f586073" x="1239.420802" y="198.539266" style="fill: #1f77b4; stroke: #1f77b4"/>
     <use xlink:href="#m6b7f586073" x="1239.546225" y="196.532053" style="fill: #1f77b4; stroke: #1f77b4"/>
     <use xlink:href="#m6b7f586073" x="1239.671649" y="205.515617" style="fill: #1f77b4; stroke: #1f77b4"/>
     <use xlink:href="#m6b7f586073" x="1239.797072" y="180.920059" style="fill: #1f77b4; stroke: #1f77b4"/>
     <use xlink:href="#m6b7f586073" x="1239.922495" y="181.224093" style="fill: #1f77b4; stroke: #1f77b4"/>
     <use xlink:href="#m6b7f586073" x="1240.047919" y="188.317596" style="fill: #1f77b4; stroke: #1f77b4"/>
     <use xlink:href="#m6b7f586073" x="1240.173342" y="188.207634" style="fill: #1f77b4; stroke: #1f77b4"/>
     <use xlink:href="#m6b7f586073" x="1240.298766" y="187.194045" style="fill: #1f77b4; stroke: #1f77b4"/>
     <use xlink:href="#m6b7f586073" x="1240.424189" y="189.290504" style="fill: #1f77b4; stroke: #1f77b4"/>
     <use xlink:href="#m6b7f586073" x="1240.549612" y="194.716907" style="fill: #1f77b4; stroke: #1f77b4"/>
     <use xlink:href="#m6b7f586073" x="1240.675036" y="196.721416" style="fill: #1f77b4; stroke: #1f77b4"/>
     <use xlink:href="#m6b7f586073" x="1240.800459" y="192.961233" style="fill: #1f77b4; stroke: #1f77b4"/>
     <use xlink:href="#m6b7f586073" x="1240.925883" y="158.363002" style="fill: #1f77b4; stroke: #1f77b4"/>
     <use xlink:href="#m6b7f586073" x="1241.051306" y="174.703605" style="fill: #1f77b4; stroke: #1f77b4"/>
     <use xlink:href="#m6b7f586073" x="1241.176729" y="176.967884" style="fill: #1f77b4; stroke: #1f77b4"/>
     <use xlink:href="#m6b7f586073" x="1361.959468" y="195.656677" style="fill: #1f77b4; stroke: #1f77b4"/>
    </g>
   </g>
   <g id="line2d_16">
    <defs>
     <path id="m975442a1dc" d="M 0 5 
C 1.326016 5 2.597899 4.473168 3.535534 3.535534 
C 4.473168 2.597899 5 1.326016 5 0 
C 5 -1.326016 4.473168 -2.597899 3.535534 -3.535534 
C 2.597899 -4.473168 1.326016 -5 0 -5 
C -1.326016 -5 -2.597899 -4.473168 -3.535534 -3.535534 
C -4.473168 -2.597899 -5 -1.326016 -5 0 
C -5 1.326016 -4.473168 2.597899 -3.535534 3.535534 
C -2.597899 4.473168 -1.326016 5 0 5 
z
" style="stroke: #1f77b4"/>
    </defs>
    <g clip-path="url(#p145eee84aa)">
     <use xlink:href="#m975442a1dc" x="233.148828" y="167.501854" style="fill: #1f77b4; stroke: #1f77b4"/>
     <use xlink:href="#m975442a1dc" x="358.572232" y="188.745191" style="fill: #1f77b4; stroke: #1f77b4"/>
     <use xlink:href="#m975442a1dc" x="358.697656" y="178.62157" style="fill: #1f77b4; stroke: #1f77b4"/>
     <use xlink:href="#m975442a1dc" x="358.823079" y="170.493164" style="fill: #1f77b4; stroke: #1f77b4"/>
     <use xlink:href="#m975442a1dc" x="358.948503" y="133.56811" style="fill: #1f77b4; stroke: #1f77b4"/>
     <use xlink:href="#m975442a1dc" x="359.073926" y="199.141252" style="fill: #1f77b4; stroke: #1f77b4"/>
     <use xlink:href="#m975442a1dc" x="359.199349" y="222.199519" style="fill: #1f77b4; stroke: #1f77b4"/>
     <use xlink:href="#m975442a1dc" x="483.995637" y="157.075577" style="fill: #1f77b4; stroke: #1f77b4"/>
     <use xlink:href="#m975442a1dc" x="609.419041" y="208.687258" style="fill: #1f77b4; stroke: #1f77b4"/>
     <use xlink:href="#m975442a1dc" x="734.842446" y="192.781949" style="fill: #1f77b4; stroke: #1f77b4"/>
     <use xlink:href="#m975442a1dc" x="734.967869" y="186.243368" style="fill: #1f77b4; stroke: #1f77b4"/>
     <use xlink:href="#m975442a1dc" x="735.093293" y="156.191277" style="fill: #1f77b4; stroke: #1f77b4"/>
     <use xlink:href="#m975442a1dc" x="735.218716" y="182.479051" style="fill: #1f77b4; stroke: #1f77b4"/>
     <use xlink:href="#m975442a1dc" x="860.26585" y="215.344685" style="fill: #1f77b4; stroke: #1f77b4"/>
     <use xlink:href="#m975442a1dc" x="985.689255" y="195.295074" style="fill: #1f77b4; stroke: #1f77b4"/>
     <use xlink:href="#m975442a1dc" x="1111.112659" y="223.513883" style="fill: #1f77b4; stroke: #1f77b4"/>
     <use xlink:href="#m975442a1dc" x="1111.238082" y="222.836557" style="fill: #1f77b4; stroke: #1f77b4"/>
     <use xlink:href="#m975442a1dc" x="1236.536064" y="229.368592" style="fill: #1f77b4; stroke: #1f77b4"/>
     <use xlink:href="#m975442a1dc" x="1236.661487" y="211.7813" style="fill: #1f77b4; stroke: #1f77b4"/>
     <use xlink:href="#m975442a1dc" x="1236.78691" y="211.408645" style="fill: #1f77b4; stroke: #1f77b4"/>
     <use xlink:href="#m975442a1dc" x="1236.912334" y="203.167938" style="fill: #1f77b4; stroke: #1f77b4"/>
     <use xlink:href="#m975442a1dc" x="1237.037757" y="204.116697" style="fill: #1f77b4; stroke: #1f77b4"/>
     <use xlink:href="#m975442a1dc" x="1237.163181" y="208.695315" style="fill: #1f77b4; stroke: #1f77b4"/>
     <use xlink:href="#m975442a1dc" x="1237.288604" y="208.40122" style="fill: #1f77b4; stroke: #1f77b4"/>
     <use xlink:href="#m975442a1dc" x="1237.414027" y="218.971523" style="fill: #1f77b4; stroke: #1f77b4"/>
     <use xlink:href="#m975442a1dc" x="1237.539451" y="195.545637" style="fill: #1f77b4; stroke: #1f77b4"/>
     <use xlink:href="#m975442a1dc" x="1237.664874" y="194.351128" style="fill: #1f77b4; stroke: #1f77b4"/>
     <use xlink:href="#m975442a1dc" x="1237.790298" y="227.247984" style="fill: #1f77b4; stroke: #1f77b4"/>
     <use xlink:href="#m975442a1dc" x="1237.915721" y="232.230983" style="fill: #1f77b4; stroke: #1f77b4"/>
     <use xlink:href="#m975442a1dc" x="1238.041144" y="206.515788" style="fill: #1f77b4; stroke: #1f77b4"/>
     <use xlink:href="#m975442a1dc" x="1238.166568" y="202.54349" style="fill: #1f77b4; stroke: #1f77b4"/>
     <use xlink:href="#m975442a1dc" x="1238.291991" y="195.272693" style="fill: #1f77b4; stroke: #1f77b4"/>
     <use xlink:href="#m975442a1dc" x="1238.417415" y="203.478148" style="fill: #1f77b4; stroke: #1f77b4"/>
     <use xlink:href="#m975442a1dc" x="1238.542838" y="203.697713" style="fill: #1f77b4; stroke: #1f77b4"/>
     <use xlink:href="#m975442a1dc" x="1238.668261" y="222.878355" style="fill: #1f77b4; stroke: #1f77b4"/>
     <use xlink:href="#m975442a1dc" x="1238.793685" y="217.206449" style="fill: #1f77b4; stroke: #1f77b4"/>
     <use xlink:href="#m975442a1dc" x="1238.919108" y="208.095039" style="fill: #1f77b4; stroke: #1f77b4"/>
     <use xlink:href="#m975442a1dc" x="1239.044532" y="204.978839" style="fill: #1f77b4; stroke: #1f77b4"/>
     <use xlink:href="#m975442a1dc" x="1239.169955" y="206.149177" style="fill: #1f77b4; stroke: #1f77b4"/>
     <use xlink:href="#m975442a1dc" x="1239.295378" y="209.567529" style="fill: #1f77b4; stroke: #1f77b4"/>
     <use xlink:href="#m975442a1dc" x="1239.420802" y="207.148294" style="fill: #1f77b4; stroke: #1f77b4"/>
     <use xlink:href="#m975442a1dc" x="1239.546225" y="211.070234" style="fill: #1f77b4; stroke: #1f77b4"/>
     <use xlink:href="#m975442a1dc" x="1239.671649" y="220.116681" style="fill: #1f77b4; stroke: #1f77b4"/>
     <use xlink:href="#m975442a1dc" x="1239.797072" y="190.495661" style="fill: #1f77b4; stroke: #1f77b4"/>
     <use xlink:href="#m975442a1dc" x="1239.922495" y="188.368507" style="fill: #1f77b4; stroke: #1f77b4"/>
     <use xlink:href="#m975442a1dc" x="1240.047919" y="199.42729" style="fill: #1f77b4; stroke: #1f77b4"/>
     <use xlink:href="#m975442a1dc" x="1240.173342" y="202.847657" style="fill: #1f77b4; stroke: #1f77b4"/>
     <use xlink:href="#m975442a1dc" x="1240.298766" y="197.388768" style="fill: #1f77b4; stroke: #1f77b4"/>
     <use xlink:href="#m975442a1dc" x="1240.424189" y="195.400604" style="fill: #1f77b4; stroke: #1f77b4"/>
     <use xlink:href="#m975442a1dc" x="1240.549612" y="204.535682" style="fill: #1f77b4; stroke: #1f77b4"/>
     <use xlink:href="#m975442a1dc" x="1240.675036" y="203.852817" style="fill: #1f77b4; stroke: #1f77b4"/>
     <use xlink:href="#m975442a1dc" x="1240.800459" y="205.440125" style="fill: #1f77b4; stroke: #1f77b4"/>
     <use xlink:href="#m975442a1dc" x="1240.925883" y="174.401507" style="fill: #1f77b4; stroke: #1f77b4"/>
     <use xlink:href="#m975442a1dc" x="1241.051306" y="185.941215" style="fill: #1f77b4; stroke: #1f77b4"/>
     <use xlink:href="#m975442a1dc" x="1241.176729" y="185.032743" style="fill: #1f77b4; stroke: #1f77b4"/>
     <use xlink:href="#m975442a1dc" x="1361.959468" y="214.212621" style="fill: #1f77b4; stroke: #1f77b4"/>
    </g>
   </g>
   <g id="patch_3">
    <path d="M 107.6 278.8 
L 107.6 50.4 
" style="fill: none; stroke: #000000; stroke-width: 4; stroke-linejoin: miter; stroke-linecap: square"/>
   </g>
   <g id="patch_4">
    <path d="M 1418.4 278.8 
L 1418.4 50.4 
" style="fill: none; stroke: #000000; stroke-width: 4; stroke-linejoin: miter; stroke-linecap: square"/>
   </g>
   <g id="patch_5">
    <path d="M 107.6 278.8 
L 1418.4 278.8 
" style="fill: none; stroke: #000000; stroke-width: 4; stroke-linejoin: miter; stroke-linecap: square"/>
   </g>
   <g id="patch_6">
    <path d="M 107.6 50.4 
L 1418.4 50.4 
" style="fill: none; stroke: #000000; stroke-width: 4; stroke-linejoin: miter; stroke-linecap: square"/>
   </g>
   <g id="text_16">
    <!-- WM - Genu -->
    <g transform="translate(685.685 43.455)scale(0.32 -0.32)">
     <defs>
      <path id="STIXGeneral-Regular-57" d="M 5965 4237 
L 5965 4115 
Q 5709 4064 5616 3990 
Q 5523 3917 5434 3667 
Q 4704 1709 4128 -70 
L 4032 -70 
Q 3642 1011 3008 2637 
L 2022 -70 
L 1926 -70 
Q 1709 576 1277 1753 
Q 845 2931 698 3347 
Q 538 3808 406 3958 
Q 275 4109 32 4115 
L 32 4237 
L 1594 4237 
L 1594 4115 
Q 1357 4109 1270 4064 
Q 1184 4019 1184 3917 
Q 1184 3808 1254 3616 
L 2176 1210 
L 2842 3021 
L 2662 3501 
Q 2509 3917 2400 4013 
Q 2291 4109 2010 4115 
L 2010 4237 
L 3706 4237 
L 3706 4115 
Q 3213 4102 3213 3891 
Q 3213 3808 3322 3520 
L 4237 1190 
L 5043 3360 
Q 5152 3667 5152 3853 
Q 5152 4109 4704 4115 
L 4704 4237 
L 5965 4237 
z
" transform="scale(0.015625)"/>
      <path id="STIXGeneral-Regular-4d" d="M 5530 0 
L 3738 0 
L 3738 122 
Q 4115 147 4214 265 
Q 4314 384 4314 787 
L 4314 3661 
L 2682 0 
L 2592 0 
L 979 3514 
L 979 966 
Q 979 448 1088 294 
Q 1197 141 1574 122 
L 1574 0 
L 77 0 
L 77 122 
Q 358 141 480 205 
Q 602 269 650 432 
Q 698 595 698 966 
L 698 3514 
Q 698 3878 589 3984 
Q 480 4090 90 4115 
L 90 4237 
L 1357 4237 
L 2835 1024 
L 4250 4237 
L 5523 4237 
L 5523 4115 
Q 5178 4109 5072 3993 
Q 4966 3878 4966 3520 
L 4966 717 
Q 4966 378 5072 262 
Q 5178 147 5530 122 
L 5530 0 
z
" transform="scale(0.015625)"/>
      <path id="STIXGeneral-Regular-2d" d="M 1824 1242 
L 250 1242 
L 250 1645 
L 1824 1645 
L 1824 1242 
z
" transform="scale(0.015625)"/>
      <path id="STIXGeneral-Regular-47" d="M 4538 2266 
L 4538 2150 
Q 4256 2125 4173 2035 
Q 4090 1946 4090 1638 
L 4090 358 
Q 3539 -90 2464 -90 
Q 1965 -90 1507 89 
Q 1050 269 736 595 
Q 205 1152 205 2093 
Q 205 3155 890 3776 
Q 1491 4326 2419 4326 
Q 2829 4326 3270 4179 
Q 3443 4115 3552 4115 
Q 3654 4115 3731 4176 
Q 3808 4237 3840 4326 
L 3981 4326 
L 4032 2976 
L 3885 2976 
Q 3680 3475 3430 3718 
Q 3059 4070 2496 4070 
Q 1856 4070 1427 3629 
Q 934 3136 934 2074 
Q 934 1190 1395 678 
Q 1856 166 2618 166 
Q 2982 166 3225 281 
Q 3469 397 3469 557 
L 3469 1562 
Q 3469 1933 3376 2025 
Q 3283 2118 2899 2150 
L 2899 2266 
L 4538 2266 
z
" transform="scale(0.015625)"/>
      <path id="STIXGeneral-Regular-6e" d="M 3104 0 
L 1773 0 
L 1779 96 
Q 2016 115 2096 233 
Q 2176 352 2176 672 
L 2176 1946 
Q 2176 2592 1709 2592 
Q 1549 2592 1408 2515 
Q 1267 2438 1050 2227 
L 1050 461 
Q 1050 269 1136 192 
Q 1222 115 1466 96 
L 1466 0 
L 115 0 
L 115 96 
Q 358 115 435 214 
Q 512 314 512 602 
L 512 2157 
Q 512 2394 467 2483 
Q 422 2573 288 2573 
Q 160 2573 102 2547 
L 102 2656 
Q 550 2784 979 2944 
L 1030 2925 
L 1030 2426 
L 1037 2426 
Q 1491 2944 1958 2944 
Q 2323 2944 2518 2688 
Q 2714 2432 2714 1958 
L 2714 544 
Q 2714 288 2790 205 
Q 2867 122 3104 96 
L 3104 0 
z
" transform="scale(0.015625)"/>
      <path id="STIXGeneral-Regular-75" d="M 3072 320 
L 3072 230 
Q 2573 96 2195 -58 
L 2163 -38 
L 2163 486 
L 2150 486 
Q 1747 -64 1235 -64 
Q 870 -64 662 160 
Q 454 384 454 755 
L 454 2362 
Q 454 2598 371 2688 
Q 288 2778 58 2790 
L 58 2880 
L 992 2880 
L 992 813 
Q 992 595 1123 451 
Q 1254 307 1446 307 
Q 1760 307 1984 506 
Q 2067 582 2099 649 
Q 2131 717 2131 877 
L 2131 2355 
Q 2131 2605 2041 2678 
Q 1952 2752 1658 2771 
L 1658 2880 
L 2669 2880 
L 2669 685 
Q 2669 461 2742 390 
Q 2816 320 3034 320 
L 3072 320 
z
" transform="scale(0.015625)"/>
     </defs>
     <use xlink:href="#STIXGeneral-Regular-57"/>
     <use xlink:href="#STIXGeneral-Regular-4d" x="94.399994"/>
     <use xlink:href="#STIXGeneral-Regular-20" x="183.299988"/>
     <use xlink:href="#STIXGeneral-Regular-2d" x="208.299973"/>
     <use xlink:href="#STIXGeneral-Regular-20" x="241.59996"/>
     <use xlink:href="#STIXGeneral-Regular-47" x="266.599945"/>
     <use xlink:href="#STIXGeneral-Regular-65" x="338.799927"/>
     <use xlink:href="#STIXGeneral-Regular-6e" x="383.199921"/>
     <use xlink:href="#STIXGeneral-Regular-75" x="433.199905"/>
    </g>
   </g>
  </g>
 </g>
 <defs>
  <clipPath id="p145eee84aa">
   <rect x="107.6" y="50.4" width="1310.8" height="228.4"/>
  </clipPath>
 </defs>
</svg>
