<?xml version="1.0" encoding="utf-8" standalone="no"?>
<!DOCTYPE svg PUBLIC "-//W3C//DTD SVG 1.1//EN"
  "http://www.w3.org/Graphics/SVG/1.1/DTD/svg11.dtd">
<svg height="360pt" version="1.1" viewBox="0 0 1440 360" width="1440pt" xmlns="http://www.w3.org/2000/svg" xmlns:xlink="http://www.w3.org/1999/xlink">
 <metadata>
  <rdf:RDF xmlns:cc="http://creativecommons.org/ns#" xmlns:dc="http://purl.org/dc/elements/1.1/" xmlns:rdf="http://www.w3.org/1999/02/22-rdf-syntax-ns#">
   <cc:Work>
    <dc:type rdf:resource="http://purl.org/dc/dcmitype/StillImage"/>
    <dc:date>2021-08-04T22:47:48.143827</dc:date>
    <dc:format>image/svg+xml</dc:format>
    <dc:creator>
     <cc:Agent>
      <dc:title>Matplotlib v3.4.2, https://matplotlib.org/</dc:title>
     </cc:Agent>
    </dc:creator>
   </cc:Work>
  </rdf:RDF>
 </metadata>
 <defs>
  <style type="text/css">*{stroke-linecap:butt;stroke-linejoin:round;}</style>
 </defs>
 <g id="figure_1">
  <g id="patch_1">
   <path d="M 0 360 
L 1440 360 
L 1440 0 
L 0 0 
z
" style="fill:#ffffff;"/>
  </g>
  <g id="axes_1">
   <g id="patch_2">
    <path d="M 107.6 278.8 
L 1418.4 278.8 
L 1418.4 50.4 
L 107.6 50.4 
z
" style="fill:#ffffff;"/>
   </g>
   <g id="matplotlib.axis_1">
    <g id="xtick_1">
     <g id="line2d_1">
      <defs>
       <path d="M 0 0 
L 0 3.5 
" id="m8460299bf9" style="stroke:#000000;stroke-width:0.8;"/>
      </defs>
      <g>
       <use style="stroke:#000000;stroke-width:0.8;" x="107.6" xlink:href="#m8460299bf9" y="278.8"/>
      </g>
     </g>
     <g id="text_1">
      <!-- 0 -->
      <g transform="translate(101.6 302.19125)scale(0.24 -0.24)">
       <defs>
        <path d="M 3046 2112 
Q 3046 1683 2963 1302 
Q 2880 922 2717 602 
Q 2554 282 2266 96 
Q 1978 -90 1600 -90 
Q 1210 -90 915 108 
Q 621 307 461 640 
Q 301 973 227 1350 
Q 154 1728 154 2150 
Q 154 2746 301 3222 
Q 448 3699 790 4012 
Q 1133 4326 1626 4326 
Q 2253 4326 2649 3712 
Q 3046 3098 3046 2112 
z
M 2432 2080 
Q 2432 3091 2217 3625 
Q 2003 4160 1587 4160 
Q 1190 4160 979 3622 
Q 768 3085 768 2106 
Q 768 1120 979 598 
Q 1190 77 1600 77 
Q 2003 77 2217 598 
Q 2432 1120 2432 2080 
z
" id="STIXGeneral-Regular-30" transform="scale(0.015625)"/>
       </defs>
       <use xlink:href="#STIXGeneral-Regular-30"/>
      </g>
     </g>
    </g>
    <g id="xtick_2">
     <g id="line2d_2">
      <g>
       <use style="stroke:#000000;stroke-width:0.8;" x="233.023404" xlink:href="#m8460299bf9" y="278.8"/>
      </g>
     </g>
     <g id="text_2">
      <!-- 1 -->
      <g transform="translate(227.023404 302.19125)scale(0.24 -0.24)">
       <defs>
        <path d="M 2522 0 
L 755 0 
L 755 96 
Q 1107 115 1235 227 
Q 1363 339 1363 608 
L 1363 3482 
Q 1363 3795 1171 3795 
Q 1082 3795 883 3718 
L 710 3654 
L 710 3744 
L 1856 4326 
L 1914 4307 
L 1914 486 
Q 1914 275 2042 185 
Q 2170 96 2522 96 
L 2522 0 
z
" id="STIXGeneral-Regular-31" transform="scale(0.015625)"/>
       </defs>
       <use xlink:href="#STIXGeneral-Regular-31"/>
      </g>
     </g>
    </g>
    <g id="xtick_3">
     <g id="line2d_3">
      <g>
       <use style="stroke:#000000;stroke-width:0.8;" x="358.446809" xlink:href="#m8460299bf9" y="278.8"/>
      </g>
     </g>
     <g id="text_3">
      <!-- 2 -->
      <g transform="translate(352.446809 302.19125)scale(0.24 -0.24)">
       <defs>
        <path d="M 3034 877 
L 2688 0 
L 186 0 
L 186 77 
L 1325 1286 
Q 1773 1754 1965 2144 
Q 2157 2534 2157 2950 
Q 2157 3379 1920 3616 
Q 1683 3853 1267 3853 
Q 922 3853 720 3673 
Q 518 3494 326 3021 
L 192 3053 
Q 301 3648 630 3987 
Q 960 4326 1523 4326 
Q 2054 4326 2380 4006 
Q 2707 3686 2707 3200 
Q 2707 2477 1888 1613 
L 832 486 
L 2330 486 
Q 2541 486 2665 569 
Q 2790 653 2944 915 
L 3034 877 
z
" id="STIXGeneral-Regular-32" transform="scale(0.015625)"/>
       </defs>
       <use xlink:href="#STIXGeneral-Regular-32"/>
      </g>
     </g>
    </g>
    <g id="xtick_4">
     <g id="line2d_4">
      <g>
       <use style="stroke:#000000;stroke-width:0.8;" x="483.870213" xlink:href="#m8460299bf9" y="278.8"/>
      </g>
     </g>
     <g id="text_4">
      <!-- 3 -->
      <g transform="translate(477.870213 302.19125)scale(0.24 -0.24)">
       <defs>
        <path d="M 390 3264 
L 288 3290 
Q 435 3770 748 4048 
Q 1062 4326 1542 4326 
Q 1990 4326 2265 4083 
Q 2541 3840 2541 3450 
Q 2541 2925 1946 2566 
Q 2298 2413 2477 2227 
Q 2758 1914 2758 1402 
Q 2758 890 2464 506 
Q 2246 211 1840 60 
Q 1434 -90 979 -90 
Q 262 -90 262 275 
Q 262 378 339 442 
Q 416 506 525 506 
Q 685 506 915 339 
Q 1197 141 1466 141 
Q 1818 141 2058 425 
Q 2298 710 2298 1120 
Q 2298 1856 1632 2048 
Q 1434 2112 979 2112 
L 979 2202 
Q 1338 2323 1517 2432 
Q 2035 2726 2035 3290 
Q 2035 3610 1852 3776 
Q 1670 3942 1344 3942 
Q 768 3942 390 3264 
z
" id="STIXGeneral-Regular-33" transform="scale(0.015625)"/>
       </defs>
       <use xlink:href="#STIXGeneral-Regular-33"/>
      </g>
     </g>
    </g>
    <g id="xtick_5">
     <g id="line2d_5">
      <g>
       <use style="stroke:#000000;stroke-width:0.8;" x="609.293618" xlink:href="#m8460299bf9" y="278.8"/>
      </g>
     </g>
     <g id="text_5">
      <!-- 4 -->
      <g transform="translate(603.293618 302.19125)scale(0.24 -0.24)">
       <defs>
        <path d="M 3027 1069 
L 2368 1069 
L 2368 0 
L 1869 0 
L 1869 1069 
L 77 1069 
L 77 1478 
L 2086 4326 
L 2368 4326 
L 2368 1478 
L 3027 1478 
L 3027 1069 
z
M 1869 1478 
L 1869 3674 
L 333 1478 
L 1869 1478 
z
" id="STIXGeneral-Regular-34" transform="scale(0.015625)"/>
       </defs>
       <use xlink:href="#STIXGeneral-Regular-34"/>
      </g>
     </g>
    </g>
    <g id="xtick_6">
     <g id="line2d_6">
      <g>
       <use style="stroke:#000000;stroke-width:0.8;" x="734.717022" xlink:href="#m8460299bf9" y="278.8"/>
      </g>
     </g>
     <g id="text_6">
      <!-- 5 -->
      <g transform="translate(728.717022 302.19125)scale(0.24 -0.24)">
       <defs>
        <path d="M 2803 4358 
L 2573 3814 
Q 2534 3731 2400 3731 
L 1158 3731 
L 902 3187 
Q 1606 3053 1920 2896 
Q 2234 2739 2502 2368 
Q 2726 2061 2726 1555 
Q 2726 1094 2576 780 
Q 2426 467 2099 224 
Q 1664 -90 1011 -90 
Q 646 -90 422 19 
Q 198 128 198 307 
Q 198 550 486 550 
Q 717 550 960 352 
Q 1210 147 1414 147 
Q 1747 147 2012 480 
Q 2278 813 2278 1229 
Q 2278 1843 1850 2189 
Q 1293 2637 486 2637 
Q 410 2637 410 2688 
L 416 2720 
L 1114 4237 
L 2438 4237 
Q 2547 4237 2608 4269 
Q 2669 4301 2746 4403 
L 2803 4358 
z
" id="STIXGeneral-Regular-35" transform="scale(0.015625)"/>
       </defs>
       <use xlink:href="#STIXGeneral-Regular-35"/>
      </g>
     </g>
    </g>
    <g id="xtick_7">
     <g id="line2d_7">
      <g>
       <use style="stroke:#000000;stroke-width:0.8;" x="860.140427" xlink:href="#m8460299bf9" y="278.8"/>
      </g>
     </g>
     <g id="text_7">
      <!-- 6 -->
      <g transform="translate(854.140427 302.19125)scale(0.24 -0.24)">
       <defs>
        <path d="M 2854 4378 
L 2867 4275 
Q 2112 4154 1606 3664 
Q 1101 3174 973 2451 
Q 1344 2739 1786 2739 
Q 2349 2739 2672 2380 
Q 2995 2022 2995 1402 
Q 2995 774 2669 378 
Q 2291 -90 1651 -90 
Q 870 -90 518 557 
Q 218 1107 218 1786 
Q 218 2835 915 3552 
Q 1312 3962 1731 4131 
Q 2150 4301 2854 4378 
z
M 2419 1203 
Q 2419 2445 1555 2445 
Q 1235 2445 1024 2275 
Q 813 2106 813 1702 
Q 813 954 1046 522 
Q 1280 90 1722 90 
Q 2061 90 2240 394 
Q 2419 698 2419 1203 
z
" id="STIXGeneral-Regular-36" transform="scale(0.015625)"/>
       </defs>
       <use xlink:href="#STIXGeneral-Regular-36"/>
      </g>
     </g>
    </g>
    <g id="xtick_8">
     <g id="line2d_8">
      <g>
       <use style="stroke:#000000;stroke-width:0.8;" x="985.563831" xlink:href="#m8460299bf9" y="278.8"/>
      </g>
     </g>
     <g id="text_8">
      <!-- 7 -->
      <g transform="translate(979.563831 302.19125)scale(0.24 -0.24)">
       <defs>
        <path d="M 2874 4134 
L 1517 -51 
L 1101 -51 
L 2368 3763 
L 992 3763 
Q 717 3763 582 3667 
Q 448 3571 243 3238 
L 128 3296 
L 512 4237 
L 2874 4237 
L 2874 4134 
z
" id="STIXGeneral-Regular-37" transform="scale(0.015625)"/>
       </defs>
       <use xlink:href="#STIXGeneral-Regular-37"/>
      </g>
     </g>
    </g>
    <g id="xtick_9">
     <g id="line2d_9">
      <g>
       <use style="stroke:#000000;stroke-width:0.8;" x="1110.987236" xlink:href="#m8460299bf9" y="278.8"/>
      </g>
     </g>
     <g id="text_9">
      <!-- 8 -->
      <g transform="translate(1104.987236 302.19125)scale(0.24 -0.24)">
       <defs>
        <path d="M 2848 992 
Q 2848 499 2505 204 
Q 2163 -90 1587 -90 
Q 1050 -90 704 204 
Q 358 499 358 954 
Q 358 1293 524 1533 
Q 691 1773 1190 2125 
Q 710 2522 553 2765 
Q 397 3008 397 3328 
Q 397 3782 745 4054 
Q 1094 4326 1638 4326 
Q 2106 4326 2410 4060 
Q 2714 3795 2714 3411 
Q 2714 3059 2531 2848 
Q 2349 2637 1856 2374 
Q 2432 1990 2640 1689 
Q 2848 1389 2848 992 
z
M 2272 3411 
Q 2272 3744 2086 3945 
Q 1901 4147 1574 4147 
Q 1248 4147 1059 3977 
Q 870 3808 870 3513 
Q 870 3219 1059 2979 
Q 1248 2739 1670 2490 
Q 1997 2682 2134 2896 
Q 2272 3110 2272 3411 
z
M 1734 1741 
L 1357 1997 
Q 1075 1766 960 1545 
Q 845 1325 845 1011 
Q 845 576 1065 333 
Q 1286 90 1658 90 
Q 1971 90 2166 285 
Q 2362 480 2362 794 
Q 2362 1082 2214 1299 
Q 2067 1517 1734 1741 
z
" id="STIXGeneral-Regular-38" transform="scale(0.015625)"/>
       </defs>
       <use xlink:href="#STIXGeneral-Regular-38"/>
      </g>
     </g>
    </g>
    <g id="xtick_10">
     <g id="line2d_10">
      <g>
       <use style="stroke:#000000;stroke-width:0.8;" x="1236.41064" xlink:href="#m8460299bf9" y="278.8"/>
      </g>
     </g>
     <g id="text_10">
      <!-- 9 -->
      <g transform="translate(1230.41064 302.19125)scale(0.24 -0.24)">
       <defs>
        <path d="M 378 -141 
L 358 -13 
Q 1094 115 1603 608 
Q 2112 1101 2304 1882 
Q 1933 1517 1344 1517 
Q 826 1517 509 1875 
Q 192 2234 192 2816 
Q 192 3462 573 3894 
Q 954 4326 1523 4326 
Q 2131 4326 2528 3840 
Q 2938 3328 2938 2522 
Q 2938 1958 2742 1462 
Q 2547 966 2170 621 
Q 1773 262 1395 105 
Q 1018 -51 378 -141 
z
M 2317 2272 
L 2317 2522 
Q 2317 4147 1472 4147 
Q 1171 4147 1005 3930 
Q 909 3802 845 3546 
Q 781 3290 781 3034 
Q 781 2464 995 2128 
Q 1210 1792 1568 1792 
Q 1824 1792 2070 1917 
Q 2317 2042 2317 2272 
z
" id="STIXGeneral-Regular-39" transform="scale(0.015625)"/>
       </defs>
       <use xlink:href="#STIXGeneral-Regular-39"/>
      </g>
     </g>
    </g>
    <g id="xtick_11">
     <g id="line2d_11">
      <g>
       <use style="stroke:#000000;stroke-width:0.8;" x="1361.834045" xlink:href="#m8460299bf9" y="278.8"/>
      </g>
     </g>
     <g id="text_11">
      <!-- 10 -->
      <g transform="translate(1349.834045 302.19125)scale(0.24 -0.24)">
       <use xlink:href="#STIXGeneral-Regular-31"/>
       <use x="49.999985" xlink:href="#STIXGeneral-Regular-30"/>
      </g>
     </g>
    </g>
    <g id="text_12">
     <!-- Site # -->
     <g transform="translate(728.410938 331.889063)scale(0.3 -0.3)">
      <defs>
       <path d="M 3002 2963 
L 2842 2963 
Q 2733 3360 2579 3565 
Q 2189 4064 1651 4064 
Q 1357 4064 1181 3894 
Q 1005 3725 1005 3456 
Q 1005 3328 1069 3206 
Q 1133 3085 1206 2998 
Q 1280 2912 1465 2784 
Q 1651 2656 1766 2589 
Q 1882 2522 2150 2362 
Q 2669 2061 2905 1763 
Q 3142 1466 3142 1107 
Q 3142 576 2771 243 
Q 2400 -90 1837 -90 
Q 1421 -90 1082 58 
Q 915 128 781 128 
Q 704 128 653 70 
Q 602 13 602 -83 
L 461 -83 
L 275 1274 
L 416 1274 
Q 845 141 1734 141 
Q 2074 141 2285 342 
Q 2496 544 2496 858 
Q 2496 1158 2310 1363 
Q 2003 1696 1235 2106 
Q 454 2522 454 3206 
Q 454 3718 768 4022 
Q 1082 4326 1568 4326 
Q 1907 4326 2240 4186 
Q 2413 4109 2522 4109 
Q 2688 4109 2726 4326 
L 2861 4326 
L 3002 2963 
z
" id="STIXGeneral-Regular-53" transform="scale(0.015625)"/>
       <path d="M 1152 4045 
Q 1152 3904 1056 3811 
Q 960 3718 819 3718 
Q 685 3718 592 3811 
Q 499 3904 499 4045 
Q 499 4179 595 4275 
Q 691 4371 826 4371 
Q 966 4371 1059 4275 
Q 1152 4179 1152 4045 
z
M 1619 0 
L 102 0 
L 102 96 
Q 435 115 521 211 
Q 608 307 608 666 
L 608 2118 
Q 608 2342 563 2432 
Q 518 2522 397 2522 
Q 243 2522 128 2490 
L 128 2592 
L 1120 2944 
L 1146 2918 
L 1146 672 
Q 1146 314 1226 218 
Q 1306 122 1619 96 
L 1619 0 
z
" id="STIXGeneral-Regular-69" transform="scale(0.015625)"/>
       <path d="M 1702 493 
L 1786 422 
Q 1478 -64 1011 -64 
Q 448 -64 448 749 
L 448 2675 
L 109 2675 
Q 83 2694 83 2720 
Q 83 2771 192 2842 
Q 435 2982 813 3526 
Q 826 3546 874 3606 
Q 922 3667 941 3706 
Q 986 3706 986 3622 
L 986 2880 
L 1632 2880 
L 1632 2675 
L 986 2675 
L 986 845 
Q 986 538 1062 403 
Q 1139 269 1318 269 
Q 1510 269 1702 493 
z
" id="STIXGeneral-Regular-74" transform="scale(0.015625)"/>
       <path d="M 2611 1050 
L 2714 1005 
Q 2330 -64 1376 -64 
Q 813 -64 486 329 
Q 160 723 160 1389 
Q 160 2074 525 2509 
Q 890 2944 1485 2944 
Q 2061 2944 2374 2502 
Q 2560 2246 2592 1773 
L 621 1773 
Q 646 1370 700 1158 
Q 755 947 915 730 
Q 1184 378 1626 378 
Q 1939 378 2153 531 
Q 2368 685 2611 1050 
z
M 634 1978 
L 1939 1978 
Q 1882 2381 1750 2547 
Q 1619 2714 1312 2714 
Q 1043 2714 864 2525 
Q 685 2336 634 1978 
z
" id="STIXGeneral-Regular-65" transform="scale(0.015625)"/>
       <path id="STIXGeneral-Regular-20" transform="scale(0.015625)"/>
       <path d="M 3168 2592 
L 2502 2592 
L 2374 1734 
L 3008 1734 
L 3008 1382 
L 2317 1382 
L 2118 0 
L 1747 0 
L 1946 1382 
L 1088 1382 
L 877 0 
L 506 0 
L 717 1382 
L 38 1382 
L 38 1734 
L 774 1734 
L 909 2592 
L 211 2592 
L 211 2944 
L 960 2944 
L 1158 4237 
L 1530 4237 
L 1331 2944 
L 2182 2944 
L 2374 4237 
L 2746 4237 
L 2554 2944 
L 3168 2944 
L 3168 2592 
z
M 2131 2592 
L 1280 2592 
L 1146 1734 
L 2003 1734 
L 2131 2592 
z
" id="STIXGeneral-Regular-23" transform="scale(0.015625)"/>
      </defs>
      <use xlink:href="#STIXGeneral-Regular-53"/>
      <use x="55.599991" xlink:href="#STIXGeneral-Regular-69"/>
      <use x="83.399979" xlink:href="#STIXGeneral-Regular-74"/>
      <use x="111.199966" xlink:href="#STIXGeneral-Regular-65"/>
      <use x="155.59996" xlink:href="#STIXGeneral-Regular-20"/>
      <use x="180.599945" xlink:href="#STIXGeneral-Regular-23"/>
     </g>
    </g>
   </g>
   <g id="matplotlib.axis_2">
    <g id="ytick_1">
     <g id="line2d_12">
      <defs>
       <path d="M 0 0 
L -3.5 0 
" id="mc4240de67f" style="stroke:#000000;stroke-width:0.8;"/>
      </defs>
      <g>
       <use style="stroke:#000000;stroke-width:0.8;" x="107.6" xlink:href="#mc4240de67f" y="234.898401"/>
      </g>
     </g>
     <g id="text_13">
      <!-- 800 -->
      <g transform="translate(64.6 243.094026)scale(0.24 -0.24)">
       <use xlink:href="#STIXGeneral-Regular-38"/>
       <use x="49.999985" xlink:href="#STIXGeneral-Regular-30"/>
       <use x="99.999969" xlink:href="#STIXGeneral-Regular-30"/>
      </g>
     </g>
    </g>
    <g id="ytick_2">
     <g id="line2d_13">
      <g>
       <use style="stroke:#000000;stroke-width:0.8;" x="107.6" xlink:href="#mc4240de67f" y="145.142233"/>
      </g>
     </g>
     <g id="text_14">
      <!-- 1000 -->
      <g transform="translate(52.6 153.337858)scale(0.24 -0.24)">
       <use xlink:href="#STIXGeneral-Regular-31"/>
       <use x="49.999985" xlink:href="#STIXGeneral-Regular-30"/>
       <use x="99.999969" xlink:href="#STIXGeneral-Regular-30"/>
       <use x="149.999954" xlink:href="#STIXGeneral-Regular-30"/>
      </g>
     </g>
    </g>
    <g id="ytick_3">
     <g id="line2d_14">
      <g>
       <use style="stroke:#000000;stroke-width:0.8;" x="107.6" xlink:href="#mc4240de67f" y="55.386066"/>
      </g>
     </g>
     <g id="text_15">
      <!-- 1200 -->
      <g transform="translate(52.6 63.581691)scale(0.24 -0.24)">
       <use xlink:href="#STIXGeneral-Regular-31"/>
       <use x="49.999985" xlink:href="#STIXGeneral-Regular-32"/>
       <use x="99.999969" xlink:href="#STIXGeneral-Regular-30"/>
       <use x="149.999954" xlink:href="#STIXGeneral-Regular-30"/>
      </g>
     </g>
    </g>
    <g id="text_16">
     <!-- T$_1$ (ms) -->
     <g transform="translate(42.089062 211.25)rotate(-90)scale(0.3 -0.3)">
      <defs>
       <path d="M 3795 3149 
L 3642 3149 
Q 3539 3674 3353 3821 
Q 3168 3968 2656 3968 
L 2278 3968 
L 2278 710 
Q 2278 346 2387 243 
Q 2496 141 2893 122 
L 2893 0 
L 1024 0 
L 1024 122 
Q 1427 147 1526 256 
Q 1626 365 1626 787 
L 1626 3968 
L 1242 3968 
Q 723 3968 540 3817 
Q 358 3667 262 3149 
L 109 3149 
L 154 4237 
L 3750 4237 
L 3795 3149 
z
" id="STIXGeneral-Regular-54" transform="scale(0.015625)"/>
       <path d="M 1946 -1030 
L 1869 -1133 
Q 1126 -710 716 32 
Q 307 774 307 1613 
Q 307 3386 1888 4326 
L 1946 4224 
Q 1293 3667 1075 3126 
Q 858 2586 858 1632 
Q 858 685 1082 96 
Q 1306 -493 1946 -1030 
z
" id="STIXGeneral-Regular-28" transform="scale(0.015625)"/>
       <path d="M 4960 0 
L 3565 0 
L 3565 96 
Q 3834 122 3907 208 
Q 3981 294 3981 576 
L 3981 1894 
Q 3981 2278 3869 2444 
Q 3757 2611 3488 2611 
Q 3264 2611 3107 2521 
Q 2950 2432 2803 2221 
L 2803 608 
Q 2803 301 2896 201 
Q 2989 102 3264 96 
L 3264 0 
L 1830 0 
L 1830 96 
Q 2112 115 2189 188 
Q 2266 262 2266 550 
L 2266 1901 
Q 2266 2611 1850 2611 
Q 1670 2611 1468 2531 
Q 1267 2451 1171 2336 
Q 1088 2240 1088 2227 
L 1088 448 
Q 1088 243 1177 176 
Q 1267 109 1523 96 
L 1523 0 
L 102 0 
L 102 96 
Q 371 102 460 195 
Q 550 288 550 563 
L 550 2150 
Q 550 2387 499 2480 
Q 448 2573 326 2573 
Q 230 2573 122 2547 
L 122 2656 
Q 557 2778 1011 2944 
L 1062 2925 
L 1062 2451 
L 1075 2451 
Q 1363 2752 1584 2848 
Q 1805 2944 2054 2944 
Q 2560 2944 2733 2406 
Q 3232 2944 3776 2944 
Q 4518 2944 4518 1792 
L 4518 493 
Q 4518 282 4582 202 
Q 4646 122 4794 109 
L 4960 96 
L 4960 0 
z
" id="STIXGeneral-Regular-6d" transform="scale(0.015625)"/>
       <path d="M 998 1926 
L 1664 1523 
Q 1984 1331 2105 1164 
Q 2227 998 2227 736 
Q 2227 416 1961 176 
Q 1696 -64 1331 -64 
Q 1030 -64 864 -6 
Q 691 51 570 51 
Q 461 51 416 -26 
L 333 -26 
L 333 979 
L 435 979 
Q 538 512 730 294 
Q 922 77 1248 77 
Q 1485 77 1632 211 
Q 1779 346 1779 550 
Q 1779 845 1440 1030 
L 1094 1222 
Q 326 1651 326 2150 
Q 326 2522 566 2730 
Q 806 2938 1210 2938 
Q 1491 2938 1638 2867 
Q 1754 2816 1818 2816 
Q 1862 2816 1920 2880 
L 1990 2880 
L 2022 2010 
L 1926 2010 
Q 1818 2445 1654 2621 
Q 1491 2797 1203 2797 
Q 986 2797 854 2688 
Q 723 2579 723 2362 
Q 723 2253 796 2128 
Q 870 2003 998 1926 
z
" id="STIXGeneral-Regular-73" transform="scale(0.015625)"/>
       <path d="M 186 4224 
L 262 4326 
Q 992 3891 1408 3148 
Q 1824 2406 1824 1581 
Q 1824 -166 243 -1133 
L 186 -1030 
Q 845 -486 1059 54 
Q 1274 595 1274 1562 
Q 1274 2534 1059 3120 
Q 845 3706 186 4224 
z
" id="STIXGeneral-Regular-29" transform="scale(0.015625)"/>
      </defs>
      <use transform="translate(0 0.40625)" xlink:href="#STIXGeneral-Regular-54"/>
      <use transform="translate(62.643272 -12.821875)scale(0.7)" xlink:href="#STIXGeneral-Regular-31"/>
      <use transform="translate(102.052636 0.40625)" xlink:href="#STIXGeneral-Regular-20"/>
      <use transform="translate(127.052621 0.40625)" xlink:href="#STIXGeneral-Regular-28"/>
      <use transform="translate(160.352609 0.40625)" xlink:href="#STIXGeneral-Regular-6d"/>
      <use transform="translate(238.152597 0.40625)" xlink:href="#STIXGeneral-Regular-73"/>
      <use transform="translate(277.052591 0.40625)" xlink:href="#STIXGeneral-Regular-29"/>
     </g>
    </g>
   </g>
   <g id="LineCollection_1">
    <path clip-path="url(#p5e18880b40)" d="M 233.148828 195.233819 
L 233.148828 171.673693 
" style="fill:none;stroke:#1f77b4;stroke-width:3;"/>
    <path clip-path="url(#p5e18880b40)" d="M 358.572232 233.797062 
L 358.572232 146.089192 
" style="fill:none;stroke:#1f77b4;stroke-width:3;"/>
    <path clip-path="url(#p5e18880b40)" d="M 358.697656 219.794539 
L 358.697656 185.310506 
" style="fill:none;stroke:#1f77b4;stroke-width:3;"/>
    <path clip-path="url(#p5e18880b40)" d="M 358.823079 213.531328 
L 358.823079 182.676188 
" style="fill:none;stroke:#1f77b4;stroke-width:3;"/>
    <path clip-path="url(#p5e18880b40)" d="M 358.948503 181.68797 
L 358.948503 147.410654 
" style="fill:none;stroke:#1f77b4;stroke-width:3;"/>
    <path clip-path="url(#p5e18880b40)" d="M 359.073926 213.543843 
L 359.073926 175.321618 
" style="fill:none;stroke:#1f77b4;stroke-width:3;"/>
    <path clip-path="url(#p5e18880b40)" d="M 359.199349 218.186106 
L 359.199349 179.026678 
" style="fill:none;stroke:#1f77b4;stroke-width:3;"/>
    <path clip-path="url(#p5e18880b40)" d="M 483.995637 138.112919 
L 483.995637 60.781818 
" style="fill:none;stroke:#1f77b4;stroke-width:3;"/>
    <path clip-path="url(#p5e18880b40)" d="M 609.419041 229.47491 
L 609.419041 184.518688 
" style="fill:none;stroke:#1f77b4;stroke-width:3;"/>
    <path clip-path="url(#p5e18880b40)" d="M 734.842446 262.960333 
L 734.842446 128.41112 
" style="fill:none;stroke:#1f77b4;stroke-width:3;"/>
    <path clip-path="url(#p5e18880b40)" d="M 734.967869 250.669364 
L 734.967869 193.180725 
" style="fill:none;stroke:#1f77b4;stroke-width:3;"/>
    <path clip-path="url(#p5e18880b40)" d="M 735.093293 228.810786 
L 735.093293 125.836033 
" style="fill:none;stroke:#1f77b4;stroke-width:3;"/>
    <path clip-path="url(#p5e18880b40)" d="M 735.218716 219.85312 
L 735.218716 178.475333 
" style="fill:none;stroke:#1f77b4;stroke-width:3;"/>
    <path clip-path="url(#p5e18880b40)" d="M 860.26585 255.53954 
L 860.26585 235.669493 
" style="fill:none;stroke:#1f77b4;stroke-width:3;"/>
    <path clip-path="url(#p5e18880b40)" d="M 985.689255 245.291974 
L 985.689255 217.927695 
" style="fill:none;stroke:#1f77b4;stroke-width:3;"/>
    <path clip-path="url(#p5e18880b40)" d="M 1111.112659 231.175921 
L 1111.112659 215.921546 
" style="fill:none;stroke:#1f77b4;stroke-width:3;"/>
    <path clip-path="url(#p5e18880b40)" d="M 1111.238082 236.595366 
L 1111.238082 209.878296 
" style="fill:none;stroke:#1f77b4;stroke-width:3;"/>
    <path clip-path="url(#p5e18880b40)" d="M 1236.536064 242.687153 
L 1236.536064 218.417661 
" style="fill:none;stroke:#1f77b4;stroke-width:3;"/>
    <path clip-path="url(#p5e18880b40)" d="M 1236.661487 237.0853 
L 1236.661487 218.985989 
" style="fill:none;stroke:#1f77b4;stroke-width:3;"/>
    <path clip-path="url(#p5e18880b40)" d="M 1236.78691 233.442278 
L 1236.78691 220.668736 
" style="fill:none;stroke:#1f77b4;stroke-width:3;"/>
    <path clip-path="url(#p5e18880b40)" d="M 1236.912334 228.770258 
L 1236.912334 214.850055 
" style="fill:none;stroke:#1f77b4;stroke-width:3;"/>
    <path clip-path="url(#p5e18880b40)" d="M 1237.037757 225.984353 
L 1237.037757 215.31307 
" style="fill:none;stroke:#1f77b4;stroke-width:3;"/>
    <path clip-path="url(#p5e18880b40)" d="M 1237.163181 225.020626 
L 1237.163181 202.34664 
" style="fill:none;stroke:#1f77b4;stroke-width:3;"/>
    <path clip-path="url(#p5e18880b40)" d="M 1237.288604 220.955445 
L 1237.288604 207.686359 
" style="fill:none;stroke:#1f77b4;stroke-width:3;"/>
    <path clip-path="url(#p5e18880b40)" d="M 1237.414027 235.571393 
L 1237.414027 212.827538 
" style="fill:none;stroke:#1f77b4;stroke-width:3;"/>
    <path clip-path="url(#p5e18880b40)" d="M 1237.539451 224.714689 
L 1237.539451 207.538903 
" style="fill:none;stroke:#1f77b4;stroke-width:3;"/>
    <path clip-path="url(#p5e18880b40)" d="M 1237.664874 220.715509 
L 1237.664874 210.446648 
" style="fill:none;stroke:#1f77b4;stroke-width:3;"/>
    <path clip-path="url(#p5e18880b40)" d="M 1237.790298 247.666014 
L 1237.790298 229.221525 
" style="fill:none;stroke:#1f77b4;stroke-width:3;"/>
    <path clip-path="url(#p5e18880b40)" d="M 1237.915721 246.512951 
L 1237.915721 214.882674 
" style="fill:none;stroke:#1f77b4;stroke-width:3;"/>
    <path clip-path="url(#p5e18880b40)" d="M 1238.041144 227.074267 
L 1238.041144 207.394507 
" style="fill:none;stroke:#1f77b4;stroke-width:3;"/>
    <path clip-path="url(#p5e18880b40)" d="M 1238.166568 220.923422 
L 1238.166568 207.668118 
" style="fill:none;stroke:#1f77b4;stroke-width:3;"/>
    <path clip-path="url(#p5e18880b40)" d="M 1238.291991 254.837721 
L 1238.291991 229.831677 
" style="fill:none;stroke:#1f77b4;stroke-width:3;"/>
    <path clip-path="url(#p5e18880b40)" d="M 1238.417415 268.418182 
L 1238.417415 112.584639 
" style="fill:none;stroke:#1f77b4;stroke-width:3;"/>
    <path clip-path="url(#p5e18880b40)" d="M 1238.542838 267.210261 
L 1238.542838 112.765749 
" style="fill:none;stroke:#1f77b4;stroke-width:3;"/>
    <path clip-path="url(#p5e18880b40)" d="M 1238.668261 232.434357 
L 1238.668261 216.018428 
" style="fill:none;stroke:#1f77b4;stroke-width:3;"/>
    <path clip-path="url(#p5e18880b40)" d="M 1238.793685 236.504824 
L 1238.793685 209.923959 
" style="fill:none;stroke:#1f77b4;stroke-width:3;"/>
    <path clip-path="url(#p5e18880b40)" d="M 1238.919108 224.500785 
L 1238.919108 203.336804 
" style="fill:none;stroke:#1f77b4;stroke-width:3;"/>
    <path clip-path="url(#p5e18880b40)" d="M 1239.044532 219.533504 
L 1239.044532 206.964923 
" style="fill:none;stroke:#1f77b4;stroke-width:3;"/>
    <path clip-path="url(#p5e18880b40)" d="M 1239.169955 224.676363 
L 1239.169955 198.964227 
" style="fill:none;stroke:#1f77b4;stroke-width:3;"/>
    <path clip-path="url(#p5e18880b40)" d="M 1239.295378 227.435544 
L 1239.295378 203.780467 
" style="fill:none;stroke:#1f77b4;stroke-width:3;"/>
    <path clip-path="url(#p5e18880b40)" d="M 1239.420802 223.532552 
L 1239.420802 206.455595 
" style="fill:none;stroke:#1f77b4;stroke-width:3;"/>
    <path clip-path="url(#p5e18880b40)" d="M 1239.546225 230.32559 
L 1239.546225 204.164725 
" style="fill:none;stroke:#1f77b4;stroke-width:3;"/>
    <path clip-path="url(#p5e18880b40)" d="M 1239.671649 231.678097 
L 1239.671649 211.353416 
" style="fill:none;stroke:#1f77b4;stroke-width:3;"/>
    <path clip-path="url(#p5e18880b40)" d="M 1239.797072 211.431142 
L 1239.797072 193.407326 
" style="fill:none;stroke:#1f77b4;stroke-width:3;"/>
    <path clip-path="url(#p5e18880b40)" d="M 1239.922495 206.455865 
L 1239.922495 195.955597 
" style="fill:none;stroke:#1f77b4;stroke-width:3;"/>
    <path clip-path="url(#p5e18880b40)" d="M 1240.047919 223.169774 
L 1240.047919 204.374312 
" style="fill:none;stroke:#1f77b4;stroke-width:3;"/>
    <path clip-path="url(#p5e18880b40)" d="M 1240.173342 249.078866 
L 1240.173342 221.568824 
" style="fill:none;stroke:#1f77b4;stroke-width:3;"/>
    <path clip-path="url(#p5e18880b40)" d="M 1240.298766 227.244186 
L 1240.298766 201.972058 
" style="fill:none;stroke:#1f77b4;stroke-width:3;"/>
    <path clip-path="url(#p5e18880b40)" d="M 1240.424189 220.761308 
L 1240.424189 205.503752 
" style="fill:none;stroke:#1f77b4;stroke-width:3;"/>
    <path clip-path="url(#p5e18880b40)" d="M 1240.549612 237.744501 
L 1240.549612 200.89255 
" style="fill:none;stroke:#1f77b4;stroke-width:3;"/>
    <path clip-path="url(#p5e18880b40)" d="M 1240.675036 228.460868 
L 1240.675036 205.095984 
" style="fill:none;stroke:#1f77b4;stroke-width:3;"/>
    <path clip-path="url(#p5e18880b40)" d="M 1240.800459 243.215907 
L 1240.800459 223.259916 
" style="fill:none;stroke:#1f77b4;stroke-width:3;"/>
    <path clip-path="url(#p5e18880b40)" d="M 1240.925883 214.021679 
L 1240.925883 181.618577 
" style="fill:none;stroke:#1f77b4;stroke-width:3;"/>
    <path clip-path="url(#p5e18880b40)" d="M 1241.051306 202.623233 
L 1241.051306 174.415955 
" style="fill:none;stroke:#1f77b4;stroke-width:3;"/>
    <path clip-path="url(#p5e18880b40)" d="M 1241.176729 198.306351 
L 1241.176729 178.219432 
" style="fill:none;stroke:#1f77b4;stroke-width:3;"/>
    <path clip-path="url(#p5e18880b40)" d="M 1361.959468 237.606608 
L 1361.959468 215.10421 
" style="fill:none;stroke:#1f77b4;stroke-width:3;"/>
   </g>
   <g id="line2d_15">
    <defs>
     <path d="M 10 0 
L -10 -0 
" id="m2555704f94" style="stroke:#1f77b4;"/>
    </defs>
    <g clip-path="url(#p5e18880b40)">
     <use style="fill:#1f77b4;stroke:#1f77b4;" x="233.148828" xlink:href="#m2555704f94" y="195.233819"/>
     <use style="fill:#1f77b4;stroke:#1f77b4;" x="358.572232" xlink:href="#m2555704f94" y="233.797062"/>
     <use style="fill:#1f77b4;stroke:#1f77b4;" x="358.697656" xlink:href="#m2555704f94" y="219.794539"/>
     <use style="fill:#1f77b4;stroke:#1f77b4;" x="358.823079" xlink:href="#m2555704f94" y="213.531328"/>
     <use style="fill:#1f77b4;stroke:#1f77b4;" x="358.948503" xlink:href="#m2555704f94" y="181.68797"/>
     <use style="fill:#1f77b4;stroke:#1f77b4;" x="359.073926" xlink:href="#m2555704f94" y="213.543843"/>
     <use style="fill:#1f77b4;stroke:#1f77b4;" x="359.199349" xlink:href="#m2555704f94" y="218.186106"/>
     <use style="fill:#1f77b4;stroke:#1f77b4;" x="483.995637" xlink:href="#m2555704f94" y="138.112919"/>
     <use style="fill:#1f77b4;stroke:#1f77b4;" x="609.419041" xlink:href="#m2555704f94" y="229.47491"/>
     <use style="fill:#1f77b4;stroke:#1f77b4;" x="734.842446" xlink:href="#m2555704f94" y="262.960333"/>
     <use style="fill:#1f77b4;stroke:#1f77b4;" x="734.967869" xlink:href="#m2555704f94" y="250.669364"/>
     <use style="fill:#1f77b4;stroke:#1f77b4;" x="735.093293" xlink:href="#m2555704f94" y="228.810786"/>
     <use style="fill:#1f77b4;stroke:#1f77b4;" x="735.218716" xlink:href="#m2555704f94" y="219.85312"/>
     <use style="fill:#1f77b4;stroke:#1f77b4;" x="860.26585" xlink:href="#m2555704f94" y="255.53954"/>
     <use style="fill:#1f77b4;stroke:#1f77b4;" x="985.689255" xlink:href="#m2555704f94" y="245.291974"/>
     <use style="fill:#1f77b4;stroke:#1f77b4;" x="1111.112659" xlink:href="#m2555704f94" y="231.175921"/>
     <use style="fill:#1f77b4;stroke:#1f77b4;" x="1111.238082" xlink:href="#m2555704f94" y="236.595366"/>
     <use style="fill:#1f77b4;stroke:#1f77b4;" x="1236.536064" xlink:href="#m2555704f94" y="242.687153"/>
     <use style="fill:#1f77b4;stroke:#1f77b4;" x="1236.661487" xlink:href="#m2555704f94" y="237.0853"/>
     <use style="fill:#1f77b4;stroke:#1f77b4;" x="1236.78691" xlink:href="#m2555704f94" y="233.442278"/>
     <use style="fill:#1f77b4;stroke:#1f77b4;" x="1236.912334" xlink:href="#m2555704f94" y="228.770258"/>
     <use style="fill:#1f77b4;stroke:#1f77b4;" x="1237.037757" xlink:href="#m2555704f94" y="225.984353"/>
     <use style="fill:#1f77b4;stroke:#1f77b4;" x="1237.163181" xlink:href="#m2555704f94" y="225.020626"/>
     <use style="fill:#1f77b4;stroke:#1f77b4;" x="1237.288604" xlink:href="#m2555704f94" y="220.955445"/>
     <use style="fill:#1f77b4;stroke:#1f77b4;" x="1237.414027" xlink:href="#m2555704f94" y="235.571393"/>
     <use style="fill:#1f77b4;stroke:#1f77b4;" x="1237.539451" xlink:href="#m2555704f94" y="224.714689"/>
     <use style="fill:#1f77b4;stroke:#1f77b4;" x="1237.664874" xlink:href="#m2555704f94" y="220.715509"/>
     <use style="fill:#1f77b4;stroke:#1f77b4;" x="1237.790298" xlink:href="#m2555704f94" y="247.666014"/>
     <use style="fill:#1f77b4;stroke:#1f77b4;" x="1237.915721" xlink:href="#m2555704f94" y="246.512951"/>
     <use style="fill:#1f77b4;stroke:#1f77b4;" x="1238.041144" xlink:href="#m2555704f94" y="227.074267"/>
     <use style="fill:#1f77b4;stroke:#1f77b4;" x="1238.166568" xlink:href="#m2555704f94" y="220.923422"/>
     <use style="fill:#1f77b4;stroke:#1f77b4;" x="1238.291991" xlink:href="#m2555704f94" y="254.837721"/>
     <use style="fill:#1f77b4;stroke:#1f77b4;" x="1238.417415" xlink:href="#m2555704f94" y="268.418182"/>
     <use style="fill:#1f77b4;stroke:#1f77b4;" x="1238.542838" xlink:href="#m2555704f94" y="267.210261"/>
     <use style="fill:#1f77b4;stroke:#1f77b4;" x="1238.668261" xlink:href="#m2555704f94" y="232.434357"/>
     <use style="fill:#1f77b4;stroke:#1f77b4;" x="1238.793685" xlink:href="#m2555704f94" y="236.504824"/>
     <use style="fill:#1f77b4;stroke:#1f77b4;" x="1238.919108" xlink:href="#m2555704f94" y="224.500785"/>
     <use style="fill:#1f77b4;stroke:#1f77b4;" x="1239.044532" xlink:href="#m2555704f94" y="219.533504"/>
     <use style="fill:#1f77b4;stroke:#1f77b4;" x="1239.169955" xlink:href="#m2555704f94" y="224.676363"/>
     <use style="fill:#1f77b4;stroke:#1f77b4;" x="1239.295378" xlink:href="#m2555704f94" y="227.435544"/>
     <use style="fill:#1f77b4;stroke:#1f77b4;" x="1239.420802" xlink:href="#m2555704f94" y="223.532552"/>
     <use style="fill:#1f77b4;stroke:#1f77b4;" x="1239.546225" xlink:href="#m2555704f94" y="230.32559"/>
     <use style="fill:#1f77b4;stroke:#1f77b4;" x="1239.671649" xlink:href="#m2555704f94" y="231.678097"/>
     <use style="fill:#1f77b4;stroke:#1f77b4;" x="1239.797072" xlink:href="#m2555704f94" y="211.431142"/>
     <use style="fill:#1f77b4;stroke:#1f77b4;" x="1239.922495" xlink:href="#m2555704f94" y="206.455865"/>
     <use style="fill:#1f77b4;stroke:#1f77b4;" x="1240.047919" xlink:href="#m2555704f94" y="223.169774"/>
     <use style="fill:#1f77b4;stroke:#1f77b4;" x="1240.173342" xlink:href="#m2555704f94" y="249.078866"/>
     <use style="fill:#1f77b4;stroke:#1f77b4;" x="1240.298766" xlink:href="#m2555704f94" y="227.244186"/>
     <use style="fill:#1f77b4;stroke:#1f77b4;" x="1240.424189" xlink:href="#m2555704f94" y="220.761308"/>
     <use style="fill:#1f77b4;stroke:#1f77b4;" x="1240.549612" xlink:href="#m2555704f94" y="237.744501"/>
     <use style="fill:#1f77b4;stroke:#1f77b4;" x="1240.675036" xlink:href="#m2555704f94" y="228.460868"/>
     <use style="fill:#1f77b4;stroke:#1f77b4;" x="1240.800459" xlink:href="#m2555704f94" y="243.215907"/>
     <use style="fill:#1f77b4;stroke:#1f77b4;" x="1240.925883" xlink:href="#m2555704f94" y="214.021679"/>
     <use style="fill:#1f77b4;stroke:#1f77b4;" x="1241.051306" xlink:href="#m2555704f94" y="202.623233"/>
     <use style="fill:#1f77b4;stroke:#1f77b4;" x="1241.176729" xlink:href="#m2555704f94" y="198.306351"/>
     <use style="fill:#1f77b4;stroke:#1f77b4;" x="1361.959468" xlink:href="#m2555704f94" y="237.606608"/>
    </g>
   </g>
   <g id="line2d_16">
    <g clip-path="url(#p5e18880b40)">
     <use style="fill:#1f77b4;stroke:#1f77b4;" x="233.148828" xlink:href="#m2555704f94" y="171.673693"/>
     <use style="fill:#1f77b4;stroke:#1f77b4;" x="358.572232" xlink:href="#m2555704f94" y="146.089192"/>
     <use style="fill:#1f77b4;stroke:#1f77b4;" x="358.697656" xlink:href="#m2555704f94" y="185.310506"/>
     <use style="fill:#1f77b4;stroke:#1f77b4;" x="358.823079" xlink:href="#m2555704f94" y="182.676188"/>
     <use style="fill:#1f77b4;stroke:#1f77b4;" x="358.948503" xlink:href="#m2555704f94" y="147.410654"/>
     <use style="fill:#1f77b4;stroke:#1f77b4;" x="359.073926" xlink:href="#m2555704f94" y="175.321618"/>
     <use style="fill:#1f77b4;stroke:#1f77b4;" x="359.199349" xlink:href="#m2555704f94" y="179.026678"/>
     <use style="fill:#1f77b4;stroke:#1f77b4;" x="483.995637" xlink:href="#m2555704f94" y="60.781818"/>
     <use style="fill:#1f77b4;stroke:#1f77b4;" x="609.419041" xlink:href="#m2555704f94" y="184.518688"/>
     <use style="fill:#1f77b4;stroke:#1f77b4;" x="734.842446" xlink:href="#m2555704f94" y="128.41112"/>
     <use style="fill:#1f77b4;stroke:#1f77b4;" x="734.967869" xlink:href="#m2555704f94" y="193.180725"/>
     <use style="fill:#1f77b4;stroke:#1f77b4;" x="735.093293" xlink:href="#m2555704f94" y="125.836033"/>
     <use style="fill:#1f77b4;stroke:#1f77b4;" x="735.218716" xlink:href="#m2555704f94" y="178.475333"/>
     <use style="fill:#1f77b4;stroke:#1f77b4;" x="860.26585" xlink:href="#m2555704f94" y="235.669493"/>
     <use style="fill:#1f77b4;stroke:#1f77b4;" x="985.689255" xlink:href="#m2555704f94" y="217.927695"/>
     <use style="fill:#1f77b4;stroke:#1f77b4;" x="1111.112659" xlink:href="#m2555704f94" y="215.921546"/>
     <use style="fill:#1f77b4;stroke:#1f77b4;" x="1111.238082" xlink:href="#m2555704f94" y="209.878296"/>
     <use style="fill:#1f77b4;stroke:#1f77b4;" x="1236.536064" xlink:href="#m2555704f94" y="218.417661"/>
     <use style="fill:#1f77b4;stroke:#1f77b4;" x="1236.661487" xlink:href="#m2555704f94" y="218.985989"/>
     <use style="fill:#1f77b4;stroke:#1f77b4;" x="1236.78691" xlink:href="#m2555704f94" y="220.668736"/>
     <use style="fill:#1f77b4;stroke:#1f77b4;" x="1236.912334" xlink:href="#m2555704f94" y="214.850055"/>
     <use style="fill:#1f77b4;stroke:#1f77b4;" x="1237.037757" xlink:href="#m2555704f94" y="215.31307"/>
     <use style="fill:#1f77b4;stroke:#1f77b4;" x="1237.163181" xlink:href="#m2555704f94" y="202.34664"/>
     <use style="fill:#1f77b4;stroke:#1f77b4;" x="1237.288604" xlink:href="#m2555704f94" y="207.686359"/>
     <use style="fill:#1f77b4;stroke:#1f77b4;" x="1237.414027" xlink:href="#m2555704f94" y="212.827538"/>
     <use style="fill:#1f77b4;stroke:#1f77b4;" x="1237.539451" xlink:href="#m2555704f94" y="207.538903"/>
     <use style="fill:#1f77b4;stroke:#1f77b4;" x="1237.664874" xlink:href="#m2555704f94" y="210.446648"/>
     <use style="fill:#1f77b4;stroke:#1f77b4;" x="1237.790298" xlink:href="#m2555704f94" y="229.221525"/>
     <use style="fill:#1f77b4;stroke:#1f77b4;" x="1237.915721" xlink:href="#m2555704f94" y="214.882674"/>
     <use style="fill:#1f77b4;stroke:#1f77b4;" x="1238.041144" xlink:href="#m2555704f94" y="207.394507"/>
     <use style="fill:#1f77b4;stroke:#1f77b4;" x="1238.166568" xlink:href="#m2555704f94" y="207.668118"/>
     <use style="fill:#1f77b4;stroke:#1f77b4;" x="1238.291991" xlink:href="#m2555704f94" y="229.831677"/>
     <use style="fill:#1f77b4;stroke:#1f77b4;" x="1238.417415" xlink:href="#m2555704f94" y="112.584639"/>
     <use style="fill:#1f77b4;stroke:#1f77b4;" x="1238.542838" xlink:href="#m2555704f94" y="112.765749"/>
     <use style="fill:#1f77b4;stroke:#1f77b4;" x="1238.668261" xlink:href="#m2555704f94" y="216.018428"/>
     <use style="fill:#1f77b4;stroke:#1f77b4;" x="1238.793685" xlink:href="#m2555704f94" y="209.923959"/>
     <use style="fill:#1f77b4;stroke:#1f77b4;" x="1238.919108" xlink:href="#m2555704f94" y="203.336804"/>
     <use style="fill:#1f77b4;stroke:#1f77b4;" x="1239.044532" xlink:href="#m2555704f94" y="206.964923"/>
     <use style="fill:#1f77b4;stroke:#1f77b4;" x="1239.169955" xlink:href="#m2555704f94" y="198.964227"/>
     <use style="fill:#1f77b4;stroke:#1f77b4;" x="1239.295378" xlink:href="#m2555704f94" y="203.780467"/>
     <use style="fill:#1f77b4;stroke:#1f77b4;" x="1239.420802" xlink:href="#m2555704f94" y="206.455595"/>
     <use style="fill:#1f77b4;stroke:#1f77b4;" x="1239.546225" xlink:href="#m2555704f94" y="204.164725"/>
     <use style="fill:#1f77b4;stroke:#1f77b4;" x="1239.671649" xlink:href="#m2555704f94" y="211.353416"/>
     <use style="fill:#1f77b4;stroke:#1f77b4;" x="1239.797072" xlink:href="#m2555704f94" y="193.407326"/>
     <use style="fill:#1f77b4;stroke:#1f77b4;" x="1239.922495" xlink:href="#m2555704f94" y="195.955597"/>
     <use style="fill:#1f77b4;stroke:#1f77b4;" x="1240.047919" xlink:href="#m2555704f94" y="204.374312"/>
     <use style="fill:#1f77b4;stroke:#1f77b4;" x="1240.173342" xlink:href="#m2555704f94" y="221.568824"/>
     <use style="fill:#1f77b4;stroke:#1f77b4;" x="1240.298766" xlink:href="#m2555704f94" y="201.972058"/>
     <use style="fill:#1f77b4;stroke:#1f77b4;" x="1240.424189" xlink:href="#m2555704f94" y="205.503752"/>
     <use style="fill:#1f77b4;stroke:#1f77b4;" x="1240.549612" xlink:href="#m2555704f94" y="200.89255"/>
     <use style="fill:#1f77b4;stroke:#1f77b4;" x="1240.675036" xlink:href="#m2555704f94" y="205.095984"/>
     <use style="fill:#1f77b4;stroke:#1f77b4;" x="1240.800459" xlink:href="#m2555704f94" y="223.259916"/>
     <use style="fill:#1f77b4;stroke:#1f77b4;" x="1240.925883" xlink:href="#m2555704f94" y="181.618577"/>
     <use style="fill:#1f77b4;stroke:#1f77b4;" x="1241.051306" xlink:href="#m2555704f94" y="174.415955"/>
     <use style="fill:#1f77b4;stroke:#1f77b4;" x="1241.176729" xlink:href="#m2555704f94" y="178.219432"/>
     <use style="fill:#1f77b4;stroke:#1f77b4;" x="1361.959468" xlink:href="#m2555704f94" y="215.10421"/>
    </g>
   </g>
   <g id="line2d_17">
    <defs>
     <path d="M 0 5 
C 1.326016 5 2.597899 4.473168 3.535534 3.535534 
C 4.473168 2.597899 5 1.326016 5 0 
C 5 -1.326016 4.473168 -2.597899 3.535534 -3.535534 
C 2.597899 -4.473168 1.326016 -5 0 -5 
C -1.326016 -5 -2.597899 -4.473168 -3.535534 -3.535534 
C -4.473168 -2.597899 -5 -1.326016 -5 0 
C -5 1.326016 -4.473168 2.597899 -3.535534 3.535534 
C -2.597899 4.473168 -1.326016 5 0 5 
z
" id="m49db3ee7ae" style="stroke:#1f77b4;"/>
    </defs>
    <g clip-path="url(#p5e18880b40)">
     <use style="fill:#1f77b4;stroke:#1f77b4;" x="233.148828" xlink:href="#m49db3ee7ae" y="183.453756"/>
     <use style="fill:#1f77b4;stroke:#1f77b4;" x="358.572232" xlink:href="#m49db3ee7ae" y="189.943127"/>
     <use style="fill:#1f77b4;stroke:#1f77b4;" x="358.697656" xlink:href="#m49db3ee7ae" y="202.552522"/>
     <use style="fill:#1f77b4;stroke:#1f77b4;" x="358.823079" xlink:href="#m49db3ee7ae" y="198.103758"/>
     <use style="fill:#1f77b4;stroke:#1f77b4;" x="358.948503" xlink:href="#m49db3ee7ae" y="164.549312"/>
     <use style="fill:#1f77b4;stroke:#1f77b4;" x="359.073926" xlink:href="#m49db3ee7ae" y="194.43273"/>
     <use style="fill:#1f77b4;stroke:#1f77b4;" x="359.199349" xlink:href="#m49db3ee7ae" y="198.606392"/>
     <use style="fill:#1f77b4;stroke:#1f77b4;" x="483.995637" xlink:href="#m49db3ee7ae" y="99.447369"/>
     <use style="fill:#1f77b4;stroke:#1f77b4;" x="609.419041" xlink:href="#m49db3ee7ae" y="206.996799"/>
     <use style="fill:#1f77b4;stroke:#1f77b4;" x="734.842446" xlink:href="#m49db3ee7ae" y="195.685726"/>
     <use style="fill:#1f77b4;stroke:#1f77b4;" x="734.967869" xlink:href="#m49db3ee7ae" y="221.925044"/>
     <use style="fill:#1f77b4;stroke:#1f77b4;" x="735.093293" xlink:href="#m49db3ee7ae" y="177.32341"/>
     <use style="fill:#1f77b4;stroke:#1f77b4;" x="735.218716" xlink:href="#m49db3ee7ae" y="199.164227"/>
     <use style="fill:#1f77b4;stroke:#1f77b4;" x="860.26585" xlink:href="#m49db3ee7ae" y="245.604516"/>
     <use style="fill:#1f77b4;stroke:#1f77b4;" x="985.689255" xlink:href="#m49db3ee7ae" y="231.609835"/>
     <use style="fill:#1f77b4;stroke:#1f77b4;" x="1111.112659" xlink:href="#m49db3ee7ae" y="223.548733"/>
     <use style="fill:#1f77b4;stroke:#1f77b4;" x="1111.238082" xlink:href="#m49db3ee7ae" y="223.236831"/>
     <use style="fill:#1f77b4;stroke:#1f77b4;" x="1236.536064" xlink:href="#m49db3ee7ae" y="230.552407"/>
     <use style="fill:#1f77b4;stroke:#1f77b4;" x="1236.661487" xlink:href="#m49db3ee7ae" y="228.035644"/>
     <use style="fill:#1f77b4;stroke:#1f77b4;" x="1236.78691" xlink:href="#m49db3ee7ae" y="227.055507"/>
     <use style="fill:#1f77b4;stroke:#1f77b4;" x="1236.912334" xlink:href="#m49db3ee7ae" y="221.810157"/>
     <use style="fill:#1f77b4;stroke:#1f77b4;" x="1237.037757" xlink:href="#m49db3ee7ae" y="220.648712"/>
     <use style="fill:#1f77b4;stroke:#1f77b4;" x="1237.163181" xlink:href="#m49db3ee7ae" y="213.683633"/>
     <use style="fill:#1f77b4;stroke:#1f77b4;" x="1237.288604" xlink:href="#m49db3ee7ae" y="214.320902"/>
     <use style="fill:#1f77b4;stroke:#1f77b4;" x="1237.414027" xlink:href="#m49db3ee7ae" y="224.199466"/>
     <use style="fill:#1f77b4;stroke:#1f77b4;" x="1237.539451" xlink:href="#m49db3ee7ae" y="216.126796"/>
     <use style="fill:#1f77b4;stroke:#1f77b4;" x="1237.664874" xlink:href="#m49db3ee7ae" y="215.581079"/>
     <use style="fill:#1f77b4;stroke:#1f77b4;" x="1237.790298" xlink:href="#m49db3ee7ae" y="238.443769"/>
     <use style="fill:#1f77b4;stroke:#1f77b4;" x="1237.915721" xlink:href="#m49db3ee7ae" y="230.697812"/>
     <use style="fill:#1f77b4;stroke:#1f77b4;" x="1238.041144" xlink:href="#m49db3ee7ae" y="217.234387"/>
     <use style="fill:#1f77b4;stroke:#1f77b4;" x="1238.166568" xlink:href="#m49db3ee7ae" y="214.29577"/>
     <use style="fill:#1f77b4;stroke:#1f77b4;" x="1238.291991" xlink:href="#m49db3ee7ae" y="242.334699"/>
     <use style="fill:#1f77b4;stroke:#1f77b4;" x="1238.417415" xlink:href="#m49db3ee7ae" y="190.50141"/>
     <use style="fill:#1f77b4;stroke:#1f77b4;" x="1238.542838" xlink:href="#m49db3ee7ae" y="189.988005"/>
     <use style="fill:#1f77b4;stroke:#1f77b4;" x="1238.668261" xlink:href="#m49db3ee7ae" y="224.226393"/>
     <use style="fill:#1f77b4;stroke:#1f77b4;" x="1238.793685" xlink:href="#m49db3ee7ae" y="223.214392"/>
     <use style="fill:#1f77b4;stroke:#1f77b4;" x="1238.919108" xlink:href="#m49db3ee7ae" y="213.918794"/>
     <use style="fill:#1f77b4;stroke:#1f77b4;" x="1239.044532" xlink:href="#m49db3ee7ae" y="213.249213"/>
     <use style="fill:#1f77b4;stroke:#1f77b4;" x="1239.169955" xlink:href="#m49db3ee7ae" y="211.820295"/>
     <use style="fill:#1f77b4;stroke:#1f77b4;" x="1239.295378" xlink:href="#m49db3ee7ae" y="215.608005"/>
     <use style="fill:#1f77b4;stroke:#1f77b4;" x="1239.420802" xlink:href="#m49db3ee7ae" y="214.994073"/>
     <use style="fill:#1f77b4;stroke:#1f77b4;" x="1239.546225" xlink:href="#m49db3ee7ae" y="217.245158"/>
     <use style="fill:#1f77b4;stroke:#1f77b4;" x="1239.671649" xlink:href="#m49db3ee7ae" y="221.515756"/>
     <use style="fill:#1f77b4;stroke:#1f77b4;" x="1239.797072" xlink:href="#m49db3ee7ae" y="202.419234"/>
     <use style="fill:#1f77b4;stroke:#1f77b4;" x="1239.922495" xlink:href="#m49db3ee7ae" y="201.205731"/>
     <use style="fill:#1f77b4;stroke:#1f77b4;" x="1240.047919" xlink:href="#m49db3ee7ae" y="213.772043"/>
     <use style="fill:#1f77b4;stroke:#1f77b4;" x="1240.173342" xlink:href="#m49db3ee7ae" y="235.323845"/>
     <use style="fill:#1f77b4;stroke:#1f77b4;" x="1240.298766" xlink:href="#m49db3ee7ae" y="214.608122"/>
     <use style="fill:#1f77b4;stroke:#1f77b4;" x="1240.424189" xlink:href="#m49db3ee7ae" y="213.13253"/>
     <use style="fill:#1f77b4;stroke:#1f77b4;" x="1240.549612" xlink:href="#m49db3ee7ae" y="219.318525"/>
     <use style="fill:#1f77b4;stroke:#1f77b4;" x="1240.675036" xlink:href="#m49db3ee7ae" y="216.778426"/>
     <use style="fill:#1f77b4;stroke:#1f77b4;" x="1240.800459" xlink:href="#m49db3ee7ae" y="233.237912"/>
     <use style="fill:#1f77b4;stroke:#1f77b4;" x="1240.925883" xlink:href="#m49db3ee7ae" y="197.820128"/>
     <use style="fill:#1f77b4;stroke:#1f77b4;" x="1241.051306" xlink:href="#m49db3ee7ae" y="188.519594"/>
     <use style="fill:#1f77b4;stroke:#1f77b4;" x="1241.176729" xlink:href="#m49db3ee7ae" y="188.262891"/>
     <use style="fill:#1f77b4;stroke:#1f77b4;" x="1361.959468" xlink:href="#m49db3ee7ae" y="226.355409"/>
    </g>
   </g>
   <g id="patch_3">
    <path d="M 107.6 278.8 
L 107.6 50.4 
" style="fill:none;stroke:#000000;stroke-linecap:square;stroke-linejoin:miter;stroke-width:4;"/>
   </g>
   <g id="patch_4">
    <path d="M 1418.4 278.8 
L 1418.4 50.4 
" style="fill:none;stroke:#000000;stroke-linecap:square;stroke-linejoin:miter;stroke-width:4;"/>
   </g>
   <g id="patch_5">
    <path d="M 107.6 278.8 
L 1418.4 278.8 
" style="fill:none;stroke:#000000;stroke-linecap:square;stroke-linejoin:miter;stroke-width:4;"/>
   </g>
   <g id="patch_6">
    <path d="M 107.6 50.4 
L 1418.4 50.4 
" style="fill:none;stroke:#000000;stroke-linecap:square;stroke-linejoin:miter;stroke-width:4;"/>
   </g>
   <g id="text_17">
    <!-- WM - Splenium -->
    <g transform="translate(659 43.455)scale(0.32 -0.32)">
     <defs>
      <path d="M 5965 4237 
L 5965 4115 
Q 5709 4064 5616 3990 
Q 5523 3917 5434 3667 
Q 4704 1709 4128 -70 
L 4032 -70 
Q 3642 1011 3008 2637 
L 2022 -70 
L 1926 -70 
Q 1709 576 1277 1753 
Q 845 2931 698 3347 
Q 538 3808 406 3958 
Q 275 4109 32 4115 
L 32 4237 
L 1594 4237 
L 1594 4115 
Q 1357 4109 1270 4064 
Q 1184 4019 1184 3917 
Q 1184 3808 1254 3616 
L 2176 1210 
L 2842 3021 
L 2662 3501 
Q 2509 3917 2400 4013 
Q 2291 4109 2010 4115 
L 2010 4237 
L 3706 4237 
L 3706 4115 
Q 3213 4102 3213 3891 
Q 3213 3808 3322 3520 
L 4237 1190 
L 5043 3360 
Q 5152 3667 5152 3853 
Q 5152 4109 4704 4115 
L 4704 4237 
L 5965 4237 
z
" id="STIXGeneral-Regular-57" transform="scale(0.015625)"/>
      <path d="M 5530 0 
L 3738 0 
L 3738 122 
Q 4115 147 4214 265 
Q 4314 384 4314 787 
L 4314 3661 
L 2682 0 
L 2592 0 
L 979 3514 
L 979 966 
Q 979 448 1088 294 
Q 1197 141 1574 122 
L 1574 0 
L 77 0 
L 77 122 
Q 358 141 480 205 
Q 602 269 650 432 
Q 698 595 698 966 
L 698 3514 
Q 698 3878 589 3984 
Q 480 4090 90 4115 
L 90 4237 
L 1357 4237 
L 2835 1024 
L 4250 4237 
L 5523 4237 
L 5523 4115 
Q 5178 4109 5072 3993 
Q 4966 3878 4966 3520 
L 4966 717 
Q 4966 378 5072 262 
Q 5178 147 5530 122 
L 5530 0 
z
" id="STIXGeneral-Regular-4d" transform="scale(0.015625)"/>
      <path d="M 1824 1242 
L 250 1242 
L 250 1645 
L 1824 1645 
L 1824 1242 
z
" id="STIXGeneral-Regular-2d" transform="scale(0.015625)"/>
      <path d="M 1018 2931 
L 1018 2438 
Q 1421 2944 1939 2944 
Q 2406 2944 2707 2560 
Q 3008 2176 3008 1581 
Q 3008 883 2621 409 
Q 2234 -64 1664 -64 
Q 1466 -64 1328 -6 
Q 1190 51 1018 211 
L 1018 -794 
Q 1018 -1094 1120 -1180 
Q 1222 -1267 1581 -1274 
L 1581 -1389 
L 32 -1389 
L 32 -1280 
Q 314 -1254 397 -1171 
Q 480 -1088 480 -838 
L 480 2157 
Q 480 2381 429 2451 
Q 378 2522 218 2522 
Q 115 2522 58 2515 
L 58 2618 
Q 506 2752 979 2944 
L 1018 2931 
z
M 1018 2138 
L 1018 563 
Q 1018 422 1238 281 
Q 1459 141 1683 141 
Q 2029 141 2243 467 
Q 2458 794 2458 1325 
Q 2458 1888 2243 2224 
Q 2029 2560 1670 2560 
Q 1446 2560 1232 2419 
Q 1018 2278 1018 2138 
z
" id="STIXGeneral-Regular-70" transform="scale(0.015625)"/>
      <path d="M 1645 0 
L 134 0 
L 134 96 
Q 435 122 531 221 
Q 627 320 627 589 
L 627 3590 
Q 627 3821 569 3910 
Q 512 4000 358 4000 
Q 224 4000 122 3987 
L 122 4090 
Q 730 4237 1133 4371 
L 1165 4346 
L 1165 557 
Q 1165 288 1254 201 
Q 1344 115 1645 96 
L 1645 0 
z
" id="STIXGeneral-Regular-6c" transform="scale(0.015625)"/>
      <path d="M 3104 0 
L 1773 0 
L 1779 96 
Q 2016 115 2096 233 
Q 2176 352 2176 672 
L 2176 1946 
Q 2176 2592 1709 2592 
Q 1549 2592 1408 2515 
Q 1267 2438 1050 2227 
L 1050 461 
Q 1050 269 1136 192 
Q 1222 115 1466 96 
L 1466 0 
L 115 0 
L 115 96 
Q 358 115 435 214 
Q 512 314 512 602 
L 512 2157 
Q 512 2394 467 2483 
Q 422 2573 288 2573 
Q 160 2573 102 2547 
L 102 2656 
Q 550 2784 979 2944 
L 1030 2925 
L 1030 2426 
L 1037 2426 
Q 1491 2944 1958 2944 
Q 2323 2944 2518 2688 
Q 2714 2432 2714 1958 
L 2714 544 
Q 2714 288 2790 205 
Q 2867 122 3104 96 
L 3104 0 
z
" id="STIXGeneral-Regular-6e" transform="scale(0.015625)"/>
      <path d="M 3072 320 
L 3072 230 
Q 2573 96 2195 -58 
L 2163 -38 
L 2163 486 
L 2150 486 
Q 1747 -64 1235 -64 
Q 870 -64 662 160 
Q 454 384 454 755 
L 454 2362 
Q 454 2598 371 2688 
Q 288 2778 58 2790 
L 58 2880 
L 992 2880 
L 992 813 
Q 992 595 1123 451 
Q 1254 307 1446 307 
Q 1760 307 1984 506 
Q 2067 582 2099 649 
Q 2131 717 2131 877 
L 2131 2355 
Q 2131 2605 2041 2678 
Q 1952 2752 1658 2771 
L 1658 2880 
L 2669 2880 
L 2669 685 
Q 2669 461 2742 390 
Q 2816 320 3034 320 
L 3072 320 
z
" id="STIXGeneral-Regular-75" transform="scale(0.015625)"/>
     </defs>
     <use xlink:href="#STIXGeneral-Regular-57"/>
     <use x="94.399994" xlink:href="#STIXGeneral-Regular-4d"/>
     <use x="183.299988" xlink:href="#STIXGeneral-Regular-20"/>
     <use x="208.299973" xlink:href="#STIXGeneral-Regular-2d"/>
     <use x="241.59996" xlink:href="#STIXGeneral-Regular-20"/>
     <use x="266.599945" xlink:href="#STIXGeneral-Regular-53"/>
     <use x="322.199936" xlink:href="#STIXGeneral-Regular-70"/>
     <use x="372.199921" xlink:href="#STIXGeneral-Regular-6c"/>
     <use x="399.999908" xlink:href="#STIXGeneral-Regular-65"/>
     <use x="444.399902" xlink:href="#STIXGeneral-Regular-6e"/>
     <use x="494.399887" xlink:href="#STIXGeneral-Regular-69"/>
     <use x="522.199875" xlink:href="#STIXGeneral-Regular-75"/>
     <use x="572.19986" xlink:href="#STIXGeneral-Regular-6d"/>
    </g>
   </g>
  </g>
 </g>
 <defs>
  <clipPath id="p5e18880b40">
   <rect height="228.4" width="1310.8" x="107.6" y="50.4"/>
  </clipPath>
 </defs>
</svg>
