<?xml version="1.0" encoding="utf-8" standalone="no"?>
<!DOCTYPE svg PUBLIC "-//W3C//DTD SVG 1.1//EN"
  "http://www.w3.org/Graphics/SVG/1.1/DTD/svg11.dtd">
<svg height="360pt" version="1.1" viewBox="0 0 1440 360" width="1440pt" xmlns="http://www.w3.org/2000/svg" xmlns:xlink="http://www.w3.org/1999/xlink">
 <metadata>
  <rdf:RDF xmlns:cc="http://creativecommons.org/ns#" xmlns:dc="http://purl.org/dc/elements/1.1/" xmlns:rdf="http://www.w3.org/1999/02/22-rdf-syntax-ns#">
   <cc:Work>
    <dc:type rdf:resource="http://purl.org/dc/dcmitype/StillImage"/>
    <dc:date>2021-08-04T22:47:48.583584</dc:date>
    <dc:format>image/svg+xml</dc:format>
    <dc:creator>
     <cc:Agent>
      <dc:title>Matplotlib v3.4.2, https://matplotlib.org/</dc:title>
     </cc:Agent>
    </dc:creator>
   </cc:Work>
  </rdf:RDF>
 </metadata>
 <defs>
  <style type="text/css">*{stroke-linecap:butt;stroke-linejoin:round;}</style>
 </defs>
 <g id="figure_1">
  <g id="patch_1">
   <path d="M 0 360 
L 1440 360 
L 1440 0 
L 0 0 
z
" style="fill:#ffffff;"/>
  </g>
  <g id="axes_1">
   <g id="patch_2">
    <path d="M 107.6 278.8 
L 1406.4 278.8 
L 1406.4 50.4 
L 107.6 50.4 
z
" style="fill:#ffffff;"/>
   </g>
   <g id="matplotlib.axis_1">
    <g id="xtick_1">
     <g id="line2d_1">
      <defs>
       <path d="M 0 0 
L 0 3.5 
" id="m64546602eb" style="stroke:#000000;stroke-width:0.8;"/>
      </defs>
      <g>
       <use style="stroke:#000000;stroke-width:0.8;" x="107.6" xlink:href="#m64546602eb" y="278.8"/>
      </g>
     </g>
     <g id="text_1">
      <!-- 0 -->
      <g transform="translate(101.6 302.19125)scale(0.24 -0.24)">
       <defs>
        <path d="M 3046 2112 
Q 3046 1683 2963 1302 
Q 2880 922 2717 602 
Q 2554 282 2266 96 
Q 1978 -90 1600 -90 
Q 1210 -90 915 108 
Q 621 307 461 640 
Q 301 973 227 1350 
Q 154 1728 154 2150 
Q 154 2746 301 3222 
Q 448 3699 790 4012 
Q 1133 4326 1626 4326 
Q 2253 4326 2649 3712 
Q 3046 3098 3046 2112 
z
M 2432 2080 
Q 2432 3091 2217 3625 
Q 2003 4160 1587 4160 
Q 1190 4160 979 3622 
Q 768 3085 768 2106 
Q 768 1120 979 598 
Q 1190 77 1600 77 
Q 2003 77 2217 598 
Q 2432 1120 2432 2080 
z
" id="STIXGeneral-Regular-30" transform="scale(0.015625)"/>
       </defs>
       <use xlink:href="#STIXGeneral-Regular-30"/>
      </g>
     </g>
    </g>
    <g id="xtick_2">
     <g id="line2d_2">
      <g>
       <use style="stroke:#000000;stroke-width:0.8;" x="237.48" xlink:href="#m64546602eb" y="278.8"/>
      </g>
     </g>
     <g id="text_2">
      <!-- 1 -->
      <g transform="translate(231.48 302.19125)scale(0.24 -0.24)">
       <defs>
        <path d="M 2522 0 
L 755 0 
L 755 96 
Q 1107 115 1235 227 
Q 1363 339 1363 608 
L 1363 3482 
Q 1363 3795 1171 3795 
Q 1082 3795 883 3718 
L 710 3654 
L 710 3744 
L 1856 4326 
L 1914 4307 
L 1914 486 
Q 1914 275 2042 185 
Q 2170 96 2522 96 
L 2522 0 
z
" id="STIXGeneral-Regular-31" transform="scale(0.015625)"/>
       </defs>
       <use xlink:href="#STIXGeneral-Regular-31"/>
      </g>
     </g>
    </g>
    <g id="xtick_3">
     <g id="line2d_3">
      <g>
       <use style="stroke:#000000;stroke-width:0.8;" x="367.36" xlink:href="#m64546602eb" y="278.8"/>
      </g>
     </g>
     <g id="text_3">
      <!-- 2 -->
      <g transform="translate(361.36 302.19125)scale(0.24 -0.24)">
       <defs>
        <path d="M 3034 877 
L 2688 0 
L 186 0 
L 186 77 
L 1325 1286 
Q 1773 1754 1965 2144 
Q 2157 2534 2157 2950 
Q 2157 3379 1920 3616 
Q 1683 3853 1267 3853 
Q 922 3853 720 3673 
Q 518 3494 326 3021 
L 192 3053 
Q 301 3648 630 3987 
Q 960 4326 1523 4326 
Q 2054 4326 2380 4006 
Q 2707 3686 2707 3200 
Q 2707 2477 1888 1613 
L 832 486 
L 2330 486 
Q 2541 486 2665 569 
Q 2790 653 2944 915 
L 3034 877 
z
" id="STIXGeneral-Regular-32" transform="scale(0.015625)"/>
       </defs>
       <use xlink:href="#STIXGeneral-Regular-32"/>
      </g>
     </g>
    </g>
    <g id="xtick_4">
     <g id="line2d_4">
      <g>
       <use style="stroke:#000000;stroke-width:0.8;" x="497.24" xlink:href="#m64546602eb" y="278.8"/>
      </g>
     </g>
     <g id="text_4">
      <!-- 3 -->
      <g transform="translate(491.24 302.19125)scale(0.24 -0.24)">
       <defs>
        <path d="M 390 3264 
L 288 3290 
Q 435 3770 748 4048 
Q 1062 4326 1542 4326 
Q 1990 4326 2265 4083 
Q 2541 3840 2541 3450 
Q 2541 2925 1946 2566 
Q 2298 2413 2477 2227 
Q 2758 1914 2758 1402 
Q 2758 890 2464 506 
Q 2246 211 1840 60 
Q 1434 -90 979 -90 
Q 262 -90 262 275 
Q 262 378 339 442 
Q 416 506 525 506 
Q 685 506 915 339 
Q 1197 141 1466 141 
Q 1818 141 2058 425 
Q 2298 710 2298 1120 
Q 2298 1856 1632 2048 
Q 1434 2112 979 2112 
L 979 2202 
Q 1338 2323 1517 2432 
Q 2035 2726 2035 3290 
Q 2035 3610 1852 3776 
Q 1670 3942 1344 3942 
Q 768 3942 390 3264 
z
" id="STIXGeneral-Regular-33" transform="scale(0.015625)"/>
       </defs>
       <use xlink:href="#STIXGeneral-Regular-33"/>
      </g>
     </g>
    </g>
    <g id="xtick_5">
     <g id="line2d_5">
      <g>
       <use style="stroke:#000000;stroke-width:0.8;" x="627.12" xlink:href="#m64546602eb" y="278.8"/>
      </g>
     </g>
     <g id="text_5">
      <!-- 4 -->
      <g transform="translate(621.12 302.19125)scale(0.24 -0.24)">
       <defs>
        <path d="M 3027 1069 
L 2368 1069 
L 2368 0 
L 1869 0 
L 1869 1069 
L 77 1069 
L 77 1478 
L 2086 4326 
L 2368 4326 
L 2368 1478 
L 3027 1478 
L 3027 1069 
z
M 1869 1478 
L 1869 3674 
L 333 1478 
L 1869 1478 
z
" id="STIXGeneral-Regular-34" transform="scale(0.015625)"/>
       </defs>
       <use xlink:href="#STIXGeneral-Regular-34"/>
      </g>
     </g>
    </g>
    <g id="xtick_6">
     <g id="line2d_6">
      <g>
       <use style="stroke:#000000;stroke-width:0.8;" x="757" xlink:href="#m64546602eb" y="278.8"/>
      </g>
     </g>
     <g id="text_6">
      <!-- 5 -->
      <g transform="translate(751 302.19125)scale(0.24 -0.24)">
       <defs>
        <path d="M 2803 4358 
L 2573 3814 
Q 2534 3731 2400 3731 
L 1158 3731 
L 902 3187 
Q 1606 3053 1920 2896 
Q 2234 2739 2502 2368 
Q 2726 2061 2726 1555 
Q 2726 1094 2576 780 
Q 2426 467 2099 224 
Q 1664 -90 1011 -90 
Q 646 -90 422 19 
Q 198 128 198 307 
Q 198 550 486 550 
Q 717 550 960 352 
Q 1210 147 1414 147 
Q 1747 147 2012 480 
Q 2278 813 2278 1229 
Q 2278 1843 1850 2189 
Q 1293 2637 486 2637 
Q 410 2637 410 2688 
L 416 2720 
L 1114 4237 
L 2438 4237 
Q 2547 4237 2608 4269 
Q 2669 4301 2746 4403 
L 2803 4358 
z
" id="STIXGeneral-Regular-35" transform="scale(0.015625)"/>
       </defs>
       <use xlink:href="#STIXGeneral-Regular-35"/>
      </g>
     </g>
    </g>
    <g id="xtick_7">
     <g id="line2d_7">
      <g>
       <use style="stroke:#000000;stroke-width:0.8;" x="886.88" xlink:href="#m64546602eb" y="278.8"/>
      </g>
     </g>
     <g id="text_7">
      <!-- 6 -->
      <g transform="translate(880.88 302.19125)scale(0.24 -0.24)">
       <defs>
        <path d="M 2854 4378 
L 2867 4275 
Q 2112 4154 1606 3664 
Q 1101 3174 973 2451 
Q 1344 2739 1786 2739 
Q 2349 2739 2672 2380 
Q 2995 2022 2995 1402 
Q 2995 774 2669 378 
Q 2291 -90 1651 -90 
Q 870 -90 518 557 
Q 218 1107 218 1786 
Q 218 2835 915 3552 
Q 1312 3962 1731 4131 
Q 2150 4301 2854 4378 
z
M 2419 1203 
Q 2419 2445 1555 2445 
Q 1235 2445 1024 2275 
Q 813 2106 813 1702 
Q 813 954 1046 522 
Q 1280 90 1722 90 
Q 2061 90 2240 394 
Q 2419 698 2419 1203 
z
" id="STIXGeneral-Regular-36" transform="scale(0.015625)"/>
       </defs>
       <use xlink:href="#STIXGeneral-Regular-36"/>
      </g>
     </g>
    </g>
    <g id="xtick_8">
     <g id="line2d_8">
      <g>
       <use style="stroke:#000000;stroke-width:0.8;" x="1016.76" xlink:href="#m64546602eb" y="278.8"/>
      </g>
     </g>
     <g id="text_8">
      <!-- 7 -->
      <g transform="translate(1010.76 302.19125)scale(0.24 -0.24)">
       <defs>
        <path d="M 2874 4134 
L 1517 -51 
L 1101 -51 
L 2368 3763 
L 992 3763 
Q 717 3763 582 3667 
Q 448 3571 243 3238 
L 128 3296 
L 512 4237 
L 2874 4237 
L 2874 4134 
z
" id="STIXGeneral-Regular-37" transform="scale(0.015625)"/>
       </defs>
       <use xlink:href="#STIXGeneral-Regular-37"/>
      </g>
     </g>
    </g>
    <g id="xtick_9">
     <g id="line2d_9">
      <g>
       <use style="stroke:#000000;stroke-width:0.8;" x="1146.64" xlink:href="#m64546602eb" y="278.8"/>
      </g>
     </g>
     <g id="text_9">
      <!-- 8 -->
      <g transform="translate(1140.64 302.19125)scale(0.24 -0.24)">
       <defs>
        <path d="M 2848 992 
Q 2848 499 2505 204 
Q 2163 -90 1587 -90 
Q 1050 -90 704 204 
Q 358 499 358 954 
Q 358 1293 524 1533 
Q 691 1773 1190 2125 
Q 710 2522 553 2765 
Q 397 3008 397 3328 
Q 397 3782 745 4054 
Q 1094 4326 1638 4326 
Q 2106 4326 2410 4060 
Q 2714 3795 2714 3411 
Q 2714 3059 2531 2848 
Q 2349 2637 1856 2374 
Q 2432 1990 2640 1689 
Q 2848 1389 2848 992 
z
M 2272 3411 
Q 2272 3744 2086 3945 
Q 1901 4147 1574 4147 
Q 1248 4147 1059 3977 
Q 870 3808 870 3513 
Q 870 3219 1059 2979 
Q 1248 2739 1670 2490 
Q 1997 2682 2134 2896 
Q 2272 3110 2272 3411 
z
M 1734 1741 
L 1357 1997 
Q 1075 1766 960 1545 
Q 845 1325 845 1011 
Q 845 576 1065 333 
Q 1286 90 1658 90 
Q 1971 90 2166 285 
Q 2362 480 2362 794 
Q 2362 1082 2214 1299 
Q 2067 1517 1734 1741 
z
" id="STIXGeneral-Regular-38" transform="scale(0.015625)"/>
       </defs>
       <use xlink:href="#STIXGeneral-Regular-38"/>
      </g>
     </g>
    </g>
    <g id="xtick_10">
     <g id="line2d_10">
      <g>
       <use style="stroke:#000000;stroke-width:0.8;" x="1276.52" xlink:href="#m64546602eb" y="278.8"/>
      </g>
     </g>
     <g id="text_10">
      <!-- 9 -->
      <g transform="translate(1270.52 302.19125)scale(0.24 -0.24)">
       <defs>
        <path d="M 378 -141 
L 358 -13 
Q 1094 115 1603 608 
Q 2112 1101 2304 1882 
Q 1933 1517 1344 1517 
Q 826 1517 509 1875 
Q 192 2234 192 2816 
Q 192 3462 573 3894 
Q 954 4326 1523 4326 
Q 2131 4326 2528 3840 
Q 2938 3328 2938 2522 
Q 2938 1958 2742 1462 
Q 2547 966 2170 621 
Q 1773 262 1395 105 
Q 1018 -51 378 -141 
z
M 2317 2272 
L 2317 2522 
Q 2317 4147 1472 4147 
Q 1171 4147 1005 3930 
Q 909 3802 845 3546 
Q 781 3290 781 3034 
Q 781 2464 995 2128 
Q 1210 1792 1568 1792 
Q 1824 1792 2070 1917 
Q 2317 2042 2317 2272 
z
" id="STIXGeneral-Regular-39" transform="scale(0.015625)"/>
       </defs>
       <use xlink:href="#STIXGeneral-Regular-39"/>
      </g>
     </g>
    </g>
    <g id="xtick_11">
     <g id="line2d_11">
      <g>
       <use style="stroke:#000000;stroke-width:0.8;" x="1406.4" xlink:href="#m64546602eb" y="278.8"/>
      </g>
     </g>
     <g id="text_11">
      <!-- 10 -->
      <g transform="translate(1394.4 302.19125)scale(0.24 -0.24)">
       <use xlink:href="#STIXGeneral-Regular-31"/>
       <use x="49.999985" xlink:href="#STIXGeneral-Regular-30"/>
      </g>
     </g>
    </g>
    <g id="text_12">
     <!-- Site # -->
     <g transform="translate(722.410938 331.889063)scale(0.3 -0.3)">
      <defs>
       <path d="M 3002 2963 
L 2842 2963 
Q 2733 3360 2579 3565 
Q 2189 4064 1651 4064 
Q 1357 4064 1181 3894 
Q 1005 3725 1005 3456 
Q 1005 3328 1069 3206 
Q 1133 3085 1206 2998 
Q 1280 2912 1465 2784 
Q 1651 2656 1766 2589 
Q 1882 2522 2150 2362 
Q 2669 2061 2905 1763 
Q 3142 1466 3142 1107 
Q 3142 576 2771 243 
Q 2400 -90 1837 -90 
Q 1421 -90 1082 58 
Q 915 128 781 128 
Q 704 128 653 70 
Q 602 13 602 -83 
L 461 -83 
L 275 1274 
L 416 1274 
Q 845 141 1734 141 
Q 2074 141 2285 342 
Q 2496 544 2496 858 
Q 2496 1158 2310 1363 
Q 2003 1696 1235 2106 
Q 454 2522 454 3206 
Q 454 3718 768 4022 
Q 1082 4326 1568 4326 
Q 1907 4326 2240 4186 
Q 2413 4109 2522 4109 
Q 2688 4109 2726 4326 
L 2861 4326 
L 3002 2963 
z
" id="STIXGeneral-Regular-53" transform="scale(0.015625)"/>
       <path d="M 1152 4045 
Q 1152 3904 1056 3811 
Q 960 3718 819 3718 
Q 685 3718 592 3811 
Q 499 3904 499 4045 
Q 499 4179 595 4275 
Q 691 4371 826 4371 
Q 966 4371 1059 4275 
Q 1152 4179 1152 4045 
z
M 1619 0 
L 102 0 
L 102 96 
Q 435 115 521 211 
Q 608 307 608 666 
L 608 2118 
Q 608 2342 563 2432 
Q 518 2522 397 2522 
Q 243 2522 128 2490 
L 128 2592 
L 1120 2944 
L 1146 2918 
L 1146 672 
Q 1146 314 1226 218 
Q 1306 122 1619 96 
L 1619 0 
z
" id="STIXGeneral-Regular-69" transform="scale(0.015625)"/>
       <path d="M 1702 493 
L 1786 422 
Q 1478 -64 1011 -64 
Q 448 -64 448 749 
L 448 2675 
L 109 2675 
Q 83 2694 83 2720 
Q 83 2771 192 2842 
Q 435 2982 813 3526 
Q 826 3546 874 3606 
Q 922 3667 941 3706 
Q 986 3706 986 3622 
L 986 2880 
L 1632 2880 
L 1632 2675 
L 986 2675 
L 986 845 
Q 986 538 1062 403 
Q 1139 269 1318 269 
Q 1510 269 1702 493 
z
" id="STIXGeneral-Regular-74" transform="scale(0.015625)"/>
       <path d="M 2611 1050 
L 2714 1005 
Q 2330 -64 1376 -64 
Q 813 -64 486 329 
Q 160 723 160 1389 
Q 160 2074 525 2509 
Q 890 2944 1485 2944 
Q 2061 2944 2374 2502 
Q 2560 2246 2592 1773 
L 621 1773 
Q 646 1370 700 1158 
Q 755 947 915 730 
Q 1184 378 1626 378 
Q 1939 378 2153 531 
Q 2368 685 2611 1050 
z
M 634 1978 
L 1939 1978 
Q 1882 2381 1750 2547 
Q 1619 2714 1312 2714 
Q 1043 2714 864 2525 
Q 685 2336 634 1978 
z
" id="STIXGeneral-Regular-65" transform="scale(0.015625)"/>
       <path id="STIXGeneral-Regular-20" transform="scale(0.015625)"/>
       <path d="M 3168 2592 
L 2502 2592 
L 2374 1734 
L 3008 1734 
L 3008 1382 
L 2317 1382 
L 2118 0 
L 1747 0 
L 1946 1382 
L 1088 1382 
L 877 0 
L 506 0 
L 717 1382 
L 38 1382 
L 38 1734 
L 774 1734 
L 909 2592 
L 211 2592 
L 211 2944 
L 960 2944 
L 1158 4237 
L 1530 4237 
L 1331 2944 
L 2182 2944 
L 2374 4237 
L 2746 4237 
L 2554 2944 
L 3168 2944 
L 3168 2592 
z
M 2131 2592 
L 1280 2592 
L 1146 1734 
L 2003 1734 
L 2131 2592 
z
" id="STIXGeneral-Regular-23" transform="scale(0.015625)"/>
      </defs>
      <use xlink:href="#STIXGeneral-Regular-53"/>
      <use x="55.599991" xlink:href="#STIXGeneral-Regular-69"/>
      <use x="83.399979" xlink:href="#STIXGeneral-Regular-74"/>
      <use x="111.199966" xlink:href="#STIXGeneral-Regular-65"/>
      <use x="155.59996" xlink:href="#STIXGeneral-Regular-20"/>
      <use x="180.599945" xlink:href="#STIXGeneral-Regular-23"/>
     </g>
    </g>
   </g>
   <g id="matplotlib.axis_2">
    <g id="ytick_1">
     <g id="line2d_12">
      <defs>
       <path d="M 0 0 
L -3.5 0 
" id="m3d7fb44130" style="stroke:#000000;stroke-width:0.8;"/>
      </defs>
      <g>
       <use style="stroke:#000000;stroke-width:0.8;" x="107.6" xlink:href="#m3d7fb44130" y="241.480585"/>
      </g>
     </g>
     <g id="text_13">
      <!-- 1000 -->
      <g transform="translate(52.6 249.67621)scale(0.24 -0.24)">
       <use xlink:href="#STIXGeneral-Regular-31"/>
       <use x="49.999985" xlink:href="#STIXGeneral-Regular-30"/>
       <use x="99.999969" xlink:href="#STIXGeneral-Regular-30"/>
       <use x="149.999954" xlink:href="#STIXGeneral-Regular-30"/>
      </g>
     </g>
    </g>
    <g id="ytick_2">
     <g id="line2d_13">
      <g>
       <use style="stroke:#000000;stroke-width:0.8;" x="107.6" xlink:href="#m3d7fb44130" y="156.369278"/>
      </g>
     </g>
     <g id="text_14">
      <!-- 1500 -->
      <g transform="translate(52.6 164.564903)scale(0.24 -0.24)">
       <use xlink:href="#STIXGeneral-Regular-31"/>
       <use x="49.999985" xlink:href="#STIXGeneral-Regular-35"/>
       <use x="99.999969" xlink:href="#STIXGeneral-Regular-30"/>
       <use x="149.999954" xlink:href="#STIXGeneral-Regular-30"/>
      </g>
     </g>
    </g>
    <g id="ytick_3">
     <g id="line2d_14">
      <g>
       <use style="stroke:#000000;stroke-width:0.8;" x="107.6" xlink:href="#m3d7fb44130" y="71.25797"/>
      </g>
     </g>
     <g id="text_15">
      <!-- 2000 -->
      <g transform="translate(52.6 79.453595)scale(0.24 -0.24)">
       <use xlink:href="#STIXGeneral-Regular-32"/>
       <use x="49.999985" xlink:href="#STIXGeneral-Regular-30"/>
       <use x="99.999969" xlink:href="#STIXGeneral-Regular-30"/>
       <use x="149.999954" xlink:href="#STIXGeneral-Regular-30"/>
      </g>
     </g>
    </g>
    <g id="text_16">
     <!-- T$_1$ (ms) -->
     <g transform="translate(42.089062 211.25)rotate(-90)scale(0.3 -0.3)">
      <defs>
       <path d="M 3795 3149 
L 3642 3149 
Q 3539 3674 3353 3821 
Q 3168 3968 2656 3968 
L 2278 3968 
L 2278 710 
Q 2278 346 2387 243 
Q 2496 141 2893 122 
L 2893 0 
L 1024 0 
L 1024 122 
Q 1427 147 1526 256 
Q 1626 365 1626 787 
L 1626 3968 
L 1242 3968 
Q 723 3968 540 3817 
Q 358 3667 262 3149 
L 109 3149 
L 154 4237 
L 3750 4237 
L 3795 3149 
z
" id="STIXGeneral-Regular-54" transform="scale(0.015625)"/>
       <path d="M 1946 -1030 
L 1869 -1133 
Q 1126 -710 716 32 
Q 307 774 307 1613 
Q 307 3386 1888 4326 
L 1946 4224 
Q 1293 3667 1075 3126 
Q 858 2586 858 1632 
Q 858 685 1082 96 
Q 1306 -493 1946 -1030 
z
" id="STIXGeneral-Regular-28" transform="scale(0.015625)"/>
       <path d="M 4960 0 
L 3565 0 
L 3565 96 
Q 3834 122 3907 208 
Q 3981 294 3981 576 
L 3981 1894 
Q 3981 2278 3869 2444 
Q 3757 2611 3488 2611 
Q 3264 2611 3107 2521 
Q 2950 2432 2803 2221 
L 2803 608 
Q 2803 301 2896 201 
Q 2989 102 3264 96 
L 3264 0 
L 1830 0 
L 1830 96 
Q 2112 115 2189 188 
Q 2266 262 2266 550 
L 2266 1901 
Q 2266 2611 1850 2611 
Q 1670 2611 1468 2531 
Q 1267 2451 1171 2336 
Q 1088 2240 1088 2227 
L 1088 448 
Q 1088 243 1177 176 
Q 1267 109 1523 96 
L 1523 0 
L 102 0 
L 102 96 
Q 371 102 460 195 
Q 550 288 550 563 
L 550 2150 
Q 550 2387 499 2480 
Q 448 2573 326 2573 
Q 230 2573 122 2547 
L 122 2656 
Q 557 2778 1011 2944 
L 1062 2925 
L 1062 2451 
L 1075 2451 
Q 1363 2752 1584 2848 
Q 1805 2944 2054 2944 
Q 2560 2944 2733 2406 
Q 3232 2944 3776 2944 
Q 4518 2944 4518 1792 
L 4518 493 
Q 4518 282 4582 202 
Q 4646 122 4794 109 
L 4960 96 
L 4960 0 
z
" id="STIXGeneral-Regular-6d" transform="scale(0.015625)"/>
       <path d="M 998 1926 
L 1664 1523 
Q 1984 1331 2105 1164 
Q 2227 998 2227 736 
Q 2227 416 1961 176 
Q 1696 -64 1331 -64 
Q 1030 -64 864 -6 
Q 691 51 570 51 
Q 461 51 416 -26 
L 333 -26 
L 333 979 
L 435 979 
Q 538 512 730 294 
Q 922 77 1248 77 
Q 1485 77 1632 211 
Q 1779 346 1779 550 
Q 1779 845 1440 1030 
L 1094 1222 
Q 326 1651 326 2150 
Q 326 2522 566 2730 
Q 806 2938 1210 2938 
Q 1491 2938 1638 2867 
Q 1754 2816 1818 2816 
Q 1862 2816 1920 2880 
L 1990 2880 
L 2022 2010 
L 1926 2010 
Q 1818 2445 1654 2621 
Q 1491 2797 1203 2797 
Q 986 2797 854 2688 
Q 723 2579 723 2362 
Q 723 2253 796 2128 
Q 870 2003 998 1926 
z
" id="STIXGeneral-Regular-73" transform="scale(0.015625)"/>
       <path d="M 186 4224 
L 262 4326 
Q 992 3891 1408 3148 
Q 1824 2406 1824 1581 
Q 1824 -166 243 -1133 
L 186 -1030 
Q 845 -486 1059 54 
Q 1274 595 1274 1562 
Q 1274 2534 1059 3120 
Q 845 3706 186 4224 
z
" id="STIXGeneral-Regular-29" transform="scale(0.015625)"/>
      </defs>
      <use transform="translate(0 0.40625)" xlink:href="#STIXGeneral-Regular-54"/>
      <use transform="translate(62.643272 -12.821875)scale(0.7)" xlink:href="#STIXGeneral-Regular-31"/>
      <use transform="translate(102.052636 0.40625)" xlink:href="#STIXGeneral-Regular-20"/>
      <use transform="translate(127.052621 0.40625)" xlink:href="#STIXGeneral-Regular-28"/>
      <use transform="translate(160.352609 0.40625)" xlink:href="#STIXGeneral-Regular-6d"/>
      <use transform="translate(238.152597 0.40625)" xlink:href="#STIXGeneral-Regular-73"/>
      <use transform="translate(277.052591 0.40625)" xlink:href="#STIXGeneral-Regular-29"/>
     </g>
    </g>
   </g>
   <g id="LineCollection_1">
    <path clip-path="url(#p3cda4114a9)" style="fill:none;stroke:#1f77b4;stroke-width:3;"/>
    <path clip-path="url(#p3cda4114a9)" d="M 367.48988 226.910761 
L 367.48988 186.481108 
" style="fill:none;stroke:#1f77b4;stroke-width:3;"/>
    <path clip-path="url(#p3cda4114a9)" d="M 367.61976 206.306372 
L 367.61976 189.442944 
" style="fill:none;stroke:#1f77b4;stroke-width:3;"/>
    <path clip-path="url(#p3cda4114a9)" d="M 367.74964 256.886701 
L 367.74964 241.944664 
" style="fill:none;stroke:#1f77b4;stroke-width:3;"/>
    <path clip-path="url(#p3cda4114a9)" d="M 367.87952 193.263338 
L 367.87952 168.319575 
" style="fill:none;stroke:#1f77b4;stroke-width:3;"/>
    <path clip-path="url(#p3cda4114a9)" d="M 368.0094 211.430411 
L 368.0094 174.394927 
" style="fill:none;stroke:#1f77b4;stroke-width:3;"/>
    <path clip-path="url(#p3cda4114a9)" d="M 368.13928 224.471275 
L 368.13928 207.423111 
" style="fill:none;stroke:#1f77b4;stroke-width:3;"/>
    <path clip-path="url(#p3cda4114a9)" d="M 497.36988 133.673297 
L 497.36988 60.781818 
" style="fill:none;stroke:#1f77b4;stroke-width:3;"/>
    <path clip-path="url(#p3cda4114a9)" d="M 627.24988 216.906653 
L 627.24988 197.881041 
" style="fill:none;stroke:#1f77b4;stroke-width:3;"/>
    <path clip-path="url(#p3cda4114a9)" d="M 757.12988 256.38712 
L 757.12988 187.97891 
" style="fill:none;stroke:#1f77b4;stroke-width:3;"/>
    <path clip-path="url(#p3cda4114a9)" d="M 757.25976 253.304478 
L 757.25976 218.484642 
" style="fill:none;stroke:#1f77b4;stroke-width:3;"/>
    <path clip-path="url(#p3cda4114a9)" d="M 757.38964 251.031805 
L 757.38964 202.965647 
" style="fill:none;stroke:#1f77b4;stroke-width:3;"/>
    <path clip-path="url(#p3cda4114a9)" d="M 757.51952 233.056845 
L 757.51952 204.81576 
" style="fill:none;stroke:#1f77b4;stroke-width:3;"/>
    <path clip-path="url(#p3cda4114a9)" d="M 887.00988 203.649897 
L 887.00988 185.981618 
" style="fill:none;stroke:#1f77b4;stroke-width:3;"/>
    <path clip-path="url(#p3cda4114a9)" d="M 1016.88988 218.656503 
L 1016.88988 193.802243 
" style="fill:none;stroke:#1f77b4;stroke-width:3;"/>
    <path clip-path="url(#p3cda4114a9)" style="fill:none;stroke:#1f77b4;stroke-width:3;"/>
    <path clip-path="url(#p3cda4114a9)" style="fill:none;stroke:#1f77b4;stroke-width:3;"/>
    <path clip-path="url(#p3cda4114a9)" d="M 1276.64988 214.973353 
L 1276.64988 195.256461 
" style="fill:none;stroke:#1f77b4;stroke-width:3;"/>
    <path clip-path="url(#p3cda4114a9)" d="M 1276.77976 228.865015 
L 1276.77976 210.939956 
" style="fill:none;stroke:#1f77b4;stroke-width:3;"/>
    <path clip-path="url(#p3cda4114a9)" d="M 1276.90964 227.698235 
L 1276.90964 213.744959 
" style="fill:none;stroke:#1f77b4;stroke-width:3;"/>
    <path clip-path="url(#p3cda4114a9)" d="M 1277.03952 224.744785 
L 1277.03952 212.094228 
" style="fill:none;stroke:#1f77b4;stroke-width:3;"/>
    <path clip-path="url(#p3cda4114a9)" d="M 1277.1694 222.89388 
L 1277.1694 214.040458 
" style="fill:none;stroke:#1f77b4;stroke-width:3;"/>
    <path clip-path="url(#p3cda4114a9)" d="M 1277.29928 219.740623 
L 1277.29928 200.575902 
" style="fill:none;stroke:#1f77b4;stroke-width:3;"/>
    <path clip-path="url(#p3cda4114a9)" d="M 1277.42916 218.143661 
L 1277.42916 205.413903 
" style="fill:none;stroke:#1f77b4;stroke-width:3;"/>
    <path clip-path="url(#p3cda4114a9)" d="M 1277.55904 215.008419 
L 1277.55904 203.95756 
" style="fill:none;stroke:#1f77b4;stroke-width:3;"/>
    <path clip-path="url(#p3cda4114a9)" d="M 1277.68892 215.687817 
L 1277.68892 200.552898 
" style="fill:none;stroke:#1f77b4;stroke-width:3;"/>
    <path clip-path="url(#p3cda4114a9)" d="M 1277.8188 213.637698 
L 1277.8188 202.91895 
" style="fill:none;stroke:#1f77b4;stroke-width:3;"/>
    <path clip-path="url(#p3cda4114a9)" d="M 1277.94868 233.585864 
L 1277.94868 204.92848 
" style="fill:none;stroke:#1f77b4;stroke-width:3;"/>
    <path clip-path="url(#p3cda4114a9)" d="M 1278.07856 198.295347 
L 1278.07856 179.605787 
" style="fill:none;stroke:#1f77b4;stroke-width:3;"/>
    <path clip-path="url(#p3cda4114a9)" d="M 1278.20844 229.545225 
L 1278.20844 212.809 
" style="fill:none;stroke:#1f77b4;stroke-width:3;"/>
    <path clip-path="url(#p3cda4114a9)" d="M 1278.33832 226.296754 
L 1278.33832 215.388837 
" style="fill:none;stroke:#1f77b4;stroke-width:3;"/>
    <path clip-path="url(#p3cda4114a9)" d="M 1278.4682 244.313841 
L 1278.4682 225.487419 
" style="fill:none;stroke:#1f77b4;stroke-width:3;"/>
    <path clip-path="url(#p3cda4114a9)" d="M 1278.59808 240.102915 
L 1278.59808 220.126047 
" style="fill:none;stroke:#1f77b4;stroke-width:3;"/>
    <path clip-path="url(#p3cda4114a9)" d="M 1278.72796 241.351425 
L 1278.72796 225.170326 
" style="fill:none;stroke:#1f77b4;stroke-width:3;"/>
    <path clip-path="url(#p3cda4114a9)" d="M 1278.85784 219.29243 
L 1278.85784 202.103987 
" style="fill:none;stroke:#1f77b4;stroke-width:3;"/>
    <path clip-path="url(#p3cda4114a9)" d="M 1278.98772 202.154996 
L 1278.98772 180.568886 
" style="fill:none;stroke:#1f77b4;stroke-width:3;"/>
    <path clip-path="url(#p3cda4114a9)" d="M 1279.1176 213.758784 
L 1279.1176 188.364348 
" style="fill:none;stroke:#1f77b4;stroke-width:3;"/>
    <path clip-path="url(#p3cda4114a9)" d="M 1279.24748 210.618859 
L 1279.24748 194.549214 
" style="fill:none;stroke:#1f77b4;stroke-width:3;"/>
    <path clip-path="url(#p3cda4114a9)" d="M 1279.37736 212.965429 
L 1279.37736 199.744187 
" style="fill:none;stroke:#1f77b4;stroke-width:3;"/>
    <path clip-path="url(#p3cda4114a9)" d="M 1279.50724 222.455836 
L 1279.50724 206.366372 
" style="fill:none;stroke:#1f77b4;stroke-width:3;"/>
    <path clip-path="url(#p3cda4114a9)" d="M 1279.63712 222.278757 
L 1279.63712 213.720037 
" style="fill:none;stroke:#1f77b4;stroke-width:3;"/>
    <path clip-path="url(#p3cda4114a9)" d="M 1279.767 185.707898 
L 1279.767 167.237239 
" style="fill:none;stroke:#1f77b4;stroke-width:3;"/>
    <path clip-path="url(#p3cda4114a9)" d="M 1279.89688 190.627561 
L 1279.89688 173.561801 
" style="fill:none;stroke:#1f77b4;stroke-width:3;"/>
    <path clip-path="url(#p3cda4114a9)" d="M 1280.02676 217.590585 
L 1280.02676 202.554355 
" style="fill:none;stroke:#1f77b4;stroke-width:3;"/>
    <path clip-path="url(#p3cda4114a9)" d="M 1280.15664 213.473912 
L 1280.15664 203.958361 
" style="fill:none;stroke:#1f77b4;stroke-width:3;"/>
    <path clip-path="url(#p3cda4114a9)" d="M 1280.28652 214.940573 
L 1280.28652 204.805025 
" style="fill:none;stroke:#1f77b4;stroke-width:3;"/>
    <path clip-path="url(#p3cda4114a9)" d="M 1280.4164 214.230344 
L 1280.4164 197.95771 
" style="fill:none;stroke:#1f77b4;stroke-width:3;"/>
    <path clip-path="url(#p3cda4114a9)" d="M 1280.54628 209.469942 
L 1280.54628 192.748515 
" style="fill:none;stroke:#1f77b4;stroke-width:3;"/>
    <path clip-path="url(#p3cda4114a9)" d="M 1280.67616 208.002983 
L 1280.67616 197.55456 
" style="fill:none;stroke:#1f77b4;stroke-width:3;"/>
    <path clip-path="url(#p3cda4114a9)" d="M 1280.80604 226.474504 
L 1280.80604 204.220153 
" style="fill:none;stroke:#1f77b4;stroke-width:3;"/>
    <path clip-path="url(#p3cda4114a9)" d="M 1280.93592 224.173089 
L 1280.93592 210.074455 
" style="fill:none;stroke:#1f77b4;stroke-width:3;"/>
    <path clip-path="url(#p3cda4114a9)" d="M 1281.0658 268.418182 
L 1281.0658 246.309252 
" style="fill:none;stroke:#1f77b4;stroke-width:3;"/>
    <path clip-path="url(#p3cda4114a9)" d="M 1281.19568 185.510306 
L 1281.19568 162.668598 
" style="fill:none;stroke:#1f77b4;stroke-width:3;"/>
    <path clip-path="url(#p3cda4114a9)" d="M 1281.32556 230.327269 
L 1281.32556 221.489972 
" style="fill:none;stroke:#1f77b4;stroke-width:3;"/>
    <path clip-path="url(#p3cda4114a9)" d="M 1281.45544 227.95362 
L 1281.45544 222.620315 
" style="fill:none;stroke:#1f77b4;stroke-width:3;"/>
    <path clip-path="url(#p3cda4114a9)" style="fill:none;stroke:#1f77b4;stroke-width:3;"/>
   </g>
   <g id="line2d_15">
    <defs>
     <path d="M 10 0 
L -10 -0 
" id="md7425f77d5" style="stroke:#1f77b4;"/>
    </defs>
    <g clip-path="url(#p3cda4114a9)">
     <use style="fill:#1f77b4;stroke:#1f77b4;" x="367.48988" xlink:href="#md7425f77d5" y="226.910761"/>
     <use style="fill:#1f77b4;stroke:#1f77b4;" x="367.61976" xlink:href="#md7425f77d5" y="206.306372"/>
     <use style="fill:#1f77b4;stroke:#1f77b4;" x="367.74964" xlink:href="#md7425f77d5" y="256.886701"/>
     <use style="fill:#1f77b4;stroke:#1f77b4;" x="367.87952" xlink:href="#md7425f77d5" y="193.263338"/>
     <use style="fill:#1f77b4;stroke:#1f77b4;" x="368.0094" xlink:href="#md7425f77d5" y="211.430411"/>
     <use style="fill:#1f77b4;stroke:#1f77b4;" x="368.13928" xlink:href="#md7425f77d5" y="224.471275"/>
     <use style="fill:#1f77b4;stroke:#1f77b4;" x="497.36988" xlink:href="#md7425f77d5" y="133.673297"/>
     <use style="fill:#1f77b4;stroke:#1f77b4;" x="627.24988" xlink:href="#md7425f77d5" y="216.906653"/>
     <use style="fill:#1f77b4;stroke:#1f77b4;" x="757.12988" xlink:href="#md7425f77d5" y="256.38712"/>
     <use style="fill:#1f77b4;stroke:#1f77b4;" x="757.25976" xlink:href="#md7425f77d5" y="253.304478"/>
     <use style="fill:#1f77b4;stroke:#1f77b4;" x="757.38964" xlink:href="#md7425f77d5" y="251.031805"/>
     <use style="fill:#1f77b4;stroke:#1f77b4;" x="757.51952" xlink:href="#md7425f77d5" y="233.056845"/>
     <use style="fill:#1f77b4;stroke:#1f77b4;" x="887.00988" xlink:href="#md7425f77d5" y="203.649897"/>
     <use style="fill:#1f77b4;stroke:#1f77b4;" x="1016.88988" xlink:href="#md7425f77d5" y="218.656503"/>
     <use style="fill:#1f77b4;stroke:#1f77b4;" x="1276.64988" xlink:href="#md7425f77d5" y="214.973353"/>
     <use style="fill:#1f77b4;stroke:#1f77b4;" x="1276.77976" xlink:href="#md7425f77d5" y="228.865015"/>
     <use style="fill:#1f77b4;stroke:#1f77b4;" x="1276.90964" xlink:href="#md7425f77d5" y="227.698235"/>
     <use style="fill:#1f77b4;stroke:#1f77b4;" x="1277.03952" xlink:href="#md7425f77d5" y="224.744785"/>
     <use style="fill:#1f77b4;stroke:#1f77b4;" x="1277.1694" xlink:href="#md7425f77d5" y="222.89388"/>
     <use style="fill:#1f77b4;stroke:#1f77b4;" x="1277.29928" xlink:href="#md7425f77d5" y="219.740623"/>
     <use style="fill:#1f77b4;stroke:#1f77b4;" x="1277.42916" xlink:href="#md7425f77d5" y="218.143661"/>
     <use style="fill:#1f77b4;stroke:#1f77b4;" x="1277.55904" xlink:href="#md7425f77d5" y="215.008419"/>
     <use style="fill:#1f77b4;stroke:#1f77b4;" x="1277.68892" xlink:href="#md7425f77d5" y="215.687817"/>
     <use style="fill:#1f77b4;stroke:#1f77b4;" x="1277.8188" xlink:href="#md7425f77d5" y="213.637698"/>
     <use style="fill:#1f77b4;stroke:#1f77b4;" x="1277.94868" xlink:href="#md7425f77d5" y="233.585864"/>
     <use style="fill:#1f77b4;stroke:#1f77b4;" x="1278.07856" xlink:href="#md7425f77d5" y="198.295347"/>
     <use style="fill:#1f77b4;stroke:#1f77b4;" x="1278.20844" xlink:href="#md7425f77d5" y="229.545225"/>
     <use style="fill:#1f77b4;stroke:#1f77b4;" x="1278.33832" xlink:href="#md7425f77d5" y="226.296754"/>
     <use style="fill:#1f77b4;stroke:#1f77b4;" x="1278.4682" xlink:href="#md7425f77d5" y="244.313841"/>
     <use style="fill:#1f77b4;stroke:#1f77b4;" x="1278.59808" xlink:href="#md7425f77d5" y="240.102915"/>
     <use style="fill:#1f77b4;stroke:#1f77b4;" x="1278.72796" xlink:href="#md7425f77d5" y="241.351425"/>
     <use style="fill:#1f77b4;stroke:#1f77b4;" x="1278.85784" xlink:href="#md7425f77d5" y="219.29243"/>
     <use style="fill:#1f77b4;stroke:#1f77b4;" x="1278.98772" xlink:href="#md7425f77d5" y="202.154996"/>
     <use style="fill:#1f77b4;stroke:#1f77b4;" x="1279.1176" xlink:href="#md7425f77d5" y="213.758784"/>
     <use style="fill:#1f77b4;stroke:#1f77b4;" x="1279.24748" xlink:href="#md7425f77d5" y="210.618859"/>
     <use style="fill:#1f77b4;stroke:#1f77b4;" x="1279.37736" xlink:href="#md7425f77d5" y="212.965429"/>
     <use style="fill:#1f77b4;stroke:#1f77b4;" x="1279.50724" xlink:href="#md7425f77d5" y="222.455836"/>
     <use style="fill:#1f77b4;stroke:#1f77b4;" x="1279.63712" xlink:href="#md7425f77d5" y="222.278757"/>
     <use style="fill:#1f77b4;stroke:#1f77b4;" x="1279.767" xlink:href="#md7425f77d5" y="185.707898"/>
     <use style="fill:#1f77b4;stroke:#1f77b4;" x="1279.89688" xlink:href="#md7425f77d5" y="190.627561"/>
     <use style="fill:#1f77b4;stroke:#1f77b4;" x="1280.02676" xlink:href="#md7425f77d5" y="217.590585"/>
     <use style="fill:#1f77b4;stroke:#1f77b4;" x="1280.15664" xlink:href="#md7425f77d5" y="213.473912"/>
     <use style="fill:#1f77b4;stroke:#1f77b4;" x="1280.28652" xlink:href="#md7425f77d5" y="214.940573"/>
     <use style="fill:#1f77b4;stroke:#1f77b4;" x="1280.4164" xlink:href="#md7425f77d5" y="214.230344"/>
     <use style="fill:#1f77b4;stroke:#1f77b4;" x="1280.54628" xlink:href="#md7425f77d5" y="209.469942"/>
     <use style="fill:#1f77b4;stroke:#1f77b4;" x="1280.67616" xlink:href="#md7425f77d5" y="208.002983"/>
     <use style="fill:#1f77b4;stroke:#1f77b4;" x="1280.80604" xlink:href="#md7425f77d5" y="226.474504"/>
     <use style="fill:#1f77b4;stroke:#1f77b4;" x="1280.93592" xlink:href="#md7425f77d5" y="224.173089"/>
     <use style="fill:#1f77b4;stroke:#1f77b4;" x="1281.0658" xlink:href="#md7425f77d5" y="268.418182"/>
     <use style="fill:#1f77b4;stroke:#1f77b4;" x="1281.19568" xlink:href="#md7425f77d5" y="185.510306"/>
     <use style="fill:#1f77b4;stroke:#1f77b4;" x="1281.32556" xlink:href="#md7425f77d5" y="230.327269"/>
     <use style="fill:#1f77b4;stroke:#1f77b4;" x="1281.45544" xlink:href="#md7425f77d5" y="227.95362"/>
    </g>
   </g>
   <g id="line2d_16">
    <g clip-path="url(#p3cda4114a9)">
     <use style="fill:#1f77b4;stroke:#1f77b4;" x="367.48988" xlink:href="#md7425f77d5" y="186.481108"/>
     <use style="fill:#1f77b4;stroke:#1f77b4;" x="367.61976" xlink:href="#md7425f77d5" y="189.442944"/>
     <use style="fill:#1f77b4;stroke:#1f77b4;" x="367.74964" xlink:href="#md7425f77d5" y="241.944664"/>
     <use style="fill:#1f77b4;stroke:#1f77b4;" x="367.87952" xlink:href="#md7425f77d5" y="168.319575"/>
     <use style="fill:#1f77b4;stroke:#1f77b4;" x="368.0094" xlink:href="#md7425f77d5" y="174.394927"/>
     <use style="fill:#1f77b4;stroke:#1f77b4;" x="368.13928" xlink:href="#md7425f77d5" y="207.423111"/>
     <use style="fill:#1f77b4;stroke:#1f77b4;" x="497.36988" xlink:href="#md7425f77d5" y="60.781818"/>
     <use style="fill:#1f77b4;stroke:#1f77b4;" x="627.24988" xlink:href="#md7425f77d5" y="197.881041"/>
     <use style="fill:#1f77b4;stroke:#1f77b4;" x="757.12988" xlink:href="#md7425f77d5" y="187.97891"/>
     <use style="fill:#1f77b4;stroke:#1f77b4;" x="757.25976" xlink:href="#md7425f77d5" y="218.484642"/>
     <use style="fill:#1f77b4;stroke:#1f77b4;" x="757.38964" xlink:href="#md7425f77d5" y="202.965647"/>
     <use style="fill:#1f77b4;stroke:#1f77b4;" x="757.51952" xlink:href="#md7425f77d5" y="204.81576"/>
     <use style="fill:#1f77b4;stroke:#1f77b4;" x="887.00988" xlink:href="#md7425f77d5" y="185.981618"/>
     <use style="fill:#1f77b4;stroke:#1f77b4;" x="1016.88988" xlink:href="#md7425f77d5" y="193.802243"/>
     <use style="fill:#1f77b4;stroke:#1f77b4;" x="1276.64988" xlink:href="#md7425f77d5" y="195.256461"/>
     <use style="fill:#1f77b4;stroke:#1f77b4;" x="1276.77976" xlink:href="#md7425f77d5" y="210.939956"/>
     <use style="fill:#1f77b4;stroke:#1f77b4;" x="1276.90964" xlink:href="#md7425f77d5" y="213.744959"/>
     <use style="fill:#1f77b4;stroke:#1f77b4;" x="1277.03952" xlink:href="#md7425f77d5" y="212.094228"/>
     <use style="fill:#1f77b4;stroke:#1f77b4;" x="1277.1694" xlink:href="#md7425f77d5" y="214.040458"/>
     <use style="fill:#1f77b4;stroke:#1f77b4;" x="1277.29928" xlink:href="#md7425f77d5" y="200.575902"/>
     <use style="fill:#1f77b4;stroke:#1f77b4;" x="1277.42916" xlink:href="#md7425f77d5" y="205.413903"/>
     <use style="fill:#1f77b4;stroke:#1f77b4;" x="1277.55904" xlink:href="#md7425f77d5" y="203.95756"/>
     <use style="fill:#1f77b4;stroke:#1f77b4;" x="1277.68892" xlink:href="#md7425f77d5" y="200.552898"/>
     <use style="fill:#1f77b4;stroke:#1f77b4;" x="1277.8188" xlink:href="#md7425f77d5" y="202.91895"/>
     <use style="fill:#1f77b4;stroke:#1f77b4;" x="1277.94868" xlink:href="#md7425f77d5" y="204.92848"/>
     <use style="fill:#1f77b4;stroke:#1f77b4;" x="1278.07856" xlink:href="#md7425f77d5" y="179.605787"/>
     <use style="fill:#1f77b4;stroke:#1f77b4;" x="1278.20844" xlink:href="#md7425f77d5" y="212.809"/>
     <use style="fill:#1f77b4;stroke:#1f77b4;" x="1278.33832" xlink:href="#md7425f77d5" y="215.388837"/>
     <use style="fill:#1f77b4;stroke:#1f77b4;" x="1278.4682" xlink:href="#md7425f77d5" y="225.487419"/>
     <use style="fill:#1f77b4;stroke:#1f77b4;" x="1278.59808" xlink:href="#md7425f77d5" y="220.126047"/>
     <use style="fill:#1f77b4;stroke:#1f77b4;" x="1278.72796" xlink:href="#md7425f77d5" y="225.170326"/>
     <use style="fill:#1f77b4;stroke:#1f77b4;" x="1278.85784" xlink:href="#md7425f77d5" y="202.103987"/>
     <use style="fill:#1f77b4;stroke:#1f77b4;" x="1278.98772" xlink:href="#md7425f77d5" y="180.568886"/>
     <use style="fill:#1f77b4;stroke:#1f77b4;" x="1279.1176" xlink:href="#md7425f77d5" y="188.364348"/>
     <use style="fill:#1f77b4;stroke:#1f77b4;" x="1279.24748" xlink:href="#md7425f77d5" y="194.549214"/>
     <use style="fill:#1f77b4;stroke:#1f77b4;" x="1279.37736" xlink:href="#md7425f77d5" y="199.744187"/>
     <use style="fill:#1f77b4;stroke:#1f77b4;" x="1279.50724" xlink:href="#md7425f77d5" y="206.366372"/>
     <use style="fill:#1f77b4;stroke:#1f77b4;" x="1279.63712" xlink:href="#md7425f77d5" y="213.720037"/>
     <use style="fill:#1f77b4;stroke:#1f77b4;" x="1279.767" xlink:href="#md7425f77d5" y="167.237239"/>
     <use style="fill:#1f77b4;stroke:#1f77b4;" x="1279.89688" xlink:href="#md7425f77d5" y="173.561801"/>
     <use style="fill:#1f77b4;stroke:#1f77b4;" x="1280.02676" xlink:href="#md7425f77d5" y="202.554355"/>
     <use style="fill:#1f77b4;stroke:#1f77b4;" x="1280.15664" xlink:href="#md7425f77d5" y="203.958361"/>
     <use style="fill:#1f77b4;stroke:#1f77b4;" x="1280.28652" xlink:href="#md7425f77d5" y="204.805025"/>
     <use style="fill:#1f77b4;stroke:#1f77b4;" x="1280.4164" xlink:href="#md7425f77d5" y="197.95771"/>
     <use style="fill:#1f77b4;stroke:#1f77b4;" x="1280.54628" xlink:href="#md7425f77d5" y="192.748515"/>
     <use style="fill:#1f77b4;stroke:#1f77b4;" x="1280.67616" xlink:href="#md7425f77d5" y="197.55456"/>
     <use style="fill:#1f77b4;stroke:#1f77b4;" x="1280.80604" xlink:href="#md7425f77d5" y="204.220153"/>
     <use style="fill:#1f77b4;stroke:#1f77b4;" x="1280.93592" xlink:href="#md7425f77d5" y="210.074455"/>
     <use style="fill:#1f77b4;stroke:#1f77b4;" x="1281.0658" xlink:href="#md7425f77d5" y="246.309252"/>
     <use style="fill:#1f77b4;stroke:#1f77b4;" x="1281.19568" xlink:href="#md7425f77d5" y="162.668598"/>
     <use style="fill:#1f77b4;stroke:#1f77b4;" x="1281.32556" xlink:href="#md7425f77d5" y="221.489972"/>
     <use style="fill:#1f77b4;stroke:#1f77b4;" x="1281.45544" xlink:href="#md7425f77d5" y="222.620315"/>
    </g>
   </g>
   <g id="line2d_17">
    <defs>
     <path d="M 0 5 
C 1.326016 5 2.597899 4.473168 3.535534 3.535534 
C 4.473168 2.597899 5 1.326016 5 0 
C 5 -1.326016 4.473168 -2.597899 3.535534 -3.535534 
C 2.597899 -4.473168 1.326016 -5 0 -5 
C -1.326016 -5 -2.597899 -4.473168 -3.535534 -3.535534 
C -4.473168 -2.597899 -5 -1.326016 -5 0 
C -5 1.326016 -4.473168 2.597899 -3.535534 3.535534 
C -2.597899 4.473168 -1.326016 5 0 5 
z
" id="m9f4d9d5691" style="stroke:#1f77b4;"/>
    </defs>
    <g clip-path="url(#p3cda4114a9)">
     <use style="fill:#1f77b4;stroke:#1f77b4;" x="367.48988" xlink:href="#m9f4d9d5691" y="206.695934"/>
     <use style="fill:#1f77b4;stroke:#1f77b4;" x="367.61976" xlink:href="#m9f4d9d5691" y="197.874658"/>
     <use style="fill:#1f77b4;stroke:#1f77b4;" x="367.74964" xlink:href="#m9f4d9d5691" y="249.415683"/>
     <use style="fill:#1f77b4;stroke:#1f77b4;" x="367.87952" xlink:href="#m9f4d9d5691" y="180.791457"/>
     <use style="fill:#1f77b4;stroke:#1f77b4;" x="368.0094" xlink:href="#m9f4d9d5691" y="192.912669"/>
     <use style="fill:#1f77b4;stroke:#1f77b4;" x="368.13928" xlink:href="#m9f4d9d5691" y="215.947193"/>
     <use style="fill:#1f77b4;stroke:#1f77b4;" x="497.36988" xlink:href="#m9f4d9d5691" y="97.227558"/>
     <use style="fill:#1f77b4;stroke:#1f77b4;" x="627.24988" xlink:href="#m9f4d9d5691" y="207.393847"/>
     <use style="fill:#1f77b4;stroke:#1f77b4;" x="757.12988" xlink:href="#m9f4d9d5691" y="222.183015"/>
     <use style="fill:#1f77b4;stroke:#1f77b4;" x="757.25976" xlink:href="#m9f4d9d5691" y="235.89456"/>
     <use style="fill:#1f77b4;stroke:#1f77b4;" x="757.38964" xlink:href="#m9f4d9d5691" y="226.998726"/>
     <use style="fill:#1f77b4;stroke:#1f77b4;" x="757.51952" xlink:href="#m9f4d9d5691" y="218.936302"/>
     <use style="fill:#1f77b4;stroke:#1f77b4;" x="887.00988" xlink:href="#m9f4d9d5691" y="194.815758"/>
     <use style="fill:#1f77b4;stroke:#1f77b4;" x="1016.88988" xlink:href="#m9f4d9d5691" y="206.229373"/>
     <use style="fill:#1f77b4;stroke:#1f77b4;" x="1276.64988" xlink:href="#m9f4d9d5691" y="205.114907"/>
     <use style="fill:#1f77b4;stroke:#1f77b4;" x="1276.77976" xlink:href="#m9f4d9d5691" y="219.902486"/>
     <use style="fill:#1f77b4;stroke:#1f77b4;" x="1276.90964" xlink:href="#m9f4d9d5691" y="220.721597"/>
     <use style="fill:#1f77b4;stroke:#1f77b4;" x="1277.03952" xlink:href="#m9f4d9d5691" y="218.419506"/>
     <use style="fill:#1f77b4;stroke:#1f77b4;" x="1277.1694" xlink:href="#m9f4d9d5691" y="218.467169"/>
     <use style="fill:#1f77b4;stroke:#1f77b4;" x="1277.29928" xlink:href="#m9f4d9d5691" y="210.158262"/>
     <use style="fill:#1f77b4;stroke:#1f77b4;" x="1277.42916" xlink:href="#m9f4d9d5691" y="211.778782"/>
     <use style="fill:#1f77b4;stroke:#1f77b4;" x="1277.55904" xlink:href="#m9f4d9d5691" y="209.482989"/>
     <use style="fill:#1f77b4;stroke:#1f77b4;" x="1277.68892" xlink:href="#m9f4d9d5691" y="208.120357"/>
     <use style="fill:#1f77b4;stroke:#1f77b4;" x="1277.8188" xlink:href="#m9f4d9d5691" y="208.278324"/>
     <use style="fill:#1f77b4;stroke:#1f77b4;" x="1277.94868" xlink:href="#m9f4d9d5691" y="219.257172"/>
     <use style="fill:#1f77b4;stroke:#1f77b4;" x="1278.07856" xlink:href="#m9f4d9d5691" y="188.950567"/>
     <use style="fill:#1f77b4;stroke:#1f77b4;" x="1278.20844" xlink:href="#m9f4d9d5691" y="221.177113"/>
     <use style="fill:#1f77b4;stroke:#1f77b4;" x="1278.33832" xlink:href="#m9f4d9d5691" y="220.842795"/>
     <use style="fill:#1f77b4;stroke:#1f77b4;" x="1278.4682" xlink:href="#m9f4d9d5691" y="234.90063"/>
     <use style="fill:#1f77b4;stroke:#1f77b4;" x="1278.59808" xlink:href="#m9f4d9d5691" y="230.114481"/>
     <use style="fill:#1f77b4;stroke:#1f77b4;" x="1278.72796" xlink:href="#m9f4d9d5691" y="233.260876"/>
     <use style="fill:#1f77b4;stroke:#1f77b4;" x="1278.85784" xlink:href="#m9f4d9d5691" y="210.698209"/>
     <use style="fill:#1f77b4;stroke:#1f77b4;" x="1278.98772" xlink:href="#m9f4d9d5691" y="191.361941"/>
     <use style="fill:#1f77b4;stroke:#1f77b4;" x="1279.1176" xlink:href="#m9f4d9d5691" y="201.061566"/>
     <use style="fill:#1f77b4;stroke:#1f77b4;" x="1279.24748" xlink:href="#m9f4d9d5691" y="202.584037"/>
     <use style="fill:#1f77b4;stroke:#1f77b4;" x="1279.37736" xlink:href="#m9f4d9d5691" y="206.354808"/>
     <use style="fill:#1f77b4;stroke:#1f77b4;" x="1279.50724" xlink:href="#m9f4d9d5691" y="214.411104"/>
     <use style="fill:#1f77b4;stroke:#1f77b4;" x="1279.63712" xlink:href="#m9f4d9d5691" y="217.999397"/>
     <use style="fill:#1f77b4;stroke:#1f77b4;" x="1279.767" xlink:href="#m9f4d9d5691" y="176.472569"/>
     <use style="fill:#1f77b4;stroke:#1f77b4;" x="1279.89688" xlink:href="#m9f4d9d5691" y="182.094681"/>
     <use style="fill:#1f77b4;stroke:#1f77b4;" x="1280.02676" xlink:href="#m9f4d9d5691" y="210.07247"/>
     <use style="fill:#1f77b4;stroke:#1f77b4;" x="1280.15664" xlink:href="#m9f4d9d5691" y="208.716136"/>
     <use style="fill:#1f77b4;stroke:#1f77b4;" x="1280.28652" xlink:href="#m9f4d9d5691" y="209.872799"/>
     <use style="fill:#1f77b4;stroke:#1f77b4;" x="1280.4164" xlink:href="#m9f4d9d5691" y="206.094027"/>
     <use style="fill:#1f77b4;stroke:#1f77b4;" x="1280.54628" xlink:href="#m9f4d9d5691" y="201.109228"/>
     <use style="fill:#1f77b4;stroke:#1f77b4;" x="1280.67616" xlink:href="#m9f4d9d5691" y="202.778772"/>
     <use style="fill:#1f77b4;stroke:#1f77b4;" x="1280.80604" xlink:href="#m9f4d9d5691" y="215.347329"/>
     <use style="fill:#1f77b4;stroke:#1f77b4;" x="1280.93592" xlink:href="#m9f4d9d5691" y="217.123772"/>
     <use style="fill:#1f77b4;stroke:#1f77b4;" x="1281.0658" xlink:href="#m9f4d9d5691" y="257.363717"/>
     <use style="fill:#1f77b4;stroke:#1f77b4;" x="1281.19568" xlink:href="#m9f4d9d5691" y="174.089452"/>
     <use style="fill:#1f77b4;stroke:#1f77b4;" x="1281.32556" xlink:href="#m9f4d9d5691" y="225.908621"/>
     <use style="fill:#1f77b4;stroke:#1f77b4;" x="1281.45544" xlink:href="#m9f4d9d5691" y="225.286968"/>
    </g>
   </g>
   <g id="patch_3">
    <path d="M 107.6 278.8 
L 107.6 50.4 
" style="fill:none;stroke:#000000;stroke-linecap:square;stroke-linejoin:miter;stroke-width:4;"/>
   </g>
   <g id="patch_4">
    <path d="M 1406.4 278.8 
L 1406.4 50.4 
" style="fill:none;stroke:#000000;stroke-linecap:square;stroke-linejoin:miter;stroke-width:4;"/>
   </g>
   <g id="patch_5">
    <path d="M 107.6 278.8 
L 1406.4 278.8 
" style="fill:none;stroke:#000000;stroke-linecap:square;stroke-linejoin:miter;stroke-width:4;"/>
   </g>
   <g id="patch_6">
    <path d="M 107.6 50.4 
L 1406.4 50.4 
" style="fill:none;stroke:#000000;stroke-linecap:square;stroke-linejoin:miter;stroke-width:4;"/>
   </g>
   <g id="text_17">
    <!-- Deep GM -->
    <g transform="translate(693.46 43.455)scale(0.32 -0.32)">
     <defs>
      <path d="M 102 4237 
L 1830 4237 
Q 3078 4237 3750 3654 
Q 4384 3110 4384 2138 
Q 4384 966 3514 410 
Q 2880 0 1901 0 
L 102 0 
L 102 122 
Q 474 147 570 252 
Q 666 358 666 736 
L 666 3520 
Q 666 3891 570 3990 
Q 474 4090 102 4115 
L 102 4237 
z
M 1318 3731 
L 1318 538 
Q 1318 365 1379 301 
Q 1440 237 1626 237 
Q 2125 237 2432 307 
Q 2739 378 3021 570 
Q 3686 1018 3686 2099 
Q 3686 3027 3078 3558 
Q 2803 3802 2476 3901 
Q 2150 4000 1658 4000 
Q 1472 4000 1395 3942 
Q 1318 3885 1318 3731 
z
" id="STIXGeneral-Regular-44" transform="scale(0.015625)"/>
      <path d="M 1018 2931 
L 1018 2438 
Q 1421 2944 1939 2944 
Q 2406 2944 2707 2560 
Q 3008 2176 3008 1581 
Q 3008 883 2621 409 
Q 2234 -64 1664 -64 
Q 1466 -64 1328 -6 
Q 1190 51 1018 211 
L 1018 -794 
Q 1018 -1094 1120 -1180 
Q 1222 -1267 1581 -1274 
L 1581 -1389 
L 32 -1389 
L 32 -1280 
Q 314 -1254 397 -1171 
Q 480 -1088 480 -838 
L 480 2157 
Q 480 2381 429 2451 
Q 378 2522 218 2522 
Q 115 2522 58 2515 
L 58 2618 
Q 506 2752 979 2944 
L 1018 2931 
z
M 1018 2138 
L 1018 563 
Q 1018 422 1238 281 
Q 1459 141 1683 141 
Q 2029 141 2243 467 
Q 2458 794 2458 1325 
Q 2458 1888 2243 2224 
Q 2029 2560 1670 2560 
Q 1446 2560 1232 2419 
Q 1018 2278 1018 2138 
z
" id="STIXGeneral-Regular-70" transform="scale(0.015625)"/>
      <path d="M 4538 2266 
L 4538 2150 
Q 4256 2125 4173 2035 
Q 4090 1946 4090 1638 
L 4090 358 
Q 3539 -90 2464 -90 
Q 1965 -90 1507 89 
Q 1050 269 736 595 
Q 205 1152 205 2093 
Q 205 3155 890 3776 
Q 1491 4326 2419 4326 
Q 2829 4326 3270 4179 
Q 3443 4115 3552 4115 
Q 3654 4115 3731 4176 
Q 3808 4237 3840 4326 
L 3981 4326 
L 4032 2976 
L 3885 2976 
Q 3680 3475 3430 3718 
Q 3059 4070 2496 4070 
Q 1856 4070 1427 3629 
Q 934 3136 934 2074 
Q 934 1190 1395 678 
Q 1856 166 2618 166 
Q 2982 166 3225 281 
Q 3469 397 3469 557 
L 3469 1562 
Q 3469 1933 3376 2025 
Q 3283 2118 2899 2150 
L 2899 2266 
L 4538 2266 
z
" id="STIXGeneral-Regular-47" transform="scale(0.015625)"/>
      <path d="M 5530 0 
L 3738 0 
L 3738 122 
Q 4115 147 4214 265 
Q 4314 384 4314 787 
L 4314 3661 
L 2682 0 
L 2592 0 
L 979 3514 
L 979 966 
Q 979 448 1088 294 
Q 1197 141 1574 122 
L 1574 0 
L 77 0 
L 77 122 
Q 358 141 480 205 
Q 602 269 650 432 
Q 698 595 698 966 
L 698 3514 
Q 698 3878 589 3984 
Q 480 4090 90 4115 
L 90 4237 
L 1357 4237 
L 2835 1024 
L 4250 4237 
L 5523 4237 
L 5523 4115 
Q 5178 4109 5072 3993 
Q 4966 3878 4966 3520 
L 4966 717 
Q 4966 378 5072 262 
Q 5178 147 5530 122 
L 5530 0 
z
" id="STIXGeneral-Regular-4d" transform="scale(0.015625)"/>
     </defs>
     <use xlink:href="#STIXGeneral-Regular-44"/>
     <use x="72.199982" xlink:href="#STIXGeneral-Regular-65"/>
     <use x="116.599976" xlink:href="#STIXGeneral-Regular-65"/>
     <use x="160.999969" xlink:href="#STIXGeneral-Regular-70"/>
     <use x="210.999954" xlink:href="#STIXGeneral-Regular-20"/>
     <use x="235.999939" xlink:href="#STIXGeneral-Regular-47"/>
     <use x="308.199921" xlink:href="#STIXGeneral-Regular-4d"/>
    </g>
   </g>
  </g>
 </g>
 <defs>
  <clipPath id="p3cda4114a9">
   <rect height="228.4" width="1298.8" x="107.6" y="50.4"/>
  </clipPath>
 </defs>
</svg>
