<?xml version="1.0" encoding="utf-8" standalone="no"?>
<!DOCTYPE svg PUBLIC "-//W3C//DTD SVG 1.1//EN"
  "http://www.w3.org/Graphics/SVG/1.1/DTD/svg11.dtd">
<!-- Created with matplotlib (https://matplotlib.org/) -->
<svg height="360pt" version="1.1" viewBox="0 0 1440 360" width="1440pt" xmlns="http://www.w3.org/2000/svg" xmlns:xlink="http://www.w3.org/1999/xlink">
 <metadata>
  <rdf:RDF xmlns:cc="http://creativecommons.org/ns#" xmlns:dc="http://purl.org/dc/elements/1.1/" xmlns:rdf="http://www.w3.org/1999/02/22-rdf-syntax-ns#">
   <cc:Work>
    <dc:type rdf:resource="http://purl.org/dc/dcmitype/StillImage"/>
    <dc:date>2020-08-17T16:10:51.423855</dc:date>
    <dc:format>image/svg+xml</dc:format>
    <dc:creator>
     <cc:Agent>
      <dc:title>Matplotlib v3.3.0, https://matplotlib.org/</dc:title>
     </cc:Agent>
    </dc:creator>
   </cc:Work>
  </rdf:RDF>
 </metadata>
 <defs>
  <style type="text/css">*{stroke-linecap:butt;stroke-linejoin:round;}</style>
 </defs>
 <g id="figure_1">
  <g id="patch_1">
   <path d="M 0 360 
L 1440 360 
L 1440 0 
L 0 0 
z
" style="fill:#ffffff;"/>
  </g>
  <g id="axes_1">
   <g id="patch_2">
    <path d="M 107.6 278.8 
L 1406.4 278.8 
L 1406.4 50.4 
L 107.6 50.4 
z
" style="fill:#ffffff;"/>
   </g>
   <g id="matplotlib.axis_1">
    <g id="xtick_1">
     <g id="line2d_1">
      <defs>
       <path d="M 0 0 
L 0 3.5 
" id="mabd2b6588c" style="stroke:#000000;stroke-width:0.8;"/>
      </defs>
      <g>
       <use style="stroke:#000000;stroke-width:0.8;" x="107.6" xlink:href="#mabd2b6588c" y="278.8"/>
      </g>
     </g>
     <g id="text_1">
      <!-- 0 -->
      <g transform="translate(101.6 302.19125)scale(0.24 -0.24)">
       <defs>
        <path d="M 47.59375 33 
Q 47.59375 26.296875 46.296875 20.34375 
Q 45 14.40625 42.453125 9.40625 
Q 39.90625 4.40625 35.40625 1.5 
Q 30.90625 -1.40625 25 -1.40625 
Q 18.90625 -1.40625 14.296875 1.6875 
Q 9.703125 4.796875 7.203125 10 
Q 4.703125 15.203125 3.546875 21.09375 
Q 2.40625 27 2.40625 33.59375 
Q 2.40625 42.90625 4.703125 50.34375 
Q 7 57.796875 12.34375 62.6875 
Q 17.703125 67.59375 25.40625 67.59375 
Q 35.203125 67.59375 41.390625 58 
Q 47.59375 48.40625 47.59375 33 
z
M 38 32.5 
Q 38 48.296875 34.640625 56.640625 
Q 31.296875 65 24.796875 65 
Q 18.59375 65 15.296875 56.59375 
Q 12 48.203125 12 32.90625 
Q 12 17.5 15.296875 9.34375 
Q 18.59375 1.203125 25 1.203125 
Q 31.296875 1.203125 34.640625 9.34375 
Q 38 17.5 38 32.5 
z
" id="STIXGeneral-Regular-48"/>
       </defs>
       <use xlink:href="#STIXGeneral-Regular-48"/>
      </g>
     </g>
    </g>
    <g id="xtick_2">
     <g id="line2d_2">
      <g>
       <use style="stroke:#000000;stroke-width:0.8;" x="237.48" xlink:href="#mabd2b6588c" y="278.8"/>
      </g>
     </g>
     <g id="text_2">
      <!-- 1 -->
      <g transform="translate(231.48 302.19125)scale(0.24 -0.24)">
       <defs>
        <path d="M 39.40625 0 
L 11.796875 0 
L 11.796875 1.5 
Q 17.296875 1.796875 19.296875 3.546875 
Q 21.296875 5.296875 21.296875 9.5 
L 21.296875 54.40625 
Q 21.296875 59.296875 18.296875 59.296875 
Q 16.90625 59.296875 13.796875 58.09375 
L 11.09375 57.09375 
L 11.09375 58.5 
L 29 67.59375 
L 29.90625 67.296875 
L 29.90625 7.59375 
Q 29.90625 4.296875 31.90625 2.890625 
Q 33.90625 1.5 39.40625 1.5 
z
" id="STIXGeneral-Regular-49"/>
       </defs>
       <use xlink:href="#STIXGeneral-Regular-49"/>
      </g>
     </g>
    </g>
    <g id="xtick_3">
     <g id="line2d_3">
      <g>
       <use style="stroke:#000000;stroke-width:0.8;" x="367.36" xlink:href="#mabd2b6588c" y="278.8"/>
      </g>
     </g>
     <g id="text_3">
      <!-- 2 -->
      <g transform="translate(361.36 302.19125)scale(0.24 -0.24)">
       <defs>
        <path d="M 47.40625 13.703125 
L 42 0 
L 2.90625 0 
L 2.90625 1.203125 
L 20.703125 20.09375 
Q 27.703125 27.40625 30.703125 33.5 
Q 33.703125 39.59375 33.703125 46.09375 
Q 33.703125 52.796875 30 56.5 
Q 26.296875 60.203125 19.796875 60.203125 
Q 14.40625 60.203125 11.25 57.390625 
Q 8.09375 54.59375 5.09375 47.203125 
L 3 47.703125 
Q 4.703125 57 9.84375 62.296875 
Q 15 67.59375 23.796875 67.59375 
Q 32.09375 67.59375 37.1875 62.59375 
Q 42.296875 57.59375 42.296875 50 
Q 42.296875 38.703125 29.5 25.203125 
L 13 7.59375 
L 36.40625 7.59375 
Q 39.703125 7.59375 41.640625 8.890625 
Q 43.59375 10.203125 46 14.296875 
z
" id="STIXGeneral-Regular-50"/>
       </defs>
       <use xlink:href="#STIXGeneral-Regular-50"/>
      </g>
     </g>
    </g>
    <g id="xtick_4">
     <g id="line2d_4">
      <g>
       <use style="stroke:#000000;stroke-width:0.8;" x="497.24" xlink:href="#mabd2b6588c" y="278.8"/>
      </g>
     </g>
     <g id="text_4">
      <!-- 3 -->
      <g transform="translate(491.24 302.19125)scale(0.24 -0.24)">
       <defs>
        <path d="M 6.09375 51 
L 4.5 51.40625 
Q 6.796875 58.90625 11.6875 63.25 
Q 16.59375 67.59375 24.09375 67.59375 
Q 31.09375 67.59375 35.390625 63.796875 
Q 39.703125 60 39.703125 53.90625 
Q 39.703125 45.703125 30.40625 40.09375 
Q 35.90625 37.703125 38.703125 34.796875 
Q 43.09375 29.90625 43.09375 21.90625 
Q 43.09375 13.90625 38.5 7.90625 
Q 35.09375 3.296875 28.75 0.9375 
Q 22.40625 -1.40625 15.296875 -1.40625 
Q 4.09375 -1.40625 4.09375 4.296875 
Q 4.09375 5.90625 5.296875 6.90625 
Q 6.5 7.90625 8.203125 7.90625 
Q 10.703125 7.90625 14.296875 5.296875 
Q 18.703125 2.203125 22.90625 2.203125 
Q 28.40625 2.203125 32.15625 6.640625 
Q 35.90625 11.09375 35.90625 17.5 
Q 35.90625 29 25.5 32 
Q 22.40625 33 15.296875 33 
L 15.296875 34.40625 
Q 20.90625 36.296875 23.703125 38 
Q 31.796875 42.59375 31.796875 51.40625 
Q 31.796875 56.40625 28.9375 59 
Q 26.09375 61.59375 21 61.59375 
Q 12 61.59375 6.09375 51 
z
" id="STIXGeneral-Regular-51"/>
       </defs>
       <use xlink:href="#STIXGeneral-Regular-51"/>
      </g>
     </g>
    </g>
    <g id="xtick_5">
     <g id="line2d_5">
      <g>
       <use style="stroke:#000000;stroke-width:0.8;" x="627.12" xlink:href="#mabd2b6588c" y="278.8"/>
      </g>
     </g>
     <g id="text_5">
      <!-- 4 -->
      <g transform="translate(621.12 302.19125)scale(0.24 -0.24)">
       <defs>
        <path d="M 47.296875 16.703125 
L 37 16.703125 
L 37 0 
L 29.203125 0 
L 29.203125 16.703125 
L 1.203125 16.703125 
L 1.203125 23.09375 
L 32.59375 67.59375 
L 37 67.59375 
L 37 23.09375 
L 47.296875 23.09375 
z
M 29.203125 23.09375 
L 29.203125 57.40625 
L 5.203125 23.09375 
z
" id="STIXGeneral-Regular-52"/>
       </defs>
       <use xlink:href="#STIXGeneral-Regular-52"/>
      </g>
     </g>
    </g>
    <g id="xtick_6">
     <g id="line2d_6">
      <g>
       <use style="stroke:#000000;stroke-width:0.8;" x="757" xlink:href="#mabd2b6588c" y="278.8"/>
      </g>
     </g>
     <g id="text_6">
      <!-- 5 -->
      <g transform="translate(751 302.19125)scale(0.24 -0.24)">
       <defs>
        <path d="M 43.796875 68.09375 
L 40.203125 59.59375 
Q 39.59375 58.296875 37.5 58.296875 
L 18.09375 58.296875 
L 14.09375 49.796875 
Q 25.09375 47.703125 30 45.25 
Q 34.90625 42.796875 39.09375 37 
Q 42.59375 32.203125 42.59375 24.296875 
Q 42.59375 17.09375 40.25 12.1875 
Q 37.90625 7.296875 32.796875 3.5 
Q 26 -1.40625 15.796875 -1.40625 
Q 10.09375 -1.40625 6.59375 0.296875 
Q 3.09375 2 3.09375 4.796875 
Q 3.09375 8.59375 7.59375 8.59375 
Q 11.203125 8.59375 15 5.5 
Q 18.90625 2.296875 22.09375 2.296875 
Q 27.296875 2.296875 31.4375 7.5 
Q 35.59375 12.703125 35.59375 19.203125 
Q 35.59375 28.796875 28.90625 34.203125 
Q 20.203125 41.203125 7.59375 41.203125 
Q 6.40625 41.203125 6.40625 42 
L 6.5 42.5 
L 17.40625 66.203125 
L 38.09375 66.203125 
Q 39.796875 66.203125 40.75 66.703125 
Q 41.703125 67.203125 42.90625 68.796875 
z
" id="STIXGeneral-Regular-53"/>
       </defs>
       <use xlink:href="#STIXGeneral-Regular-53"/>
      </g>
     </g>
    </g>
    <g id="xtick_7">
     <g id="line2d_7">
      <g>
       <use style="stroke:#000000;stroke-width:0.8;" x="886.88" xlink:href="#mabd2b6588c" y="278.8"/>
      </g>
     </g>
     <g id="text_7">
      <!-- 6 -->
      <g transform="translate(880.88 302.19125)scale(0.24 -0.24)">
       <defs>
        <path d="M 44.59375 68.40625 
L 44.796875 66.796875 
Q 33 64.90625 25.09375 57.25 
Q 17.203125 49.59375 15.203125 38.296875 
Q 21 42.796875 27.90625 42.796875 
Q 36.703125 42.796875 41.75 37.1875 
Q 46.796875 31.59375 46.796875 21.90625 
Q 46.796875 12.09375 41.703125 5.90625 
Q 35.796875 -1.40625 25.796875 -1.40625 
Q 13.59375 -1.40625 8.09375 8.703125 
Q 3.40625 17.296875 3.40625 27.90625 
Q 3.40625 44.296875 14.296875 55.5 
Q 20.5 61.90625 27.046875 64.546875 
Q 33.59375 67.203125 44.59375 68.40625 
z
M 37.796875 18.796875 
Q 37.796875 38.203125 24.296875 38.203125 
Q 19.296875 38.203125 16 35.546875 
Q 12.703125 32.90625 12.703125 26.59375 
Q 12.703125 14.90625 16.34375 8.15625 
Q 20 1.40625 26.90625 1.40625 
Q 32.203125 1.40625 35 6.15625 
Q 37.796875 10.90625 37.796875 18.796875 
z
" id="STIXGeneral-Regular-54"/>
       </defs>
       <use xlink:href="#STIXGeneral-Regular-54"/>
      </g>
     </g>
    </g>
    <g id="xtick_8">
     <g id="line2d_8">
      <g>
       <use style="stroke:#000000;stroke-width:0.8;" x="1016.76" xlink:href="#mabd2b6588c" y="278.8"/>
      </g>
     </g>
     <g id="text_8">
      <!-- 7 -->
      <g transform="translate(1010.76 302.19125)scale(0.24 -0.24)">
       <defs>
        <path d="M 44.90625 64.59375 
L 23.703125 -0.796875 
L 17.203125 -0.796875 
L 37 58.796875 
L 15.5 58.796875 
Q 11.203125 58.796875 9.09375 57.296875 
Q 7 55.796875 3.796875 50.59375 
L 2 51.5 
L 8 66.203125 
L 44.90625 66.203125 
z
" id="STIXGeneral-Regular-55"/>
       </defs>
       <use xlink:href="#STIXGeneral-Regular-55"/>
      </g>
     </g>
    </g>
    <g id="xtick_9">
     <g id="line2d_9">
      <g>
       <use style="stroke:#000000;stroke-width:0.8;" x="1146.64" xlink:href="#mabd2b6588c" y="278.8"/>
      </g>
     </g>
     <g id="text_9">
      <!-- 8 -->
      <g transform="translate(1140.64 302.19125)scale(0.24 -0.24)">
       <defs>
        <path d="M 44.5 15.5 
Q 44.5 7.796875 39.140625 3.1875 
Q 33.796875 -1.40625 24.796875 -1.40625 
Q 16.40625 -1.40625 11 3.1875 
Q 5.59375 7.796875 5.59375 14.90625 
Q 5.59375 20.203125 8.1875 23.953125 
Q 10.796875 27.703125 18.59375 33.203125 
Q 11.09375 39.40625 8.640625 43.203125 
Q 6.203125 47 6.203125 52 
Q 6.203125 59.09375 11.640625 63.34375 
Q 17.09375 67.59375 25.59375 67.59375 
Q 32.90625 67.59375 37.65625 63.4375 
Q 42.40625 59.296875 42.40625 53.296875 
Q 42.40625 47.796875 39.546875 44.5 
Q 36.703125 41.203125 29 37.09375 
Q 38 31.09375 41.25 26.390625 
Q 44.5 21.703125 44.5 15.5 
z
M 35.5 53.296875 
Q 35.5 58.5 32.59375 61.640625 
Q 29.703125 64.796875 24.59375 64.796875 
Q 19.5 64.796875 16.546875 62.140625 
Q 13.59375 59.5 13.59375 54.890625 
Q 13.59375 50.296875 16.546875 46.546875 
Q 19.5 42.796875 26.09375 38.90625 
Q 31.203125 41.90625 33.34375 45.25 
Q 35.5 48.59375 35.5 53.296875 
z
M 27.09375 27.203125 
L 21.203125 31.203125 
Q 16.796875 27.59375 15 24.140625 
Q 13.203125 20.703125 13.203125 15.796875 
Q 13.203125 9 16.640625 5.203125 
Q 20.09375 1.40625 25.90625 1.40625 
Q 30.796875 1.40625 33.84375 4.453125 
Q 36.90625 7.5 36.90625 12.40625 
Q 36.90625 16.90625 34.59375 20.296875 
Q 32.296875 23.703125 27.09375 27.203125 
z
" id="STIXGeneral-Regular-56"/>
       </defs>
       <use xlink:href="#STIXGeneral-Regular-56"/>
      </g>
     </g>
    </g>
    <g id="xtick_10">
     <g id="line2d_10">
      <g>
       <use style="stroke:#000000;stroke-width:0.8;" x="1276.52" xlink:href="#mabd2b6588c" y="278.8"/>
      </g>
     </g>
     <g id="text_10">
      <!-- 9 -->
      <g transform="translate(1270.52 302.19125)scale(0.24 -0.24)">
       <defs>
        <path d="M 5.90625 -2.203125 
L 5.59375 -0.203125 
Q 17.09375 1.796875 25.046875 9.5 
Q 33 17.203125 36 29.40625 
Q 30.203125 23.703125 21 23.703125 
Q 12.90625 23.703125 7.953125 29.296875 
Q 3 34.90625 3 44 
Q 3 54.09375 8.953125 60.84375 
Q 14.90625 67.59375 23.796875 67.59375 
Q 33.296875 67.59375 39.5 60 
Q 45.90625 52 45.90625 39.40625 
Q 45.90625 30.59375 42.84375 22.84375 
Q 39.796875 15.09375 33.90625 9.703125 
Q 27.703125 4.09375 21.796875 1.640625 
Q 15.90625 -0.796875 5.90625 -2.203125 
z
M 36.203125 35.5 
L 36.203125 39.40625 
Q 36.203125 64.796875 23 64.796875 
Q 18.296875 64.796875 15.703125 61.40625 
Q 14.203125 59.40625 13.203125 55.40625 
Q 12.203125 51.40625 12.203125 47.40625 
Q 12.203125 38.5 15.546875 33.25 
Q 18.90625 28 24.5 28 
Q 28.5 28 32.34375 29.953125 
Q 36.203125 31.90625 36.203125 35.5 
z
" id="STIXGeneral-Regular-57"/>
       </defs>
       <use xlink:href="#STIXGeneral-Regular-57"/>
      </g>
     </g>
    </g>
    <g id="xtick_11">
     <g id="line2d_11">
      <g>
       <use style="stroke:#000000;stroke-width:0.8;" x="1406.4" xlink:href="#mabd2b6588c" y="278.8"/>
      </g>
     </g>
     <g id="text_11">
      <!-- 10 -->
      <g transform="translate(1394.4 302.19125)scale(0.24 -0.24)">
       <use xlink:href="#STIXGeneral-Regular-49"/>
       <use x="49.999985" xlink:href="#STIXGeneral-Regular-48"/>
      </g>
     </g>
    </g>
    <g id="text_12">
     <!-- Site # -->
     <g transform="translate(722.410938 331.889063)scale(0.3 -0.3)">
      <defs>
       <path d="M 46.90625 46.296875 
L 44.40625 46.296875 
Q 42.703125 52.5 40.296875 55.703125 
Q 34.203125 63.5 25.796875 63.5 
Q 21.203125 63.5 18.453125 60.84375 
Q 15.703125 58.203125 15.703125 54 
Q 15.703125 52 16.703125 50.09375 
Q 17.703125 48.203125 18.84375 46.84375 
Q 20 45.5 22.890625 43.5 
Q 25.796875 41.5 27.59375 40.453125 
Q 29.40625 39.40625 33.59375 36.90625 
Q 41.703125 32.203125 45.390625 27.546875 
Q 49.09375 22.90625 49.09375 17.296875 
Q 49.09375 9 43.296875 3.796875 
Q 37.5 -1.40625 28.703125 -1.40625 
Q 22.203125 -1.40625 16.90625 0.90625 
Q 14.296875 2 12.203125 2 
Q 11 2 10.203125 1.09375 
Q 9.40625 0.203125 9.40625 -1.296875 
L 7.203125 -1.296875 
L 4.296875 19.90625 
L 6.5 19.90625 
Q 13.203125 2.203125 27.09375 2.203125 
Q 32.40625 2.203125 35.703125 5.34375 
Q 39 8.5 39 13.40625 
Q 39 18.09375 36.09375 21.296875 
Q 31.296875 26.5 19.296875 32.90625 
Q 7.09375 39.40625 7.09375 50.09375 
Q 7.09375 58.09375 12 62.84375 
Q 16.90625 67.59375 24.5 67.59375 
Q 29.796875 67.59375 35 65.40625 
Q 37.703125 64.203125 39.40625 64.203125 
Q 42 64.203125 42.59375 67.59375 
L 44.703125 67.59375 
z
" id="STIXGeneral-Regular-83"/>
       <path d="M 18 63.203125 
Q 18 61 16.5 59.546875 
Q 15 58.09375 12.796875 58.09375 
Q 10.703125 58.09375 9.25 59.546875 
Q 7.796875 61 7.796875 63.203125 
Q 7.796875 65.296875 9.296875 66.796875 
Q 10.796875 68.296875 12.90625 68.296875 
Q 15.09375 68.296875 16.546875 66.796875 
Q 18 65.296875 18 63.203125 
z
M 25.296875 0 
L 1.59375 0 
L 1.59375 1.5 
Q 6.796875 1.796875 8.140625 3.296875 
Q 9.5 4.796875 9.5 10.40625 
L 9.5 33.09375 
Q 9.5 36.59375 8.796875 38 
Q 8.09375 39.40625 6.203125 39.40625 
Q 3.796875 39.40625 2 38.90625 
L 2 40.5 
L 17.5 46 
L 17.90625 45.59375 
L 17.90625 10.5 
Q 17.90625 4.90625 19.15625 3.40625 
Q 20.40625 1.90625 25.296875 1.5 
z
" id="STIXGeneral-Regular-105"/>
       <path d="M 26.59375 7.703125 
L 27.90625 6.59375 
Q 23.09375 -1 15.796875 -1 
Q 7 -1 7 11.703125 
L 7 41.796875 
L 1.703125 41.796875 
Q 1.296875 42.09375 1.296875 42.5 
Q 1.296875 43.296875 3 44.40625 
Q 6.796875 46.59375 12.703125 55.09375 
Q 12.90625 55.40625 13.65625 56.34375 
Q 14.40625 57.296875 14.703125 57.90625 
Q 15.40625 57.90625 15.40625 56.59375 
L 15.40625 45 
L 25.5 45 
L 25.5 41.796875 
L 15.40625 41.796875 
L 15.40625 13.203125 
Q 15.40625 8.40625 16.59375 6.296875 
Q 17.796875 4.203125 20.59375 4.203125 
Q 23.59375 4.203125 26.59375 7.703125 
z
" id="STIXGeneral-Regular-116"/>
       <path d="M 40.796875 16.40625 
L 42.40625 15.703125 
Q 36.40625 -1 21.5 -1 
Q 12.703125 -1 7.59375 5.140625 
Q 2.5 11.296875 2.5 21.703125 
Q 2.5 32.40625 8.203125 39.203125 
Q 13.90625 46 23.203125 46 
Q 32.203125 46 37.09375 39.09375 
Q 40 35.09375 40.5 27.703125 
L 9.703125 27.703125 
Q 10.09375 21.40625 10.9375 18.09375 
Q 11.796875 14.796875 14.296875 11.40625 
Q 18.5 5.90625 25.40625 5.90625 
Q 30.296875 5.90625 33.640625 8.296875 
Q 37 10.703125 40.796875 16.40625 
z
M 9.90625 30.90625 
L 30.296875 30.90625 
Q 29.40625 37.203125 27.34375 39.796875 
Q 25.296875 42.40625 20.5 42.40625 
Q 16.296875 42.40625 13.5 39.453125 
Q 10.703125 36.5 9.90625 30.90625 
z
" id="STIXGeneral-Regular-101"/>
       <path id="STIXGeneral-Regular-32"/>
       <path d="M 49.5 40.5 
L 39.09375 40.5 
L 37.09375 27.09375 
L 47 27.09375 
L 47 21.59375 
L 36.203125 21.59375 
L 33.09375 0 
L 27.296875 0 
L 30.40625 21.59375 
L 17 21.59375 
L 13.703125 0 
L 7.90625 0 
L 11.203125 21.59375 
L 0.59375 21.59375 
L 0.59375 27.09375 
L 12.09375 27.09375 
L 14.203125 40.5 
L 3.296875 40.5 
L 3.296875 46 
L 15 46 
L 18.09375 66.203125 
L 23.90625 66.203125 
L 20.796875 46 
L 34.09375 46 
L 37.09375 66.203125 
L 42.90625 66.203125 
L 39.90625 46 
L 49.5 46 
z
M 33.296875 40.5 
L 20 40.5 
L 17.90625 27.09375 
L 31.296875 27.09375 
z
" id="STIXGeneral-Regular-35"/>
      </defs>
      <use xlink:href="#STIXGeneral-Regular-83"/>
      <use x="55.599991" xlink:href="#STIXGeneral-Regular-105"/>
      <use x="83.399979" xlink:href="#STIXGeneral-Regular-116"/>
      <use x="111.199966" xlink:href="#STIXGeneral-Regular-101"/>
      <use x="155.59996" xlink:href="#STIXGeneral-Regular-32"/>
      <use x="180.599945" xlink:href="#STIXGeneral-Regular-35"/>
     </g>
    </g>
   </g>
   <g id="matplotlib.axis_2">
    <g id="ytick_1">
     <g id="line2d_12">
      <defs>
       <path d="M 0 0 
L -3.5 0 
" id="m068cab64b9" style="stroke:#000000;stroke-width:0.8;"/>
      </defs>
      <g>
       <use style="stroke:#000000;stroke-width:0.8;" x="107.6" xlink:href="#m068cab64b9" y="241.480585"/>
      </g>
     </g>
     <g id="text_13">
      <!-- 1000 -->
      <g transform="translate(52.6 249.67621)scale(0.24 -0.24)">
       <use xlink:href="#STIXGeneral-Regular-49"/>
       <use x="49.999985" xlink:href="#STIXGeneral-Regular-48"/>
       <use x="99.999969" xlink:href="#STIXGeneral-Regular-48"/>
       <use x="149.999954" xlink:href="#STIXGeneral-Regular-48"/>
      </g>
     </g>
    </g>
    <g id="ytick_2">
     <g id="line2d_13">
      <g>
       <use style="stroke:#000000;stroke-width:0.8;" x="107.6" xlink:href="#m068cab64b9" y="156.369278"/>
      </g>
     </g>
     <g id="text_14">
      <!-- 1500 -->
      <g transform="translate(52.6 164.564903)scale(0.24 -0.24)">
       <use xlink:href="#STIXGeneral-Regular-49"/>
       <use x="49.999985" xlink:href="#STIXGeneral-Regular-53"/>
       <use x="99.999969" xlink:href="#STIXGeneral-Regular-48"/>
       <use x="149.999954" xlink:href="#STIXGeneral-Regular-48"/>
      </g>
     </g>
    </g>
    <g id="ytick_3">
     <g id="line2d_14">
      <g>
       <use style="stroke:#000000;stroke-width:0.8;" x="107.6" xlink:href="#m068cab64b9" y="71.25797"/>
      </g>
     </g>
     <g id="text_15">
      <!-- 2000 -->
      <g transform="translate(52.6 79.453595)scale(0.24 -0.24)">
       <use xlink:href="#STIXGeneral-Regular-50"/>
       <use x="49.999985" xlink:href="#STIXGeneral-Regular-48"/>
       <use x="99.999969" xlink:href="#STIXGeneral-Regular-48"/>
       <use x="149.999954" xlink:href="#STIXGeneral-Regular-48"/>
      </g>
     </g>
    </g>
    <g id="text_16">
     <!-- T$_1$ (ms) -->
     <g transform="translate(42.089062 211.25)rotate(-90)scale(0.3 -0.3)">
      <defs>
       <path d="M 59.296875 49.203125 
L 56.90625 49.203125 
Q 55.296875 57.40625 52.390625 59.703125 
Q 49.5 62 41.5 62 
L 35.59375 62 
L 35.59375 11.09375 
Q 35.59375 5.40625 37.296875 3.796875 
Q 39 2.203125 45.203125 1.90625 
L 45.203125 0 
L 16 0 
L 16 1.90625 
Q 22.296875 2.296875 23.84375 4 
Q 25.40625 5.703125 25.40625 12.296875 
L 25.40625 62 
L 19.40625 62 
Q 11.296875 62 8.4375 59.640625 
Q 5.59375 57.296875 4.09375 49.203125 
L 1.703125 49.203125 
L 2.40625 66.203125 
L 58.59375 66.203125 
z
" id="STIXGeneral-Regular-84"/>
       <path d="M 30.40625 -16.09375 
L 29.203125 -17.703125 
Q 17.59375 -11.09375 11.1875 0.5 
Q 4.796875 12.09375 4.796875 25.203125 
Q 4.796875 52.90625 29.5 67.59375 
L 30.40625 66 
Q 20.203125 57.296875 16.796875 48.84375 
Q 13.40625 40.40625 13.40625 25.5 
Q 13.40625 10.703125 16.90625 1.5 
Q 20.40625 -7.703125 30.40625 -16.09375 
z
" id="STIXGeneral-Regular-40"/>
       <path d="M 77.5 0 
L 55.703125 0 
L 55.703125 1.5 
Q 59.90625 1.90625 61.046875 3.25 
Q 62.203125 4.59375 62.203125 9 
L 62.203125 29.59375 
Q 62.203125 35.59375 60.453125 38.1875 
Q 58.703125 40.796875 54.5 40.796875 
Q 51 40.796875 48.546875 39.390625 
Q 46.09375 38 43.796875 34.703125 
L 43.796875 9.5 
Q 43.796875 4.703125 45.25 3.140625 
Q 46.703125 1.59375 51 1.5 
L 51 0 
L 28.59375 0 
L 28.59375 1.5 
Q 33 1.796875 34.203125 2.9375 
Q 35.40625 4.09375 35.40625 8.59375 
L 35.40625 29.703125 
Q 35.40625 40.796875 28.90625 40.796875 
Q 26.09375 40.796875 22.9375 39.546875 
Q 19.796875 38.296875 18.296875 36.5 
Q 17 35 17 34.796875 
L 17 7 
Q 17 3.796875 18.390625 2.75 
Q 19.796875 1.703125 23.796875 1.5 
L 23.796875 0 
L 1.59375 0 
L 1.59375 1.5 
Q 5.796875 1.59375 7.1875 3.046875 
Q 8.59375 4.5 8.59375 8.796875 
L 8.59375 33.59375 
Q 8.59375 37.296875 7.796875 38.75 
Q 7 40.203125 5.09375 40.203125 
Q 3.59375 40.203125 1.90625 39.796875 
L 1.90625 41.5 
Q 8.703125 43.40625 15.796875 46 
L 16.59375 45.703125 
L 16.59375 38.296875 
L 16.796875 38.296875 
Q 21.296875 43 24.75 44.5 
Q 28.203125 46 32.09375 46 
Q 40 46 42.703125 37.59375 
Q 50.5 46 59 46 
Q 70.59375 46 70.59375 28 
L 70.59375 7.703125 
Q 70.59375 4.40625 71.59375 3.15625 
Q 72.59375 1.90625 74.90625 1.703125 
L 77.5 1.5 
z
" id="STIXGeneral-Regular-109"/>
       <path d="M 15.59375 30.09375 
L 26 23.796875 
Q 31 20.796875 32.890625 18.1875 
Q 34.796875 15.59375 34.796875 11.5 
Q 34.796875 6.5 30.640625 2.75 
Q 26.5 -1 20.796875 -1 
Q 16.09375 -1 13.5 -0.09375 
Q 10.796875 0.796875 8.90625 0.796875 
Q 7.203125 0.796875 6.5 -0.40625 
L 5.203125 -0.40625 
L 5.203125 15.296875 
L 6.796875 15.296875 
Q 8.40625 8 11.40625 4.59375 
Q 14.40625 1.203125 19.5 1.203125 
Q 23.203125 1.203125 25.5 3.296875 
Q 27.796875 5.40625 27.796875 8.59375 
Q 27.796875 13.203125 22.5 16.09375 
L 17.09375 19.09375 
Q 5.09375 25.796875 5.09375 33.59375 
Q 5.09375 39.40625 8.84375 42.65625 
Q 12.59375 45.90625 18.90625 45.90625 
Q 23.296875 45.90625 25.59375 44.796875 
Q 27.40625 44 28.40625 44 
Q 29.09375 44 30 45 
L 31.09375 45 
L 31.59375 31.40625 
L 30.09375 31.40625 
Q 28.40625 38.203125 25.84375 40.953125 
Q 23.296875 43.703125 18.796875 43.703125 
Q 15.40625 43.703125 13.34375 42 
Q 11.296875 40.296875 11.296875 36.90625 
Q 11.296875 35.203125 12.4375 33.25 
Q 13.59375 31.296875 15.59375 30.09375 
z
" id="STIXGeneral-Regular-115"/>
       <path d="M 2.90625 66 
L 4.09375 67.59375 
Q 15.5 60.796875 22 49.1875 
Q 28.5 37.59375 28.5 24.703125 
Q 28.5 -2.59375 3.796875 -17.703125 
L 2.90625 -16.09375 
Q 13.203125 -7.59375 16.546875 0.84375 
Q 19.90625 9.296875 19.90625 24.40625 
Q 19.90625 39.59375 16.546875 48.75 
Q 13.203125 57.90625 2.90625 66 
z
" id="STIXGeneral-Regular-41"/>
      </defs>
      <use transform="translate(0 0.40625)" xlink:href="#STIXGeneral-Regular-84"/>
      <use transform="translate(62.643272 -12.821875)scale(0.7)" xlink:href="#STIXGeneral-Regular-49"/>
      <use transform="translate(102.052636 0.40625)" xlink:href="#STIXGeneral-Regular-32"/>
      <use transform="translate(127.052621 0.40625)" xlink:href="#STIXGeneral-Regular-40"/>
      <use transform="translate(160.352609 0.40625)" xlink:href="#STIXGeneral-Regular-109"/>
      <use transform="translate(238.152597 0.40625)" xlink:href="#STIXGeneral-Regular-115"/>
      <use transform="translate(277.052591 0.40625)" xlink:href="#STIXGeneral-Regular-41"/>
     </g>
    </g>
   </g>
   <g id="LineCollection_1">
    <path clip-path="url(#p9d42437497)" d="M 0 0 
" style="fill:none;stroke:#1f77b4;stroke-width:3;"/>
    <path clip-path="url(#p9d42437497)" d="M 367.48988 226.910761 
L 367.48988 186.481108 
" style="fill:none;stroke:#1f77b4;stroke-width:3;"/>
    <path clip-path="url(#p9d42437497)" d="M 367.61976 206.306372 
L 367.61976 189.442944 
" style="fill:none;stroke:#1f77b4;stroke-width:3;"/>
    <path clip-path="url(#p9d42437497)" d="M 367.74964 256.886701 
L 367.74964 241.944664 
" style="fill:none;stroke:#1f77b4;stroke-width:3;"/>
    <path clip-path="url(#p9d42437497)" d="M 367.87952 231.997961 
L 367.87952 96.842345 
" style="fill:none;stroke:#1f77b4;stroke-width:3;"/>
    <path clip-path="url(#p9d42437497)" d="M 368.0094 211.430411 
L 368.0094 174.394927 
" style="fill:none;stroke:#1f77b4;stroke-width:3;"/>
    <path clip-path="url(#p9d42437497)" d="M 368.13928 224.471275 
L 368.13928 207.423111 
" style="fill:none;stroke:#1f77b4;stroke-width:3;"/>
    <path clip-path="url(#p9d42437497)" d="M 497.36988 133.673297 
L 497.36988 60.781818 
" style="fill:none;stroke:#1f77b4;stroke-width:3;"/>
    <path clip-path="url(#p9d42437497)" d="M 627.24988 216.906653 
L 627.24988 197.881041 
" style="fill:none;stroke:#1f77b4;stroke-width:3;"/>
    <path clip-path="url(#p9d42437497)" d="M 757.12988 256.38712 
L 757.12988 187.97891 
" style="fill:none;stroke:#1f77b4;stroke-width:3;"/>
    <path clip-path="url(#p9d42437497)" d="M 757.25976 242.725513 
L 757.25976 169.216819 
" style="fill:none;stroke:#1f77b4;stroke-width:3;"/>
    <path clip-path="url(#p9d42437497)" d="M 757.38964 251.031805 
L 757.38964 202.965647 
" style="fill:none;stroke:#1f77b4;stroke-width:3;"/>
    <path clip-path="url(#p9d42437497)" d="M 757.51952 233.056845 
L 757.51952 204.81576 
" style="fill:none;stroke:#1f77b4;stroke-width:3;"/>
    <path clip-path="url(#p9d42437497)" d="M 887.00988 243.510849 
L 887.00988 229.483447 
" style="fill:none;stroke:#1f77b4;stroke-width:3;"/>
    <path clip-path="url(#p9d42437497)" d="M 1016.88988 218.656503 
L 1016.88988 193.802243 
" style="fill:none;stroke:#1f77b4;stroke-width:3;"/>
    <path clip-path="url(#p9d42437497)" d="M 0 0 
" style="fill:none;stroke:#1f77b4;stroke-width:3;"/>
    <path clip-path="url(#p9d42437497)" d="M 0 0 
" style="fill:none;stroke:#1f77b4;stroke-width:3;"/>
    <path clip-path="url(#p9d42437497)" d="M 1276.64988 214.973353 
L 1276.64988 195.256461 
" style="fill:none;stroke:#1f77b4;stroke-width:3;"/>
    <path clip-path="url(#p9d42437497)" d="M 1276.77976 228.865015 
L 1276.77976 210.939956 
" style="fill:none;stroke:#1f77b4;stroke-width:3;"/>
    <path clip-path="url(#p9d42437497)" d="M 1276.90964 227.698235 
L 1276.90964 213.744959 
" style="fill:none;stroke:#1f77b4;stroke-width:3;"/>
    <path clip-path="url(#p9d42437497)" d="M 1277.03952 224.744785 
L 1277.03952 212.094228 
" style="fill:none;stroke:#1f77b4;stroke-width:3;"/>
    <path clip-path="url(#p9d42437497)" d="M 1277.1694 222.89388 
L 1277.1694 214.040458 
" style="fill:none;stroke:#1f77b4;stroke-width:3;"/>
    <path clip-path="url(#p9d42437497)" d="M 1277.29928 219.740623 
L 1277.29928 200.575902 
" style="fill:none;stroke:#1f77b4;stroke-width:3;"/>
    <path clip-path="url(#p9d42437497)" d="M 1277.42916 218.143661 
L 1277.42916 205.413903 
" style="fill:none;stroke:#1f77b4;stroke-width:3;"/>
    <path clip-path="url(#p9d42437497)" d="M 1277.55904 215.008419 
L 1277.55904 203.95756 
" style="fill:none;stroke:#1f77b4;stroke-width:3;"/>
    <path clip-path="url(#p9d42437497)" d="M 1277.68892 215.687817 
L 1277.68892 200.552898 
" style="fill:none;stroke:#1f77b4;stroke-width:3;"/>
    <path clip-path="url(#p9d42437497)" d="M 1277.8188 213.637698 
L 1277.8188 202.91895 
" style="fill:none;stroke:#1f77b4;stroke-width:3;"/>
    <path clip-path="url(#p9d42437497)" d="M 1277.94868 233.585864 
L 1277.94868 204.92848 
" style="fill:none;stroke:#1f77b4;stroke-width:3;"/>
    <path clip-path="url(#p9d42437497)" d="M 1278.07856 198.295347 
L 1278.07856 179.605787 
" style="fill:none;stroke:#1f77b4;stroke-width:3;"/>
    <path clip-path="url(#p9d42437497)" d="M 1278.20844 229.545225 
L 1278.20844 212.809 
" style="fill:none;stroke:#1f77b4;stroke-width:3;"/>
    <path clip-path="url(#p9d42437497)" d="M 1278.33832 226.296754 
L 1278.33832 215.388837 
" style="fill:none;stroke:#1f77b4;stroke-width:3;"/>
    <path clip-path="url(#p9d42437497)" d="M 1278.4682 244.313841 
L 1278.4682 225.487419 
" style="fill:none;stroke:#1f77b4;stroke-width:3;"/>
    <path clip-path="url(#p9d42437497)" d="M 1278.59808 240.102915 
L 1278.59808 220.126047 
" style="fill:none;stroke:#1f77b4;stroke-width:3;"/>
    <path clip-path="url(#p9d42437497)" d="M 1278.72796 241.351425 
L 1278.72796 225.170326 
" style="fill:none;stroke:#1f77b4;stroke-width:3;"/>
    <path clip-path="url(#p9d42437497)" d="M 1278.85784 219.29243 
L 1278.85784 202.103987 
" style="fill:none;stroke:#1f77b4;stroke-width:3;"/>
    <path clip-path="url(#p9d42437497)" d="M 1278.98772 202.154996 
L 1278.98772 180.568886 
" style="fill:none;stroke:#1f77b4;stroke-width:3;"/>
    <path clip-path="url(#p9d42437497)" d="M 1279.1176 213.758784 
L 1279.1176 188.364348 
" style="fill:none;stroke:#1f77b4;stroke-width:3;"/>
    <path clip-path="url(#p9d42437497)" d="M 1279.24748 210.618859 
L 1279.24748 194.549214 
" style="fill:none;stroke:#1f77b4;stroke-width:3;"/>
    <path clip-path="url(#p9d42437497)" d="M 1279.37736 212.965429 
L 1279.37736 199.744187 
" style="fill:none;stroke:#1f77b4;stroke-width:3;"/>
    <path clip-path="url(#p9d42437497)" d="M 1279.50724 222.455836 
L 1279.50724 206.366372 
" style="fill:none;stroke:#1f77b4;stroke-width:3;"/>
    <path clip-path="url(#p9d42437497)" d="M 1279.63712 222.278757 
L 1279.63712 213.720037 
" style="fill:none;stroke:#1f77b4;stroke-width:3;"/>
    <path clip-path="url(#p9d42437497)" d="M 1279.767 185.707898 
L 1279.767 167.237239 
" style="fill:none;stroke:#1f77b4;stroke-width:3;"/>
    <path clip-path="url(#p9d42437497)" d="M 1279.89688 190.627561 
L 1279.89688 173.561801 
" style="fill:none;stroke:#1f77b4;stroke-width:3;"/>
    <path clip-path="url(#p9d42437497)" d="M 1280.02676 217.590585 
L 1280.02676 202.554355 
" style="fill:none;stroke:#1f77b4;stroke-width:3;"/>
    <path clip-path="url(#p9d42437497)" d="M 1280.15664 213.473912 
L 1280.15664 203.958361 
" style="fill:none;stroke:#1f77b4;stroke-width:3;"/>
    <path clip-path="url(#p9d42437497)" d="M 1280.28652 214.940573 
L 1280.28652 204.805025 
" style="fill:none;stroke:#1f77b4;stroke-width:3;"/>
    <path clip-path="url(#p9d42437497)" d="M 1280.4164 214.230344 
L 1280.4164 197.95771 
" style="fill:none;stroke:#1f77b4;stroke-width:3;"/>
    <path clip-path="url(#p9d42437497)" d="M 1280.54628 209.469942 
L 1280.54628 192.748515 
" style="fill:none;stroke:#1f77b4;stroke-width:3;"/>
    <path clip-path="url(#p9d42437497)" d="M 1280.67616 208.002983 
L 1280.67616 197.55456 
" style="fill:none;stroke:#1f77b4;stroke-width:3;"/>
    <path clip-path="url(#p9d42437497)" d="M 1280.80604 226.474504 
L 1280.80604 204.220153 
" style="fill:none;stroke:#1f77b4;stroke-width:3;"/>
    <path clip-path="url(#p9d42437497)" d="M 1280.93592 224.173089 
L 1280.93592 210.074455 
" style="fill:none;stroke:#1f77b4;stroke-width:3;"/>
    <path clip-path="url(#p9d42437497)" d="M 1281.0658 268.418182 
L 1281.0658 246.309252 
" style="fill:none;stroke:#1f77b4;stroke-width:3;"/>
    <path clip-path="url(#p9d42437497)" d="M 1281.19568 185.510306 
L 1281.19568 162.668598 
" style="fill:none;stroke:#1f77b4;stroke-width:3;"/>
    <path clip-path="url(#p9d42437497)" d="M 1281.32556 230.327269 
L 1281.32556 221.489972 
" style="fill:none;stroke:#1f77b4;stroke-width:3;"/>
    <path clip-path="url(#p9d42437497)" d="M 1281.45544 227.95362 
L 1281.45544 222.620315 
" style="fill:none;stroke:#1f77b4;stroke-width:3;"/>
    <path clip-path="url(#p9d42437497)" d="M 0 0 
" style="fill:none;stroke:#1f77b4;stroke-width:3;"/>
   </g>
   <g id="line2d_15">
    <defs>
     <path d="M 10 0 
L -10 -0 
" id="m1aa8ba5e2a" style="stroke:#1f77b4;"/>
    </defs>
    <g clip-path="url(#p9d42437497)">
     <use style="fill:#1f77b4;stroke:#1f77b4;" x="367.48988" xlink:href="#m1aa8ba5e2a" y="226.910761"/>
     <use style="fill:#1f77b4;stroke:#1f77b4;" x="367.61976" xlink:href="#m1aa8ba5e2a" y="206.306372"/>
     <use style="fill:#1f77b4;stroke:#1f77b4;" x="367.74964" xlink:href="#m1aa8ba5e2a" y="256.886701"/>
     <use style="fill:#1f77b4;stroke:#1f77b4;" x="367.87952" xlink:href="#m1aa8ba5e2a" y="231.997961"/>
     <use style="fill:#1f77b4;stroke:#1f77b4;" x="368.0094" xlink:href="#m1aa8ba5e2a" y="211.430411"/>
     <use style="fill:#1f77b4;stroke:#1f77b4;" x="368.13928" xlink:href="#m1aa8ba5e2a" y="224.471275"/>
     <use style="fill:#1f77b4;stroke:#1f77b4;" x="497.36988" xlink:href="#m1aa8ba5e2a" y="133.673297"/>
     <use style="fill:#1f77b4;stroke:#1f77b4;" x="627.24988" xlink:href="#m1aa8ba5e2a" y="216.906653"/>
     <use style="fill:#1f77b4;stroke:#1f77b4;" x="757.12988" xlink:href="#m1aa8ba5e2a" y="256.38712"/>
     <use style="fill:#1f77b4;stroke:#1f77b4;" x="757.25976" xlink:href="#m1aa8ba5e2a" y="242.725513"/>
     <use style="fill:#1f77b4;stroke:#1f77b4;" x="757.38964" xlink:href="#m1aa8ba5e2a" y="251.031805"/>
     <use style="fill:#1f77b4;stroke:#1f77b4;" x="757.51952" xlink:href="#m1aa8ba5e2a" y="233.056845"/>
     <use style="fill:#1f77b4;stroke:#1f77b4;" x="887.00988" xlink:href="#m1aa8ba5e2a" y="243.510849"/>
     <use style="fill:#1f77b4;stroke:#1f77b4;" x="1016.88988" xlink:href="#m1aa8ba5e2a" y="218.656503"/>
     <use style="fill:#1f77b4;stroke:#1f77b4;" x="1276.64988" xlink:href="#m1aa8ba5e2a" y="214.973353"/>
     <use style="fill:#1f77b4;stroke:#1f77b4;" x="1276.77976" xlink:href="#m1aa8ba5e2a" y="228.865015"/>
     <use style="fill:#1f77b4;stroke:#1f77b4;" x="1276.90964" xlink:href="#m1aa8ba5e2a" y="227.698235"/>
     <use style="fill:#1f77b4;stroke:#1f77b4;" x="1277.03952" xlink:href="#m1aa8ba5e2a" y="224.744785"/>
     <use style="fill:#1f77b4;stroke:#1f77b4;" x="1277.1694" xlink:href="#m1aa8ba5e2a" y="222.89388"/>
     <use style="fill:#1f77b4;stroke:#1f77b4;" x="1277.29928" xlink:href="#m1aa8ba5e2a" y="219.740623"/>
     <use style="fill:#1f77b4;stroke:#1f77b4;" x="1277.42916" xlink:href="#m1aa8ba5e2a" y="218.143661"/>
     <use style="fill:#1f77b4;stroke:#1f77b4;" x="1277.55904" xlink:href="#m1aa8ba5e2a" y="215.008419"/>
     <use style="fill:#1f77b4;stroke:#1f77b4;" x="1277.68892" xlink:href="#m1aa8ba5e2a" y="215.687817"/>
     <use style="fill:#1f77b4;stroke:#1f77b4;" x="1277.8188" xlink:href="#m1aa8ba5e2a" y="213.637698"/>
     <use style="fill:#1f77b4;stroke:#1f77b4;" x="1277.94868" xlink:href="#m1aa8ba5e2a" y="233.585864"/>
     <use style="fill:#1f77b4;stroke:#1f77b4;" x="1278.07856" xlink:href="#m1aa8ba5e2a" y="198.295347"/>
     <use style="fill:#1f77b4;stroke:#1f77b4;" x="1278.20844" xlink:href="#m1aa8ba5e2a" y="229.545225"/>
     <use style="fill:#1f77b4;stroke:#1f77b4;" x="1278.33832" xlink:href="#m1aa8ba5e2a" y="226.296754"/>
     <use style="fill:#1f77b4;stroke:#1f77b4;" x="1278.4682" xlink:href="#m1aa8ba5e2a" y="244.313841"/>
     <use style="fill:#1f77b4;stroke:#1f77b4;" x="1278.59808" xlink:href="#m1aa8ba5e2a" y="240.102915"/>
     <use style="fill:#1f77b4;stroke:#1f77b4;" x="1278.72796" xlink:href="#m1aa8ba5e2a" y="241.351425"/>
     <use style="fill:#1f77b4;stroke:#1f77b4;" x="1278.85784" xlink:href="#m1aa8ba5e2a" y="219.29243"/>
     <use style="fill:#1f77b4;stroke:#1f77b4;" x="1278.98772" xlink:href="#m1aa8ba5e2a" y="202.154996"/>
     <use style="fill:#1f77b4;stroke:#1f77b4;" x="1279.1176" xlink:href="#m1aa8ba5e2a" y="213.758784"/>
     <use style="fill:#1f77b4;stroke:#1f77b4;" x="1279.24748" xlink:href="#m1aa8ba5e2a" y="210.618859"/>
     <use style="fill:#1f77b4;stroke:#1f77b4;" x="1279.37736" xlink:href="#m1aa8ba5e2a" y="212.965429"/>
     <use style="fill:#1f77b4;stroke:#1f77b4;" x="1279.50724" xlink:href="#m1aa8ba5e2a" y="222.455836"/>
     <use style="fill:#1f77b4;stroke:#1f77b4;" x="1279.63712" xlink:href="#m1aa8ba5e2a" y="222.278757"/>
     <use style="fill:#1f77b4;stroke:#1f77b4;" x="1279.767" xlink:href="#m1aa8ba5e2a" y="185.707898"/>
     <use style="fill:#1f77b4;stroke:#1f77b4;" x="1279.89688" xlink:href="#m1aa8ba5e2a" y="190.627561"/>
     <use style="fill:#1f77b4;stroke:#1f77b4;" x="1280.02676" xlink:href="#m1aa8ba5e2a" y="217.590585"/>
     <use style="fill:#1f77b4;stroke:#1f77b4;" x="1280.15664" xlink:href="#m1aa8ba5e2a" y="213.473912"/>
     <use style="fill:#1f77b4;stroke:#1f77b4;" x="1280.28652" xlink:href="#m1aa8ba5e2a" y="214.940573"/>
     <use style="fill:#1f77b4;stroke:#1f77b4;" x="1280.4164" xlink:href="#m1aa8ba5e2a" y="214.230344"/>
     <use style="fill:#1f77b4;stroke:#1f77b4;" x="1280.54628" xlink:href="#m1aa8ba5e2a" y="209.469942"/>
     <use style="fill:#1f77b4;stroke:#1f77b4;" x="1280.67616" xlink:href="#m1aa8ba5e2a" y="208.002983"/>
     <use style="fill:#1f77b4;stroke:#1f77b4;" x="1280.80604" xlink:href="#m1aa8ba5e2a" y="226.474504"/>
     <use style="fill:#1f77b4;stroke:#1f77b4;" x="1280.93592" xlink:href="#m1aa8ba5e2a" y="224.173089"/>
     <use style="fill:#1f77b4;stroke:#1f77b4;" x="1281.0658" xlink:href="#m1aa8ba5e2a" y="268.418182"/>
     <use style="fill:#1f77b4;stroke:#1f77b4;" x="1281.19568" xlink:href="#m1aa8ba5e2a" y="185.510306"/>
     <use style="fill:#1f77b4;stroke:#1f77b4;" x="1281.32556" xlink:href="#m1aa8ba5e2a" y="230.327269"/>
     <use style="fill:#1f77b4;stroke:#1f77b4;" x="1281.45544" xlink:href="#m1aa8ba5e2a" y="227.95362"/>
    </g>
   </g>
   <g id="line2d_16">
    <g clip-path="url(#p9d42437497)">
     <use style="fill:#1f77b4;stroke:#1f77b4;" x="367.48988" xlink:href="#m1aa8ba5e2a" y="186.481108"/>
     <use style="fill:#1f77b4;stroke:#1f77b4;" x="367.61976" xlink:href="#m1aa8ba5e2a" y="189.442944"/>
     <use style="fill:#1f77b4;stroke:#1f77b4;" x="367.74964" xlink:href="#m1aa8ba5e2a" y="241.944664"/>
     <use style="fill:#1f77b4;stroke:#1f77b4;" x="367.87952" xlink:href="#m1aa8ba5e2a" y="96.842345"/>
     <use style="fill:#1f77b4;stroke:#1f77b4;" x="368.0094" xlink:href="#m1aa8ba5e2a" y="174.394927"/>
     <use style="fill:#1f77b4;stroke:#1f77b4;" x="368.13928" xlink:href="#m1aa8ba5e2a" y="207.423111"/>
     <use style="fill:#1f77b4;stroke:#1f77b4;" x="497.36988" xlink:href="#m1aa8ba5e2a" y="60.781818"/>
     <use style="fill:#1f77b4;stroke:#1f77b4;" x="627.24988" xlink:href="#m1aa8ba5e2a" y="197.881041"/>
     <use style="fill:#1f77b4;stroke:#1f77b4;" x="757.12988" xlink:href="#m1aa8ba5e2a" y="187.97891"/>
     <use style="fill:#1f77b4;stroke:#1f77b4;" x="757.25976" xlink:href="#m1aa8ba5e2a" y="169.216819"/>
     <use style="fill:#1f77b4;stroke:#1f77b4;" x="757.38964" xlink:href="#m1aa8ba5e2a" y="202.965647"/>
     <use style="fill:#1f77b4;stroke:#1f77b4;" x="757.51952" xlink:href="#m1aa8ba5e2a" y="204.81576"/>
     <use style="fill:#1f77b4;stroke:#1f77b4;" x="887.00988" xlink:href="#m1aa8ba5e2a" y="229.483447"/>
     <use style="fill:#1f77b4;stroke:#1f77b4;" x="1016.88988" xlink:href="#m1aa8ba5e2a" y="193.802243"/>
     <use style="fill:#1f77b4;stroke:#1f77b4;" x="1276.64988" xlink:href="#m1aa8ba5e2a" y="195.256461"/>
     <use style="fill:#1f77b4;stroke:#1f77b4;" x="1276.77976" xlink:href="#m1aa8ba5e2a" y="210.939956"/>
     <use style="fill:#1f77b4;stroke:#1f77b4;" x="1276.90964" xlink:href="#m1aa8ba5e2a" y="213.744959"/>
     <use style="fill:#1f77b4;stroke:#1f77b4;" x="1277.03952" xlink:href="#m1aa8ba5e2a" y="212.094228"/>
     <use style="fill:#1f77b4;stroke:#1f77b4;" x="1277.1694" xlink:href="#m1aa8ba5e2a" y="214.040458"/>
     <use style="fill:#1f77b4;stroke:#1f77b4;" x="1277.29928" xlink:href="#m1aa8ba5e2a" y="200.575902"/>
     <use style="fill:#1f77b4;stroke:#1f77b4;" x="1277.42916" xlink:href="#m1aa8ba5e2a" y="205.413903"/>
     <use style="fill:#1f77b4;stroke:#1f77b4;" x="1277.55904" xlink:href="#m1aa8ba5e2a" y="203.95756"/>
     <use style="fill:#1f77b4;stroke:#1f77b4;" x="1277.68892" xlink:href="#m1aa8ba5e2a" y="200.552898"/>
     <use style="fill:#1f77b4;stroke:#1f77b4;" x="1277.8188" xlink:href="#m1aa8ba5e2a" y="202.91895"/>
     <use style="fill:#1f77b4;stroke:#1f77b4;" x="1277.94868" xlink:href="#m1aa8ba5e2a" y="204.92848"/>
     <use style="fill:#1f77b4;stroke:#1f77b4;" x="1278.07856" xlink:href="#m1aa8ba5e2a" y="179.605787"/>
     <use style="fill:#1f77b4;stroke:#1f77b4;" x="1278.20844" xlink:href="#m1aa8ba5e2a" y="212.809"/>
     <use style="fill:#1f77b4;stroke:#1f77b4;" x="1278.33832" xlink:href="#m1aa8ba5e2a" y="215.388837"/>
     <use style="fill:#1f77b4;stroke:#1f77b4;" x="1278.4682" xlink:href="#m1aa8ba5e2a" y="225.487419"/>
     <use style="fill:#1f77b4;stroke:#1f77b4;" x="1278.59808" xlink:href="#m1aa8ba5e2a" y="220.126047"/>
     <use style="fill:#1f77b4;stroke:#1f77b4;" x="1278.72796" xlink:href="#m1aa8ba5e2a" y="225.170326"/>
     <use style="fill:#1f77b4;stroke:#1f77b4;" x="1278.85784" xlink:href="#m1aa8ba5e2a" y="202.103987"/>
     <use style="fill:#1f77b4;stroke:#1f77b4;" x="1278.98772" xlink:href="#m1aa8ba5e2a" y="180.568886"/>
     <use style="fill:#1f77b4;stroke:#1f77b4;" x="1279.1176" xlink:href="#m1aa8ba5e2a" y="188.364348"/>
     <use style="fill:#1f77b4;stroke:#1f77b4;" x="1279.24748" xlink:href="#m1aa8ba5e2a" y="194.549214"/>
     <use style="fill:#1f77b4;stroke:#1f77b4;" x="1279.37736" xlink:href="#m1aa8ba5e2a" y="199.744187"/>
     <use style="fill:#1f77b4;stroke:#1f77b4;" x="1279.50724" xlink:href="#m1aa8ba5e2a" y="206.366372"/>
     <use style="fill:#1f77b4;stroke:#1f77b4;" x="1279.63712" xlink:href="#m1aa8ba5e2a" y="213.720037"/>
     <use style="fill:#1f77b4;stroke:#1f77b4;" x="1279.767" xlink:href="#m1aa8ba5e2a" y="167.237239"/>
     <use style="fill:#1f77b4;stroke:#1f77b4;" x="1279.89688" xlink:href="#m1aa8ba5e2a" y="173.561801"/>
     <use style="fill:#1f77b4;stroke:#1f77b4;" x="1280.02676" xlink:href="#m1aa8ba5e2a" y="202.554355"/>
     <use style="fill:#1f77b4;stroke:#1f77b4;" x="1280.15664" xlink:href="#m1aa8ba5e2a" y="203.958361"/>
     <use style="fill:#1f77b4;stroke:#1f77b4;" x="1280.28652" xlink:href="#m1aa8ba5e2a" y="204.805025"/>
     <use style="fill:#1f77b4;stroke:#1f77b4;" x="1280.4164" xlink:href="#m1aa8ba5e2a" y="197.95771"/>
     <use style="fill:#1f77b4;stroke:#1f77b4;" x="1280.54628" xlink:href="#m1aa8ba5e2a" y="192.748515"/>
     <use style="fill:#1f77b4;stroke:#1f77b4;" x="1280.67616" xlink:href="#m1aa8ba5e2a" y="197.55456"/>
     <use style="fill:#1f77b4;stroke:#1f77b4;" x="1280.80604" xlink:href="#m1aa8ba5e2a" y="204.220153"/>
     <use style="fill:#1f77b4;stroke:#1f77b4;" x="1280.93592" xlink:href="#m1aa8ba5e2a" y="210.074455"/>
     <use style="fill:#1f77b4;stroke:#1f77b4;" x="1281.0658" xlink:href="#m1aa8ba5e2a" y="246.309252"/>
     <use style="fill:#1f77b4;stroke:#1f77b4;" x="1281.19568" xlink:href="#m1aa8ba5e2a" y="162.668598"/>
     <use style="fill:#1f77b4;stroke:#1f77b4;" x="1281.32556" xlink:href="#m1aa8ba5e2a" y="221.489972"/>
     <use style="fill:#1f77b4;stroke:#1f77b4;" x="1281.45544" xlink:href="#m1aa8ba5e2a" y="222.620315"/>
    </g>
   </g>
   <g id="line2d_17">
    <defs>
     <path d="M 0 5 
C 1.326016 5 2.597899 4.473168 3.535534 3.535534 
C 4.473168 2.597899 5 1.326016 5 0 
C 5 -1.326016 4.473168 -2.597899 3.535534 -3.535534 
C 2.597899 -4.473168 1.326016 -5 0 -5 
C -1.326016 -5 -2.597899 -4.473168 -3.535534 -3.535534 
C -4.473168 -2.597899 -5 -1.326016 -5 0 
C -5 1.326016 -4.473168 2.597899 -3.535534 3.535534 
C -2.597899 4.473168 -1.326016 5 0 5 
z
" id="ma611619da5" style="stroke:#1f77b4;"/>
    </defs>
    <g clip-path="url(#p9d42437497)">
     <use style="fill:#1f77b4;stroke:#1f77b4;" x="367.48988" xlink:href="#ma611619da5" y="206.695934"/>
     <use style="fill:#1f77b4;stroke:#1f77b4;" x="367.61976" xlink:href="#ma611619da5" y="197.874658"/>
     <use style="fill:#1f77b4;stroke:#1f77b4;" x="367.74964" xlink:href="#ma611619da5" y="249.415683"/>
     <use style="fill:#1f77b4;stroke:#1f77b4;" x="367.87952" xlink:href="#ma611619da5" y="164.420153"/>
     <use style="fill:#1f77b4;stroke:#1f77b4;" x="368.0094" xlink:href="#ma611619da5" y="192.912669"/>
     <use style="fill:#1f77b4;stroke:#1f77b4;" x="368.13928" xlink:href="#ma611619da5" y="215.947193"/>
     <use style="fill:#1f77b4;stroke:#1f77b4;" x="497.36988" xlink:href="#ma611619da5" y="97.227558"/>
     <use style="fill:#1f77b4;stroke:#1f77b4;" x="627.24988" xlink:href="#ma611619da5" y="207.393847"/>
     <use style="fill:#1f77b4;stroke:#1f77b4;" x="757.12988" xlink:href="#ma611619da5" y="222.183015"/>
     <use style="fill:#1f77b4;stroke:#1f77b4;" x="757.25976" xlink:href="#ma611619da5" y="205.971166"/>
     <use style="fill:#1f77b4;stroke:#1f77b4;" x="757.38964" xlink:href="#ma611619da5" y="226.998726"/>
     <use style="fill:#1f77b4;stroke:#1f77b4;" x="757.51952" xlink:href="#ma611619da5" y="218.936302"/>
     <use style="fill:#1f77b4;stroke:#1f77b4;" x="887.00988" xlink:href="#ma611619da5" y="236.497148"/>
     <use style="fill:#1f77b4;stroke:#1f77b4;" x="1016.88988" xlink:href="#ma611619da5" y="206.229373"/>
     <use style="fill:#1f77b4;stroke:#1f77b4;" x="1276.64988" xlink:href="#ma611619da5" y="205.114907"/>
     <use style="fill:#1f77b4;stroke:#1f77b4;" x="1276.77976" xlink:href="#ma611619da5" y="219.902486"/>
     <use style="fill:#1f77b4;stroke:#1f77b4;" x="1276.90964" xlink:href="#ma611619da5" y="220.721597"/>
     <use style="fill:#1f77b4;stroke:#1f77b4;" x="1277.03952" xlink:href="#ma611619da5" y="218.419506"/>
     <use style="fill:#1f77b4;stroke:#1f77b4;" x="1277.1694" xlink:href="#ma611619da5" y="218.467169"/>
     <use style="fill:#1f77b4;stroke:#1f77b4;" x="1277.29928" xlink:href="#ma611619da5" y="210.158262"/>
     <use style="fill:#1f77b4;stroke:#1f77b4;" x="1277.42916" xlink:href="#ma611619da5" y="211.778782"/>
     <use style="fill:#1f77b4;stroke:#1f77b4;" x="1277.55904" xlink:href="#ma611619da5" y="209.482989"/>
     <use style="fill:#1f77b4;stroke:#1f77b4;" x="1277.68892" xlink:href="#ma611619da5" y="208.120357"/>
     <use style="fill:#1f77b4;stroke:#1f77b4;" x="1277.8188" xlink:href="#ma611619da5" y="208.278324"/>
     <use style="fill:#1f77b4;stroke:#1f77b4;" x="1277.94868" xlink:href="#ma611619da5" y="219.257172"/>
     <use style="fill:#1f77b4;stroke:#1f77b4;" x="1278.07856" xlink:href="#ma611619da5" y="188.950567"/>
     <use style="fill:#1f77b4;stroke:#1f77b4;" x="1278.20844" xlink:href="#ma611619da5" y="221.177113"/>
     <use style="fill:#1f77b4;stroke:#1f77b4;" x="1278.33832" xlink:href="#ma611619da5" y="220.842795"/>
     <use style="fill:#1f77b4;stroke:#1f77b4;" x="1278.4682" xlink:href="#ma611619da5" y="234.90063"/>
     <use style="fill:#1f77b4;stroke:#1f77b4;" x="1278.59808" xlink:href="#ma611619da5" y="230.114481"/>
     <use style="fill:#1f77b4;stroke:#1f77b4;" x="1278.72796" xlink:href="#ma611619da5" y="233.260876"/>
     <use style="fill:#1f77b4;stroke:#1f77b4;" x="1278.85784" xlink:href="#ma611619da5" y="210.698209"/>
     <use style="fill:#1f77b4;stroke:#1f77b4;" x="1278.98772" xlink:href="#ma611619da5" y="191.361941"/>
     <use style="fill:#1f77b4;stroke:#1f77b4;" x="1279.1176" xlink:href="#ma611619da5" y="201.061566"/>
     <use style="fill:#1f77b4;stroke:#1f77b4;" x="1279.24748" xlink:href="#ma611619da5" y="202.584037"/>
     <use style="fill:#1f77b4;stroke:#1f77b4;" x="1279.37736" xlink:href="#ma611619da5" y="206.354808"/>
     <use style="fill:#1f77b4;stroke:#1f77b4;" x="1279.50724" xlink:href="#ma611619da5" y="214.411104"/>
     <use style="fill:#1f77b4;stroke:#1f77b4;" x="1279.63712" xlink:href="#ma611619da5" y="217.999397"/>
     <use style="fill:#1f77b4;stroke:#1f77b4;" x="1279.767" xlink:href="#ma611619da5" y="176.472569"/>
     <use style="fill:#1f77b4;stroke:#1f77b4;" x="1279.89688" xlink:href="#ma611619da5" y="182.094681"/>
     <use style="fill:#1f77b4;stroke:#1f77b4;" x="1280.02676" xlink:href="#ma611619da5" y="210.07247"/>
     <use style="fill:#1f77b4;stroke:#1f77b4;" x="1280.15664" xlink:href="#ma611619da5" y="208.716136"/>
     <use style="fill:#1f77b4;stroke:#1f77b4;" x="1280.28652" xlink:href="#ma611619da5" y="209.872799"/>
     <use style="fill:#1f77b4;stroke:#1f77b4;" x="1280.4164" xlink:href="#ma611619da5" y="206.094027"/>
     <use style="fill:#1f77b4;stroke:#1f77b4;" x="1280.54628" xlink:href="#ma611619da5" y="201.109228"/>
     <use style="fill:#1f77b4;stroke:#1f77b4;" x="1280.67616" xlink:href="#ma611619da5" y="202.778772"/>
     <use style="fill:#1f77b4;stroke:#1f77b4;" x="1280.80604" xlink:href="#ma611619da5" y="215.347329"/>
     <use style="fill:#1f77b4;stroke:#1f77b4;" x="1280.93592" xlink:href="#ma611619da5" y="217.123772"/>
     <use style="fill:#1f77b4;stroke:#1f77b4;" x="1281.0658" xlink:href="#ma611619da5" y="257.363717"/>
     <use style="fill:#1f77b4;stroke:#1f77b4;" x="1281.19568" xlink:href="#ma611619da5" y="174.089452"/>
     <use style="fill:#1f77b4;stroke:#1f77b4;" x="1281.32556" xlink:href="#ma611619da5" y="225.908621"/>
     <use style="fill:#1f77b4;stroke:#1f77b4;" x="1281.45544" xlink:href="#ma611619da5" y="225.286968"/>
    </g>
   </g>
   <g id="patch_3">
    <path d="M 107.6 278.8 
L 107.6 50.4 
" style="fill:none;stroke:#000000;stroke-linecap:square;stroke-linejoin:miter;stroke-width:4;"/>
   </g>
   <g id="patch_4">
    <path d="M 1406.4 278.8 
L 1406.4 50.4 
" style="fill:none;stroke:#000000;stroke-linecap:square;stroke-linejoin:miter;stroke-width:4;"/>
   </g>
   <g id="patch_5">
    <path d="M 107.6 278.8 
L 1406.4 278.8 
" style="fill:none;stroke:#000000;stroke-linecap:square;stroke-linejoin:miter;stroke-width:4;"/>
   </g>
   <g id="patch_6">
    <path d="M 107.6 50.4 
L 1406.4 50.4 
" style="fill:none;stroke:#000000;stroke-linecap:square;stroke-linejoin:miter;stroke-width:4;"/>
   </g>
   <g id="text_17">
    <!-- Deep GM -->
    <g transform="translate(693.46 43.455)scale(0.32 -0.32)">
     <defs>
      <path d="M 1.59375 66.203125 
L 28.59375 66.203125 
Q 48.09375 66.203125 58.59375 57.09375 
Q 68.5 48.59375 68.5 33.40625 
Q 68.5 15.09375 54.90625 6.40625 
Q 45 0 29.703125 0 
L 1.59375 0 
L 1.59375 1.90625 
Q 7.40625 2.296875 8.90625 3.9375 
Q 10.40625 5.59375 10.40625 11.5 
L 10.40625 55 
Q 10.40625 60.796875 8.90625 62.34375 
Q 7.40625 63.90625 1.59375 64.296875 
z
M 20.59375 58.296875 
L 20.59375 8.40625 
Q 20.59375 5.703125 21.546875 4.703125 
Q 22.5 3.703125 25.40625 3.703125 
Q 33.203125 3.703125 38 4.796875 
Q 42.796875 5.90625 47.203125 8.90625 
Q 57.59375 15.90625 57.59375 32.796875 
Q 57.59375 47.296875 48.09375 55.59375 
Q 43.796875 59.40625 38.6875 60.953125 
Q 33.59375 62.5 25.90625 62.5 
Q 23 62.5 21.796875 61.59375 
Q 20.59375 60.703125 20.59375 58.296875 
z
" id="STIXGeneral-Regular-68"/>
      <path d="M 15.90625 45.796875 
L 15.90625 38.09375 
Q 22.203125 46 30.296875 46 
Q 37.59375 46 42.296875 40 
Q 47 34 47 24.703125 
Q 47 13.796875 40.953125 6.390625 
Q 34.90625 -1 26 -1 
Q 22.90625 -1 20.75 -0.09375 
Q 18.59375 0.796875 15.90625 3.296875 
L 15.90625 -12.40625 
Q 15.90625 -17.09375 17.5 -18.4375 
Q 19.09375 -19.796875 24.703125 -19.90625 
L 24.703125 -21.703125 
L 0.5 -21.703125 
L 0.5 -20 
Q 4.90625 -19.59375 6.203125 -18.296875 
Q 7.5 -17 7.5 -13.09375 
L 7.5 33.703125 
Q 7.5 37.203125 6.703125 38.296875 
Q 5.90625 39.40625 3.40625 39.40625 
Q 1.796875 39.40625 0.90625 39.296875 
L 0.90625 40.90625 
Q 7.90625 43 15.296875 46 
z
M 15.90625 33.40625 
L 15.90625 8.796875 
Q 15.90625 6.59375 19.34375 4.390625 
Q 22.796875 2.203125 26.296875 2.203125 
Q 31.703125 2.203125 35.046875 7.296875 
Q 38.40625 12.40625 38.40625 20.703125 
Q 38.40625 29.5 35.046875 34.75 
Q 31.703125 40 26.09375 40 
Q 22.59375 40 19.25 37.796875 
Q 15.90625 35.59375 15.90625 33.40625 
z
" id="STIXGeneral-Regular-112"/>
      <path d="M 70.90625 35.40625 
L 70.90625 33.59375 
Q 66.5 33.203125 65.203125 31.796875 
Q 63.90625 30.40625 63.90625 25.59375 
L 63.90625 5.59375 
Q 55.296875 -1.40625 38.5 -1.40625 
Q 30.703125 -1.40625 23.546875 1.390625 
Q 16.40625 4.203125 11.5 9.296875 
Q 3.203125 18 3.203125 32.703125 
Q 3.203125 49.296875 13.90625 59 
Q 23.296875 67.59375 37.796875 67.59375 
Q 44.203125 67.59375 51.09375 65.296875 
Q 53.796875 64.296875 55.5 64.296875 
Q 57.09375 64.296875 58.296875 65.25 
Q 59.5 66.203125 60 67.59375 
L 62.203125 67.59375 
L 63 46.5 
L 60.703125 46.5 
Q 57.5 54.296875 53.59375 58.09375 
Q 47.796875 63.59375 39 63.59375 
Q 29 63.59375 22.296875 56.703125 
Q 14.59375 49 14.59375 32.40625 
Q 14.59375 18.59375 21.796875 10.59375 
Q 29 2.59375 40.90625 2.59375 
Q 46.59375 2.59375 50.390625 4.390625 
Q 54.203125 6.203125 54.203125 8.703125 
L 54.203125 24.40625 
Q 54.203125 30.203125 52.75 31.640625 
Q 51.296875 33.09375 45.296875 33.59375 
L 45.296875 35.40625 
z
" id="STIXGeneral-Regular-71"/>
      <path d="M 86.40625 0 
L 58.40625 0 
L 58.40625 1.90625 
Q 64.296875 2.296875 65.84375 4.140625 
Q 67.40625 6 67.40625 12.296875 
L 67.40625 57.203125 
L 41.90625 0 
L 40.5 0 
L 15.296875 54.90625 
L 15.296875 15.09375 
Q 15.296875 7 17 4.59375 
Q 18.703125 2.203125 24.59375 1.90625 
L 24.59375 0 
L 1.203125 0 
L 1.203125 1.90625 
Q 5.59375 2.203125 7.5 3.203125 
Q 9.40625 4.203125 10.15625 6.75 
Q 10.90625 9.296875 10.90625 15.09375 
L 10.90625 54.90625 
Q 10.90625 60.59375 9.203125 62.25 
Q 7.5 63.90625 1.40625 64.296875 
L 1.40625 66.203125 
L 21.203125 66.203125 
L 44.296875 16 
L 66.40625 66.203125 
L 86.296875 66.203125 
L 86.296875 64.296875 
Q 80.90625 64.203125 79.25 62.390625 
Q 77.59375 60.59375 77.59375 55 
L 77.59375 11.203125 
Q 77.59375 5.90625 79.25 4.09375 
Q 80.90625 2.296875 86.40625 1.90625 
z
" id="STIXGeneral-Regular-77"/>
     </defs>
     <use xlink:href="#STIXGeneral-Regular-68"/>
     <use x="72.199982" xlink:href="#STIXGeneral-Regular-101"/>
     <use x="116.599976" xlink:href="#STIXGeneral-Regular-101"/>
     <use x="160.999969" xlink:href="#STIXGeneral-Regular-112"/>
     <use x="210.999954" xlink:href="#STIXGeneral-Regular-32"/>
     <use x="235.999939" xlink:href="#STIXGeneral-Regular-71"/>
     <use x="308.199921" xlink:href="#STIXGeneral-Regular-77"/>
    </g>
   </g>
  </g>
 </g>
 <defs>
  <clipPath id="p9d42437497">
   <rect height="228.4" width="1298.8" x="107.6" y="50.4"/>
  </clipPath>
 </defs>
</svg>
