<?xml version="1.0" encoding="utf-8" standalone="no"?>
<!DOCTYPE svg PUBLIC "-//W3C//DTD SVG 1.1//EN"
  "http://www.w3.org/Graphics/SVG/1.1/DTD/svg11.dtd">
<svg xmlns:xlink="http://www.w3.org/1999/xlink" width="1440pt" height="360pt" viewBox="0 0 1440 360" xmlns="http://www.w3.org/2000/svg" version="1.1">
 <metadata>
  <rdf:RDF xmlns:dc="http://purl.org/dc/elements/1.1/" xmlns:cc="http://creativecommons.org/ns#" xmlns:rdf="http://www.w3.org/1999/02/22-rdf-syntax-ns#">
   <cc:Work>
    <dc:type rdf:resource="http://purl.org/dc/dcmitype/StillImage"/>
    <dc:date>2023-12-04T15:47:41.130710</dc:date>
    <dc:format>image/svg+xml</dc:format>
    <dc:creator>
     <cc:Agent>
      <dc:title>Matplotlib v3.7.1, https://matplotlib.org/</dc:title>
     </cc:Agent>
    </dc:creator>
   </cc:Work>
  </rdf:RDF>
 </metadata>
 <defs>
  <style type="text/css">*{stroke-linejoin: round; stroke-linecap: butt}</style>
 </defs>
 <g id="figure_1">
  <g id="patch_1">
   <path d="M 0 360 
L 1440 360 
L 1440 0 
L 0 0 
z
" style="fill: #ffffff"/>
  </g>
  <g id="axes_1">
   <g id="patch_2">
    <path d="M 107.6 278.8 
L 1418.4 278.8 
L 1418.4 50.4 
L 107.6 50.4 
z
" style="fill: #ffffff"/>
   </g>
   <g id="matplotlib.axis_1">
    <g id="xtick_1">
     <g id="line2d_1">
      <defs>
       <path id="me5559aad21" d="M 0 0 
L 0 3.5 
" style="stroke: #000000; stroke-width: 0.8"/>
      </defs>
      <g>
       <use xlink:href="#me5559aad21" x="107.6" y="278.8" style="stroke: #000000; stroke-width: 0.8"/>
      </g>
     </g>
     <g id="text_1">
      <!-- 0 -->
      <g transform="translate(101.6 302.19125) scale(0.24 -0.24)">
       <defs>
        <path id="STIXGeneral-Regular-30" d="M 3046 2112 
Q 3046 1683 2963 1302 
Q 2880 922 2717 602 
Q 2554 282 2266 96 
Q 1978 -90 1600 -90 
Q 1210 -90 915 108 
Q 621 307 461 640 
Q 301 973 227 1350 
Q 154 1728 154 2150 
Q 154 2746 301 3222 
Q 448 3699 790 4012 
Q 1133 4326 1626 4326 
Q 2253 4326 2649 3712 
Q 3046 3098 3046 2112 
z
M 2432 2080 
Q 2432 3091 2217 3625 
Q 2003 4160 1587 4160 
Q 1190 4160 979 3622 
Q 768 3085 768 2106 
Q 768 1120 979 598 
Q 1190 77 1600 77 
Q 2003 77 2217 598 
Q 2432 1120 2432 2080 
z
" transform="scale(0.015625)"/>
       </defs>
       <use xlink:href="#STIXGeneral-Regular-30"/>
      </g>
     </g>
    </g>
    <g id="xtick_2">
     <g id="line2d_2">
      <g>
       <use xlink:href="#me5559aad21" x="233.023404" y="278.8" style="stroke: #000000; stroke-width: 0.8"/>
      </g>
     </g>
     <g id="text_2">
      <!-- 1 -->
      <g transform="translate(227.023404 302.19125) scale(0.24 -0.24)">
       <defs>
        <path id="STIXGeneral-Regular-31" d="M 2522 0 
L 755 0 
L 755 96 
Q 1107 115 1235 227 
Q 1363 339 1363 608 
L 1363 3482 
Q 1363 3795 1171 3795 
Q 1082 3795 883 3718 
L 710 3654 
L 710 3744 
L 1856 4326 
L 1914 4307 
L 1914 486 
Q 1914 275 2042 185 
Q 2170 96 2522 96 
L 2522 0 
z
" transform="scale(0.015625)"/>
       </defs>
       <use xlink:href="#STIXGeneral-Regular-31"/>
      </g>
     </g>
    </g>
    <g id="xtick_3">
     <g id="line2d_3">
      <g>
       <use xlink:href="#me5559aad21" x="358.446809" y="278.8" style="stroke: #000000; stroke-width: 0.8"/>
      </g>
     </g>
     <g id="text_3">
      <!-- 2 -->
      <g transform="translate(352.446809 302.19125) scale(0.24 -0.24)">
       <defs>
        <path id="STIXGeneral-Regular-32" d="M 3034 877 
L 2688 0 
L 186 0 
L 186 77 
L 1325 1286 
Q 1773 1754 1965 2144 
Q 2157 2534 2157 2950 
Q 2157 3379 1920 3616 
Q 1683 3853 1267 3853 
Q 922 3853 720 3673 
Q 518 3494 326 3021 
L 192 3053 
Q 301 3648 630 3987 
Q 960 4326 1523 4326 
Q 2054 4326 2380 4006 
Q 2707 3686 2707 3200 
Q 2707 2477 1888 1613 
L 832 486 
L 2330 486 
Q 2541 486 2665 569 
Q 2790 653 2944 915 
L 3034 877 
z
" transform="scale(0.015625)"/>
       </defs>
       <use xlink:href="#STIXGeneral-Regular-32"/>
      </g>
     </g>
    </g>
    <g id="xtick_4">
     <g id="line2d_4">
      <g>
       <use xlink:href="#me5559aad21" x="483.870213" y="278.8" style="stroke: #000000; stroke-width: 0.8"/>
      </g>
     </g>
     <g id="text_4">
      <!-- 3 -->
      <g transform="translate(477.870213 302.19125) scale(0.24 -0.24)">
       <defs>
        <path id="STIXGeneral-Regular-33" d="M 390 3264 
L 288 3290 
Q 435 3770 748 4048 
Q 1062 4326 1542 4326 
Q 1990 4326 2265 4083 
Q 2541 3840 2541 3450 
Q 2541 2925 1946 2566 
Q 2298 2413 2477 2227 
Q 2758 1914 2758 1402 
Q 2758 890 2464 506 
Q 2246 211 1840 60 
Q 1434 -90 979 -90 
Q 262 -90 262 275 
Q 262 378 339 442 
Q 416 506 525 506 
Q 685 506 915 339 
Q 1197 141 1466 141 
Q 1818 141 2058 425 
Q 2298 710 2298 1120 
Q 2298 1856 1632 2048 
Q 1434 2112 979 2112 
L 979 2202 
Q 1338 2323 1517 2432 
Q 2035 2726 2035 3290 
Q 2035 3610 1852 3776 
Q 1670 3942 1344 3942 
Q 768 3942 390 3264 
z
" transform="scale(0.015625)"/>
       </defs>
       <use xlink:href="#STIXGeneral-Regular-33"/>
      </g>
     </g>
    </g>
    <g id="xtick_5">
     <g id="line2d_5">
      <g>
       <use xlink:href="#me5559aad21" x="609.293618" y="278.8" style="stroke: #000000; stroke-width: 0.8"/>
      </g>
     </g>
     <g id="text_5">
      <!-- 4 -->
      <g transform="translate(603.293618 302.19125) scale(0.24 -0.24)">
       <defs>
        <path id="STIXGeneral-Regular-34" d="M 3027 1069 
L 2368 1069 
L 2368 0 
L 1869 0 
L 1869 1069 
L 77 1069 
L 77 1478 
L 2086 4326 
L 2368 4326 
L 2368 1478 
L 3027 1478 
L 3027 1069 
z
M 1869 1478 
L 1869 3674 
L 333 1478 
L 1869 1478 
z
" transform="scale(0.015625)"/>
       </defs>
       <use xlink:href="#STIXGeneral-Regular-34"/>
      </g>
     </g>
    </g>
    <g id="xtick_6">
     <g id="line2d_6">
      <g>
       <use xlink:href="#me5559aad21" x="734.717022" y="278.8" style="stroke: #000000; stroke-width: 0.8"/>
      </g>
     </g>
     <g id="text_6">
      <!-- 5 -->
      <g transform="translate(728.717022 302.19125) scale(0.24 -0.24)">
       <defs>
        <path id="STIXGeneral-Regular-35" d="M 2803 4358 
L 2573 3814 
Q 2534 3731 2400 3731 
L 1158 3731 
L 902 3187 
Q 1606 3053 1920 2896 
Q 2234 2739 2502 2368 
Q 2726 2061 2726 1555 
Q 2726 1094 2576 780 
Q 2426 467 2099 224 
Q 1664 -90 1011 -90 
Q 646 -90 422 19 
Q 198 128 198 307 
Q 198 550 486 550 
Q 717 550 960 352 
Q 1210 147 1414 147 
Q 1747 147 2012 480 
Q 2278 813 2278 1229 
Q 2278 1843 1850 2189 
Q 1293 2637 486 2637 
Q 410 2637 410 2688 
L 416 2720 
L 1114 4237 
L 2438 4237 
Q 2547 4237 2608 4269 
Q 2669 4301 2746 4403 
L 2803 4358 
z
" transform="scale(0.015625)"/>
       </defs>
       <use xlink:href="#STIXGeneral-Regular-35"/>
      </g>
     </g>
    </g>
    <g id="xtick_7">
     <g id="line2d_7">
      <g>
       <use xlink:href="#me5559aad21" x="860.140427" y="278.8" style="stroke: #000000; stroke-width: 0.8"/>
      </g>
     </g>
     <g id="text_7">
      <!-- 6 -->
      <g transform="translate(854.140427 302.19125) scale(0.24 -0.24)">
       <defs>
        <path id="STIXGeneral-Regular-36" d="M 2854 4378 
L 2867 4275 
Q 2112 4154 1606 3664 
Q 1101 3174 973 2451 
Q 1344 2739 1786 2739 
Q 2349 2739 2672 2380 
Q 2995 2022 2995 1402 
Q 2995 774 2669 378 
Q 2291 -90 1651 -90 
Q 870 -90 518 557 
Q 218 1107 218 1786 
Q 218 2835 915 3552 
Q 1312 3962 1731 4131 
Q 2150 4301 2854 4378 
z
M 2419 1203 
Q 2419 2445 1555 2445 
Q 1235 2445 1024 2275 
Q 813 2106 813 1702 
Q 813 954 1046 522 
Q 1280 90 1722 90 
Q 2061 90 2240 394 
Q 2419 698 2419 1203 
z
" transform="scale(0.015625)"/>
       </defs>
       <use xlink:href="#STIXGeneral-Regular-36"/>
      </g>
     </g>
    </g>
    <g id="xtick_8">
     <g id="line2d_8">
      <g>
       <use xlink:href="#me5559aad21" x="985.563831" y="278.8" style="stroke: #000000; stroke-width: 0.8"/>
      </g>
     </g>
     <g id="text_8">
      <!-- 7 -->
      <g transform="translate(979.563831 302.19125) scale(0.24 -0.24)">
       <defs>
        <path id="STIXGeneral-Regular-37" d="M 2874 4134 
L 1517 -51 
L 1101 -51 
L 2368 3763 
L 992 3763 
Q 717 3763 582 3667 
Q 448 3571 243 3238 
L 128 3296 
L 512 4237 
L 2874 4237 
L 2874 4134 
z
" transform="scale(0.015625)"/>
       </defs>
       <use xlink:href="#STIXGeneral-Regular-37"/>
      </g>
     </g>
    </g>
    <g id="xtick_9">
     <g id="line2d_9">
      <g>
       <use xlink:href="#me5559aad21" x="1110.987236" y="278.8" style="stroke: #000000; stroke-width: 0.8"/>
      </g>
     </g>
     <g id="text_9">
      <!-- 8 -->
      <g transform="translate(1104.987236 302.19125) scale(0.24 -0.24)">
       <defs>
        <path id="STIXGeneral-Regular-38" d="M 2848 992 
Q 2848 499 2505 204 
Q 2163 -90 1587 -90 
Q 1050 -90 704 204 
Q 358 499 358 954 
Q 358 1293 524 1533 
Q 691 1773 1190 2125 
Q 710 2522 553 2765 
Q 397 3008 397 3328 
Q 397 3782 745 4054 
Q 1094 4326 1638 4326 
Q 2106 4326 2410 4060 
Q 2714 3795 2714 3411 
Q 2714 3059 2531 2848 
Q 2349 2637 1856 2374 
Q 2432 1990 2640 1689 
Q 2848 1389 2848 992 
z
M 2272 3411 
Q 2272 3744 2086 3945 
Q 1901 4147 1574 4147 
Q 1248 4147 1059 3977 
Q 870 3808 870 3513 
Q 870 3219 1059 2979 
Q 1248 2739 1670 2490 
Q 1997 2682 2134 2896 
Q 2272 3110 2272 3411 
z
M 1734 1741 
L 1357 1997 
Q 1075 1766 960 1545 
Q 845 1325 845 1011 
Q 845 576 1065 333 
Q 1286 90 1658 90 
Q 1971 90 2166 285 
Q 2362 480 2362 794 
Q 2362 1082 2214 1299 
Q 2067 1517 1734 1741 
z
" transform="scale(0.015625)"/>
       </defs>
       <use xlink:href="#STIXGeneral-Regular-38"/>
      </g>
     </g>
    </g>
    <g id="xtick_10">
     <g id="line2d_10">
      <g>
       <use xlink:href="#me5559aad21" x="1236.41064" y="278.8" style="stroke: #000000; stroke-width: 0.8"/>
      </g>
     </g>
     <g id="text_10">
      <!-- 9 -->
      <g transform="translate(1230.41064 302.19125) scale(0.24 -0.24)">
       <defs>
        <path id="STIXGeneral-Regular-39" d="M 378 -141 
L 358 -13 
Q 1094 115 1603 608 
Q 2112 1101 2304 1882 
Q 1933 1517 1344 1517 
Q 826 1517 509 1875 
Q 192 2234 192 2816 
Q 192 3462 573 3894 
Q 954 4326 1523 4326 
Q 2131 4326 2528 3840 
Q 2938 3328 2938 2522 
Q 2938 1958 2742 1462 
Q 2547 966 2170 621 
Q 1773 262 1395 105 
Q 1018 -51 378 -141 
z
M 2317 2272 
L 2317 2522 
Q 2317 4147 1472 4147 
Q 1171 4147 1005 3930 
Q 909 3802 845 3546 
Q 781 3290 781 3034 
Q 781 2464 995 2128 
Q 1210 1792 1568 1792 
Q 1824 1792 2070 1917 
Q 2317 2042 2317 2272 
z
" transform="scale(0.015625)"/>
       </defs>
       <use xlink:href="#STIXGeneral-Regular-39"/>
      </g>
     </g>
    </g>
    <g id="xtick_11">
     <g id="line2d_11">
      <g>
       <use xlink:href="#me5559aad21" x="1361.834045" y="278.8" style="stroke: #000000; stroke-width: 0.8"/>
      </g>
     </g>
     <g id="text_11">
      <!-- 10 -->
      <g transform="translate(1349.834045 302.19125) scale(0.24 -0.24)">
       <use xlink:href="#STIXGeneral-Regular-31"/>
       <use xlink:href="#STIXGeneral-Regular-30" x="49.999985"/>
      </g>
     </g>
    </g>
    <g id="text_12">
     <!-- Site # -->
     <g transform="translate(728.410938 331.889063) scale(0.3 -0.3)">
      <defs>
       <path id="STIXGeneral-Regular-53" d="M 3002 2963 
L 2842 2963 
Q 2733 3360 2579 3565 
Q 2189 4064 1651 4064 
Q 1357 4064 1181 3894 
Q 1005 3725 1005 3456 
Q 1005 3328 1069 3206 
Q 1133 3085 1206 2998 
Q 1280 2912 1465 2784 
Q 1651 2656 1766 2589 
Q 1882 2522 2150 2362 
Q 2669 2061 2905 1763 
Q 3142 1466 3142 1107 
Q 3142 576 2771 243 
Q 2400 -90 1837 -90 
Q 1421 -90 1082 58 
Q 915 128 781 128 
Q 704 128 653 70 
Q 602 13 602 -83 
L 461 -83 
L 275 1274 
L 416 1274 
Q 845 141 1734 141 
Q 2074 141 2285 342 
Q 2496 544 2496 858 
Q 2496 1158 2310 1363 
Q 2003 1696 1235 2106 
Q 454 2522 454 3206 
Q 454 3718 768 4022 
Q 1082 4326 1568 4326 
Q 1907 4326 2240 4186 
Q 2413 4109 2522 4109 
Q 2688 4109 2726 4326 
L 2861 4326 
L 3002 2963 
z
" transform="scale(0.015625)"/>
       <path id="STIXGeneral-Regular-69" d="M 1152 4045 
Q 1152 3904 1056 3811 
Q 960 3718 819 3718 
Q 685 3718 592 3811 
Q 499 3904 499 4045 
Q 499 4179 595 4275 
Q 691 4371 826 4371 
Q 966 4371 1059 4275 
Q 1152 4179 1152 4045 
z
M 1619 0 
L 102 0 
L 102 96 
Q 435 115 521 211 
Q 608 307 608 666 
L 608 2118 
Q 608 2342 563 2432 
Q 518 2522 397 2522 
Q 243 2522 128 2490 
L 128 2592 
L 1120 2944 
L 1146 2918 
L 1146 672 
Q 1146 314 1226 218 
Q 1306 122 1619 96 
L 1619 0 
z
" transform="scale(0.015625)"/>
       <path id="STIXGeneral-Regular-74" d="M 1702 493 
L 1786 422 
Q 1478 -64 1011 -64 
Q 448 -64 448 749 
L 448 2675 
L 109 2675 
Q 83 2694 83 2720 
Q 83 2771 192 2842 
Q 435 2982 813 3526 
Q 826 3546 874 3606 
Q 922 3667 941 3706 
Q 986 3706 986 3622 
L 986 2880 
L 1632 2880 
L 1632 2675 
L 986 2675 
L 986 845 
Q 986 538 1062 403 
Q 1139 269 1318 269 
Q 1510 269 1702 493 
z
" transform="scale(0.015625)"/>
       <path id="STIXGeneral-Regular-65" d="M 2611 1050 
L 2714 1005 
Q 2330 -64 1376 -64 
Q 813 -64 486 329 
Q 160 723 160 1389 
Q 160 2074 525 2509 
Q 890 2944 1485 2944 
Q 2061 2944 2374 2502 
Q 2560 2246 2592 1773 
L 621 1773 
Q 646 1370 700 1158 
Q 755 947 915 730 
Q 1184 378 1626 378 
Q 1939 378 2153 531 
Q 2368 685 2611 1050 
z
M 634 1978 
L 1939 1978 
Q 1882 2381 1750 2547 
Q 1619 2714 1312 2714 
Q 1043 2714 864 2525 
Q 685 2336 634 1978 
z
" transform="scale(0.015625)"/>
       <path id="STIXGeneral-Regular-20" transform="scale(0.015625)"/>
       <path id="STIXGeneral-Regular-23" d="M 3168 2592 
L 2502 2592 
L 2374 1734 
L 3008 1734 
L 3008 1382 
L 2317 1382 
L 2118 0 
L 1747 0 
L 1946 1382 
L 1088 1382 
L 877 0 
L 506 0 
L 717 1382 
L 38 1382 
L 38 1734 
L 774 1734 
L 909 2592 
L 211 2592 
L 211 2944 
L 960 2944 
L 1158 4237 
L 1530 4237 
L 1331 2944 
L 2182 2944 
L 2374 4237 
L 2746 4237 
L 2554 2944 
L 3168 2944 
L 3168 2592 
z
M 2131 2592 
L 1280 2592 
L 1146 1734 
L 2003 1734 
L 2131 2592 
z
" transform="scale(0.015625)"/>
      </defs>
      <use xlink:href="#STIXGeneral-Regular-53"/>
      <use xlink:href="#STIXGeneral-Regular-69" x="55.599991"/>
      <use xlink:href="#STIXGeneral-Regular-74" x="83.399979"/>
      <use xlink:href="#STIXGeneral-Regular-65" x="111.199966"/>
      <use xlink:href="#STIXGeneral-Regular-20" x="155.59996"/>
      <use xlink:href="#STIXGeneral-Regular-23" x="180.599945"/>
     </g>
    </g>
   </g>
   <g id="matplotlib.axis_2">
    <g id="ytick_1">
     <g id="line2d_12">
      <defs>
       <path id="m4834e71530" d="M 0 0 
L -3.5 0 
" style="stroke: #000000; stroke-width: 0.8"/>
      </defs>
      <g>
       <use xlink:href="#m4834e71530" x="107.6" y="221.115232" style="stroke: #000000; stroke-width: 0.8"/>
      </g>
     </g>
     <g id="text_13">
      <!-- 1500 -->
      <g transform="translate(52.6 229.310857) scale(0.24 -0.24)">
       <use xlink:href="#STIXGeneral-Regular-31"/>
       <use xlink:href="#STIXGeneral-Regular-35" x="49.999985"/>
       <use xlink:href="#STIXGeneral-Regular-30" x="99.999969"/>
       <use xlink:href="#STIXGeneral-Regular-30" x="149.999954"/>
      </g>
     </g>
    </g>
    <g id="ytick_2">
     <g id="line2d_13">
      <g>
       <use xlink:href="#m4834e71530" x="107.6" y="150.338744" style="stroke: #000000; stroke-width: 0.8"/>
      </g>
     </g>
     <g id="text_14">
      <!-- 2000 -->
      <g transform="translate(52.6 158.534369) scale(0.24 -0.24)">
       <use xlink:href="#STIXGeneral-Regular-32"/>
       <use xlink:href="#STIXGeneral-Regular-30" x="49.999985"/>
       <use xlink:href="#STIXGeneral-Regular-30" x="99.999969"/>
       <use xlink:href="#STIXGeneral-Regular-30" x="149.999954"/>
      </g>
     </g>
    </g>
    <g id="ytick_3">
     <g id="line2d_14">
      <g>
       <use xlink:href="#m4834e71530" x="107.6" y="79.562255" style="stroke: #000000; stroke-width: 0.8"/>
      </g>
     </g>
     <g id="text_15">
      <!-- 2500 -->
      <g transform="translate(52.6 87.75788) scale(0.24 -0.24)">
       <use xlink:href="#STIXGeneral-Regular-32"/>
       <use xlink:href="#STIXGeneral-Regular-35" x="49.999985"/>
       <use xlink:href="#STIXGeneral-Regular-30" x="99.999969"/>
       <use xlink:href="#STIXGeneral-Regular-30" x="149.999954"/>
      </g>
     </g>
    </g>
    <g id="text_16">
     <!-- T$_1$ (ms) -->
     <g transform="translate(42.089062 211.25) rotate(-90) scale(0.3 -0.3)">
      <defs>
       <path id="STIXGeneral-Regular-54" d="M 3795 3149 
L 3642 3149 
Q 3539 3674 3353 3821 
Q 3168 3968 2656 3968 
L 2278 3968 
L 2278 710 
Q 2278 346 2387 243 
Q 2496 141 2893 122 
L 2893 0 
L 1024 0 
L 1024 122 
Q 1427 147 1526 256 
Q 1626 365 1626 787 
L 1626 3968 
L 1242 3968 
Q 723 3968 540 3817 
Q 358 3667 262 3149 
L 109 3149 
L 154 4237 
L 3750 4237 
L 3795 3149 
z
" transform="scale(0.015625)"/>
       <path id="STIXGeneral-Regular-28" d="M 1946 -1030 
L 1869 -1133 
Q 1126 -710 716 32 
Q 307 774 307 1613 
Q 307 3386 1888 4326 
L 1946 4224 
Q 1293 3667 1075 3126 
Q 858 2586 858 1632 
Q 858 685 1082 96 
Q 1306 -493 1946 -1030 
z
" transform="scale(0.015625)"/>
       <path id="STIXGeneral-Regular-6d" d="M 4960 0 
L 3565 0 
L 3565 96 
Q 3834 122 3907 208 
Q 3981 294 3981 576 
L 3981 1894 
Q 3981 2278 3869 2444 
Q 3757 2611 3488 2611 
Q 3264 2611 3107 2521 
Q 2950 2432 2803 2221 
L 2803 608 
Q 2803 301 2896 201 
Q 2989 102 3264 96 
L 3264 0 
L 1830 0 
L 1830 96 
Q 2112 115 2189 188 
Q 2266 262 2266 550 
L 2266 1901 
Q 2266 2611 1850 2611 
Q 1670 2611 1468 2531 
Q 1267 2451 1171 2336 
Q 1088 2240 1088 2227 
L 1088 448 
Q 1088 243 1177 176 
Q 1267 109 1523 96 
L 1523 0 
L 102 0 
L 102 96 
Q 371 102 460 195 
Q 550 288 550 563 
L 550 2150 
Q 550 2387 499 2480 
Q 448 2573 326 2573 
Q 230 2573 122 2547 
L 122 2656 
Q 557 2778 1011 2944 
L 1062 2925 
L 1062 2451 
L 1075 2451 
Q 1363 2752 1584 2848 
Q 1805 2944 2054 2944 
Q 2560 2944 2733 2406 
Q 3232 2944 3776 2944 
Q 4518 2944 4518 1792 
L 4518 493 
Q 4518 282 4582 202 
Q 4646 122 4794 109 
L 4960 96 
L 4960 0 
z
" transform="scale(0.015625)"/>
       <path id="STIXGeneral-Regular-73" d="M 998 1926 
L 1664 1523 
Q 1984 1331 2105 1164 
Q 2227 998 2227 736 
Q 2227 416 1961 176 
Q 1696 -64 1331 -64 
Q 1030 -64 864 -6 
Q 691 51 570 51 
Q 461 51 416 -26 
L 333 -26 
L 333 979 
L 435 979 
Q 538 512 730 294 
Q 922 77 1248 77 
Q 1485 77 1632 211 
Q 1779 346 1779 550 
Q 1779 845 1440 1030 
L 1094 1222 
Q 326 1651 326 2150 
Q 326 2522 566 2730 
Q 806 2938 1210 2938 
Q 1491 2938 1638 2867 
Q 1754 2816 1818 2816 
Q 1862 2816 1920 2880 
L 1990 2880 
L 2022 2010 
L 1926 2010 
Q 1818 2445 1654 2621 
Q 1491 2797 1203 2797 
Q 986 2797 854 2688 
Q 723 2579 723 2362 
Q 723 2253 796 2128 
Q 870 2003 998 1926 
z
" transform="scale(0.015625)"/>
       <path id="STIXGeneral-Regular-29" d="M 186 4224 
L 262 4326 
Q 992 3891 1408 3148 
Q 1824 2406 1824 1581 
Q 1824 -166 243 -1133 
L 186 -1030 
Q 845 -486 1059 54 
Q 1274 595 1274 1562 
Q 1274 2534 1059 3120 
Q 845 3706 186 4224 
z
" transform="scale(0.015625)"/>
      </defs>
      <use xlink:href="#STIXGeneral-Regular-54" transform="translate(0 0.40625)"/>
      <use xlink:href="#STIXGeneral-Regular-31" transform="translate(62.643272 -12.821875) scale(0.7)"/>
      <use xlink:href="#STIXGeneral-Regular-20" transform="translate(102.052636 0.40625)"/>
      <use xlink:href="#STIXGeneral-Regular-28" transform="translate(127.052621 0.40625)"/>
      <use xlink:href="#STIXGeneral-Regular-6d" transform="translate(160.352609 0.40625)"/>
      <use xlink:href="#STIXGeneral-Regular-73" transform="translate(238.152597 0.40625)"/>
      <use xlink:href="#STIXGeneral-Regular-29" transform="translate(277.052591 0.40625)"/>
     </g>
    </g>
   </g>
   <g id="LineCollection_1">
    <path d="M 233.148828 228.827494 
L 233.148828 186.629536 
" clip-path="url(#p825a799af9)" style="fill: none; stroke: #66c2a5; stroke-width: 3"/>
    <path d="M 358.572232 247.523073 
L 358.572232 225.556504 
" clip-path="url(#p825a799af9)" style="fill: none; stroke: #66c2a5; stroke-width: 3"/>
    <path d="M 358.697656 245.500169 
L 358.697656 215.665366 
" clip-path="url(#p825a799af9)" style="fill: none; stroke: #66c2a5; stroke-width: 3"/>
    <path d="M 358.823079 246.193524 
L 358.823079 219.592405 
" clip-path="url(#p825a799af9)" style="fill: none; stroke: #66c2a5; stroke-width: 3"/>
    <path d="M 358.948503 268.418182 
L 358.948503 200.233996 
" clip-path="url(#p825a799af9)" style="fill: none; stroke: #66c2a5; stroke-width: 3"/>
    <path d="M 359.073926 227.561425 
L 359.073926 194.454226 
" clip-path="url(#p825a799af9)" style="fill: none; stroke: #66c2a5; stroke-width: 3"/>
    <path d="M 359.199349 266.986249 
L 359.199349 208.774446 
" clip-path="url(#p825a799af9)" style="fill: none; stroke: #66c2a5; stroke-width: 3"/>
    <path d="M 483.995637 189.53112 
L 483.995637 60.781818 
" clip-path="url(#p825a799af9)" style="fill: none; stroke: #66c2a5; stroke-width: 3"/>
    <path d="M 609.419041 237.466751 
L 609.419041 200.069397 
" clip-path="url(#p825a799af9)" style="fill: none; stroke: #66c2a5; stroke-width: 3"/>
    <path d="M 734.842446 253.116224 
L 734.842446 198.322524 
" clip-path="url(#p825a799af9)" style="fill: none; stroke: #66c2a5; stroke-width: 3"/>
    <path d="M 734.967869 261.702561 
L 734.967869 216.942669 
" clip-path="url(#p825a799af9)" style="fill: none; stroke: #66c2a5; stroke-width: 3"/>
    <path d="M 735.093293 260.821155 
L 735.093293 175.119639 
" clip-path="url(#p825a799af9)" style="fill: none; stroke: #66c2a5; stroke-width: 3"/>
    <path d="M 735.218716 267.666199 
L 735.218716 238.366912 
" clip-path="url(#p825a799af9)" style="fill: none; stroke: #66c2a5; stroke-width: 3"/>
    <path d="M 860.26585 228.825771 
L 860.26585 171.390722 
" clip-path="url(#p825a799af9)" style="fill: none; stroke: #66c2a5; stroke-width: 3"/>
    <path d="M 985.689255 249.875224 
L 985.689255 204.396681 
" clip-path="url(#p825a799af9)" style="fill: none; stroke: #66c2a5; stroke-width: 3"/>
    <path d="M 1111.112659 266.352261 
L 1111.112659 252.216152 
" clip-path="url(#p825a799af9)" style="fill: none; stroke: #66c2a5; stroke-width: 3"/>
   </g>
   <g id="line2d_15">
    <defs>
     <path id="m4a55bb9ab4" d="M 10 0 
L -10 -0 
" style="stroke: #66c2a5"/>
    </defs>
    <g clip-path="url(#p825a799af9)">
     <use xlink:href="#m4a55bb9ab4" x="233.148828" y="228.827494" style="fill: #66c2a5; stroke: #66c2a5"/>
     <use xlink:href="#m4a55bb9ab4" x="358.572232" y="247.523073" style="fill: #66c2a5; stroke: #66c2a5"/>
     <use xlink:href="#m4a55bb9ab4" x="358.697656" y="245.500169" style="fill: #66c2a5; stroke: #66c2a5"/>
     <use xlink:href="#m4a55bb9ab4" x="358.823079" y="246.193524" style="fill: #66c2a5; stroke: #66c2a5"/>
     <use xlink:href="#m4a55bb9ab4" x="358.948503" y="268.418182" style="fill: #66c2a5; stroke: #66c2a5"/>
     <use xlink:href="#m4a55bb9ab4" x="359.073926" y="227.561425" style="fill: #66c2a5; stroke: #66c2a5"/>
     <use xlink:href="#m4a55bb9ab4" x="359.199349" y="266.986249" style="fill: #66c2a5; stroke: #66c2a5"/>
     <use xlink:href="#m4a55bb9ab4" x="483.995637" y="189.53112" style="fill: #66c2a5; stroke: #66c2a5"/>
     <use xlink:href="#m4a55bb9ab4" x="609.419041" y="237.466751" style="fill: #66c2a5; stroke: #66c2a5"/>
     <use xlink:href="#m4a55bb9ab4" x="734.842446" y="253.116224" style="fill: #66c2a5; stroke: #66c2a5"/>
     <use xlink:href="#m4a55bb9ab4" x="734.967869" y="261.702561" style="fill: #66c2a5; stroke: #66c2a5"/>
     <use xlink:href="#m4a55bb9ab4" x="735.093293" y="260.821155" style="fill: #66c2a5; stroke: #66c2a5"/>
     <use xlink:href="#m4a55bb9ab4" x="735.218716" y="267.666199" style="fill: #66c2a5; stroke: #66c2a5"/>
     <use xlink:href="#m4a55bb9ab4" x="860.26585" y="228.825771" style="fill: #66c2a5; stroke: #66c2a5"/>
     <use xlink:href="#m4a55bb9ab4" x="985.689255" y="249.875224" style="fill: #66c2a5; stroke: #66c2a5"/>
     <use xlink:href="#m4a55bb9ab4" x="1111.112659" y="266.352261" style="fill: #66c2a5; stroke: #66c2a5"/>
    </g>
   </g>
   <g id="line2d_16">
    <g clip-path="url(#p825a799af9)">
     <use xlink:href="#m4a55bb9ab4" x="233.148828" y="186.629536" style="fill: #66c2a5; stroke: #66c2a5"/>
     <use xlink:href="#m4a55bb9ab4" x="358.572232" y="225.556504" style="fill: #66c2a5; stroke: #66c2a5"/>
     <use xlink:href="#m4a55bb9ab4" x="358.697656" y="215.665366" style="fill: #66c2a5; stroke: #66c2a5"/>
     <use xlink:href="#m4a55bb9ab4" x="358.823079" y="219.592405" style="fill: #66c2a5; stroke: #66c2a5"/>
     <use xlink:href="#m4a55bb9ab4" x="358.948503" y="200.233996" style="fill: #66c2a5; stroke: #66c2a5"/>
     <use xlink:href="#m4a55bb9ab4" x="359.073926" y="194.454226" style="fill: #66c2a5; stroke: #66c2a5"/>
     <use xlink:href="#m4a55bb9ab4" x="359.199349" y="208.774446" style="fill: #66c2a5; stroke: #66c2a5"/>
     <use xlink:href="#m4a55bb9ab4" x="483.995637" y="60.781818" style="fill: #66c2a5; stroke: #66c2a5"/>
     <use xlink:href="#m4a55bb9ab4" x="609.419041" y="200.069397" style="fill: #66c2a5; stroke: #66c2a5"/>
     <use xlink:href="#m4a55bb9ab4" x="734.842446" y="198.322524" style="fill: #66c2a5; stroke: #66c2a5"/>
     <use xlink:href="#m4a55bb9ab4" x="734.967869" y="216.942669" style="fill: #66c2a5; stroke: #66c2a5"/>
     <use xlink:href="#m4a55bb9ab4" x="735.093293" y="175.119639" style="fill: #66c2a5; stroke: #66c2a5"/>
     <use xlink:href="#m4a55bb9ab4" x="735.218716" y="238.366912" style="fill: #66c2a5; stroke: #66c2a5"/>
     <use xlink:href="#m4a55bb9ab4" x="860.26585" y="171.390722" style="fill: #66c2a5; stroke: #66c2a5"/>
     <use xlink:href="#m4a55bb9ab4" x="985.689255" y="204.396681" style="fill: #66c2a5; stroke: #66c2a5"/>
     <use xlink:href="#m4a55bb9ab4" x="1111.112659" y="252.216152" style="fill: #66c2a5; stroke: #66c2a5"/>
    </g>
   </g>
   <g id="LineCollection_2">
    <path d="M 1236.536064 232.780906 
L 1236.536064 196.571384 
" clip-path="url(#p825a799af9)" style="fill: none; stroke: #fc8d62; stroke-width: 3"/>
    <path d="M 1236.661487 230.286396 
L 1236.661487 206.435037 
" clip-path="url(#p825a799af9)" style="fill: none; stroke: #fc8d62; stroke-width: 3"/>
    <path d="M 1236.78691 228.529723 
L 1236.78691 209.2046 
" clip-path="url(#p825a799af9)" style="fill: none; stroke: #fc8d62; stroke-width: 3"/>
    <path d="M 1236.912334 228.565099 
L 1236.912334 203.220853 
" clip-path="url(#p825a799af9)" style="fill: none; stroke: #fc8d62; stroke-width: 3"/>
    <path d="M 1237.037757 228.117081 
L 1237.037757 203.776871 
" clip-path="url(#p825a799af9)" style="fill: none; stroke: #fc8d62; stroke-width: 3"/>
    <path d="M 1237.163181 225.579298 
L 1237.163181 205.171744 
" clip-path="url(#p825a799af9)" style="fill: none; stroke: #fc8d62; stroke-width: 3"/>
    <path d="M 1237.288604 226.03144 
L 1237.288604 211.600126 
" clip-path="url(#p825a799af9)" style="fill: none; stroke: #fc8d62; stroke-width: 3"/>
    <path d="M 1237.414027 232.653182 
L 1237.414027 192.654624 
" clip-path="url(#p825a799af9)" style="fill: none; stroke: #fc8d62; stroke-width: 3"/>
    <path d="M 1237.539451 224.146463 
L 1237.539451 190.99286 
" clip-path="url(#p825a799af9)" style="fill: none; stroke: #fc8d62; stroke-width: 3"/>
    <path d="M 1237.664874 224.493839 
L 1237.664874 197.900335 
" clip-path="url(#p825a799af9)" style="fill: none; stroke: #fc8d62; stroke-width: 3"/>
    <path d="M 1237.790298 245.771465 
L 1237.790298 211.057831 
" clip-path="url(#p825a799af9)" style="fill: none; stroke: #fc8d62; stroke-width: 3"/>
    <path d="M 1237.915721 207.861863 
L 1237.915721 177.908886 
" clip-path="url(#p825a799af9)" style="fill: none; stroke: #fc8d62; stroke-width: 3"/>
    <path d="M 1238.041144 226.939354 
L 1238.041144 198.924442 
" clip-path="url(#p825a799af9)" style="fill: none; stroke: #fc8d62; stroke-width: 3"/>
    <path d="M 1238.166568 225.142255 
L 1238.166568 198.661158 
" clip-path="url(#p825a799af9)" style="fill: none; stroke: #fc8d62; stroke-width: 3"/>
    <path d="M 1238.291991 236.849417 
L 1238.291991 195.197097 
" clip-path="url(#p825a799af9)" style="fill: none; stroke: #fc8d62; stroke-width: 3"/>
    <path d="M 1238.417415 236.513303 
L 1238.417415 184.766273 
" clip-path="url(#p825a799af9)" style="fill: none; stroke: #fc8d62; stroke-width: 3"/>
    <path d="M 1238.542838 237.406263 
L 1238.542838 187.175167 
" clip-path="url(#p825a799af9)" style="fill: none; stroke: #fc8d62; stroke-width: 3"/>
    <path d="M 1238.668261 233.378611 
L 1238.668261 193.909102 
" clip-path="url(#p825a799af9)" style="fill: none; stroke: #fc8d62; stroke-width: 3"/>
    <path d="M 1238.793685 215.495784 
L 1238.793685 182.82652 
" clip-path="url(#p825a799af9)" style="fill: none; stroke: #fc8d62; stroke-width: 3"/>
    <path d="M 1238.919108 241.043007 
L 1238.919108 190.833119 
" clip-path="url(#p825a799af9)" style="fill: none; stroke: #fc8d62; stroke-width: 3"/>
    <path d="M 1239.044532 239.512627 
L 1239.044532 197.944881 
" clip-path="url(#p825a799af9)" style="fill: none; stroke: #fc8d62; stroke-width: 3"/>
    <path d="M 1239.169955 234.699478 
L 1239.169955 209.010477 
" clip-path="url(#p825a799af9)" style="fill: none; stroke: #fc8d62; stroke-width: 3"/>
    <path d="M 1239.295378 226.397353 
L 1239.295378 155.513718 
" clip-path="url(#p825a799af9)" style="fill: none; stroke: #fc8d62; stroke-width: 3"/>
    <path d="M 1239.420802 227.369421 
L 1239.420802 159.0682 
" clip-path="url(#p825a799af9)" style="fill: none; stroke: #fc8d62; stroke-width: 3"/>
    <path d="M 1239.546225 186.872696 
L 1239.546225 150.533071 
" clip-path="url(#p825a799af9)" style="fill: none; stroke: #fc8d62; stroke-width: 3"/>
    <path d="M 1239.671649 190.476025 
L 1239.671649 149.340336 
" clip-path="url(#p825a799af9)" style="fill: none; stroke: #fc8d62; stroke-width: 3"/>
    <path d="M 1239.797072 235.538403 
L 1239.797072 207.314895 
" clip-path="url(#p825a799af9)" style="fill: none; stroke: #fc8d62; stroke-width: 3"/>
    <path d="M 1239.922495 233.732127 
L 1239.922495 210.758992 
" clip-path="url(#p825a799af9)" style="fill: none; stroke: #fc8d62; stroke-width: 3"/>
    <path d="M 1240.047919 209.077911 
L 1240.047919 184.143767 
" clip-path="url(#p825a799af9)" style="fill: none; stroke: #fc8d62; stroke-width: 3"/>
    <path d="M 1240.173342 208.661268 
L 1240.173342 180.124036 
" clip-path="url(#p825a799af9)" style="fill: none; stroke: #fc8d62; stroke-width: 3"/>
    <path d="M 1240.298766 232.24365 
L 1240.298766 195.235946 
" clip-path="url(#p825a799af9)" style="fill: none; stroke: #fc8d62; stroke-width: 3"/>
    <path d="M 1240.424189 233.612979 
L 1240.424189 201.863836 
" clip-path="url(#p825a799af9)" style="fill: none; stroke: #fc8d62; stroke-width: 3"/>
    <path d="M 1240.549612 251.517707 
L 1240.549612 186.074014 
" clip-path="url(#p825a799af9)" style="fill: none; stroke: #fc8d62; stroke-width: 3"/>
    <path d="M 1240.675036 254.676026 
L 1240.675036 187.971758 
" clip-path="url(#p825a799af9)" style="fill: none; stroke: #fc8d62; stroke-width: 3"/>
    <path d="M 1240.800459 209.791551 
L 1240.800459 178.570142 
" clip-path="url(#p825a799af9)" style="fill: none; stroke: #fc8d62; stroke-width: 3"/>
    <path d="M 1240.925883 209.969884 
L 1240.925883 123.576205 
" clip-path="url(#p825a799af9)" style="fill: none; stroke: #fc8d62; stroke-width: 3"/>
    <path d="M 1241.051306 239.405239 
L 1241.051306 217.344367 
" clip-path="url(#p825a799af9)" style="fill: none; stroke: #fc8d62; stroke-width: 3"/>
    <path d="M 1241.176729 235.578204 
L 1241.176729 217.733237 
" clip-path="url(#p825a799af9)" style="fill: none; stroke: #fc8d62; stroke-width: 3"/>
   </g>
   <g id="line2d_17">
    <defs>
     <path id="mc046f35550" d="M 10 0 
L -10 -0 
" style="stroke: #fc8d62"/>
    </defs>
    <g clip-path="url(#p825a799af9)">
     <use xlink:href="#mc046f35550" x="1236.536064" y="232.780906" style="fill: #fc8d62; stroke: #fc8d62"/>
     <use xlink:href="#mc046f35550" x="1236.661487" y="230.286396" style="fill: #fc8d62; stroke: #fc8d62"/>
     <use xlink:href="#mc046f35550" x="1236.78691" y="228.529723" style="fill: #fc8d62; stroke: #fc8d62"/>
     <use xlink:href="#mc046f35550" x="1236.912334" y="228.565099" style="fill: #fc8d62; stroke: #fc8d62"/>
     <use xlink:href="#mc046f35550" x="1237.037757" y="228.117081" style="fill: #fc8d62; stroke: #fc8d62"/>
     <use xlink:href="#mc046f35550" x="1237.163181" y="225.579298" style="fill: #fc8d62; stroke: #fc8d62"/>
     <use xlink:href="#mc046f35550" x="1237.288604" y="226.03144" style="fill: #fc8d62; stroke: #fc8d62"/>
     <use xlink:href="#mc046f35550" x="1237.414027" y="232.653182" style="fill: #fc8d62; stroke: #fc8d62"/>
     <use xlink:href="#mc046f35550" x="1237.539451" y="224.146463" style="fill: #fc8d62; stroke: #fc8d62"/>
     <use xlink:href="#mc046f35550" x="1237.664874" y="224.493839" style="fill: #fc8d62; stroke: #fc8d62"/>
     <use xlink:href="#mc046f35550" x="1237.790298" y="245.771465" style="fill: #fc8d62; stroke: #fc8d62"/>
     <use xlink:href="#mc046f35550" x="1237.915721" y="207.861863" style="fill: #fc8d62; stroke: #fc8d62"/>
     <use xlink:href="#mc046f35550" x="1238.041144" y="226.939354" style="fill: #fc8d62; stroke: #fc8d62"/>
     <use xlink:href="#mc046f35550" x="1238.166568" y="225.142255" style="fill: #fc8d62; stroke: #fc8d62"/>
     <use xlink:href="#mc046f35550" x="1238.291991" y="236.849417" style="fill: #fc8d62; stroke: #fc8d62"/>
     <use xlink:href="#mc046f35550" x="1238.417415" y="236.513303" style="fill: #fc8d62; stroke: #fc8d62"/>
     <use xlink:href="#mc046f35550" x="1238.542838" y="237.406263" style="fill: #fc8d62; stroke: #fc8d62"/>
     <use xlink:href="#mc046f35550" x="1238.668261" y="233.378611" style="fill: #fc8d62; stroke: #fc8d62"/>
     <use xlink:href="#mc046f35550" x="1238.793685" y="215.495784" style="fill: #fc8d62; stroke: #fc8d62"/>
     <use xlink:href="#mc046f35550" x="1238.919108" y="241.043007" style="fill: #fc8d62; stroke: #fc8d62"/>
     <use xlink:href="#mc046f35550" x="1239.044532" y="239.512627" style="fill: #fc8d62; stroke: #fc8d62"/>
     <use xlink:href="#mc046f35550" x="1239.169955" y="234.699478" style="fill: #fc8d62; stroke: #fc8d62"/>
     <use xlink:href="#mc046f35550" x="1239.295378" y="226.397353" style="fill: #fc8d62; stroke: #fc8d62"/>
     <use xlink:href="#mc046f35550" x="1239.420802" y="227.369421" style="fill: #fc8d62; stroke: #fc8d62"/>
     <use xlink:href="#mc046f35550" x="1239.546225" y="186.872696" style="fill: #fc8d62; stroke: #fc8d62"/>
     <use xlink:href="#mc046f35550" x="1239.671649" y="190.476025" style="fill: #fc8d62; stroke: #fc8d62"/>
     <use xlink:href="#mc046f35550" x="1239.797072" y="235.538403" style="fill: #fc8d62; stroke: #fc8d62"/>
     <use xlink:href="#mc046f35550" x="1239.922495" y="233.732127" style="fill: #fc8d62; stroke: #fc8d62"/>
     <use xlink:href="#mc046f35550" x="1240.047919" y="209.077911" style="fill: #fc8d62; stroke: #fc8d62"/>
     <use xlink:href="#mc046f35550" x="1240.173342" y="208.661268" style="fill: #fc8d62; stroke: #fc8d62"/>
     <use xlink:href="#mc046f35550" x="1240.298766" y="232.24365" style="fill: #fc8d62; stroke: #fc8d62"/>
     <use xlink:href="#mc046f35550" x="1240.424189" y="233.612979" style="fill: #fc8d62; stroke: #fc8d62"/>
     <use xlink:href="#mc046f35550" x="1240.549612" y="251.517707" style="fill: #fc8d62; stroke: #fc8d62"/>
     <use xlink:href="#mc046f35550" x="1240.675036" y="254.676026" style="fill: #fc8d62; stroke: #fc8d62"/>
     <use xlink:href="#mc046f35550" x="1240.800459" y="209.791551" style="fill: #fc8d62; stroke: #fc8d62"/>
     <use xlink:href="#mc046f35550" x="1240.925883" y="209.969884" style="fill: #fc8d62; stroke: #fc8d62"/>
     <use xlink:href="#mc046f35550" x="1241.051306" y="239.405239" style="fill: #fc8d62; stroke: #fc8d62"/>
     <use xlink:href="#mc046f35550" x="1241.176729" y="235.578204" style="fill: #fc8d62; stroke: #fc8d62"/>
    </g>
   </g>
   <g id="line2d_18">
    <g clip-path="url(#p825a799af9)">
     <use xlink:href="#mc046f35550" x="1236.536064" y="196.571384" style="fill: #fc8d62; stroke: #fc8d62"/>
     <use xlink:href="#mc046f35550" x="1236.661487" y="206.435037" style="fill: #fc8d62; stroke: #fc8d62"/>
     <use xlink:href="#mc046f35550" x="1236.78691" y="209.2046" style="fill: #fc8d62; stroke: #fc8d62"/>
     <use xlink:href="#mc046f35550" x="1236.912334" y="203.220853" style="fill: #fc8d62; stroke: #fc8d62"/>
     <use xlink:href="#mc046f35550" x="1237.037757" y="203.776871" style="fill: #fc8d62; stroke: #fc8d62"/>
     <use xlink:href="#mc046f35550" x="1237.163181" y="205.171744" style="fill: #fc8d62; stroke: #fc8d62"/>
     <use xlink:href="#mc046f35550" x="1237.288604" y="211.600126" style="fill: #fc8d62; stroke: #fc8d62"/>
     <use xlink:href="#mc046f35550" x="1237.414027" y="192.654624" style="fill: #fc8d62; stroke: #fc8d62"/>
     <use xlink:href="#mc046f35550" x="1237.539451" y="190.99286" style="fill: #fc8d62; stroke: #fc8d62"/>
     <use xlink:href="#mc046f35550" x="1237.664874" y="197.900335" style="fill: #fc8d62; stroke: #fc8d62"/>
     <use xlink:href="#mc046f35550" x="1237.790298" y="211.057831" style="fill: #fc8d62; stroke: #fc8d62"/>
     <use xlink:href="#mc046f35550" x="1237.915721" y="177.908886" style="fill: #fc8d62; stroke: #fc8d62"/>
     <use xlink:href="#mc046f35550" x="1238.041144" y="198.924442" style="fill: #fc8d62; stroke: #fc8d62"/>
     <use xlink:href="#mc046f35550" x="1238.166568" y="198.661158" style="fill: #fc8d62; stroke: #fc8d62"/>
     <use xlink:href="#mc046f35550" x="1238.291991" y="195.197097" style="fill: #fc8d62; stroke: #fc8d62"/>
     <use xlink:href="#mc046f35550" x="1238.417415" y="184.766273" style="fill: #fc8d62; stroke: #fc8d62"/>
     <use xlink:href="#mc046f35550" x="1238.542838" y="187.175167" style="fill: #fc8d62; stroke: #fc8d62"/>
     <use xlink:href="#mc046f35550" x="1238.668261" y="193.909102" style="fill: #fc8d62; stroke: #fc8d62"/>
     <use xlink:href="#mc046f35550" x="1238.793685" y="182.82652" style="fill: #fc8d62; stroke: #fc8d62"/>
     <use xlink:href="#mc046f35550" x="1238.919108" y="190.833119" style="fill: #fc8d62; stroke: #fc8d62"/>
     <use xlink:href="#mc046f35550" x="1239.044532" y="197.944881" style="fill: #fc8d62; stroke: #fc8d62"/>
     <use xlink:href="#mc046f35550" x="1239.169955" y="209.010477" style="fill: #fc8d62; stroke: #fc8d62"/>
     <use xlink:href="#mc046f35550" x="1239.295378" y="155.513718" style="fill: #fc8d62; stroke: #fc8d62"/>
     <use xlink:href="#mc046f35550" x="1239.420802" y="159.0682" style="fill: #fc8d62; stroke: #fc8d62"/>
     <use xlink:href="#mc046f35550" x="1239.546225" y="150.533071" style="fill: #fc8d62; stroke: #fc8d62"/>
     <use xlink:href="#mc046f35550" x="1239.671649" y="149.340336" style="fill: #fc8d62; stroke: #fc8d62"/>
     <use xlink:href="#mc046f35550" x="1239.797072" y="207.314895" style="fill: #fc8d62; stroke: #fc8d62"/>
     <use xlink:href="#mc046f35550" x="1239.922495" y="210.758992" style="fill: #fc8d62; stroke: #fc8d62"/>
     <use xlink:href="#mc046f35550" x="1240.047919" y="184.143767" style="fill: #fc8d62; stroke: #fc8d62"/>
     <use xlink:href="#mc046f35550" x="1240.173342" y="180.124036" style="fill: #fc8d62; stroke: #fc8d62"/>
     <use xlink:href="#mc046f35550" x="1240.298766" y="195.235946" style="fill: #fc8d62; stroke: #fc8d62"/>
     <use xlink:href="#mc046f35550" x="1240.424189" y="201.863836" style="fill: #fc8d62; stroke: #fc8d62"/>
     <use xlink:href="#mc046f35550" x="1240.549612" y="186.074014" style="fill: #fc8d62; stroke: #fc8d62"/>
     <use xlink:href="#mc046f35550" x="1240.675036" y="187.971758" style="fill: #fc8d62; stroke: #fc8d62"/>
     <use xlink:href="#mc046f35550" x="1240.800459" y="178.570142" style="fill: #fc8d62; stroke: #fc8d62"/>
     <use xlink:href="#mc046f35550" x="1240.925883" y="123.576205" style="fill: #fc8d62; stroke: #fc8d62"/>
     <use xlink:href="#mc046f35550" x="1241.051306" y="217.344367" style="fill: #fc8d62; stroke: #fc8d62"/>
     <use xlink:href="#mc046f35550" x="1241.176729" y="217.733237" style="fill: #fc8d62; stroke: #fc8d62"/>
    </g>
   </g>
   <g id="LineCollection_3">
    <path d="M 1361.959468 253.761599 
L 1361.959468 213.614965 
" clip-path="url(#p825a799af9)" style="fill: none; stroke: #66c2a5; stroke-width: 3"/>
   </g>
   <g id="line2d_19">
    <g clip-path="url(#p825a799af9)">
     <use xlink:href="#m4a55bb9ab4" x="1361.959468" y="253.761599" style="fill: #66c2a5; stroke: #66c2a5"/>
    </g>
   </g>
   <g id="line2d_20">
    <g clip-path="url(#p825a799af9)">
     <use xlink:href="#m4a55bb9ab4" x="1361.959468" y="213.614965" style="fill: #66c2a5; stroke: #66c2a5"/>
    </g>
   </g>
   <g id="line2d_21">
    <defs>
     <path id="m7cf983d774" d="M 0 5 
C 1.326016 5 2.597899 4.473168 3.535534 3.535534 
C 4.473168 2.597899 5 1.326016 5 0 
C 5 -1.326016 4.473168 -2.597899 3.535534 -3.535534 
C 2.597899 -4.473168 1.326016 -5 0 -5 
C -1.326016 -5 -2.597899 -4.473168 -3.535534 -3.535534 
C -4.473168 -2.597899 -5 -1.326016 -5 0 
C -5 1.326016 -4.473168 2.597899 -3.535534 3.535534 
C -2.597899 4.473168 -1.326016 5 0 5 
z
" style="stroke: #66c2a5"/>
    </defs>
    <g clip-path="url(#p825a799af9)">
     <use xlink:href="#m7cf983d774" x="233.148828" y="207.728515" style="fill: #66c2a5; stroke: #66c2a5"/>
     <use xlink:href="#m7cf983d774" x="358.572232" y="236.539789" style="fill: #66c2a5; stroke: #66c2a5"/>
     <use xlink:href="#m7cf983d774" x="358.697656" y="230.582767" style="fill: #66c2a5; stroke: #66c2a5"/>
     <use xlink:href="#m7cf983d774" x="358.823079" y="232.892964" style="fill: #66c2a5; stroke: #66c2a5"/>
     <use xlink:href="#m7cf983d774" x="358.948503" y="234.326089" style="fill: #66c2a5; stroke: #66c2a5"/>
     <use xlink:href="#m7cf983d774" x="359.073926" y="211.007826" style="fill: #66c2a5; stroke: #66c2a5"/>
     <use xlink:href="#m7cf983d774" x="359.199349" y="237.880348" style="fill: #66c2a5; stroke: #66c2a5"/>
     <use xlink:href="#m7cf983d774" x="483.995637" y="125.156469" style="fill: #66c2a5; stroke: #66c2a5"/>
     <use xlink:href="#m7cf983d774" x="609.419041" y="218.768074" style="fill: #66c2a5; stroke: #66c2a5"/>
     <use xlink:href="#m7cf983d774" x="734.842446" y="225.719374" style="fill: #66c2a5; stroke: #66c2a5"/>
     <use xlink:href="#m7cf983d774" x="734.967869" y="239.322615" style="fill: #66c2a5; stroke: #66c2a5"/>
     <use xlink:href="#m7cf983d774" x="735.093293" y="217.970397" style="fill: #66c2a5; stroke: #66c2a5"/>
     <use xlink:href="#m7cf983d774" x="735.218716" y="253.016555" style="fill: #66c2a5; stroke: #66c2a5"/>
     <use xlink:href="#m7cf983d774" x="860.26585" y="200.108246" style="fill: #66c2a5; stroke: #66c2a5"/>
     <use xlink:href="#m7cf983d774" x="985.689255" y="227.135952" style="fill: #66c2a5; stroke: #66c2a5"/>
     <use xlink:href="#m7cf983d774" x="1111.112659" y="259.284206" style="fill: #66c2a5; stroke: #66c2a5"/>
    </g>
   </g>
   <g id="line2d_22">
    <defs>
     <path id="m3e6b627be5" d="M 0 5 
C 1.326016 5 2.597899 4.473168 3.535534 3.535534 
C 4.473168 2.597899 5 1.326016 5 0 
C 5 -1.326016 4.473168 -2.597899 3.535534 -3.535534 
C 2.597899 -4.473168 1.326016 -5 0 -5 
C -1.326016 -5 -2.597899 -4.473168 -3.535534 -3.535534 
C -4.473168 -2.597899 -5 -1.326016 -5 0 
C -5 1.326016 -4.473168 2.597899 -3.535534 3.535534 
C -2.597899 4.473168 -1.326016 5 0 5 
z
" style="stroke: #fc8d62"/>
    </defs>
    <g clip-path="url(#p825a799af9)">
     <use xlink:href="#m3e6b627be5" x="1236.536064" y="214.676145" style="fill: #fc8d62; stroke: #fc8d62"/>
     <use xlink:href="#m3e6b627be5" x="1236.661487" y="218.360716" style="fill: #fc8d62; stroke: #fc8d62"/>
     <use xlink:href="#m3e6b627be5" x="1236.78691" y="218.867161" style="fill: #fc8d62; stroke: #fc8d62"/>
     <use xlink:href="#m3e6b627be5" x="1236.912334" y="215.892976" style="fill: #fc8d62; stroke: #fc8d62"/>
     <use xlink:href="#m3e6b627be5" x="1237.037757" y="215.946976" style="fill: #fc8d62; stroke: #fc8d62"/>
     <use xlink:href="#m3e6b627be5" x="1237.163181" y="215.375521" style="fill: #fc8d62; stroke: #fc8d62"/>
     <use xlink:href="#m3e6b627be5" x="1237.288604" y="218.815783" style="fill: #fc8d62; stroke: #fc8d62"/>
     <use xlink:href="#m3e6b627be5" x="1237.414027" y="212.653903" style="fill: #fc8d62; stroke: #fc8d62"/>
     <use xlink:href="#m3e6b627be5" x="1237.539451" y="207.569661" style="fill: #fc8d62; stroke: #fc8d62"/>
     <use xlink:href="#m3e6b627be5" x="1237.664874" y="211.197087" style="fill: #fc8d62; stroke: #fc8d62"/>
     <use xlink:href="#m3e6b627be5" x="1237.790298" y="228.414648" style="fill: #fc8d62; stroke: #fc8d62"/>
     <use xlink:href="#m3e6b627be5" x="1237.915721" y="192.885375" style="fill: #fc8d62; stroke: #fc8d62"/>
     <use xlink:href="#m3e6b627be5" x="1238.041144" y="212.931898" style="fill: #fc8d62; stroke: #fc8d62"/>
     <use xlink:href="#m3e6b627be5" x="1238.166568" y="211.901706" style="fill: #fc8d62; stroke: #fc8d62"/>
     <use xlink:href="#m3e6b627be5" x="1238.291991" y="216.023257" style="fill: #fc8d62; stroke: #fc8d62"/>
     <use xlink:href="#m3e6b627be5" x="1238.417415" y="210.639788" style="fill: #fc8d62; stroke: #fc8d62"/>
     <use xlink:href="#m3e6b627be5" x="1238.542838" y="212.290715" style="fill: #fc8d62; stroke: #fc8d62"/>
     <use xlink:href="#m3e6b627be5" x="1238.668261" y="213.643857" style="fill: #fc8d62; stroke: #fc8d62"/>
     <use xlink:href="#m3e6b627be5" x="1238.793685" y="199.161152" style="fill: #fc8d62; stroke: #fc8d62"/>
     <use xlink:href="#m3e6b627be5" x="1238.919108" y="215.938063" style="fill: #fc8d62; stroke: #fc8d62"/>
     <use xlink:href="#m3e6b627be5" x="1239.044532" y="218.728754" style="fill: #fc8d62; stroke: #fc8d62"/>
     <use xlink:href="#m3e6b627be5" x="1239.169955" y="221.854978" style="fill: #fc8d62; stroke: #fc8d62"/>
     <use xlink:href="#m3e6b627be5" x="1239.295378" y="190.955536" style="fill: #fc8d62; stroke: #fc8d62"/>
     <use xlink:href="#m3e6b627be5" x="1239.420802" y="193.218811" style="fill: #fc8d62; stroke: #fc8d62"/>
     <use xlink:href="#m3e6b627be5" x="1239.546225" y="168.702883" style="fill: #fc8d62; stroke: #fc8d62"/>
     <use xlink:href="#m3e6b627be5" x="1239.671649" y="169.908181" style="fill: #fc8d62; stroke: #fc8d62"/>
     <use xlink:href="#m3e6b627be5" x="1239.797072" y="221.426649" style="fill: #fc8d62; stroke: #fc8d62"/>
     <use xlink:href="#m3e6b627be5" x="1239.922495" y="222.245559" style="fill: #fc8d62; stroke: #fc8d62"/>
     <use xlink:href="#m3e6b627be5" x="1240.047919" y="196.610839" style="fill: #fc8d62; stroke: #fc8d62"/>
     <use xlink:href="#m3e6b627be5" x="1240.173342" y="194.392652" style="fill: #fc8d62; stroke: #fc8d62"/>
     <use xlink:href="#m3e6b627be5" x="1240.298766" y="213.739798" style="fill: #fc8d62; stroke: #fc8d62"/>
     <use xlink:href="#m3e6b627be5" x="1240.424189" y="217.738408" style="fill: #fc8d62; stroke: #fc8d62"/>
     <use xlink:href="#m3e6b627be5" x="1240.549612" y="218.795861" style="fill: #fc8d62; stroke: #fc8d62"/>
     <use xlink:href="#m3e6b627be5" x="1240.675036" y="221.323892" style="fill: #fc8d62; stroke: #fc8d62"/>
     <use xlink:href="#m3e6b627be5" x="1240.800459" y="194.180847" style="fill: #fc8d62; stroke: #fc8d62"/>
     <use xlink:href="#m3e6b627be5" x="1240.925883" y="166.773045" style="fill: #fc8d62; stroke: #fc8d62"/>
     <use xlink:href="#m3e6b627be5" x="1241.051306" y="228.374803" style="fill: #fc8d62; stroke: #fc8d62"/>
     <use xlink:href="#m3e6b627be5" x="1241.176729" y="226.655721" style="fill: #fc8d62; stroke: #fc8d62"/>
    </g>
   </g>
   <g id="line2d_23">
    <g clip-path="url(#p825a799af9)">
     <use xlink:href="#m7cf983d774" x="1361.959468" y="233.688282" style="fill: #66c2a5; stroke: #66c2a5"/>
    </g>
   </g>
   <g id="patch_3">
    <path d="M 107.6 278.8 
L 107.6 50.4 
" style="fill: none; stroke: #000000; stroke-width: 4; stroke-linejoin: miter; stroke-linecap: square"/>
   </g>
   <g id="patch_4">
    <path d="M 1418.4 278.8 
L 1418.4 50.4 
" style="fill: none; stroke: #000000; stroke-width: 4; stroke-linejoin: miter; stroke-linecap: square"/>
   </g>
   <g id="patch_5">
    <path d="M 107.6 278.8 
L 1418.4 278.8 
" style="fill: none; stroke: #000000; stroke-width: 4; stroke-linejoin: miter; stroke-linecap: square"/>
   </g>
   <g id="patch_6">
    <path d="M 107.6 50.4 
L 1418.4 50.4 
" style="fill: none; stroke: #000000; stroke-width: 4; stroke-linejoin: miter; stroke-linecap: square"/>
   </g>
   <g id="text_17">
    <!-- Cortical GM -->
    <g transform="translate(681.67 43.455) scale(0.32 -0.32)">
     <defs>
      <path id="STIXGeneral-Regular-43" d="M 3930 838 
L 4051 723 
Q 3482 -90 2304 -90 
Q 1376 -90 794 480 
Q 179 1082 179 2080 
Q 179 3014 755 3661 
Q 1357 4326 2310 4326 
Q 2720 4326 3072 4230 
Q 3475 4115 3514 4115 
Q 3725 4115 3782 4326 
L 3910 4326 
L 3968 2874 
L 3821 2874 
Q 3718 3334 3488 3584 
Q 3034 4070 2458 4070 
Q 1747 4070 1334 3548 
Q 922 3027 922 2182 
Q 922 1152 1382 653 
Q 1811 192 2522 192 
Q 2944 192 3251 339 
Q 3558 486 3930 838 
z
" transform="scale(0.015625)"/>
      <path id="STIXGeneral-Regular-6f" d="M 3008 1478 
Q 3008 806 2608 371 
Q 2208 -64 1568 -64 
Q 979 -64 582 368 
Q 186 800 186 1459 
Q 186 2125 582 2534 
Q 979 2944 1626 2944 
Q 2221 2944 2614 2537 
Q 3008 2131 3008 1478 
z
M 2432 1306 
Q 2432 2035 2112 2445 
Q 1856 2765 1504 2765 
Q 1171 2765 966 2493 
Q 762 2221 762 1747 
Q 762 928 1101 435 
Q 1318 115 1677 115 
Q 2029 115 2230 432 
Q 2432 749 2432 1306 
z
" transform="scale(0.015625)"/>
      <path id="STIXGeneral-Regular-72" d="M 1024 2931 
L 1024 2342 
Q 1267 2688 1430 2816 
Q 1594 2944 1792 2944 
Q 1958 2944 2051 2854 
Q 2144 2765 2144 2605 
Q 2144 2470 2077 2393 
Q 2010 2317 1894 2317 
Q 1773 2317 1638 2445 
Q 1536 2541 1472 2541 
Q 1338 2541 1181 2355 
Q 1024 2170 1024 2016 
L 1024 576 
Q 1024 301 1133 205 
Q 1242 109 1568 96 
L 1568 0 
L 32 0 
L 32 96 
Q 339 154 412 224 
Q 486 294 486 538 
L 486 2138 
Q 486 2349 438 2435 
Q 390 2522 269 2522 
Q 166 2522 45 2496 
L 45 2598 
Q 448 2726 992 2944 
L 1024 2931 
z
" transform="scale(0.015625)"/>
      <path id="STIXGeneral-Regular-63" d="M 2547 998 
L 2637 941 
Q 2362 403 2112 205 
Q 1786 -64 1376 -64 
Q 845 -64 502 336 
Q 160 736 160 1357 
Q 160 2170 698 2618 
Q 1094 2944 1562 2944 
Q 1965 2944 2256 2749 
Q 2547 2554 2547 2285 
Q 2547 2176 2457 2096 
Q 2368 2016 2246 2016 
Q 2022 2016 1939 2310 
L 1901 2451 
Q 1850 2630 1773 2694 
Q 1696 2758 1523 2758 
Q 1133 2758 893 2451 
Q 653 2144 653 1645 
Q 653 1094 928 745 
Q 1203 397 1645 397 
Q 1920 397 2118 528 
Q 2317 659 2547 998 
z
" transform="scale(0.015625)"/>
      <path id="STIXGeneral-Regular-61" d="M 2829 422 
L 2829 243 
Q 2586 -64 2253 -64 
Q 1888 -64 1843 403 
L 1837 403 
Q 1427 -64 909 -64 
Q 608 -64 422 112 
Q 237 288 237 602 
Q 237 1050 685 1350 
Q 992 1555 1837 1869 
L 1837 2214 
Q 1837 2502 1699 2646 
Q 1562 2790 1338 2790 
Q 1146 2790 1018 2697 
Q 890 2605 890 2477 
Q 890 2419 909 2348 
Q 928 2278 928 2208 
Q 928 2112 841 2029 
Q 755 1946 634 1946 
Q 525 1946 441 2029 
Q 358 2112 358 2240 
Q 358 2547 685 2752 
Q 986 2944 1421 2944 
Q 1939 2944 2176 2656 
Q 2291 2522 2323 2384 
Q 2355 2246 2355 1946 
L 2355 723 
Q 2355 301 2554 301 
Q 2682 301 2829 422 
z
M 1837 813 
L 1837 1715 
Q 1248 1510 1018 1293 
Q 800 1094 800 800 
Q 800 557 921 432 
Q 1043 307 1242 307 
Q 1453 307 1613 410 
Q 1747 506 1792 589 
Q 1837 672 1837 813 
z
" transform="scale(0.015625)"/>
      <path id="STIXGeneral-Regular-6c" d="M 1645 0 
L 134 0 
L 134 96 
Q 435 122 531 221 
Q 627 320 627 589 
L 627 3590 
Q 627 3821 569 3910 
Q 512 4000 358 4000 
Q 224 4000 122 3987 
L 122 4090 
Q 730 4237 1133 4371 
L 1165 4346 
L 1165 557 
Q 1165 288 1254 201 
Q 1344 115 1645 96 
L 1645 0 
z
" transform="scale(0.015625)"/>
      <path id="STIXGeneral-Regular-47" d="M 4538 2266 
L 4538 2150 
Q 4256 2125 4173 2035 
Q 4090 1946 4090 1638 
L 4090 358 
Q 3539 -90 2464 -90 
Q 1965 -90 1507 89 
Q 1050 269 736 595 
Q 205 1152 205 2093 
Q 205 3155 890 3776 
Q 1491 4326 2419 4326 
Q 2829 4326 3270 4179 
Q 3443 4115 3552 4115 
Q 3654 4115 3731 4176 
Q 3808 4237 3840 4326 
L 3981 4326 
L 4032 2976 
L 3885 2976 
Q 3680 3475 3430 3718 
Q 3059 4070 2496 4070 
Q 1856 4070 1427 3629 
Q 934 3136 934 2074 
Q 934 1190 1395 678 
Q 1856 166 2618 166 
Q 2982 166 3225 281 
Q 3469 397 3469 557 
L 3469 1562 
Q 3469 1933 3376 2025 
Q 3283 2118 2899 2150 
L 2899 2266 
L 4538 2266 
z
" transform="scale(0.015625)"/>
      <path id="STIXGeneral-Regular-4d" d="M 5530 0 
L 3738 0 
L 3738 122 
Q 4115 147 4214 265 
Q 4314 384 4314 787 
L 4314 3661 
L 2682 0 
L 2592 0 
L 979 3514 
L 979 966 
Q 979 448 1088 294 
Q 1197 141 1574 122 
L 1574 0 
L 77 0 
L 77 122 
Q 358 141 480 205 
Q 602 269 650 432 
Q 698 595 698 966 
L 698 3514 
Q 698 3878 589 3984 
Q 480 4090 90 4115 
L 90 4237 
L 1357 4237 
L 2835 1024 
L 4250 4237 
L 5523 4237 
L 5523 4115 
Q 5178 4109 5072 3993 
Q 4966 3878 4966 3520 
L 4966 717 
Q 4966 378 5072 262 
Q 5178 147 5530 122 
L 5530 0 
z
" transform="scale(0.015625)"/>
     </defs>
     <use xlink:href="#STIXGeneral-Regular-43"/>
     <use xlink:href="#STIXGeneral-Regular-6f" x="66.699997"/>
     <use xlink:href="#STIXGeneral-Regular-72" x="116.699982"/>
     <use xlink:href="#STIXGeneral-Regular-74" x="149.999969"/>
     <use xlink:href="#STIXGeneral-Regular-69" x="177.799957"/>
     <use xlink:href="#STIXGeneral-Regular-63" x="205.599945"/>
     <use xlink:href="#STIXGeneral-Regular-61" x="249.999939"/>
     <use xlink:href="#STIXGeneral-Regular-6c" x="294.399933"/>
     <use xlink:href="#STIXGeneral-Regular-20" x="322.199921"/>
     <use xlink:href="#STIXGeneral-Regular-47" x="347.199905"/>
     <use xlink:href="#STIXGeneral-Regular-4d" x="419.399887"/>
    </g>
   </g>
  </g>
 </g>
 <defs>
  <clipPath id="p825a799af9">
   <rect x="107.6" y="50.4" width="1310.8" height="228.4"/>
  </clipPath>
 </defs>
</svg>
