<?xml version="1.0" encoding="utf-8" standalone="no"?>
<!DOCTYPE svg PUBLIC "-//W3C//DTD SVG 1.1//EN"
  "http://www.w3.org/Graphics/SVG/1.1/DTD/svg11.dtd">
<!-- Created with matplotlib (https://matplotlib.org/) -->
<svg height="360pt" version="1.1" viewBox="0 0 1440 360" width="1440pt" xmlns="http://www.w3.org/2000/svg" xmlns:xlink="http://www.w3.org/1999/xlink">
 <metadata>
  <rdf:RDF xmlns:cc="http://creativecommons.org/ns#" xmlns:dc="http://purl.org/dc/elements/1.1/" xmlns:rdf="http://www.w3.org/1999/02/22-rdf-syntax-ns#">
   <cc:Work>
    <dc:type rdf:resource="http://purl.org/dc/dcmitype/StillImage"/>
    <dc:date>2020-07-26T00:47:23.178606</dc:date>
    <dc:format>image/svg+xml</dc:format>
    <dc:creator>
     <cc:Agent>
      <dc:title>Matplotlib v3.3.0, https://matplotlib.org/</dc:title>
     </cc:Agent>
    </dc:creator>
   </cc:Work>
  </rdf:RDF>
 </metadata>
 <defs>
  <style type="text/css">*{stroke-linecap:butt;stroke-linejoin:round;}</style>
 </defs>
 <g id="figure_1">
  <g id="patch_1">
   <path d="M 0 360 
L 1440 360 
L 1440 0 
L 0 0 
z
" style="fill:#ffffff;"/>
  </g>
  <g id="axes_1">
   <g id="patch_2">
    <path d="M 82.6 293.4 
L 1416.6 293.4 
L 1416.6 43.2 
L 82.6 43.2 
z
" style="fill:#ffffff;"/>
   </g>
   <g id="matplotlib.axis_1">
    <g id="xtick_1">
     <g id="line2d_1">
      <defs>
       <path d="M 0 0 
L 0 3.5 
" id="m9b4c56b9e7" style="stroke:#000000;stroke-width:0.8;"/>
      </defs>
      <g>
       <use style="stroke:#000000;stroke-width:0.8;" x="82.6" xlink:href="#m9b4c56b9e7" y="293.4"/>
      </g>
     </g>
     <g id="text_1">
      <!-- 0 -->
      <g transform="translate(86.3275 308.4)rotate(-90)scale(0.16 -0.16)">
       <defs>
        <path d="M 47.59375 33 
Q 47.59375 26.296875 46.296875 20.34375 
Q 45 14.40625 42.453125 9.40625 
Q 39.90625 4.40625 35.40625 1.5 
Q 30.90625 -1.40625 25 -1.40625 
Q 18.90625 -1.40625 14.296875 1.6875 
Q 9.703125 4.796875 7.203125 10 
Q 4.703125 15.203125 3.546875 21.09375 
Q 2.40625 27 2.40625 33.59375 
Q 2.40625 42.90625 4.703125 50.34375 
Q 7 57.796875 12.34375 62.6875 
Q 17.703125 67.59375 25.40625 67.59375 
Q 35.203125 67.59375 41.390625 58 
Q 47.59375 48.40625 47.59375 33 
z
M 38 32.5 
Q 38 48.296875 34.640625 56.640625 
Q 31.296875 65 24.796875 65 
Q 18.59375 65 15.296875 56.59375 
Q 12 48.203125 12 32.90625 
Q 12 17.5 15.296875 9.34375 
Q 18.59375 1.203125 25 1.203125 
Q 31.296875 1.203125 34.640625 9.34375 
Q 38 17.5 38 32.5 
z
" id="STIXGeneral-Regular-48"/>
       </defs>
       <use xlink:href="#STIXGeneral-Regular-48"/>
      </g>
     </g>
    </g>
    <g id="xtick_2">
     <g id="line2d_2">
      <g>
       <use style="stroke:#000000;stroke-width:0.8;" x="216" xlink:href="#m9b4c56b9e7" y="293.4"/>
      </g>
     </g>
     <g id="text_2">
      <!-- 1 -->
      <g transform="translate(219.7275 308.4)rotate(-90)scale(0.16 -0.16)">
       <defs>
        <path d="M 39.40625 0 
L 11.796875 0 
L 11.796875 1.5 
Q 17.296875 1.796875 19.296875 3.546875 
Q 21.296875 5.296875 21.296875 9.5 
L 21.296875 54.40625 
Q 21.296875 59.296875 18.296875 59.296875 
Q 16.90625 59.296875 13.796875 58.09375 
L 11.09375 57.09375 
L 11.09375 58.5 
L 29 67.59375 
L 29.90625 67.296875 
L 29.90625 7.59375 
Q 29.90625 4.296875 31.90625 2.890625 
Q 33.90625 1.5 39.40625 1.5 
z
" id="STIXGeneral-Regular-49"/>
       </defs>
       <use xlink:href="#STIXGeneral-Regular-49"/>
      </g>
     </g>
    </g>
    <g id="xtick_3">
     <g id="line2d_3">
      <g>
       <use style="stroke:#000000;stroke-width:0.8;" x="349.4" xlink:href="#m9b4c56b9e7" y="293.4"/>
      </g>
     </g>
     <g id="text_3">
      <!-- 2 -->
      <g transform="translate(353.1275 308.4)rotate(-90)scale(0.16 -0.16)">
       <defs>
        <path d="M 47.40625 13.703125 
L 42 0 
L 2.90625 0 
L 2.90625 1.203125 
L 20.703125 20.09375 
Q 27.703125 27.40625 30.703125 33.5 
Q 33.703125 39.59375 33.703125 46.09375 
Q 33.703125 52.796875 30 56.5 
Q 26.296875 60.203125 19.796875 60.203125 
Q 14.40625 60.203125 11.25 57.390625 
Q 8.09375 54.59375 5.09375 47.203125 
L 3 47.703125 
Q 4.703125 57 9.84375 62.296875 
Q 15 67.59375 23.796875 67.59375 
Q 32.09375 67.59375 37.1875 62.59375 
Q 42.296875 57.59375 42.296875 50 
Q 42.296875 38.703125 29.5 25.203125 
L 13 7.59375 
L 36.40625 7.59375 
Q 39.703125 7.59375 41.640625 8.890625 
Q 43.59375 10.203125 46 14.296875 
z
" id="STIXGeneral-Regular-50"/>
       </defs>
       <use xlink:href="#STIXGeneral-Regular-50"/>
      </g>
     </g>
    </g>
    <g id="xtick_4">
     <g id="line2d_4">
      <g>
       <use style="stroke:#000000;stroke-width:0.8;" x="482.8" xlink:href="#m9b4c56b9e7" y="293.4"/>
      </g>
     </g>
     <g id="text_4">
      <!-- 3 -->
      <g transform="translate(486.5275 308.4)rotate(-90)scale(0.16 -0.16)">
       <defs>
        <path d="M 6.09375 51 
L 4.5 51.40625 
Q 6.796875 58.90625 11.6875 63.25 
Q 16.59375 67.59375 24.09375 67.59375 
Q 31.09375 67.59375 35.390625 63.796875 
Q 39.703125 60 39.703125 53.90625 
Q 39.703125 45.703125 30.40625 40.09375 
Q 35.90625 37.703125 38.703125 34.796875 
Q 43.09375 29.90625 43.09375 21.90625 
Q 43.09375 13.90625 38.5 7.90625 
Q 35.09375 3.296875 28.75 0.9375 
Q 22.40625 -1.40625 15.296875 -1.40625 
Q 4.09375 -1.40625 4.09375 4.296875 
Q 4.09375 5.90625 5.296875 6.90625 
Q 6.5 7.90625 8.203125 7.90625 
Q 10.703125 7.90625 14.296875 5.296875 
Q 18.703125 2.203125 22.90625 2.203125 
Q 28.40625 2.203125 32.15625 6.640625 
Q 35.90625 11.09375 35.90625 17.5 
Q 35.90625 29 25.5 32 
Q 22.40625 33 15.296875 33 
L 15.296875 34.40625 
Q 20.90625 36.296875 23.703125 38 
Q 31.796875 42.59375 31.796875 51.40625 
Q 31.796875 56.40625 28.9375 59 
Q 26.09375 61.59375 21 61.59375 
Q 12 61.59375 6.09375 51 
z
" id="STIXGeneral-Regular-51"/>
       </defs>
       <use xlink:href="#STIXGeneral-Regular-51"/>
      </g>
     </g>
    </g>
    <g id="xtick_5">
     <g id="line2d_5">
      <g>
       <use style="stroke:#000000;stroke-width:0.8;" x="616.2" xlink:href="#m9b4c56b9e7" y="293.4"/>
      </g>
     </g>
     <g id="text_5">
      <!-- 4 -->
      <g transform="translate(619.9275 308.4)rotate(-90)scale(0.16 -0.16)">
       <defs>
        <path d="M 47.296875 16.703125 
L 37 16.703125 
L 37 0 
L 29.203125 0 
L 29.203125 16.703125 
L 1.203125 16.703125 
L 1.203125 23.09375 
L 32.59375 67.59375 
L 37 67.59375 
L 37 23.09375 
L 47.296875 23.09375 
z
M 29.203125 23.09375 
L 29.203125 57.40625 
L 5.203125 23.09375 
z
" id="STIXGeneral-Regular-52"/>
       </defs>
       <use xlink:href="#STIXGeneral-Regular-52"/>
      </g>
     </g>
    </g>
    <g id="xtick_6">
     <g id="line2d_6">
      <g>
       <use style="stroke:#000000;stroke-width:0.8;" x="749.6" xlink:href="#m9b4c56b9e7" y="293.4"/>
      </g>
     </g>
     <g id="text_6">
      <!-- 5 -->
      <g transform="translate(753.3275 308.4)rotate(-90)scale(0.16 -0.16)">
       <defs>
        <path d="M 43.796875 68.09375 
L 40.203125 59.59375 
Q 39.59375 58.296875 37.5 58.296875 
L 18.09375 58.296875 
L 14.09375 49.796875 
Q 25.09375 47.703125 30 45.25 
Q 34.90625 42.796875 39.09375 37 
Q 42.59375 32.203125 42.59375 24.296875 
Q 42.59375 17.09375 40.25 12.1875 
Q 37.90625 7.296875 32.796875 3.5 
Q 26 -1.40625 15.796875 -1.40625 
Q 10.09375 -1.40625 6.59375 0.296875 
Q 3.09375 2 3.09375 4.796875 
Q 3.09375 8.59375 7.59375 8.59375 
Q 11.203125 8.59375 15 5.5 
Q 18.90625 2.296875 22.09375 2.296875 
Q 27.296875 2.296875 31.4375 7.5 
Q 35.59375 12.703125 35.59375 19.203125 
Q 35.59375 28.796875 28.90625 34.203125 
Q 20.203125 41.203125 7.59375 41.203125 
Q 6.40625 41.203125 6.40625 42 
L 6.5 42.5 
L 17.40625 66.203125 
L 38.09375 66.203125 
Q 39.796875 66.203125 40.75 66.703125 
Q 41.703125 67.203125 42.90625 68.796875 
z
" id="STIXGeneral-Regular-53"/>
       </defs>
       <use xlink:href="#STIXGeneral-Regular-53"/>
      </g>
     </g>
    </g>
    <g id="xtick_7">
     <g id="line2d_7">
      <g>
       <use style="stroke:#000000;stroke-width:0.8;" x="883" xlink:href="#m9b4c56b9e7" y="293.4"/>
      </g>
     </g>
     <g id="text_7">
      <!-- 6 -->
      <g transform="translate(886.7275 308.4)rotate(-90)scale(0.16 -0.16)">
       <defs>
        <path d="M 44.59375 68.40625 
L 44.796875 66.796875 
Q 33 64.90625 25.09375 57.25 
Q 17.203125 49.59375 15.203125 38.296875 
Q 21 42.796875 27.90625 42.796875 
Q 36.703125 42.796875 41.75 37.1875 
Q 46.796875 31.59375 46.796875 21.90625 
Q 46.796875 12.09375 41.703125 5.90625 
Q 35.796875 -1.40625 25.796875 -1.40625 
Q 13.59375 -1.40625 8.09375 8.703125 
Q 3.40625 17.296875 3.40625 27.90625 
Q 3.40625 44.296875 14.296875 55.5 
Q 20.5 61.90625 27.046875 64.546875 
Q 33.59375 67.203125 44.59375 68.40625 
z
M 37.796875 18.796875 
Q 37.796875 38.203125 24.296875 38.203125 
Q 19.296875 38.203125 16 35.546875 
Q 12.703125 32.90625 12.703125 26.59375 
Q 12.703125 14.90625 16.34375 8.15625 
Q 20 1.40625 26.90625 1.40625 
Q 32.203125 1.40625 35 6.15625 
Q 37.796875 10.90625 37.796875 18.796875 
z
" id="STIXGeneral-Regular-54"/>
       </defs>
       <use xlink:href="#STIXGeneral-Regular-54"/>
      </g>
     </g>
    </g>
    <g id="xtick_8">
     <g id="line2d_8">
      <g>
       <use style="stroke:#000000;stroke-width:0.8;" x="1016.4" xlink:href="#m9b4c56b9e7" y="293.4"/>
      </g>
     </g>
     <g id="text_8">
      <!-- 7 -->
      <g transform="translate(1020.1275 308.4)rotate(-90)scale(0.16 -0.16)">
       <defs>
        <path d="M 44.90625 64.59375 
L 23.703125 -0.796875 
L 17.203125 -0.796875 
L 37 58.796875 
L 15.5 58.796875 
Q 11.203125 58.796875 9.09375 57.296875 
Q 7 55.796875 3.796875 50.59375 
L 2 51.5 
L 8 66.203125 
L 44.90625 66.203125 
z
" id="STIXGeneral-Regular-55"/>
       </defs>
       <use xlink:href="#STIXGeneral-Regular-55"/>
      </g>
     </g>
    </g>
    <g id="xtick_9">
     <g id="line2d_9">
      <g>
       <use style="stroke:#000000;stroke-width:0.8;" x="1149.8" xlink:href="#m9b4c56b9e7" y="293.4"/>
      </g>
     </g>
     <g id="text_9">
      <!-- 8 -->
      <g transform="translate(1153.5275 308.4)rotate(-90)scale(0.16 -0.16)">
       <defs>
        <path d="M 44.5 15.5 
Q 44.5 7.796875 39.140625 3.1875 
Q 33.796875 -1.40625 24.796875 -1.40625 
Q 16.40625 -1.40625 11 3.1875 
Q 5.59375 7.796875 5.59375 14.90625 
Q 5.59375 20.203125 8.1875 23.953125 
Q 10.796875 27.703125 18.59375 33.203125 
Q 11.09375 39.40625 8.640625 43.203125 
Q 6.203125 47 6.203125 52 
Q 6.203125 59.09375 11.640625 63.34375 
Q 17.09375 67.59375 25.59375 67.59375 
Q 32.90625 67.59375 37.65625 63.4375 
Q 42.40625 59.296875 42.40625 53.296875 
Q 42.40625 47.796875 39.546875 44.5 
Q 36.703125 41.203125 29 37.09375 
Q 38 31.09375 41.25 26.390625 
Q 44.5 21.703125 44.5 15.5 
z
M 35.5 53.296875 
Q 35.5 58.5 32.59375 61.640625 
Q 29.703125 64.796875 24.59375 64.796875 
Q 19.5 64.796875 16.546875 62.140625 
Q 13.59375 59.5 13.59375 54.890625 
Q 13.59375 50.296875 16.546875 46.546875 
Q 19.5 42.796875 26.09375 38.90625 
Q 31.203125 41.90625 33.34375 45.25 
Q 35.5 48.59375 35.5 53.296875 
z
M 27.09375 27.203125 
L 21.203125 31.203125 
Q 16.796875 27.59375 15 24.140625 
Q 13.203125 20.703125 13.203125 15.796875 
Q 13.203125 9 16.640625 5.203125 
Q 20.09375 1.40625 25.90625 1.40625 
Q 30.796875 1.40625 33.84375 4.453125 
Q 36.90625 7.5 36.90625 12.40625 
Q 36.90625 16.90625 34.59375 20.296875 
Q 32.296875 23.703125 27.09375 27.203125 
z
" id="STIXGeneral-Regular-56"/>
       </defs>
       <use xlink:href="#STIXGeneral-Regular-56"/>
      </g>
     </g>
    </g>
    <g id="xtick_10">
     <g id="line2d_10">
      <g>
       <use style="stroke:#000000;stroke-width:0.8;" x="1283.2" xlink:href="#m9b4c56b9e7" y="293.4"/>
      </g>
     </g>
     <g id="text_10">
      <!-- 9 -->
      <g transform="translate(1286.9275 308.4)rotate(-90)scale(0.16 -0.16)">
       <defs>
        <path d="M 5.90625 -2.203125 
L 5.59375 -0.203125 
Q 17.09375 1.796875 25.046875 9.5 
Q 33 17.203125 36 29.40625 
Q 30.203125 23.703125 21 23.703125 
Q 12.90625 23.703125 7.953125 29.296875 
Q 3 34.90625 3 44 
Q 3 54.09375 8.953125 60.84375 
Q 14.90625 67.59375 23.796875 67.59375 
Q 33.296875 67.59375 39.5 60 
Q 45.90625 52 45.90625 39.40625 
Q 45.90625 30.59375 42.84375 22.84375 
Q 39.796875 15.09375 33.90625 9.703125 
Q 27.703125 4.09375 21.796875 1.640625 
Q 15.90625 -0.796875 5.90625 -2.203125 
z
M 36.203125 35.5 
L 36.203125 39.40625 
Q 36.203125 64.796875 23 64.796875 
Q 18.296875 64.796875 15.703125 61.40625 
Q 14.203125 59.40625 13.203125 55.40625 
Q 12.203125 51.40625 12.203125 47.40625 
Q 12.203125 38.5 15.546875 33.25 
Q 18.90625 28 24.5 28 
Q 28.5 28 32.34375 29.953125 
Q 36.203125 31.90625 36.203125 35.5 
z
" id="STIXGeneral-Regular-57"/>
       </defs>
       <use xlink:href="#STIXGeneral-Regular-57"/>
      </g>
     </g>
    </g>
    <g id="xtick_11">
     <g id="line2d_11">
      <g>
       <use style="stroke:#000000;stroke-width:0.8;" x="1416.6" xlink:href="#m9b4c56b9e7" y="293.4"/>
      </g>
     </g>
     <g id="text_11">
      <!-- 10 -->
      <g transform="translate(1420.3275 316.4)rotate(-90)scale(0.16 -0.16)">
       <use xlink:href="#STIXGeneral-Regular-49"/>
       <use x="49.999985" xlink:href="#STIXGeneral-Regular-48"/>
      </g>
     </g>
    </g>
    <g id="text_12">
     <!-- Site# -->
     <g transform="translate(722.872813 338.157187)scale(0.26 -0.26)">
      <defs>
       <path d="M 46.90625 46.296875 
L 44.40625 46.296875 
Q 42.703125 52.5 40.296875 55.703125 
Q 34.203125 63.5 25.796875 63.5 
Q 21.203125 63.5 18.453125 60.84375 
Q 15.703125 58.203125 15.703125 54 
Q 15.703125 52 16.703125 50.09375 
Q 17.703125 48.203125 18.84375 46.84375 
Q 20 45.5 22.890625 43.5 
Q 25.796875 41.5 27.59375 40.453125 
Q 29.40625 39.40625 33.59375 36.90625 
Q 41.703125 32.203125 45.390625 27.546875 
Q 49.09375 22.90625 49.09375 17.296875 
Q 49.09375 9 43.296875 3.796875 
Q 37.5 -1.40625 28.703125 -1.40625 
Q 22.203125 -1.40625 16.90625 0.90625 
Q 14.296875 2 12.203125 2 
Q 11 2 10.203125 1.09375 
Q 9.40625 0.203125 9.40625 -1.296875 
L 7.203125 -1.296875 
L 4.296875 19.90625 
L 6.5 19.90625 
Q 13.203125 2.203125 27.09375 2.203125 
Q 32.40625 2.203125 35.703125 5.34375 
Q 39 8.5 39 13.40625 
Q 39 18.09375 36.09375 21.296875 
Q 31.296875 26.5 19.296875 32.90625 
Q 7.09375 39.40625 7.09375 50.09375 
Q 7.09375 58.09375 12 62.84375 
Q 16.90625 67.59375 24.5 67.59375 
Q 29.796875 67.59375 35 65.40625 
Q 37.703125 64.203125 39.40625 64.203125 
Q 42 64.203125 42.59375 67.59375 
L 44.703125 67.59375 
z
" id="STIXGeneral-Regular-83"/>
       <path d="M 18 63.203125 
Q 18 61 16.5 59.546875 
Q 15 58.09375 12.796875 58.09375 
Q 10.703125 58.09375 9.25 59.546875 
Q 7.796875 61 7.796875 63.203125 
Q 7.796875 65.296875 9.296875 66.796875 
Q 10.796875 68.296875 12.90625 68.296875 
Q 15.09375 68.296875 16.546875 66.796875 
Q 18 65.296875 18 63.203125 
z
M 25.296875 0 
L 1.59375 0 
L 1.59375 1.5 
Q 6.796875 1.796875 8.140625 3.296875 
Q 9.5 4.796875 9.5 10.40625 
L 9.5 33.09375 
Q 9.5 36.59375 8.796875 38 
Q 8.09375 39.40625 6.203125 39.40625 
Q 3.796875 39.40625 2 38.90625 
L 2 40.5 
L 17.5 46 
L 17.90625 45.59375 
L 17.90625 10.5 
Q 17.90625 4.90625 19.15625 3.40625 
Q 20.40625 1.90625 25.296875 1.5 
z
" id="STIXGeneral-Regular-105"/>
       <path d="M 26.59375 7.703125 
L 27.90625 6.59375 
Q 23.09375 -1 15.796875 -1 
Q 7 -1 7 11.703125 
L 7 41.796875 
L 1.703125 41.796875 
Q 1.296875 42.09375 1.296875 42.5 
Q 1.296875 43.296875 3 44.40625 
Q 6.796875 46.59375 12.703125 55.09375 
Q 12.90625 55.40625 13.65625 56.34375 
Q 14.40625 57.296875 14.703125 57.90625 
Q 15.40625 57.90625 15.40625 56.59375 
L 15.40625 45 
L 25.5 45 
L 25.5 41.796875 
L 15.40625 41.796875 
L 15.40625 13.203125 
Q 15.40625 8.40625 16.59375 6.296875 
Q 17.796875 4.203125 20.59375 4.203125 
Q 23.59375 4.203125 26.59375 7.703125 
z
" id="STIXGeneral-Regular-116"/>
       <path d="M 40.796875 16.40625 
L 42.40625 15.703125 
Q 36.40625 -1 21.5 -1 
Q 12.703125 -1 7.59375 5.140625 
Q 2.5 11.296875 2.5 21.703125 
Q 2.5 32.40625 8.203125 39.203125 
Q 13.90625 46 23.203125 46 
Q 32.203125 46 37.09375 39.09375 
Q 40 35.09375 40.5 27.703125 
L 9.703125 27.703125 
Q 10.09375 21.40625 10.9375 18.09375 
Q 11.796875 14.796875 14.296875 11.40625 
Q 18.5 5.90625 25.40625 5.90625 
Q 30.296875 5.90625 33.640625 8.296875 
Q 37 10.703125 40.796875 16.40625 
z
M 9.90625 30.90625 
L 30.296875 30.90625 
Q 29.40625 37.203125 27.34375 39.796875 
Q 25.296875 42.40625 20.5 42.40625 
Q 16.296875 42.40625 13.5 39.453125 
Q 10.703125 36.5 9.90625 30.90625 
z
" id="STIXGeneral-Regular-101"/>
       <path d="M 49.5 40.5 
L 39.09375 40.5 
L 37.09375 27.09375 
L 47 27.09375 
L 47 21.59375 
L 36.203125 21.59375 
L 33.09375 0 
L 27.296875 0 
L 30.40625 21.59375 
L 17 21.59375 
L 13.703125 0 
L 7.90625 0 
L 11.203125 21.59375 
L 0.59375 21.59375 
L 0.59375 27.09375 
L 12.09375 27.09375 
L 14.203125 40.5 
L 3.296875 40.5 
L 3.296875 46 
L 15 46 
L 18.09375 66.203125 
L 23.90625 66.203125 
L 20.796875 46 
L 34.09375 46 
L 37.09375 66.203125 
L 42.90625 66.203125 
L 39.90625 46 
L 49.5 46 
z
M 33.296875 40.5 
L 20 40.5 
L 17.90625 27.09375 
L 31.296875 27.09375 
z
" id="STIXGeneral-Regular-35"/>
      </defs>
      <use xlink:href="#STIXGeneral-Regular-83"/>
      <use x="55.599991" xlink:href="#STIXGeneral-Regular-105"/>
      <use x="83.399979" xlink:href="#STIXGeneral-Regular-116"/>
      <use x="111.199966" xlink:href="#STIXGeneral-Regular-101"/>
      <use x="155.59996" xlink:href="#STIXGeneral-Regular-35"/>
     </g>
    </g>
   </g>
   <g id="matplotlib.axis_2">
    <g id="ytick_1">
     <g id="line2d_12">
      <defs>
       <path d="M 0 0 
L -3.5 0 
" id="m25a8116055" style="stroke:#000000;stroke-width:0.8;"/>
      </defs>
      <g>
       <use style="stroke:#000000;stroke-width:0.8;" x="82.6" xlink:href="#m25a8116055" y="289.812531"/>
      </g>
     </g>
     <g id="text_13">
      <!-- 800 -->
      <g transform="translate(51.6 295.276281)scale(0.16 -0.16)">
       <use xlink:href="#STIXGeneral-Regular-56"/>
       <use x="49.999985" xlink:href="#STIXGeneral-Regular-48"/>
       <use x="99.999969" xlink:href="#STIXGeneral-Regular-48"/>
      </g>
     </g>
    </g>
    <g id="ytick_2">
     <g id="line2d_13">
      <g>
       <use style="stroke:#000000;stroke-width:0.8;" x="82.6" xlink:href="#m25a8116055" y="252.518575"/>
      </g>
     </g>
     <g id="text_14">
      <!-- 1000 -->
      <g transform="translate(43.6 257.982325)scale(0.16 -0.16)">
       <use xlink:href="#STIXGeneral-Regular-49"/>
       <use x="49.999985" xlink:href="#STIXGeneral-Regular-48"/>
       <use x="99.999969" xlink:href="#STIXGeneral-Regular-48"/>
       <use x="149.999954" xlink:href="#STIXGeneral-Regular-48"/>
      </g>
     </g>
    </g>
    <g id="ytick_3">
     <g id="line2d_14">
      <g>
       <use style="stroke:#000000;stroke-width:0.8;" x="82.6" xlink:href="#m25a8116055" y="215.224618"/>
      </g>
     </g>
     <g id="text_15">
      <!-- 1200 -->
      <g transform="translate(43.6 220.688368)scale(0.16 -0.16)">
       <use xlink:href="#STIXGeneral-Regular-49"/>
       <use x="49.999985" xlink:href="#STIXGeneral-Regular-50"/>
       <use x="99.999969" xlink:href="#STIXGeneral-Regular-48"/>
       <use x="149.999954" xlink:href="#STIXGeneral-Regular-48"/>
      </g>
     </g>
    </g>
    <g id="ytick_4">
     <g id="line2d_15">
      <g>
       <use style="stroke:#000000;stroke-width:0.8;" x="82.6" xlink:href="#m25a8116055" y="177.930662"/>
      </g>
     </g>
     <g id="text_16">
      <!-- 1400 -->
      <g transform="translate(43.6 183.394412)scale(0.16 -0.16)">
       <use xlink:href="#STIXGeneral-Regular-49"/>
       <use x="49.999985" xlink:href="#STIXGeneral-Regular-52"/>
       <use x="99.999969" xlink:href="#STIXGeneral-Regular-48"/>
       <use x="149.999954" xlink:href="#STIXGeneral-Regular-48"/>
      </g>
     </g>
    </g>
    <g id="ytick_5">
     <g id="line2d_16">
      <g>
       <use style="stroke:#000000;stroke-width:0.8;" x="82.6" xlink:href="#m25a8116055" y="140.636705"/>
      </g>
     </g>
     <g id="text_17">
      <!-- 1600 -->
      <g transform="translate(43.6 146.100455)scale(0.16 -0.16)">
       <use xlink:href="#STIXGeneral-Regular-49"/>
       <use x="49.999985" xlink:href="#STIXGeneral-Regular-54"/>
       <use x="99.999969" xlink:href="#STIXGeneral-Regular-48"/>
       <use x="149.999954" xlink:href="#STIXGeneral-Regular-48"/>
      </g>
     </g>
    </g>
    <g id="ytick_6">
     <g id="line2d_17">
      <g>
       <use style="stroke:#000000;stroke-width:0.8;" x="82.6" xlink:href="#m25a8116055" y="103.342749"/>
      </g>
     </g>
     <g id="text_18">
      <!-- 1800 -->
      <g transform="translate(43.6 108.806499)scale(0.16 -0.16)">
       <use xlink:href="#STIXGeneral-Regular-49"/>
       <use x="49.999985" xlink:href="#STIXGeneral-Regular-56"/>
       <use x="99.999969" xlink:href="#STIXGeneral-Regular-48"/>
       <use x="149.999954" xlink:href="#STIXGeneral-Regular-48"/>
      </g>
     </g>
    </g>
    <g id="ytick_7">
     <g id="line2d_18">
      <g>
       <use style="stroke:#000000;stroke-width:0.8;" x="82.6" xlink:href="#m25a8116055" y="66.048792"/>
      </g>
     </g>
     <g id="text_19">
      <!-- 2000 -->
      <g transform="translate(43.6 71.512542)scale(0.16 -0.16)">
       <use xlink:href="#STIXGeneral-Regular-50"/>
       <use x="49.999985" xlink:href="#STIXGeneral-Regular-48"/>
       <use x="99.999969" xlink:href="#STIXGeneral-Regular-48"/>
       <use x="149.999954" xlink:href="#STIXGeneral-Regular-48"/>
      </g>
     </g>
    </g>
    <g id="text_20">
     <!-- T$_1$ (ms) -->
     <g transform="translate(33.957188 208.73)rotate(-90)scale(0.26 -0.26)">
      <defs>
       <path d="M 59.296875 49.203125 
L 56.90625 49.203125 
Q 55.296875 57.40625 52.390625 59.703125 
Q 49.5 62 41.5 62 
L 35.59375 62 
L 35.59375 11.09375 
Q 35.59375 5.40625 37.296875 3.796875 
Q 39 2.203125 45.203125 1.90625 
L 45.203125 0 
L 16 0 
L 16 1.90625 
Q 22.296875 2.296875 23.84375 4 
Q 25.40625 5.703125 25.40625 12.296875 
L 25.40625 62 
L 19.40625 62 
Q 11.296875 62 8.4375 59.640625 
Q 5.59375 57.296875 4.09375 49.203125 
L 1.703125 49.203125 
L 2.40625 66.203125 
L 58.59375 66.203125 
z
" id="STIXGeneral-Regular-84"/>
       <path id="STIXGeneral-Regular-32"/>
       <path d="M 30.40625 -16.09375 
L 29.203125 -17.703125 
Q 17.59375 -11.09375 11.1875 0.5 
Q 4.796875 12.09375 4.796875 25.203125 
Q 4.796875 52.90625 29.5 67.59375 
L 30.40625 66 
Q 20.203125 57.296875 16.796875 48.84375 
Q 13.40625 40.40625 13.40625 25.5 
Q 13.40625 10.703125 16.90625 1.5 
Q 20.40625 -7.703125 30.40625 -16.09375 
z
" id="STIXGeneral-Regular-40"/>
       <path d="M 77.5 0 
L 55.703125 0 
L 55.703125 1.5 
Q 59.90625 1.90625 61.046875 3.25 
Q 62.203125 4.59375 62.203125 9 
L 62.203125 29.59375 
Q 62.203125 35.59375 60.453125 38.1875 
Q 58.703125 40.796875 54.5 40.796875 
Q 51 40.796875 48.546875 39.390625 
Q 46.09375 38 43.796875 34.703125 
L 43.796875 9.5 
Q 43.796875 4.703125 45.25 3.140625 
Q 46.703125 1.59375 51 1.5 
L 51 0 
L 28.59375 0 
L 28.59375 1.5 
Q 33 1.796875 34.203125 2.9375 
Q 35.40625 4.09375 35.40625 8.59375 
L 35.40625 29.703125 
Q 35.40625 40.796875 28.90625 40.796875 
Q 26.09375 40.796875 22.9375 39.546875 
Q 19.796875 38.296875 18.296875 36.5 
Q 17 35 17 34.796875 
L 17 7 
Q 17 3.796875 18.390625 2.75 
Q 19.796875 1.703125 23.796875 1.5 
L 23.796875 0 
L 1.59375 0 
L 1.59375 1.5 
Q 5.796875 1.59375 7.1875 3.046875 
Q 8.59375 4.5 8.59375 8.796875 
L 8.59375 33.59375 
Q 8.59375 37.296875 7.796875 38.75 
Q 7 40.203125 5.09375 40.203125 
Q 3.59375 40.203125 1.90625 39.796875 
L 1.90625 41.5 
Q 8.703125 43.40625 15.796875 46 
L 16.59375 45.703125 
L 16.59375 38.296875 
L 16.796875 38.296875 
Q 21.296875 43 24.75 44.5 
Q 28.203125 46 32.09375 46 
Q 40 46 42.703125 37.59375 
Q 50.5 46 59 46 
Q 70.59375 46 70.59375 28 
L 70.59375 7.703125 
Q 70.59375 4.40625 71.59375 3.15625 
Q 72.59375 1.90625 74.90625 1.703125 
L 77.5 1.5 
z
" id="STIXGeneral-Regular-109"/>
       <path d="M 15.59375 30.09375 
L 26 23.796875 
Q 31 20.796875 32.890625 18.1875 
Q 34.796875 15.59375 34.796875 11.5 
Q 34.796875 6.5 30.640625 2.75 
Q 26.5 -1 20.796875 -1 
Q 16.09375 -1 13.5 -0.09375 
Q 10.796875 0.796875 8.90625 0.796875 
Q 7.203125 0.796875 6.5 -0.40625 
L 5.203125 -0.40625 
L 5.203125 15.296875 
L 6.796875 15.296875 
Q 8.40625 8 11.40625 4.59375 
Q 14.40625 1.203125 19.5 1.203125 
Q 23.203125 1.203125 25.5 3.296875 
Q 27.796875 5.40625 27.796875 8.59375 
Q 27.796875 13.203125 22.5 16.09375 
L 17.09375 19.09375 
Q 5.09375 25.796875 5.09375 33.59375 
Q 5.09375 39.40625 8.84375 42.65625 
Q 12.59375 45.90625 18.90625 45.90625 
Q 23.296875 45.90625 25.59375 44.796875 
Q 27.40625 44 28.40625 44 
Q 29.09375 44 30 45 
L 31.09375 45 
L 31.59375 31.40625 
L 30.09375 31.40625 
Q 28.40625 38.203125 25.84375 40.953125 
Q 23.296875 43.703125 18.796875 43.703125 
Q 15.40625 43.703125 13.34375 42 
Q 11.296875 40.296875 11.296875 36.90625 
Q 11.296875 35.203125 12.4375 33.25 
Q 13.59375 31.296875 15.59375 30.09375 
z
" id="STIXGeneral-Regular-115"/>
       <path d="M 2.90625 66 
L 4.09375 67.59375 
Q 15.5 60.796875 22 49.1875 
Q 28.5 37.59375 28.5 24.703125 
Q 28.5 -2.59375 3.796875 -17.703125 
L 2.90625 -16.09375 
Q 13.203125 -7.59375 16.546875 0.84375 
Q 19.90625 9.296875 19.90625 24.40625 
Q 19.90625 39.59375 16.546875 48.75 
Q 13.203125 57.90625 2.90625 66 
z
" id="STIXGeneral-Regular-41"/>
      </defs>
      <use transform="translate(0 0.40625)" xlink:href="#STIXGeneral-Regular-84"/>
      <use transform="translate(62.643272 -12.821875)scale(0.7)" xlink:href="#STIXGeneral-Regular-49"/>
      <use transform="translate(102.052636 0.40625)" xlink:href="#STIXGeneral-Regular-32"/>
      <use transform="translate(127.052621 0.40625)" xlink:href="#STIXGeneral-Regular-40"/>
      <use transform="translate(160.352609 0.40625)" xlink:href="#STIXGeneral-Regular-109"/>
      <use transform="translate(238.152597 0.40625)" xlink:href="#STIXGeneral-Regular-115"/>
      <use transform="translate(277.052591 0.40625)" xlink:href="#STIXGeneral-Regular-41"/>
     </g>
    </g>
   </g>
   <g id="LineCollection_1">
    <path clip-path="url(#pc55ed1b94e)" d="M 0 0 
" style="fill:none;stroke:#1f77b4;stroke-width:2;"/>
    <path clip-path="url(#pc55ed1b94e)" d="M 349.5334 236.55811 
L 349.5334 192.269585 
" style="fill:none;stroke:#1f77b4;stroke-width:2;"/>
    <path clip-path="url(#pc55ed1b94e)" d="M 349.6668 213.987103 
L 349.6668 195.514118 
" style="fill:none;stroke:#1f77b4;stroke-width:2;"/>
    <path clip-path="url(#pc55ed1b94e)" d="M 349.8002 269.395152 
L 349.8002 253.026948 
" style="fill:none;stroke:#1f77b4;stroke-width:2;"/>
    <path clip-path="url(#pc55ed1b94e)" d="M 349.9336 242.130866 
L 349.9336 94.075108 
" style="fill:none;stroke:#1f77b4;stroke-width:2;"/>
    <path clip-path="url(#pc55ed1b94e)" d="M 350.067 219.600214 
L 350.067 179.029819 
" style="fill:none;stroke:#1f77b4;stroke-width:2;"/>
    <path clip-path="url(#pc55ed1b94e)" d="M 350.2004 233.885784 
L 350.2004 215.21043 
" style="fill:none;stroke:#1f77b4;stroke-width:2;"/>
    <path clip-path="url(#pc55ed1b94e)" d="M 482.9334 134.421449 
L 482.9334 54.572727 
" style="fill:none;stroke:#1f77b4;stroke-width:2;"/>
    <path clip-path="url(#pc55ed1b94e)" d="M 616.3334 225.599145 
L 616.3334 204.757603 
" style="fill:none;stroke:#1f77b4;stroke-width:2;"/>
    <path clip-path="url(#pc55ed1b94e)" d="M 749.7334 268.847887 
L 749.7334 193.910347 
" style="fill:none;stroke:#1f77b4;stroke-width:2;"/>
    <path clip-path="url(#pc55ed1b94e)" d="M 749.8668 253.882326 
L 749.8668 173.357478 
" style="fill:none;stroke:#1f77b4;stroke-width:2;"/>
    <path clip-path="url(#pc55ed1b94e)" d="M 750.0002 262.981426 
L 750.0002 210.327517 
" style="fill:none;stroke:#1f77b4;stroke-width:2;"/>
    <path clip-path="url(#pc55ed1b94e)" d="M 750.1336 243.290817 
L 750.1336 212.354217 
" style="fill:none;stroke:#1f77b4;stroke-width:2;"/>
    <path clip-path="url(#pc55ed1b94e)" d="M 883.1334 254.74262 
L 883.1334 239.37635 
" style="fill:none;stroke:#1f77b4;stroke-width:2;"/>
    <path clip-path="url(#pc55ed1b94e)" d="M 1016.5334 227.516012 
L 1016.5334 200.289497 
" style="fill:none;stroke:#1f77b4;stroke-width:2;"/>
    <path clip-path="url(#pc55ed1b94e)" d="M 0 0 
" style="fill:none;stroke:#1f77b4;stroke-width:2;"/>
    <path clip-path="url(#pc55ed1b94e)" d="M 0 0 
" style="fill:none;stroke:#1f77b4;stroke-width:2;"/>
    <path clip-path="url(#pc55ed1b94e)" d="M 1283.3334 223.481317 
L 1283.3334 201.882515 
" style="fill:none;stroke:#1f77b4;stroke-width:2;"/>
    <path clip-path="url(#pc55ed1b94e)" d="M 1283.4668 238.698891 
L 1283.4668 219.062947 
" style="fill:none;stroke:#1f77b4;stroke-width:2;"/>
    <path clip-path="url(#pc55ed1b94e)" d="M 1283.6002 237.420746 
L 1283.6002 222.135678 
" style="fill:none;stroke:#1f77b4;stroke-width:2;"/>
    <path clip-path="url(#pc55ed1b94e)" d="M 1283.7336 234.185399 
L 1283.7336 220.32739 
" style="fill:none;stroke:#1f77b4;stroke-width:2;"/>
    <path clip-path="url(#pc55ed1b94e)" d="M 1283.867 232.157831 
L 1283.867 222.459381 
" style="fill:none;stroke:#1f77b4;stroke-width:2;"/>
    <path clip-path="url(#pc55ed1b94e)" d="M 1284.0004 228.703607 
L 1284.0004 207.709679 
" style="fill:none;stroke:#1f77b4;stroke-width:2;"/>
    <path clip-path="url(#pc55ed1b94e)" d="M 1284.1338 226.95422 
L 1284.1338 213.00945 
" style="fill:none;stroke:#1f77b4;stroke-width:2;"/>
    <path clip-path="url(#pc55ed1b94e)" d="M 1284.2672 223.51973 
L 1284.2672 211.414104 
" style="fill:none;stroke:#1f77b4;stroke-width:2;"/>
    <path clip-path="url(#pc55ed1b94e)" d="M 1284.4006 224.263974 
L 1284.4006 207.684479 
" style="fill:none;stroke:#1f77b4;stroke-width:2;"/>
    <path clip-path="url(#pc55ed1b94e)" d="M 1284.534 222.018178 
L 1284.534 210.276363 
" style="fill:none;stroke:#1f77b4;stroke-width:2;"/>
    <path clip-path="url(#pc55ed1b94e)" d="M 1284.6674 243.870329 
L 1284.6674 212.477696 
" style="fill:none;stroke:#1f77b4;stroke-width:2;"/>
    <path clip-path="url(#pc55ed1b94e)" d="M 1284.8008 205.211453 
L 1284.8008 184.738038 
" style="fill:none;stroke:#1f77b4;stroke-width:2;"/>
    <path clip-path="url(#pc55ed1b94e)" d="M 1284.9342 239.444025 
L 1284.9342 221.110385 
" style="fill:none;stroke:#1f77b4;stroke-width:2;"/>
    <path clip-path="url(#pc55ed1b94e)" d="M 1285.0676 235.885498 
L 1285.0676 223.936458 
" style="fill:none;stroke:#1f77b4;stroke-width:2;"/>
    <path clip-path="url(#pc55ed1b94e)" d="M 1285.201 255.622255 
L 1285.201 234.998915 
" style="fill:none;stroke:#1f77b4;stroke-width:2;"/>
    <path clip-path="url(#pc55ed1b94e)" d="M 1285.3344 251.00941 
L 1285.3344 229.125819 
" style="fill:none;stroke:#1f77b4;stroke-width:2;"/>
    <path clip-path="url(#pc55ed1b94e)" d="M 1285.4678 252.377087 
L 1285.4678 234.651557 
" style="fill:none;stroke:#1f77b4;stroke-width:2;"/>
    <path clip-path="url(#pc55ed1b94e)" d="M 1285.6012 228.212635 
L 1285.6012 209.383615 
" style="fill:none;stroke:#1f77b4;stroke-width:2;"/>
    <path clip-path="url(#pc55ed1b94e)" d="M 1285.7346 209.439492 
L 1285.7346 185.793061 
" style="fill:none;stroke:#1f77b4;stroke-width:2;"/>
    <path clip-path="url(#pc55ed1b94e)" d="M 1285.868 222.150822 
L 1285.868 194.332574 
" style="fill:none;stroke:#1f77b4;stroke-width:2;"/>
    <path clip-path="url(#pc55ed1b94e)" d="M 1286.0014 218.711202 
L 1286.0014 201.107764 
" style="fill:none;stroke:#1f77b4;stroke-width:2;"/>
    <path clip-path="url(#pc55ed1b94e)" d="M 1286.1348 221.281744 
L 1286.1348 206.79858 
" style="fill:none;stroke:#1f77b4;stroke-width:2;"/>
    <path clip-path="url(#pc55ed1b94e)" d="M 1286.2682 231.677978 
L 1286.2682 214.05283 
" style="fill:none;stroke:#1f77b4;stroke-width:2;"/>
    <path clip-path="url(#pc55ed1b94e)" d="M 1286.4016 231.483998 
L 1286.4016 222.108376 
" style="fill:none;stroke:#1f77b4;stroke-width:2;"/>
    <path clip-path="url(#pc55ed1b94e)" d="M 1286.535 191.422575 
L 1286.535 171.188954 
" style="fill:none;stroke:#1f77b4;stroke-width:2;"/>
    <path clip-path="url(#pc55ed1b94e)" d="M 1286.6684 196.811803 
L 1286.6684 178.117175 
" style="fill:none;stroke:#1f77b4;stroke-width:2;"/>
    <path clip-path="url(#pc55ed1b94e)" d="M 1286.8018 226.348356 
L 1286.8018 209.876969 
" style="fill:none;stroke:#1f77b4;stroke-width:2;"/>
    <path clip-path="url(#pc55ed1b94e)" d="M 1286.9352 221.83876 
L 1286.9352 211.414982 
" style="fill:none;stroke:#1f77b4;stroke-width:2;"/>
    <path clip-path="url(#pc55ed1b94e)" d="M 1287.0686 223.445409 
L 1287.0686 212.342457 
" style="fill:none;stroke:#1f77b4;stroke-width:2;"/>
    <path clip-path="url(#pc55ed1b94e)" d="M 1287.202 222.667391 
L 1287.202 204.84159 
" style="fill:none;stroke:#1f77b4;stroke-width:2;"/>
    <path clip-path="url(#pc55ed1b94e)" d="M 1287.3354 217.452624 
L 1287.3354 199.135194 
" style="fill:none;stroke:#1f77b4;stroke-width:2;"/>
    <path clip-path="url(#pc55ed1b94e)" d="M 1287.4688 215.84565 
L 1287.4688 204.39996 
" style="fill:none;stroke:#1f77b4;stroke-width:2;"/>
    <path clip-path="url(#pc55ed1b94e)" d="M 1287.6022 236.080214 
L 1287.6022 211.701761 
" style="fill:none;stroke:#1f77b4;stroke-width:2;"/>
    <path clip-path="url(#pc55ed1b94e)" d="M 1287.7356 233.559136 
L 1287.7356 218.114837 
" style="fill:none;stroke:#1f77b4;stroke-width:2;"/>
    <path clip-path="url(#pc55ed1b94e)" d="M 1287.869 282.027273 
L 1287.869 257.808122 
" style="fill:none;stroke:#1f77b4;stroke-width:2;"/>
    <path clip-path="url(#pc55ed1b94e)" d="M 1288.0024 191.206123 
L 1288.0024 166.184252 
" style="fill:none;stroke:#1f77b4;stroke-width:2;"/>
    <path clip-path="url(#pc55ed1b94e)" d="M 1288.1358 240.300712 
L 1288.1358 230.619925 
" style="fill:none;stroke:#1f77b4;stroke-width:2;"/>
    <path clip-path="url(#pc55ed1b94e)" d="M 1288.2692 237.700506 
L 1288.2692 231.858156 
" style="fill:none;stroke:#1f77b4;stroke-width:2;"/>
    <path clip-path="url(#pc55ed1b94e)" d="M 0 0 
" style="fill:none;stroke:#1f77b4;stroke-width:2;"/>
   </g>
   <g id="line2d_19">
    <defs>
     <path d="M 5 0 
L -5 -0 
" id="ma619343406" style="stroke:#1f77b4;"/>
    </defs>
    <g clip-path="url(#pc55ed1b94e)">
     <use style="fill:#1f77b4;stroke:#1f77b4;" x="349.5334" xlink:href="#ma619343406" y="236.55811"/>
     <use style="fill:#1f77b4;stroke:#1f77b4;" x="349.6668" xlink:href="#ma619343406" y="213.987103"/>
     <use style="fill:#1f77b4;stroke:#1f77b4;" x="349.8002" xlink:href="#ma619343406" y="269.395152"/>
     <use style="fill:#1f77b4;stroke:#1f77b4;" x="349.9336" xlink:href="#ma619343406" y="242.130866"/>
     <use style="fill:#1f77b4;stroke:#1f77b4;" x="350.067" xlink:href="#ma619343406" y="219.600214"/>
     <use style="fill:#1f77b4;stroke:#1f77b4;" x="350.2004" xlink:href="#ma619343406" y="233.885784"/>
     <use style="fill:#1f77b4;stroke:#1f77b4;" x="482.9334" xlink:href="#ma619343406" y="134.421449"/>
     <use style="fill:#1f77b4;stroke:#1f77b4;" x="616.3334" xlink:href="#ma619343406" y="225.599145"/>
     <use style="fill:#1f77b4;stroke:#1f77b4;" x="749.7334" xlink:href="#ma619343406" y="268.847887"/>
     <use style="fill:#1f77b4;stroke:#1f77b4;" x="749.8668" xlink:href="#ma619343406" y="253.882326"/>
     <use style="fill:#1f77b4;stroke:#1f77b4;" x="750.0002" xlink:href="#ma619343406" y="262.981426"/>
     <use style="fill:#1f77b4;stroke:#1f77b4;" x="750.1336" xlink:href="#ma619343406" y="243.290817"/>
     <use style="fill:#1f77b4;stroke:#1f77b4;" x="883.1334" xlink:href="#ma619343406" y="254.74262"/>
     <use style="fill:#1f77b4;stroke:#1f77b4;" x="1016.5334" xlink:href="#ma619343406" y="227.516012"/>
     <use style="fill:#1f77b4;stroke:#1f77b4;" x="1283.3334" xlink:href="#ma619343406" y="223.481317"/>
     <use style="fill:#1f77b4;stroke:#1f77b4;" x="1283.4668" xlink:href="#ma619343406" y="238.698891"/>
     <use style="fill:#1f77b4;stroke:#1f77b4;" x="1283.6002" xlink:href="#ma619343406" y="237.420746"/>
     <use style="fill:#1f77b4;stroke:#1f77b4;" x="1283.7336" xlink:href="#ma619343406" y="234.185399"/>
     <use style="fill:#1f77b4;stroke:#1f77b4;" x="1283.867" xlink:href="#ma619343406" y="232.157831"/>
     <use style="fill:#1f77b4;stroke:#1f77b4;" x="1284.0004" xlink:href="#ma619343406" y="228.703607"/>
     <use style="fill:#1f77b4;stroke:#1f77b4;" x="1284.1338" xlink:href="#ma619343406" y="226.95422"/>
     <use style="fill:#1f77b4;stroke:#1f77b4;" x="1284.2672" xlink:href="#ma619343406" y="223.51973"/>
     <use style="fill:#1f77b4;stroke:#1f77b4;" x="1284.4006" xlink:href="#ma619343406" y="224.263974"/>
     <use style="fill:#1f77b4;stroke:#1f77b4;" x="1284.534" xlink:href="#ma619343406" y="222.018178"/>
     <use style="fill:#1f77b4;stroke:#1f77b4;" x="1284.6674" xlink:href="#ma619343406" y="243.870329"/>
     <use style="fill:#1f77b4;stroke:#1f77b4;" x="1284.8008" xlink:href="#ma619343406" y="205.211453"/>
     <use style="fill:#1f77b4;stroke:#1f77b4;" x="1284.9342" xlink:href="#ma619343406" y="239.444025"/>
     <use style="fill:#1f77b4;stroke:#1f77b4;" x="1285.0676" xlink:href="#ma619343406" y="235.885498"/>
     <use style="fill:#1f77b4;stroke:#1f77b4;" x="1285.201" xlink:href="#ma619343406" y="255.622255"/>
     <use style="fill:#1f77b4;stroke:#1f77b4;" x="1285.3344" xlink:href="#ma619343406" y="251.00941"/>
     <use style="fill:#1f77b4;stroke:#1f77b4;" x="1285.4678" xlink:href="#ma619343406" y="252.377087"/>
     <use style="fill:#1f77b4;stroke:#1f77b4;" x="1285.6012" xlink:href="#ma619343406" y="228.212635"/>
     <use style="fill:#1f77b4;stroke:#1f77b4;" x="1285.7346" xlink:href="#ma619343406" y="209.439492"/>
     <use style="fill:#1f77b4;stroke:#1f77b4;" x="1285.868" xlink:href="#ma619343406" y="222.150822"/>
     <use style="fill:#1f77b4;stroke:#1f77b4;" x="1286.0014" xlink:href="#ma619343406" y="218.711202"/>
     <use style="fill:#1f77b4;stroke:#1f77b4;" x="1286.1348" xlink:href="#ma619343406" y="221.281744"/>
     <use style="fill:#1f77b4;stroke:#1f77b4;" x="1286.2682" xlink:href="#ma619343406" y="231.677978"/>
     <use style="fill:#1f77b4;stroke:#1f77b4;" x="1286.4016" xlink:href="#ma619343406" y="231.483998"/>
     <use style="fill:#1f77b4;stroke:#1f77b4;" x="1286.535" xlink:href="#ma619343406" y="191.422575"/>
     <use style="fill:#1f77b4;stroke:#1f77b4;" x="1286.6684" xlink:href="#ma619343406" y="196.811803"/>
     <use style="fill:#1f77b4;stroke:#1f77b4;" x="1286.8018" xlink:href="#ma619343406" y="226.348356"/>
     <use style="fill:#1f77b4;stroke:#1f77b4;" x="1286.9352" xlink:href="#ma619343406" y="221.83876"/>
     <use style="fill:#1f77b4;stroke:#1f77b4;" x="1287.0686" xlink:href="#ma619343406" y="223.445409"/>
     <use style="fill:#1f77b4;stroke:#1f77b4;" x="1287.202" xlink:href="#ma619343406" y="222.667391"/>
     <use style="fill:#1f77b4;stroke:#1f77b4;" x="1287.3354" xlink:href="#ma619343406" y="217.452624"/>
     <use style="fill:#1f77b4;stroke:#1f77b4;" x="1287.4688" xlink:href="#ma619343406" y="215.84565"/>
     <use style="fill:#1f77b4;stroke:#1f77b4;" x="1287.6022" xlink:href="#ma619343406" y="236.080214"/>
     <use style="fill:#1f77b4;stroke:#1f77b4;" x="1287.7356" xlink:href="#ma619343406" y="233.559136"/>
     <use style="fill:#1f77b4;stroke:#1f77b4;" x="1287.869" xlink:href="#ma619343406" y="282.027273"/>
     <use style="fill:#1f77b4;stroke:#1f77b4;" x="1288.0024" xlink:href="#ma619343406" y="191.206123"/>
     <use style="fill:#1f77b4;stroke:#1f77b4;" x="1288.1358" xlink:href="#ma619343406" y="240.300712"/>
     <use style="fill:#1f77b4;stroke:#1f77b4;" x="1288.2692" xlink:href="#ma619343406" y="237.700506"/>
    </g>
   </g>
   <g id="line2d_20">
    <g clip-path="url(#pc55ed1b94e)">
     <use style="fill:#1f77b4;stroke:#1f77b4;" x="349.5334" xlink:href="#ma619343406" y="192.269585"/>
     <use style="fill:#1f77b4;stroke:#1f77b4;" x="349.6668" xlink:href="#ma619343406" y="195.514118"/>
     <use style="fill:#1f77b4;stroke:#1f77b4;" x="349.8002" xlink:href="#ma619343406" y="253.026948"/>
     <use style="fill:#1f77b4;stroke:#1f77b4;" x="349.9336" xlink:href="#ma619343406" y="94.075108"/>
     <use style="fill:#1f77b4;stroke:#1f77b4;" x="350.067" xlink:href="#ma619343406" y="179.029819"/>
     <use style="fill:#1f77b4;stroke:#1f77b4;" x="350.2004" xlink:href="#ma619343406" y="215.21043"/>
     <use style="fill:#1f77b4;stroke:#1f77b4;" x="482.9334" xlink:href="#ma619343406" y="54.572727"/>
     <use style="fill:#1f77b4;stroke:#1f77b4;" x="616.3334" xlink:href="#ma619343406" y="204.757603"/>
     <use style="fill:#1f77b4;stroke:#1f77b4;" x="749.7334" xlink:href="#ma619343406" y="193.910347"/>
     <use style="fill:#1f77b4;stroke:#1f77b4;" x="749.8668" xlink:href="#ma619343406" y="173.357478"/>
     <use style="fill:#1f77b4;stroke:#1f77b4;" x="750.0002" xlink:href="#ma619343406" y="210.327517"/>
     <use style="fill:#1f77b4;stroke:#1f77b4;" x="750.1336" xlink:href="#ma619343406" y="212.354217"/>
     <use style="fill:#1f77b4;stroke:#1f77b4;" x="883.1334" xlink:href="#ma619343406" y="239.37635"/>
     <use style="fill:#1f77b4;stroke:#1f77b4;" x="1016.5334" xlink:href="#ma619343406" y="200.289497"/>
     <use style="fill:#1f77b4;stroke:#1f77b4;" x="1283.3334" xlink:href="#ma619343406" y="201.882515"/>
     <use style="fill:#1f77b4;stroke:#1f77b4;" x="1283.4668" xlink:href="#ma619343406" y="219.062947"/>
     <use style="fill:#1f77b4;stroke:#1f77b4;" x="1283.6002" xlink:href="#ma619343406" y="222.135678"/>
     <use style="fill:#1f77b4;stroke:#1f77b4;" x="1283.7336" xlink:href="#ma619343406" y="220.32739"/>
     <use style="fill:#1f77b4;stroke:#1f77b4;" x="1283.867" xlink:href="#ma619343406" y="222.459381"/>
     <use style="fill:#1f77b4;stroke:#1f77b4;" x="1284.0004" xlink:href="#ma619343406" y="207.709679"/>
     <use style="fill:#1f77b4;stroke:#1f77b4;" x="1284.1338" xlink:href="#ma619343406" y="213.00945"/>
     <use style="fill:#1f77b4;stroke:#1f77b4;" x="1284.2672" xlink:href="#ma619343406" y="211.414104"/>
     <use style="fill:#1f77b4;stroke:#1f77b4;" x="1284.4006" xlink:href="#ma619343406" y="207.684479"/>
     <use style="fill:#1f77b4;stroke:#1f77b4;" x="1284.534" xlink:href="#ma619343406" y="210.276363"/>
     <use style="fill:#1f77b4;stroke:#1f77b4;" x="1284.6674" xlink:href="#ma619343406" y="212.477696"/>
     <use style="fill:#1f77b4;stroke:#1f77b4;" x="1284.8008" xlink:href="#ma619343406" y="184.738038"/>
     <use style="fill:#1f77b4;stroke:#1f77b4;" x="1284.9342" xlink:href="#ma619343406" y="221.110385"/>
     <use style="fill:#1f77b4;stroke:#1f77b4;" x="1285.0676" xlink:href="#ma619343406" y="223.936458"/>
     <use style="fill:#1f77b4;stroke:#1f77b4;" x="1285.201" xlink:href="#ma619343406" y="234.998915"/>
     <use style="fill:#1f77b4;stroke:#1f77b4;" x="1285.3344" xlink:href="#ma619343406" y="229.125819"/>
     <use style="fill:#1f77b4;stroke:#1f77b4;" x="1285.4678" xlink:href="#ma619343406" y="234.651557"/>
     <use style="fill:#1f77b4;stroke:#1f77b4;" x="1285.6012" xlink:href="#ma619343406" y="209.383615"/>
     <use style="fill:#1f77b4;stroke:#1f77b4;" x="1285.7346" xlink:href="#ma619343406" y="185.793061"/>
     <use style="fill:#1f77b4;stroke:#1f77b4;" x="1285.868" xlink:href="#ma619343406" y="194.332574"/>
     <use style="fill:#1f77b4;stroke:#1f77b4;" x="1286.0014" xlink:href="#ma619343406" y="201.107764"/>
     <use style="fill:#1f77b4;stroke:#1f77b4;" x="1286.1348" xlink:href="#ma619343406" y="206.79858"/>
     <use style="fill:#1f77b4;stroke:#1f77b4;" x="1286.2682" xlink:href="#ma619343406" y="214.05283"/>
     <use style="fill:#1f77b4;stroke:#1f77b4;" x="1286.4016" xlink:href="#ma619343406" y="222.108376"/>
     <use style="fill:#1f77b4;stroke:#1f77b4;" x="1286.535" xlink:href="#ma619343406" y="171.188954"/>
     <use style="fill:#1f77b4;stroke:#1f77b4;" x="1286.6684" xlink:href="#ma619343406" y="178.117175"/>
     <use style="fill:#1f77b4;stroke:#1f77b4;" x="1286.8018" xlink:href="#ma619343406" y="209.876969"/>
     <use style="fill:#1f77b4;stroke:#1f77b4;" x="1286.9352" xlink:href="#ma619343406" y="211.414982"/>
     <use style="fill:#1f77b4;stroke:#1f77b4;" x="1287.0686" xlink:href="#ma619343406" y="212.342457"/>
     <use style="fill:#1f77b4;stroke:#1f77b4;" x="1287.202" xlink:href="#ma619343406" y="204.84159"/>
     <use style="fill:#1f77b4;stroke:#1f77b4;" x="1287.3354" xlink:href="#ma619343406" y="199.135194"/>
     <use style="fill:#1f77b4;stroke:#1f77b4;" x="1287.4688" xlink:href="#ma619343406" y="204.39996"/>
     <use style="fill:#1f77b4;stroke:#1f77b4;" x="1287.6022" xlink:href="#ma619343406" y="211.701761"/>
     <use style="fill:#1f77b4;stroke:#1f77b4;" x="1287.7356" xlink:href="#ma619343406" y="218.114837"/>
     <use style="fill:#1f77b4;stroke:#1f77b4;" x="1287.869" xlink:href="#ma619343406" y="257.808122"/>
     <use style="fill:#1f77b4;stroke:#1f77b4;" x="1288.0024" xlink:href="#ma619343406" y="166.184252"/>
     <use style="fill:#1f77b4;stroke:#1f77b4;" x="1288.1358" xlink:href="#ma619343406" y="230.619925"/>
     <use style="fill:#1f77b4;stroke:#1f77b4;" x="1288.2692" xlink:href="#ma619343406" y="231.858156"/>
    </g>
   </g>
   <g id="line2d_21">
    <defs>
     <path d="M 0 3 
C 0.795609 3 1.55874 2.683901 2.12132 2.12132 
C 2.683901 1.55874 3 0.795609 3 0 
C 3 -0.795609 2.683901 -1.55874 2.12132 -2.12132 
C 1.55874 -2.683901 0.795609 -3 0 -3 
C -0.795609 -3 -1.55874 -2.683901 -2.12132 -2.12132 
C -2.683901 -1.55874 -3 -0.795609 -3 0 
C -3 0.795609 -2.683901 1.55874 -2.12132 2.12132 
C -1.55874 2.683901 -0.795609 3 0 3 
z
" id="mb5ca61dde6" style="stroke:#1f77b4;"/>
    </defs>
    <g clip-path="url(#pc55ed1b94e)">
     <use style="fill:#1f77b4;stroke:#1f77b4;" x="349.5334" xlink:href="#mb5ca61dde6" y="214.413848"/>
     <use style="fill:#1f77b4;stroke:#1f77b4;" x="349.6668" xlink:href="#mb5ca61dde6" y="204.75061"/>
     <use style="fill:#1f77b4;stroke:#1f77b4;" x="349.8002" xlink:href="#mb5ca61dde6" y="261.21105"/>
     <use style="fill:#1f77b4;stroke:#1f77b4;" x="349.9336" xlink:href="#mb5ca61dde6" y="168.102987"/>
     <use style="fill:#1f77b4;stroke:#1f77b4;" x="350.067" xlink:href="#mb5ca61dde6" y="199.315016"/>
     <use style="fill:#1f77b4;stroke:#1f77b4;" x="350.2004" xlink:href="#mb5ca61dde6" y="224.548107"/>
     <use style="fill:#1f77b4;stroke:#1f77b4;" x="482.9334" xlink:href="#mb5ca61dde6" y="94.497088"/>
     <use style="fill:#1f77b4;stroke:#1f77b4;" x="616.3334" xlink:href="#mb5ca61dde6" y="215.178374"/>
     <use style="fill:#1f77b4;stroke:#1f77b4;" x="749.7334" xlink:href="#mb5ca61dde6" y="231.379117"/>
     <use style="fill:#1f77b4;stroke:#1f77b4;" x="749.8668" xlink:href="#mb5ca61dde6" y="213.619902"/>
     <use style="fill:#1f77b4;stroke:#1f77b4;" x="750.0002" xlink:href="#mb5ca61dde6" y="236.654471"/>
     <use style="fill:#1f77b4;stroke:#1f77b4;" x="750.1336" xlink:href="#mb5ca61dde6" y="227.822517"/>
     <use style="fill:#1f77b4;stroke:#1f77b4;" x="883.1334" xlink:href="#mb5ca61dde6" y="247.059485"/>
     <use style="fill:#1f77b4;stroke:#1f77b4;" x="1016.5334" xlink:href="#mb5ca61dde6" y="213.902755"/>
     <use style="fill:#1f77b4;stroke:#1f77b4;" x="1283.3334" xlink:href="#mb5ca61dde6" y="212.681916"/>
     <use style="fill:#1f77b4;stroke:#1f77b4;" x="1283.4668" xlink:href="#mb5ca61dde6" y="228.880919"/>
     <use style="fill:#1f77b4;stroke:#1f77b4;" x="1283.6002" xlink:href="#mb5ca61dde6" y="229.778212"/>
     <use style="fill:#1f77b4;stroke:#1f77b4;" x="1283.7336" xlink:href="#mb5ca61dde6" y="227.256394"/>
     <use style="fill:#1f77b4;stroke:#1f77b4;" x="1283.867" xlink:href="#mb5ca61dde6" y="227.308606"/>
     <use style="fill:#1f77b4;stroke:#1f77b4;" x="1284.0004" xlink:href="#mb5ca61dde6" y="218.206643"/>
     <use style="fill:#1f77b4;stroke:#1f77b4;" x="1284.1338" xlink:href="#mb5ca61dde6" y="219.981835"/>
     <use style="fill:#1f77b4;stroke:#1f77b4;" x="1284.2672" xlink:href="#mb5ca61dde6" y="217.466917"/>
     <use style="fill:#1f77b4;stroke:#1f77b4;" x="1284.4006" xlink:href="#mb5ca61dde6" y="215.974227"/>
     <use style="fill:#1f77b4;stroke:#1f77b4;" x="1284.534" xlink:href="#mb5ca61dde6" y="216.147271"/>
     <use style="fill:#1f77b4;stroke:#1f77b4;" x="1284.6674" xlink:href="#mb5ca61dde6" y="228.174012"/>
     <use style="fill:#1f77b4;stroke:#1f77b4;" x="1284.8008" xlink:href="#mb5ca61dde6" y="194.974746"/>
     <use style="fill:#1f77b4;stroke:#1f77b4;" x="1284.9342" xlink:href="#mb5ca61dde6" y="230.277205"/>
     <use style="fill:#1f77b4;stroke:#1f77b4;" x="1285.0676" xlink:href="#mb5ca61dde6" y="229.910978"/>
     <use style="fill:#1f77b4;stroke:#1f77b4;" x="1285.201" xlink:href="#mb5ca61dde6" y="245.310585"/>
     <use style="fill:#1f77b4;stroke:#1f77b4;" x="1285.3344" xlink:href="#mb5ca61dde6" y="240.067614"/>
     <use style="fill:#1f77b4;stroke:#1f77b4;" x="1285.4678" xlink:href="#mb5ca61dde6" y="243.514322"/>
     <use style="fill:#1f77b4;stroke:#1f77b4;" x="1285.6012" xlink:href="#mb5ca61dde6" y="218.798125"/>
     <use style="fill:#1f77b4;stroke:#1f77b4;" x="1285.7346" xlink:href="#mb5ca61dde6" y="197.616277"/>
     <use style="fill:#1f77b4;stroke:#1f77b4;" x="1285.868" xlink:href="#mb5ca61dde6" y="208.241698"/>
     <use style="fill:#1f77b4;stroke:#1f77b4;" x="1286.0014" xlink:href="#mb5ca61dde6" y="209.909483"/>
     <use style="fill:#1f77b4;stroke:#1f77b4;" x="1286.1348" xlink:href="#mb5ca61dde6" y="214.040162"/>
     <use style="fill:#1f77b4;stroke:#1f77b4;" x="1286.2682" xlink:href="#mb5ca61dde6" y="222.865404"/>
     <use style="fill:#1f77b4;stroke:#1f77b4;" x="1286.4016" xlink:href="#mb5ca61dde6" y="226.796187"/>
     <use style="fill:#1f77b4;stroke:#1f77b4;" x="1286.535" xlink:href="#mb5ca61dde6" y="181.305765"/>
     <use style="fill:#1f77b4;stroke:#1f77b4;" x="1286.6684" xlink:href="#mb5ca61dde6" y="187.464489"/>
     <use style="fill:#1f77b4;stroke:#1f77b4;" x="1286.8018" xlink:href="#mb5ca61dde6" y="218.112662"/>
     <use style="fill:#1f77b4;stroke:#1f77b4;" x="1286.9352" xlink:href="#mb5ca61dde6" y="216.626871"/>
     <use style="fill:#1f77b4;stroke:#1f77b4;" x="1287.0686" xlink:href="#mb5ca61dde6" y="217.893933"/>
     <use style="fill:#1f77b4;stroke:#1f77b4;" x="1287.202" xlink:href="#mb5ca61dde6" y="213.75449"/>
     <use style="fill:#1f77b4;stroke:#1f77b4;" x="1287.3354" xlink:href="#mb5ca61dde6" y="208.293909"/>
     <use style="fill:#1f77b4;stroke:#1f77b4;" x="1287.4688" xlink:href="#mb5ca61dde6" y="210.122805"/>
     <use style="fill:#1f77b4;stroke:#1f77b4;" x="1287.6022" xlink:href="#mb5ca61dde6" y="223.890988"/>
     <use style="fill:#1f77b4;stroke:#1f77b4;" x="1287.7356" xlink:href="#mb5ca61dde6" y="225.836986"/>
     <use style="fill:#1f77b4;stroke:#1f77b4;" x="1287.869" xlink:href="#mb5ca61dde6" y="269.917697"/>
     <use style="fill:#1f77b4;stroke:#1f77b4;" x="1288.0024" xlink:href="#mb5ca61dde6" y="178.695188"/>
     <use style="fill:#1f77b4;stroke:#1f77b4;" x="1288.1358" xlink:href="#mb5ca61dde6" y="235.460319"/>
     <use style="fill:#1f77b4;stroke:#1f77b4;" x="1288.2692" xlink:href="#mb5ca61dde6" y="234.779331"/>
    </g>
   </g>
   <g id="patch_3">
    <path d="M 82.6 293.4 
L 82.6 43.2 
" style="fill:none;stroke:#000000;stroke-linecap:square;stroke-linejoin:miter;stroke-width:0.8;"/>
   </g>
   <g id="patch_4">
    <path d="M 1416.6 293.4 
L 1416.6 43.2 
" style="fill:none;stroke:#000000;stroke-linecap:square;stroke-linejoin:miter;stroke-width:0.8;"/>
   </g>
   <g id="patch_5">
    <path d="M 82.6 293.4 
L 1416.6 293.4 
" style="fill:none;stroke:#000000;stroke-linecap:square;stroke-linejoin:miter;stroke-width:0.8;"/>
   </g>
   <g id="patch_6">
    <path d="M 82.6 43.2 
L 1416.6 43.2 
" style="fill:none;stroke:#000000;stroke-linecap:square;stroke-linejoin:miter;stroke-width:0.8;"/>
   </g>
   <g id="text_21">
    <!-- Deep GM -->
    <g transform="translate(690.03125 36.689063)scale(0.3 -0.3)">
     <defs>
      <path d="M 1.59375 66.203125 
L 28.59375 66.203125 
Q 48.09375 66.203125 58.59375 57.09375 
Q 68.5 48.59375 68.5 33.40625 
Q 68.5 15.09375 54.90625 6.40625 
Q 45 0 29.703125 0 
L 1.59375 0 
L 1.59375 1.90625 
Q 7.40625 2.296875 8.90625 3.9375 
Q 10.40625 5.59375 10.40625 11.5 
L 10.40625 55 
Q 10.40625 60.796875 8.90625 62.34375 
Q 7.40625 63.90625 1.59375 64.296875 
z
M 20.59375 58.296875 
L 20.59375 8.40625 
Q 20.59375 5.703125 21.546875 4.703125 
Q 22.5 3.703125 25.40625 3.703125 
Q 33.203125 3.703125 38 4.796875 
Q 42.796875 5.90625 47.203125 8.90625 
Q 57.59375 15.90625 57.59375 32.796875 
Q 57.59375 47.296875 48.09375 55.59375 
Q 43.796875 59.40625 38.6875 60.953125 
Q 33.59375 62.5 25.90625 62.5 
Q 23 62.5 21.796875 61.59375 
Q 20.59375 60.703125 20.59375 58.296875 
z
" id="STIXGeneral-Regular-68"/>
      <path d="M 15.90625 45.796875 
L 15.90625 38.09375 
Q 22.203125 46 30.296875 46 
Q 37.59375 46 42.296875 40 
Q 47 34 47 24.703125 
Q 47 13.796875 40.953125 6.390625 
Q 34.90625 -1 26 -1 
Q 22.90625 -1 20.75 -0.09375 
Q 18.59375 0.796875 15.90625 3.296875 
L 15.90625 -12.40625 
Q 15.90625 -17.09375 17.5 -18.4375 
Q 19.09375 -19.796875 24.703125 -19.90625 
L 24.703125 -21.703125 
L 0.5 -21.703125 
L 0.5 -20 
Q 4.90625 -19.59375 6.203125 -18.296875 
Q 7.5 -17 7.5 -13.09375 
L 7.5 33.703125 
Q 7.5 37.203125 6.703125 38.296875 
Q 5.90625 39.40625 3.40625 39.40625 
Q 1.796875 39.40625 0.90625 39.296875 
L 0.90625 40.90625 
Q 7.90625 43 15.296875 46 
z
M 15.90625 33.40625 
L 15.90625 8.796875 
Q 15.90625 6.59375 19.34375 4.390625 
Q 22.796875 2.203125 26.296875 2.203125 
Q 31.703125 2.203125 35.046875 7.296875 
Q 38.40625 12.40625 38.40625 20.703125 
Q 38.40625 29.5 35.046875 34.75 
Q 31.703125 40 26.09375 40 
Q 22.59375 40 19.25 37.796875 
Q 15.90625 35.59375 15.90625 33.40625 
z
" id="STIXGeneral-Regular-112"/>
      <path d="M 70.90625 35.40625 
L 70.90625 33.59375 
Q 66.5 33.203125 65.203125 31.796875 
Q 63.90625 30.40625 63.90625 25.59375 
L 63.90625 5.59375 
Q 55.296875 -1.40625 38.5 -1.40625 
Q 30.703125 -1.40625 23.546875 1.390625 
Q 16.40625 4.203125 11.5 9.296875 
Q 3.203125 18 3.203125 32.703125 
Q 3.203125 49.296875 13.90625 59 
Q 23.296875 67.59375 37.796875 67.59375 
Q 44.203125 67.59375 51.09375 65.296875 
Q 53.796875 64.296875 55.5 64.296875 
Q 57.09375 64.296875 58.296875 65.25 
Q 59.5 66.203125 60 67.59375 
L 62.203125 67.59375 
L 63 46.5 
L 60.703125 46.5 
Q 57.5 54.296875 53.59375 58.09375 
Q 47.796875 63.59375 39 63.59375 
Q 29 63.59375 22.296875 56.703125 
Q 14.59375 49 14.59375 32.40625 
Q 14.59375 18.59375 21.796875 10.59375 
Q 29 2.59375 40.90625 2.59375 
Q 46.59375 2.59375 50.390625 4.390625 
Q 54.203125 6.203125 54.203125 8.703125 
L 54.203125 24.40625 
Q 54.203125 30.203125 52.75 31.640625 
Q 51.296875 33.09375 45.296875 33.59375 
L 45.296875 35.40625 
z
" id="STIXGeneral-Regular-71"/>
      <path d="M 86.40625 0 
L 58.40625 0 
L 58.40625 1.90625 
Q 64.296875 2.296875 65.84375 4.140625 
Q 67.40625 6 67.40625 12.296875 
L 67.40625 57.203125 
L 41.90625 0 
L 40.5 0 
L 15.296875 54.90625 
L 15.296875 15.09375 
Q 15.296875 7 17 4.59375 
Q 18.703125 2.203125 24.59375 1.90625 
L 24.59375 0 
L 1.203125 0 
L 1.203125 1.90625 
Q 5.59375 2.203125 7.5 3.203125 
Q 9.40625 4.203125 10.15625 6.75 
Q 10.90625 9.296875 10.90625 15.09375 
L 10.90625 54.90625 
Q 10.90625 60.59375 9.203125 62.25 
Q 7.5 63.90625 1.40625 64.296875 
L 1.40625 66.203125 
L 21.203125 66.203125 
L 44.296875 16 
L 66.40625 66.203125 
L 86.296875 66.203125 
L 86.296875 64.296875 
Q 80.90625 64.203125 79.25 62.390625 
Q 77.59375 60.59375 77.59375 55 
L 77.59375 11.203125 
Q 77.59375 5.90625 79.25 4.09375 
Q 80.90625 2.296875 86.40625 1.90625 
z
" id="STIXGeneral-Regular-77"/>
     </defs>
     <use xlink:href="#STIXGeneral-Regular-68"/>
     <use x="72.199982" xlink:href="#STIXGeneral-Regular-101"/>
     <use x="116.599976" xlink:href="#STIXGeneral-Regular-101"/>
     <use x="160.999969" xlink:href="#STIXGeneral-Regular-112"/>
     <use x="210.999954" xlink:href="#STIXGeneral-Regular-32"/>
     <use x="235.999939" xlink:href="#STIXGeneral-Regular-71"/>
     <use x="308.199921" xlink:href="#STIXGeneral-Regular-77"/>
    </g>
   </g>
  </g>
 </g>
 <defs>
  <clipPath id="pc55ed1b94e">
   <rect height="250.2" width="1334" x="82.6" y="43.2"/>
  </clipPath>
 </defs>
</svg>
