<?xml version="1.0" encoding="utf-8" standalone="no"?>
<!DOCTYPE svg PUBLIC "-//W3C//DTD SVG 1.1//EN"
  "http://www.w3.org/Graphics/SVG/1.1/DTD/svg11.dtd">
<!-- Created with matplotlib (https://matplotlib.org/) -->
<svg height="360pt" version="1.1" viewBox="0 0 1440 360" width="1440pt" xmlns="http://www.w3.org/2000/svg" xmlns:xlink="http://www.w3.org/1999/xlink">
 <metadata>
  <rdf:RDF xmlns:cc="http://creativecommons.org/ns#" xmlns:dc="http://purl.org/dc/elements/1.1/" xmlns:rdf="http://www.w3.org/1999/02/22-rdf-syntax-ns#">
   <cc:Work>
    <dc:type rdf:resource="http://purl.org/dc/dcmitype/StillImage"/>
    <dc:date>2020-08-10T12:02:49.375012</dc:date>
    <dc:format>image/svg+xml</dc:format>
    <dc:creator>
     <cc:Agent>
      <dc:title>Matplotlib v3.3.0, https://matplotlib.org/</dc:title>
     </cc:Agent>
    </dc:creator>
   </cc:Work>
  </rdf:RDF>
 </metadata>
 <defs>
  <style type="text/css">*{stroke-linecap:butt;stroke-linejoin:round;}</style>
 </defs>
 <g id="figure_1">
  <g id="patch_1">
   <path d="M 0 360 
L 1440 360 
L 1440 0 
L 0 0 
z
" style="fill:#ffffff;"/>
  </g>
  <g id="axes_1">
   <g id="patch_2">
    <path d="M 107.6 278.8 
L 1418.4 278.8 
L 1418.4 50.4 
L 107.6 50.4 
z
" style="fill:#ffffff;"/>
   </g>
   <g id="matplotlib.axis_1">
    <g id="xtick_1">
     <g id="line2d_1">
      <defs>
       <path d="M 0 0 
L 0 3.5 
" id="m43a6639bae" style="stroke:#000000;stroke-width:0.8;"/>
      </defs>
      <g>
       <use style="stroke:#000000;stroke-width:0.8;" x="107.6" xlink:href="#m43a6639bae" y="278.8"/>
      </g>
     </g>
     <g id="text_1">
      <!-- 0 -->
      <g transform="translate(101.6 302.19125)scale(0.24 -0.24)">
       <defs>
        <path d="M 47.59375 33 
Q 47.59375 26.296875 46.296875 20.34375 
Q 45 14.40625 42.453125 9.40625 
Q 39.90625 4.40625 35.40625 1.5 
Q 30.90625 -1.40625 25 -1.40625 
Q 18.90625 -1.40625 14.296875 1.6875 
Q 9.703125 4.796875 7.203125 10 
Q 4.703125 15.203125 3.546875 21.09375 
Q 2.40625 27 2.40625 33.59375 
Q 2.40625 42.90625 4.703125 50.34375 
Q 7 57.796875 12.34375 62.6875 
Q 17.703125 67.59375 25.40625 67.59375 
Q 35.203125 67.59375 41.390625 58 
Q 47.59375 48.40625 47.59375 33 
z
M 38 32.5 
Q 38 48.296875 34.640625 56.640625 
Q 31.296875 65 24.796875 65 
Q 18.59375 65 15.296875 56.59375 
Q 12 48.203125 12 32.90625 
Q 12 17.5 15.296875 9.34375 
Q 18.59375 1.203125 25 1.203125 
Q 31.296875 1.203125 34.640625 9.34375 
Q 38 17.5 38 32.5 
z
" id="STIXGeneral-Regular-48"/>
       </defs>
       <use xlink:href="#STIXGeneral-Regular-48"/>
      </g>
     </g>
    </g>
    <g id="xtick_2">
     <g id="line2d_2">
      <g>
       <use style="stroke:#000000;stroke-width:0.8;" x="233.023404" xlink:href="#m43a6639bae" y="278.8"/>
      </g>
     </g>
     <g id="text_2">
      <!-- 1 -->
      <g transform="translate(227.023404 302.19125)scale(0.24 -0.24)">
       <defs>
        <path d="M 39.40625 0 
L 11.796875 0 
L 11.796875 1.5 
Q 17.296875 1.796875 19.296875 3.546875 
Q 21.296875 5.296875 21.296875 9.5 
L 21.296875 54.40625 
Q 21.296875 59.296875 18.296875 59.296875 
Q 16.90625 59.296875 13.796875 58.09375 
L 11.09375 57.09375 
L 11.09375 58.5 
L 29 67.59375 
L 29.90625 67.296875 
L 29.90625 7.59375 
Q 29.90625 4.296875 31.90625 2.890625 
Q 33.90625 1.5 39.40625 1.5 
z
" id="STIXGeneral-Regular-49"/>
       </defs>
       <use xlink:href="#STIXGeneral-Regular-49"/>
      </g>
     </g>
    </g>
    <g id="xtick_3">
     <g id="line2d_3">
      <g>
       <use style="stroke:#000000;stroke-width:0.8;" x="358.446809" xlink:href="#m43a6639bae" y="278.8"/>
      </g>
     </g>
     <g id="text_3">
      <!-- 2 -->
      <g transform="translate(352.446809 302.19125)scale(0.24 -0.24)">
       <defs>
        <path d="M 47.40625 13.703125 
L 42 0 
L 2.90625 0 
L 2.90625 1.203125 
L 20.703125 20.09375 
Q 27.703125 27.40625 30.703125 33.5 
Q 33.703125 39.59375 33.703125 46.09375 
Q 33.703125 52.796875 30 56.5 
Q 26.296875 60.203125 19.796875 60.203125 
Q 14.40625 60.203125 11.25 57.390625 
Q 8.09375 54.59375 5.09375 47.203125 
L 3 47.703125 
Q 4.703125 57 9.84375 62.296875 
Q 15 67.59375 23.796875 67.59375 
Q 32.09375 67.59375 37.1875 62.59375 
Q 42.296875 57.59375 42.296875 50 
Q 42.296875 38.703125 29.5 25.203125 
L 13 7.59375 
L 36.40625 7.59375 
Q 39.703125 7.59375 41.640625 8.890625 
Q 43.59375 10.203125 46 14.296875 
z
" id="STIXGeneral-Regular-50"/>
       </defs>
       <use xlink:href="#STIXGeneral-Regular-50"/>
      </g>
     </g>
    </g>
    <g id="xtick_4">
     <g id="line2d_4">
      <g>
       <use style="stroke:#000000;stroke-width:0.8;" x="483.870213" xlink:href="#m43a6639bae" y="278.8"/>
      </g>
     </g>
     <g id="text_4">
      <!-- 3 -->
      <g transform="translate(477.870213 302.19125)scale(0.24 -0.24)">
       <defs>
        <path d="M 6.09375 51 
L 4.5 51.40625 
Q 6.796875 58.90625 11.6875 63.25 
Q 16.59375 67.59375 24.09375 67.59375 
Q 31.09375 67.59375 35.390625 63.796875 
Q 39.703125 60 39.703125 53.90625 
Q 39.703125 45.703125 30.40625 40.09375 
Q 35.90625 37.703125 38.703125 34.796875 
Q 43.09375 29.90625 43.09375 21.90625 
Q 43.09375 13.90625 38.5 7.90625 
Q 35.09375 3.296875 28.75 0.9375 
Q 22.40625 -1.40625 15.296875 -1.40625 
Q 4.09375 -1.40625 4.09375 4.296875 
Q 4.09375 5.90625 5.296875 6.90625 
Q 6.5 7.90625 8.203125 7.90625 
Q 10.703125 7.90625 14.296875 5.296875 
Q 18.703125 2.203125 22.90625 2.203125 
Q 28.40625 2.203125 32.15625 6.640625 
Q 35.90625 11.09375 35.90625 17.5 
Q 35.90625 29 25.5 32 
Q 22.40625 33 15.296875 33 
L 15.296875 34.40625 
Q 20.90625 36.296875 23.703125 38 
Q 31.796875 42.59375 31.796875 51.40625 
Q 31.796875 56.40625 28.9375 59 
Q 26.09375 61.59375 21 61.59375 
Q 12 61.59375 6.09375 51 
z
" id="STIXGeneral-Regular-51"/>
       </defs>
       <use xlink:href="#STIXGeneral-Regular-51"/>
      </g>
     </g>
    </g>
    <g id="xtick_5">
     <g id="line2d_5">
      <g>
       <use style="stroke:#000000;stroke-width:0.8;" x="609.293618" xlink:href="#m43a6639bae" y="278.8"/>
      </g>
     </g>
     <g id="text_5">
      <!-- 4 -->
      <g transform="translate(603.293618 302.19125)scale(0.24 -0.24)">
       <defs>
        <path d="M 47.296875 16.703125 
L 37 16.703125 
L 37 0 
L 29.203125 0 
L 29.203125 16.703125 
L 1.203125 16.703125 
L 1.203125 23.09375 
L 32.59375 67.59375 
L 37 67.59375 
L 37 23.09375 
L 47.296875 23.09375 
z
M 29.203125 23.09375 
L 29.203125 57.40625 
L 5.203125 23.09375 
z
" id="STIXGeneral-Regular-52"/>
       </defs>
       <use xlink:href="#STIXGeneral-Regular-52"/>
      </g>
     </g>
    </g>
    <g id="xtick_6">
     <g id="line2d_6">
      <g>
       <use style="stroke:#000000;stroke-width:0.8;" x="734.717022" xlink:href="#m43a6639bae" y="278.8"/>
      </g>
     </g>
     <g id="text_6">
      <!-- 5 -->
      <g transform="translate(728.717022 302.19125)scale(0.24 -0.24)">
       <defs>
        <path d="M 43.796875 68.09375 
L 40.203125 59.59375 
Q 39.59375 58.296875 37.5 58.296875 
L 18.09375 58.296875 
L 14.09375 49.796875 
Q 25.09375 47.703125 30 45.25 
Q 34.90625 42.796875 39.09375 37 
Q 42.59375 32.203125 42.59375 24.296875 
Q 42.59375 17.09375 40.25 12.1875 
Q 37.90625 7.296875 32.796875 3.5 
Q 26 -1.40625 15.796875 -1.40625 
Q 10.09375 -1.40625 6.59375 0.296875 
Q 3.09375 2 3.09375 4.796875 
Q 3.09375 8.59375 7.59375 8.59375 
Q 11.203125 8.59375 15 5.5 
Q 18.90625 2.296875 22.09375 2.296875 
Q 27.296875 2.296875 31.4375 7.5 
Q 35.59375 12.703125 35.59375 19.203125 
Q 35.59375 28.796875 28.90625 34.203125 
Q 20.203125 41.203125 7.59375 41.203125 
Q 6.40625 41.203125 6.40625 42 
L 6.5 42.5 
L 17.40625 66.203125 
L 38.09375 66.203125 
Q 39.796875 66.203125 40.75 66.703125 
Q 41.703125 67.203125 42.90625 68.796875 
z
" id="STIXGeneral-Regular-53"/>
       </defs>
       <use xlink:href="#STIXGeneral-Regular-53"/>
      </g>
     </g>
    </g>
    <g id="xtick_7">
     <g id="line2d_7">
      <g>
       <use style="stroke:#000000;stroke-width:0.8;" x="860.140427" xlink:href="#m43a6639bae" y="278.8"/>
      </g>
     </g>
     <g id="text_7">
      <!-- 6 -->
      <g transform="translate(854.140427 302.19125)scale(0.24 -0.24)">
       <defs>
        <path d="M 44.59375 68.40625 
L 44.796875 66.796875 
Q 33 64.90625 25.09375 57.25 
Q 17.203125 49.59375 15.203125 38.296875 
Q 21 42.796875 27.90625 42.796875 
Q 36.703125 42.796875 41.75 37.1875 
Q 46.796875 31.59375 46.796875 21.90625 
Q 46.796875 12.09375 41.703125 5.90625 
Q 35.796875 -1.40625 25.796875 -1.40625 
Q 13.59375 -1.40625 8.09375 8.703125 
Q 3.40625 17.296875 3.40625 27.90625 
Q 3.40625 44.296875 14.296875 55.5 
Q 20.5 61.90625 27.046875 64.546875 
Q 33.59375 67.203125 44.59375 68.40625 
z
M 37.796875 18.796875 
Q 37.796875 38.203125 24.296875 38.203125 
Q 19.296875 38.203125 16 35.546875 
Q 12.703125 32.90625 12.703125 26.59375 
Q 12.703125 14.90625 16.34375 8.15625 
Q 20 1.40625 26.90625 1.40625 
Q 32.203125 1.40625 35 6.15625 
Q 37.796875 10.90625 37.796875 18.796875 
z
" id="STIXGeneral-Regular-54"/>
       </defs>
       <use xlink:href="#STIXGeneral-Regular-54"/>
      </g>
     </g>
    </g>
    <g id="xtick_8">
     <g id="line2d_8">
      <g>
       <use style="stroke:#000000;stroke-width:0.8;" x="985.563831" xlink:href="#m43a6639bae" y="278.8"/>
      </g>
     </g>
     <g id="text_8">
      <!-- 7 -->
      <g transform="translate(979.563831 302.19125)scale(0.24 -0.24)">
       <defs>
        <path d="M 44.90625 64.59375 
L 23.703125 -0.796875 
L 17.203125 -0.796875 
L 37 58.796875 
L 15.5 58.796875 
Q 11.203125 58.796875 9.09375 57.296875 
Q 7 55.796875 3.796875 50.59375 
L 2 51.5 
L 8 66.203125 
L 44.90625 66.203125 
z
" id="STIXGeneral-Regular-55"/>
       </defs>
       <use xlink:href="#STIXGeneral-Regular-55"/>
      </g>
     </g>
    </g>
    <g id="xtick_9">
     <g id="line2d_9">
      <g>
       <use style="stroke:#000000;stroke-width:0.8;" x="1110.987236" xlink:href="#m43a6639bae" y="278.8"/>
      </g>
     </g>
     <g id="text_9">
      <!-- 8 -->
      <g transform="translate(1104.987236 302.19125)scale(0.24 -0.24)">
       <defs>
        <path d="M 44.5 15.5 
Q 44.5 7.796875 39.140625 3.1875 
Q 33.796875 -1.40625 24.796875 -1.40625 
Q 16.40625 -1.40625 11 3.1875 
Q 5.59375 7.796875 5.59375 14.90625 
Q 5.59375 20.203125 8.1875 23.953125 
Q 10.796875 27.703125 18.59375 33.203125 
Q 11.09375 39.40625 8.640625 43.203125 
Q 6.203125 47 6.203125 52 
Q 6.203125 59.09375 11.640625 63.34375 
Q 17.09375 67.59375 25.59375 67.59375 
Q 32.90625 67.59375 37.65625 63.4375 
Q 42.40625 59.296875 42.40625 53.296875 
Q 42.40625 47.796875 39.546875 44.5 
Q 36.703125 41.203125 29 37.09375 
Q 38 31.09375 41.25 26.390625 
Q 44.5 21.703125 44.5 15.5 
z
M 35.5 53.296875 
Q 35.5 58.5 32.59375 61.640625 
Q 29.703125 64.796875 24.59375 64.796875 
Q 19.5 64.796875 16.546875 62.140625 
Q 13.59375 59.5 13.59375 54.890625 
Q 13.59375 50.296875 16.546875 46.546875 
Q 19.5 42.796875 26.09375 38.90625 
Q 31.203125 41.90625 33.34375 45.25 
Q 35.5 48.59375 35.5 53.296875 
z
M 27.09375 27.203125 
L 21.203125 31.203125 
Q 16.796875 27.59375 15 24.140625 
Q 13.203125 20.703125 13.203125 15.796875 
Q 13.203125 9 16.640625 5.203125 
Q 20.09375 1.40625 25.90625 1.40625 
Q 30.796875 1.40625 33.84375 4.453125 
Q 36.90625 7.5 36.90625 12.40625 
Q 36.90625 16.90625 34.59375 20.296875 
Q 32.296875 23.703125 27.09375 27.203125 
z
" id="STIXGeneral-Regular-56"/>
       </defs>
       <use xlink:href="#STIXGeneral-Regular-56"/>
      </g>
     </g>
    </g>
    <g id="xtick_10">
     <g id="line2d_10">
      <g>
       <use style="stroke:#000000;stroke-width:0.8;" x="1236.41064" xlink:href="#m43a6639bae" y="278.8"/>
      </g>
     </g>
     <g id="text_10">
      <!-- 9 -->
      <g transform="translate(1230.41064 302.19125)scale(0.24 -0.24)">
       <defs>
        <path d="M 5.90625 -2.203125 
L 5.59375 -0.203125 
Q 17.09375 1.796875 25.046875 9.5 
Q 33 17.203125 36 29.40625 
Q 30.203125 23.703125 21 23.703125 
Q 12.90625 23.703125 7.953125 29.296875 
Q 3 34.90625 3 44 
Q 3 54.09375 8.953125 60.84375 
Q 14.90625 67.59375 23.796875 67.59375 
Q 33.296875 67.59375 39.5 60 
Q 45.90625 52 45.90625 39.40625 
Q 45.90625 30.59375 42.84375 22.84375 
Q 39.796875 15.09375 33.90625 9.703125 
Q 27.703125 4.09375 21.796875 1.640625 
Q 15.90625 -0.796875 5.90625 -2.203125 
z
M 36.203125 35.5 
L 36.203125 39.40625 
Q 36.203125 64.796875 23 64.796875 
Q 18.296875 64.796875 15.703125 61.40625 
Q 14.203125 59.40625 13.203125 55.40625 
Q 12.203125 51.40625 12.203125 47.40625 
Q 12.203125 38.5 15.546875 33.25 
Q 18.90625 28 24.5 28 
Q 28.5 28 32.34375 29.953125 
Q 36.203125 31.90625 36.203125 35.5 
z
" id="STIXGeneral-Regular-57"/>
       </defs>
       <use xlink:href="#STIXGeneral-Regular-57"/>
      </g>
     </g>
    </g>
    <g id="xtick_11">
     <g id="line2d_11">
      <g>
       <use style="stroke:#000000;stroke-width:0.8;" x="1361.834045" xlink:href="#m43a6639bae" y="278.8"/>
      </g>
     </g>
     <g id="text_11">
      <!-- 10 -->
      <g transform="translate(1349.834045 302.19125)scale(0.24 -0.24)">
       <use xlink:href="#STIXGeneral-Regular-49"/>
       <use x="49.999985" xlink:href="#STIXGeneral-Regular-48"/>
      </g>
     </g>
    </g>
    <g id="text_12">
     <!-- Site # -->
     <g transform="translate(728.410938 331.889063)scale(0.3 -0.3)">
      <defs>
       <path d="M 46.90625 46.296875 
L 44.40625 46.296875 
Q 42.703125 52.5 40.296875 55.703125 
Q 34.203125 63.5 25.796875 63.5 
Q 21.203125 63.5 18.453125 60.84375 
Q 15.703125 58.203125 15.703125 54 
Q 15.703125 52 16.703125 50.09375 
Q 17.703125 48.203125 18.84375 46.84375 
Q 20 45.5 22.890625 43.5 
Q 25.796875 41.5 27.59375 40.453125 
Q 29.40625 39.40625 33.59375 36.90625 
Q 41.703125 32.203125 45.390625 27.546875 
Q 49.09375 22.90625 49.09375 17.296875 
Q 49.09375 9 43.296875 3.796875 
Q 37.5 -1.40625 28.703125 -1.40625 
Q 22.203125 -1.40625 16.90625 0.90625 
Q 14.296875 2 12.203125 2 
Q 11 2 10.203125 1.09375 
Q 9.40625 0.203125 9.40625 -1.296875 
L 7.203125 -1.296875 
L 4.296875 19.90625 
L 6.5 19.90625 
Q 13.203125 2.203125 27.09375 2.203125 
Q 32.40625 2.203125 35.703125 5.34375 
Q 39 8.5 39 13.40625 
Q 39 18.09375 36.09375 21.296875 
Q 31.296875 26.5 19.296875 32.90625 
Q 7.09375 39.40625 7.09375 50.09375 
Q 7.09375 58.09375 12 62.84375 
Q 16.90625 67.59375 24.5 67.59375 
Q 29.796875 67.59375 35 65.40625 
Q 37.703125 64.203125 39.40625 64.203125 
Q 42 64.203125 42.59375 67.59375 
L 44.703125 67.59375 
z
" id="STIXGeneral-Regular-83"/>
       <path d="M 18 63.203125 
Q 18 61 16.5 59.546875 
Q 15 58.09375 12.796875 58.09375 
Q 10.703125 58.09375 9.25 59.546875 
Q 7.796875 61 7.796875 63.203125 
Q 7.796875 65.296875 9.296875 66.796875 
Q 10.796875 68.296875 12.90625 68.296875 
Q 15.09375 68.296875 16.546875 66.796875 
Q 18 65.296875 18 63.203125 
z
M 25.296875 0 
L 1.59375 0 
L 1.59375 1.5 
Q 6.796875 1.796875 8.140625 3.296875 
Q 9.5 4.796875 9.5 10.40625 
L 9.5 33.09375 
Q 9.5 36.59375 8.796875 38 
Q 8.09375 39.40625 6.203125 39.40625 
Q 3.796875 39.40625 2 38.90625 
L 2 40.5 
L 17.5 46 
L 17.90625 45.59375 
L 17.90625 10.5 
Q 17.90625 4.90625 19.15625 3.40625 
Q 20.40625 1.90625 25.296875 1.5 
z
" id="STIXGeneral-Regular-105"/>
       <path d="M 26.59375 7.703125 
L 27.90625 6.59375 
Q 23.09375 -1 15.796875 -1 
Q 7 -1 7 11.703125 
L 7 41.796875 
L 1.703125 41.796875 
Q 1.296875 42.09375 1.296875 42.5 
Q 1.296875 43.296875 3 44.40625 
Q 6.796875 46.59375 12.703125 55.09375 
Q 12.90625 55.40625 13.65625 56.34375 
Q 14.40625 57.296875 14.703125 57.90625 
Q 15.40625 57.90625 15.40625 56.59375 
L 15.40625 45 
L 25.5 45 
L 25.5 41.796875 
L 15.40625 41.796875 
L 15.40625 13.203125 
Q 15.40625 8.40625 16.59375 6.296875 
Q 17.796875 4.203125 20.59375 4.203125 
Q 23.59375 4.203125 26.59375 7.703125 
z
" id="STIXGeneral-Regular-116"/>
       <path d="M 40.796875 16.40625 
L 42.40625 15.703125 
Q 36.40625 -1 21.5 -1 
Q 12.703125 -1 7.59375 5.140625 
Q 2.5 11.296875 2.5 21.703125 
Q 2.5 32.40625 8.203125 39.203125 
Q 13.90625 46 23.203125 46 
Q 32.203125 46 37.09375 39.09375 
Q 40 35.09375 40.5 27.703125 
L 9.703125 27.703125 
Q 10.09375 21.40625 10.9375 18.09375 
Q 11.796875 14.796875 14.296875 11.40625 
Q 18.5 5.90625 25.40625 5.90625 
Q 30.296875 5.90625 33.640625 8.296875 
Q 37 10.703125 40.796875 16.40625 
z
M 9.90625 30.90625 
L 30.296875 30.90625 
Q 29.40625 37.203125 27.34375 39.796875 
Q 25.296875 42.40625 20.5 42.40625 
Q 16.296875 42.40625 13.5 39.453125 
Q 10.703125 36.5 9.90625 30.90625 
z
" id="STIXGeneral-Regular-101"/>
       <path id="STIXGeneral-Regular-32"/>
       <path d="M 49.5 40.5 
L 39.09375 40.5 
L 37.09375 27.09375 
L 47 27.09375 
L 47 21.59375 
L 36.203125 21.59375 
L 33.09375 0 
L 27.296875 0 
L 30.40625 21.59375 
L 17 21.59375 
L 13.703125 0 
L 7.90625 0 
L 11.203125 21.59375 
L 0.59375 21.59375 
L 0.59375 27.09375 
L 12.09375 27.09375 
L 14.203125 40.5 
L 3.296875 40.5 
L 3.296875 46 
L 15 46 
L 18.09375 66.203125 
L 23.90625 66.203125 
L 20.796875 46 
L 34.09375 46 
L 37.09375 66.203125 
L 42.90625 66.203125 
L 39.90625 46 
L 49.5 46 
z
M 33.296875 40.5 
L 20 40.5 
L 17.90625 27.09375 
L 31.296875 27.09375 
z
" id="STIXGeneral-Regular-35"/>
      </defs>
      <use xlink:href="#STIXGeneral-Regular-83"/>
      <use x="55.599991" xlink:href="#STIXGeneral-Regular-105"/>
      <use x="83.399979" xlink:href="#STIXGeneral-Regular-116"/>
      <use x="111.199966" xlink:href="#STIXGeneral-Regular-101"/>
      <use x="155.59996" xlink:href="#STIXGeneral-Regular-32"/>
      <use x="180.599945" xlink:href="#STIXGeneral-Regular-35"/>
     </g>
    </g>
   </g>
   <g id="matplotlib.axis_2">
    <g id="ytick_1">
     <g id="line2d_12">
      <defs>
       <path d="M 0 0 
L -3.5 0 
" id="m3d5fed6751" style="stroke:#000000;stroke-width:0.8;"/>
      </defs>
      <g>
       <use style="stroke:#000000;stroke-width:0.8;" x="107.6" xlink:href="#m3d5fed6751" y="276.405719"/>
      </g>
     </g>
     <g id="text_13">
      <!-- 500 -->
      <g transform="translate(64.6 284.601344)scale(0.24 -0.24)">
       <use xlink:href="#STIXGeneral-Regular-53"/>
       <use x="49.999985" xlink:href="#STIXGeneral-Regular-48"/>
       <use x="99.999969" xlink:href="#STIXGeneral-Regular-48"/>
      </g>
     </g>
    </g>
    <g id="ytick_2">
     <g id="line2d_13">
      <g>
       <use style="stroke:#000000;stroke-width:0.8;" x="107.6" xlink:href="#m3d5fed6751" y="209.655128"/>
      </g>
     </g>
     <g id="text_14">
      <!-- 750 -->
      <g transform="translate(64.6 217.850753)scale(0.24 -0.24)">
       <use xlink:href="#STIXGeneral-Regular-55"/>
       <use x="49.999985" xlink:href="#STIXGeneral-Regular-53"/>
       <use x="99.999969" xlink:href="#STIXGeneral-Regular-48"/>
      </g>
     </g>
    </g>
    <g id="ytick_3">
     <g id="line2d_14">
      <g>
       <use style="stroke:#000000;stroke-width:0.8;" x="107.6" xlink:href="#m3d5fed6751" y="142.904537"/>
      </g>
     </g>
     <g id="text_15">
      <!-- 1000 -->
      <g transform="translate(52.6 151.100162)scale(0.24 -0.24)">
       <use xlink:href="#STIXGeneral-Regular-49"/>
       <use x="49.999985" xlink:href="#STIXGeneral-Regular-48"/>
       <use x="99.999969" xlink:href="#STIXGeneral-Regular-48"/>
       <use x="149.999954" xlink:href="#STIXGeneral-Regular-48"/>
      </g>
     </g>
    </g>
    <g id="ytick_4">
     <g id="line2d_15">
      <g>
       <use style="stroke:#000000;stroke-width:0.8;" x="107.6" xlink:href="#m3d5fed6751" y="76.153946"/>
      </g>
     </g>
     <g id="text_16">
      <!-- 1250 -->
      <g transform="translate(52.6 84.349571)scale(0.24 -0.24)">
       <use xlink:href="#STIXGeneral-Regular-49"/>
       <use x="49.999985" xlink:href="#STIXGeneral-Regular-50"/>
       <use x="99.999969" xlink:href="#STIXGeneral-Regular-53"/>
       <use x="149.999954" xlink:href="#STIXGeneral-Regular-48"/>
      </g>
     </g>
    </g>
    <g id="text_17">
     <!-- T$_1$ (ms) -->
     <g transform="translate(42.089062 211.25)rotate(-90)scale(0.3 -0.3)">
      <defs>
       <path d="M 59.296875 49.203125 
L 56.90625 49.203125 
Q 55.296875 57.40625 52.390625 59.703125 
Q 49.5 62 41.5 62 
L 35.59375 62 
L 35.59375 11.09375 
Q 35.59375 5.40625 37.296875 3.796875 
Q 39 2.203125 45.203125 1.90625 
L 45.203125 0 
L 16 0 
L 16 1.90625 
Q 22.296875 2.296875 23.84375 4 
Q 25.40625 5.703125 25.40625 12.296875 
L 25.40625 62 
L 19.40625 62 
Q 11.296875 62 8.4375 59.640625 
Q 5.59375 57.296875 4.09375 49.203125 
L 1.703125 49.203125 
L 2.40625 66.203125 
L 58.59375 66.203125 
z
" id="STIXGeneral-Regular-84"/>
       <path d="M 30.40625 -16.09375 
L 29.203125 -17.703125 
Q 17.59375 -11.09375 11.1875 0.5 
Q 4.796875 12.09375 4.796875 25.203125 
Q 4.796875 52.90625 29.5 67.59375 
L 30.40625 66 
Q 20.203125 57.296875 16.796875 48.84375 
Q 13.40625 40.40625 13.40625 25.5 
Q 13.40625 10.703125 16.90625 1.5 
Q 20.40625 -7.703125 30.40625 -16.09375 
z
" id="STIXGeneral-Regular-40"/>
       <path d="M 77.5 0 
L 55.703125 0 
L 55.703125 1.5 
Q 59.90625 1.90625 61.046875 3.25 
Q 62.203125 4.59375 62.203125 9 
L 62.203125 29.59375 
Q 62.203125 35.59375 60.453125 38.1875 
Q 58.703125 40.796875 54.5 40.796875 
Q 51 40.796875 48.546875 39.390625 
Q 46.09375 38 43.796875 34.703125 
L 43.796875 9.5 
Q 43.796875 4.703125 45.25 3.140625 
Q 46.703125 1.59375 51 1.5 
L 51 0 
L 28.59375 0 
L 28.59375 1.5 
Q 33 1.796875 34.203125 2.9375 
Q 35.40625 4.09375 35.40625 8.59375 
L 35.40625 29.703125 
Q 35.40625 40.796875 28.90625 40.796875 
Q 26.09375 40.796875 22.9375 39.546875 
Q 19.796875 38.296875 18.296875 36.5 
Q 17 35 17 34.796875 
L 17 7 
Q 17 3.796875 18.390625 2.75 
Q 19.796875 1.703125 23.796875 1.5 
L 23.796875 0 
L 1.59375 0 
L 1.59375 1.5 
Q 5.796875 1.59375 7.1875 3.046875 
Q 8.59375 4.5 8.59375 8.796875 
L 8.59375 33.59375 
Q 8.59375 37.296875 7.796875 38.75 
Q 7 40.203125 5.09375 40.203125 
Q 3.59375 40.203125 1.90625 39.796875 
L 1.90625 41.5 
Q 8.703125 43.40625 15.796875 46 
L 16.59375 45.703125 
L 16.59375 38.296875 
L 16.796875 38.296875 
Q 21.296875 43 24.75 44.5 
Q 28.203125 46 32.09375 46 
Q 40 46 42.703125 37.59375 
Q 50.5 46 59 46 
Q 70.59375 46 70.59375 28 
L 70.59375 7.703125 
Q 70.59375 4.40625 71.59375 3.15625 
Q 72.59375 1.90625 74.90625 1.703125 
L 77.5 1.5 
z
" id="STIXGeneral-Regular-109"/>
       <path d="M 15.59375 30.09375 
L 26 23.796875 
Q 31 20.796875 32.890625 18.1875 
Q 34.796875 15.59375 34.796875 11.5 
Q 34.796875 6.5 30.640625 2.75 
Q 26.5 -1 20.796875 -1 
Q 16.09375 -1 13.5 -0.09375 
Q 10.796875 0.796875 8.90625 0.796875 
Q 7.203125 0.796875 6.5 -0.40625 
L 5.203125 -0.40625 
L 5.203125 15.296875 
L 6.796875 15.296875 
Q 8.40625 8 11.40625 4.59375 
Q 14.40625 1.203125 19.5 1.203125 
Q 23.203125 1.203125 25.5 3.296875 
Q 27.796875 5.40625 27.796875 8.59375 
Q 27.796875 13.203125 22.5 16.09375 
L 17.09375 19.09375 
Q 5.09375 25.796875 5.09375 33.59375 
Q 5.09375 39.40625 8.84375 42.65625 
Q 12.59375 45.90625 18.90625 45.90625 
Q 23.296875 45.90625 25.59375 44.796875 
Q 27.40625 44 28.40625 44 
Q 29.09375 44 30 45 
L 31.09375 45 
L 31.59375 31.40625 
L 30.09375 31.40625 
Q 28.40625 38.203125 25.84375 40.953125 
Q 23.296875 43.703125 18.796875 43.703125 
Q 15.40625 43.703125 13.34375 42 
Q 11.296875 40.296875 11.296875 36.90625 
Q 11.296875 35.203125 12.4375 33.25 
Q 13.59375 31.296875 15.59375 30.09375 
z
" id="STIXGeneral-Regular-115"/>
       <path d="M 2.90625 66 
L 4.09375 67.59375 
Q 15.5 60.796875 22 49.1875 
Q 28.5 37.59375 28.5 24.703125 
Q 28.5 -2.59375 3.796875 -17.703125 
L 2.90625 -16.09375 
Q 13.203125 -7.59375 16.546875 0.84375 
Q 19.90625 9.296875 19.90625 24.40625 
Q 19.90625 39.59375 16.546875 48.75 
Q 13.203125 57.90625 2.90625 66 
z
" id="STIXGeneral-Regular-41"/>
      </defs>
      <use transform="translate(0 0.40625)" xlink:href="#STIXGeneral-Regular-84"/>
      <use transform="translate(62.643272 -12.821875)scale(0.7)" xlink:href="#STIXGeneral-Regular-49"/>
      <use transform="translate(102.052636 0.40625)" xlink:href="#STIXGeneral-Regular-32"/>
      <use transform="translate(127.052621 0.40625)" xlink:href="#STIXGeneral-Regular-40"/>
      <use transform="translate(160.352609 0.40625)" xlink:href="#STIXGeneral-Regular-109"/>
      <use transform="translate(238.152597 0.40625)" xlink:href="#STIXGeneral-Regular-115"/>
      <use transform="translate(277.052591 0.40625)" xlink:href="#STIXGeneral-Regular-41"/>
     </g>
    </g>
   </g>
   <g id="LineCollection_1">
    <path clip-path="url(#pebd3e1666e)" d="M 233.148828 104.448988 
L 233.148828 60.781818 
" style="fill:none;stroke:#1f77b4;stroke-width:3;"/>
    <path clip-path="url(#pebd3e1666e)" d="M 358.572232 194.960246 
L 358.572232 162.619064 
" style="fill:none;stroke:#1f77b4;stroke-width:3;"/>
    <path clip-path="url(#pebd3e1666e)" d="M 358.697656 188.417858 
L 358.697656 161.685386 
" style="fill:none;stroke:#1f77b4;stroke-width:3;"/>
    <path clip-path="url(#pebd3e1666e)" d="M 358.823079 182.155069 
L 358.823079 157.321481 
" style="fill:none;stroke:#1f77b4;stroke-width:3;"/>
    <path clip-path="url(#pebd3e1666e)" d="M 358.948503 179.617537 
L 358.948503 142.984463 
" style="fill:none;stroke:#1f77b4;stroke-width:3;"/>
    <path clip-path="url(#pebd3e1666e)" d="M 359.073926 226.467648 
L 359.073926 172.924232 
" style="fill:none;stroke:#1f77b4;stroke-width:3;"/>
    <path clip-path="url(#pebd3e1666e)" d="M 359.199349 229.220312 
L 359.199349 180.851662 
" style="fill:none;stroke:#1f77b4;stroke-width:3;"/>
    <path clip-path="url(#pebd3e1666e)" d="M 483.995637 194.978082 
L 483.995637 109.78816 
" style="fill:none;stroke:#1f77b4;stroke-width:3;"/>
    <path clip-path="url(#pebd3e1666e)" d="M 609.419041 199.896274 
L 609.419041 186.519292 
" style="fill:none;stroke:#1f77b4;stroke-width:3;"/>
    <path clip-path="url(#pebd3e1666e)" d="M 734.842446 222.630056 
L 734.842446 142.425321 
" style="fill:none;stroke:#1f77b4;stroke-width:3;"/>
    <path clip-path="url(#pebd3e1666e)" d="M 734.967869 208.805049 
L 734.967869 163.833194 
" style="fill:none;stroke:#1f77b4;stroke-width:3;"/>
    <path clip-path="url(#pebd3e1666e)" d="M 735.093293 230.363705 
L 735.093293 129.191422 
" style="fill:none;stroke:#1f77b4;stroke-width:3;"/>
    <path clip-path="url(#pebd3e1666e)" d="M 735.218716 216.140112 
L 735.218716 154.468913 
" style="fill:none;stroke:#1f77b4;stroke-width:3;"/>
    <path clip-path="url(#pebd3e1666e)" d="M 860.26585 268.418182 
L 860.26585 254.168589 
" style="fill:none;stroke:#1f77b4;stroke-width:3;"/>
    <path clip-path="url(#pebd3e1666e)" d="M 985.689255 201.191606 
L 985.689255 177.187188 
" style="fill:none;stroke:#1f77b4;stroke-width:3;"/>
    <path clip-path="url(#pebd3e1666e)" d="M 1111.112659 205.176606 
L 1111.112659 197.526103 
" style="fill:none;stroke:#1f77b4;stroke-width:3;"/>
    <path clip-path="url(#pebd3e1666e)" d="M 1111.238082 207.808459 
L 1111.238082 195.508355 
" style="fill:none;stroke:#1f77b4;stroke-width:3;"/>
    <path clip-path="url(#pebd3e1666e)" d="M 1236.536064 208.982582 
L 1236.536064 199.64758 
" style="fill:none;stroke:#1f77b4;stroke-width:3;"/>
    <path clip-path="url(#pebd3e1666e)" d="M 1236.661487 199.353116 
L 1236.661487 187.916857 
" style="fill:none;stroke:#1f77b4;stroke-width:3;"/>
    <path clip-path="url(#pebd3e1666e)" d="M 1236.78691 197.587106 
L 1236.78691 190.537274 
" style="fill:none;stroke:#1f77b4;stroke-width:3;"/>
    <path clip-path="url(#pebd3e1666e)" d="M 1236.912334 193.4463 
L 1236.912334 179.88615 
" style="fill:none;stroke:#1f77b4;stroke-width:3;"/>
    <path clip-path="url(#pebd3e1666e)" d="M 1237.037757 194.670926 
L 1237.037757 185.550184 
" style="fill:none;stroke:#1f77b4;stroke-width:3;"/>
    <path clip-path="url(#pebd3e1666e)" d="M 1237.163181 199.811777 
L 1237.163181 186.336786 
" style="fill:none;stroke:#1f77b4;stroke-width:3;"/>
    <path clip-path="url(#pebd3e1666e)" d="M 1237.288604 196.932774 
L 1237.288604 189.37599 
" style="fill:none;stroke:#1f77b4;stroke-width:3;"/>
    <path clip-path="url(#pebd3e1666e)" d="M 1237.414027 205.591928 
L 1237.414027 192.705243 
" style="fill:none;stroke:#1f77b4;stroke-width:3;"/>
    <path clip-path="url(#pebd3e1666e)" d="M 1237.539451 192.24027 
L 1237.539451 181.946587 
" style="fill:none;stroke:#1f77b4;stroke-width:3;"/>
    <path clip-path="url(#pebd3e1666e)" d="M 1237.664874 189.271972 
L 1237.664874 182.565264 
" style="fill:none;stroke:#1f77b4;stroke-width:3;"/>
    <path clip-path="url(#pebd3e1666e)" d="M 1237.790298 216.631586 
L 1237.790298 189.14165 
" style="fill:none;stroke:#1f77b4;stroke-width:3;"/>
    <path clip-path="url(#pebd3e1666e)" d="M 1237.915721 212.867215 
L 1237.915721 199.981584 
" style="fill:none;stroke:#1f77b4;stroke-width:3;"/>
    <path clip-path="url(#pebd3e1666e)" d="M 1238.041144 196.155771 
L 1238.041144 184.599344 
" style="fill:none;stroke:#1f77b4;stroke-width:3;"/>
    <path clip-path="url(#pebd3e1666e)" d="M 1238.166568 193.004062 
L 1238.166568 184.493624 
" style="fill:none;stroke:#1f77b4;stroke-width:3;"/>
    <path clip-path="url(#pebd3e1666e)" d="M 1238.291991 200.587232 
L 1238.291991 177.711461 
" style="fill:none;stroke:#1f77b4;stroke-width:3;"/>
    <path clip-path="url(#pebd3e1666e)" d="M 1238.417415 198.322402 
L 1238.417415 184.24833 
" style="fill:none;stroke:#1f77b4;stroke-width:3;"/>
    <path clip-path="url(#pebd3e1666e)" d="M 1238.542838 195.663101 
L 1238.542838 184.451209 
" style="fill:none;stroke:#1f77b4;stroke-width:3;"/>
    <path clip-path="url(#pebd3e1666e)" d="M 1238.668261 209.34885 
L 1238.668261 191.484843 
" style="fill:none;stroke:#1f77b4;stroke-width:3;"/>
    <path clip-path="url(#pebd3e1666e)" d="M 1238.793685 203.77823 
L 1238.793685 190.166802 
" style="fill:none;stroke:#1f77b4;stroke-width:3;"/>
    <path clip-path="url(#pebd3e1666e)" d="M 1238.919108 199.116244 
L 1238.919108 186.07111 
" style="fill:none;stroke:#1f77b4;stroke-width:3;"/>
    <path clip-path="url(#pebd3e1666e)" d="M 1239.044532 195.228257 
L 1239.044532 186.381266 
" style="fill:none;stroke:#1f77b4;stroke-width:3;"/>
    <path clip-path="url(#pebd3e1666e)" d="M 1239.169955 198.361045 
L 1239.169955 184.156286 
" style="fill:none;stroke:#1f77b4;stroke-width:3;"/>
    <path clip-path="url(#pebd3e1666e)" d="M 1239.295378 200.431096 
L 1239.295378 188.654493 
" style="fill:none;stroke:#1f77b4;stroke-width:3;"/>
    <path clip-path="url(#pebd3e1666e)" d="M 1239.420802 196.650884 
L 1239.420802 187.521861 
" style="fill:none;stroke:#1f77b4;stroke-width:3;"/>
    <path clip-path="url(#pebd3e1666e)" d="M 1239.546225 201.476638 
L 1239.546225 186.060337 
" style="fill:none;stroke:#1f77b4;stroke-width:3;"/>
    <path clip-path="url(#pebd3e1666e)" d="M 1239.671649 205.675215 
L 1239.671649 190.192233 
" style="fill:none;stroke:#1f77b4;stroke-width:3;"/>
    <path clip-path="url(#pebd3e1666e)" d="M 1239.797072 187.97848 
L 1239.797072 177.824503 
" style="fill:none;stroke:#1f77b4;stroke-width:3;"/>
    <path clip-path="url(#pebd3e1666e)" d="M 1239.922495 185.701555 
L 1239.922495 178.12561 
" style="fill:none;stroke:#1f77b4;stroke-width:3;"/>
    <path clip-path="url(#pebd3e1666e)" d="M 1240.047919 193.077244 
L 1240.047919 181.296514 
" style="fill:none;stroke:#1f77b4;stroke-width:3;"/>
    <path clip-path="url(#pebd3e1666e)" d="M 1240.173342 198.513508 
L 1240.173342 182.989213 
" style="fill:none;stroke:#1f77b4;stroke-width:3;"/>
    <path clip-path="url(#pebd3e1666e)" d="M 1240.298766 192.899179 
L 1240.298766 182.088685 
" style="fill:none;stroke:#1f77b4;stroke-width:3;"/>
    <path clip-path="url(#pebd3e1666e)" d="M 1240.424189 189.505299 
L 1240.424189 183.026143 
" style="fill:none;stroke:#1f77b4;stroke-width:3;"/>
    <path clip-path="url(#pebd3e1666e)" d="M 1240.549612 194.942671 
L 1240.549612 184.530832 
" style="fill:none;stroke:#1f77b4;stroke-width:3;"/>
    <path clip-path="url(#pebd3e1666e)" d="M 1240.675036 194.372232 
L 1240.675036 186.810087 
" style="fill:none;stroke:#1f77b4;stroke-width:3;"/>
    <path clip-path="url(#pebd3e1666e)" d="M 1240.800459 198.355585 
L 1240.800459 185.122955 
" style="fill:none;stroke:#1f77b4;stroke-width:3;"/>
    <path clip-path="url(#pebd3e1666e)" d="M 1240.925883 183.862297 
L 1240.925883 166.855052 
" style="fill:none;stroke:#1f77b4;stroke-width:3;"/>
    <path clip-path="url(#pebd3e1666e)" d="M 1241.051306 187.551366 
L 1241.051306 175.634993 
" style="fill:none;stroke:#1f77b4;stroke-width:3;"/>
    <path clip-path="url(#pebd3e1666e)" d="M 1241.176729 186.029373 
L 1241.176729 177.477389 
" style="fill:none;stroke:#1f77b4;stroke-width:3;"/>
    <path clip-path="url(#pebd3e1666e)" d="M 1361.959468 203.099553 
L 1361.959468 183.422813 
" style="fill:none;stroke:#1f77b4;stroke-width:3;"/>
   </g>
   <g id="line2d_16">
    <defs>
     <path d="M 10 0 
L -10 -0 
" id="mfe9a3f56a5" style="stroke:#1f77b4;"/>
    </defs>
    <g clip-path="url(#pebd3e1666e)">
     <use style="fill:#1f77b4;stroke:#1f77b4;" x="233.148828" xlink:href="#mfe9a3f56a5" y="104.448988"/>
     <use style="fill:#1f77b4;stroke:#1f77b4;" x="358.572232" xlink:href="#mfe9a3f56a5" y="194.960246"/>
     <use style="fill:#1f77b4;stroke:#1f77b4;" x="358.697656" xlink:href="#mfe9a3f56a5" y="188.417858"/>
     <use style="fill:#1f77b4;stroke:#1f77b4;" x="358.823079" xlink:href="#mfe9a3f56a5" y="182.155069"/>
     <use style="fill:#1f77b4;stroke:#1f77b4;" x="358.948503" xlink:href="#mfe9a3f56a5" y="179.617537"/>
     <use style="fill:#1f77b4;stroke:#1f77b4;" x="359.073926" xlink:href="#mfe9a3f56a5" y="226.467648"/>
     <use style="fill:#1f77b4;stroke:#1f77b4;" x="359.199349" xlink:href="#mfe9a3f56a5" y="229.220312"/>
     <use style="fill:#1f77b4;stroke:#1f77b4;" x="483.995637" xlink:href="#mfe9a3f56a5" y="194.978082"/>
     <use style="fill:#1f77b4;stroke:#1f77b4;" x="609.419041" xlink:href="#mfe9a3f56a5" y="199.896274"/>
     <use style="fill:#1f77b4;stroke:#1f77b4;" x="734.842446" xlink:href="#mfe9a3f56a5" y="222.630056"/>
     <use style="fill:#1f77b4;stroke:#1f77b4;" x="734.967869" xlink:href="#mfe9a3f56a5" y="208.805049"/>
     <use style="fill:#1f77b4;stroke:#1f77b4;" x="735.093293" xlink:href="#mfe9a3f56a5" y="230.363705"/>
     <use style="fill:#1f77b4;stroke:#1f77b4;" x="735.218716" xlink:href="#mfe9a3f56a5" y="216.140112"/>
     <use style="fill:#1f77b4;stroke:#1f77b4;" x="860.26585" xlink:href="#mfe9a3f56a5" y="268.418182"/>
     <use style="fill:#1f77b4;stroke:#1f77b4;" x="985.689255" xlink:href="#mfe9a3f56a5" y="201.191606"/>
     <use style="fill:#1f77b4;stroke:#1f77b4;" x="1111.112659" xlink:href="#mfe9a3f56a5" y="205.176606"/>
     <use style="fill:#1f77b4;stroke:#1f77b4;" x="1111.238082" xlink:href="#mfe9a3f56a5" y="207.808459"/>
     <use style="fill:#1f77b4;stroke:#1f77b4;" x="1236.536064" xlink:href="#mfe9a3f56a5" y="208.982582"/>
     <use style="fill:#1f77b4;stroke:#1f77b4;" x="1236.661487" xlink:href="#mfe9a3f56a5" y="199.353116"/>
     <use style="fill:#1f77b4;stroke:#1f77b4;" x="1236.78691" xlink:href="#mfe9a3f56a5" y="197.587106"/>
     <use style="fill:#1f77b4;stroke:#1f77b4;" x="1236.912334" xlink:href="#mfe9a3f56a5" y="193.4463"/>
     <use style="fill:#1f77b4;stroke:#1f77b4;" x="1237.037757" xlink:href="#mfe9a3f56a5" y="194.670926"/>
     <use style="fill:#1f77b4;stroke:#1f77b4;" x="1237.163181" xlink:href="#mfe9a3f56a5" y="199.811777"/>
     <use style="fill:#1f77b4;stroke:#1f77b4;" x="1237.288604" xlink:href="#mfe9a3f56a5" y="196.932774"/>
     <use style="fill:#1f77b4;stroke:#1f77b4;" x="1237.414027" xlink:href="#mfe9a3f56a5" y="205.591928"/>
     <use style="fill:#1f77b4;stroke:#1f77b4;" x="1237.539451" xlink:href="#mfe9a3f56a5" y="192.24027"/>
     <use style="fill:#1f77b4;stroke:#1f77b4;" x="1237.664874" xlink:href="#mfe9a3f56a5" y="189.271972"/>
     <use style="fill:#1f77b4;stroke:#1f77b4;" x="1237.790298" xlink:href="#mfe9a3f56a5" y="216.631586"/>
     <use style="fill:#1f77b4;stroke:#1f77b4;" x="1237.915721" xlink:href="#mfe9a3f56a5" y="212.867215"/>
     <use style="fill:#1f77b4;stroke:#1f77b4;" x="1238.041144" xlink:href="#mfe9a3f56a5" y="196.155771"/>
     <use style="fill:#1f77b4;stroke:#1f77b4;" x="1238.166568" xlink:href="#mfe9a3f56a5" y="193.004062"/>
     <use style="fill:#1f77b4;stroke:#1f77b4;" x="1238.291991" xlink:href="#mfe9a3f56a5" y="200.587232"/>
     <use style="fill:#1f77b4;stroke:#1f77b4;" x="1238.417415" xlink:href="#mfe9a3f56a5" y="198.322402"/>
     <use style="fill:#1f77b4;stroke:#1f77b4;" x="1238.542838" xlink:href="#mfe9a3f56a5" y="195.663101"/>
     <use style="fill:#1f77b4;stroke:#1f77b4;" x="1238.668261" xlink:href="#mfe9a3f56a5" y="209.34885"/>
     <use style="fill:#1f77b4;stroke:#1f77b4;" x="1238.793685" xlink:href="#mfe9a3f56a5" y="203.77823"/>
     <use style="fill:#1f77b4;stroke:#1f77b4;" x="1238.919108" xlink:href="#mfe9a3f56a5" y="199.116244"/>
     <use style="fill:#1f77b4;stroke:#1f77b4;" x="1239.044532" xlink:href="#mfe9a3f56a5" y="195.228257"/>
     <use style="fill:#1f77b4;stroke:#1f77b4;" x="1239.169955" xlink:href="#mfe9a3f56a5" y="198.361045"/>
     <use style="fill:#1f77b4;stroke:#1f77b4;" x="1239.295378" xlink:href="#mfe9a3f56a5" y="200.431096"/>
     <use style="fill:#1f77b4;stroke:#1f77b4;" x="1239.420802" xlink:href="#mfe9a3f56a5" y="196.650884"/>
     <use style="fill:#1f77b4;stroke:#1f77b4;" x="1239.546225" xlink:href="#mfe9a3f56a5" y="201.476638"/>
     <use style="fill:#1f77b4;stroke:#1f77b4;" x="1239.671649" xlink:href="#mfe9a3f56a5" y="205.675215"/>
     <use style="fill:#1f77b4;stroke:#1f77b4;" x="1239.797072" xlink:href="#mfe9a3f56a5" y="187.97848"/>
     <use style="fill:#1f77b4;stroke:#1f77b4;" x="1239.922495" xlink:href="#mfe9a3f56a5" y="185.701555"/>
     <use style="fill:#1f77b4;stroke:#1f77b4;" x="1240.047919" xlink:href="#mfe9a3f56a5" y="193.077244"/>
     <use style="fill:#1f77b4;stroke:#1f77b4;" x="1240.173342" xlink:href="#mfe9a3f56a5" y="198.513508"/>
     <use style="fill:#1f77b4;stroke:#1f77b4;" x="1240.298766" xlink:href="#mfe9a3f56a5" y="192.899179"/>
     <use style="fill:#1f77b4;stroke:#1f77b4;" x="1240.424189" xlink:href="#mfe9a3f56a5" y="189.505299"/>
     <use style="fill:#1f77b4;stroke:#1f77b4;" x="1240.549612" xlink:href="#mfe9a3f56a5" y="194.942671"/>
     <use style="fill:#1f77b4;stroke:#1f77b4;" x="1240.675036" xlink:href="#mfe9a3f56a5" y="194.372232"/>
     <use style="fill:#1f77b4;stroke:#1f77b4;" x="1240.800459" xlink:href="#mfe9a3f56a5" y="198.355585"/>
     <use style="fill:#1f77b4;stroke:#1f77b4;" x="1240.925883" xlink:href="#mfe9a3f56a5" y="183.862297"/>
     <use style="fill:#1f77b4;stroke:#1f77b4;" x="1241.051306" xlink:href="#mfe9a3f56a5" y="187.551366"/>
     <use style="fill:#1f77b4;stroke:#1f77b4;" x="1241.176729" xlink:href="#mfe9a3f56a5" y="186.029373"/>
     <use style="fill:#1f77b4;stroke:#1f77b4;" x="1361.959468" xlink:href="#mfe9a3f56a5" y="203.099553"/>
    </g>
   </g>
   <g id="line2d_17">
    <g clip-path="url(#pebd3e1666e)">
     <use style="fill:#1f77b4;stroke:#1f77b4;" x="233.148828" xlink:href="#mfe9a3f56a5" y="60.781818"/>
     <use style="fill:#1f77b4;stroke:#1f77b4;" x="358.572232" xlink:href="#mfe9a3f56a5" y="162.619064"/>
     <use style="fill:#1f77b4;stroke:#1f77b4;" x="358.697656" xlink:href="#mfe9a3f56a5" y="161.685386"/>
     <use style="fill:#1f77b4;stroke:#1f77b4;" x="358.823079" xlink:href="#mfe9a3f56a5" y="157.321481"/>
     <use style="fill:#1f77b4;stroke:#1f77b4;" x="358.948503" xlink:href="#mfe9a3f56a5" y="142.984463"/>
     <use style="fill:#1f77b4;stroke:#1f77b4;" x="359.073926" xlink:href="#mfe9a3f56a5" y="172.924232"/>
     <use style="fill:#1f77b4;stroke:#1f77b4;" x="359.199349" xlink:href="#mfe9a3f56a5" y="180.851662"/>
     <use style="fill:#1f77b4;stroke:#1f77b4;" x="483.995637" xlink:href="#mfe9a3f56a5" y="109.78816"/>
     <use style="fill:#1f77b4;stroke:#1f77b4;" x="609.419041" xlink:href="#mfe9a3f56a5" y="186.519292"/>
     <use style="fill:#1f77b4;stroke:#1f77b4;" x="734.842446" xlink:href="#mfe9a3f56a5" y="142.425321"/>
     <use style="fill:#1f77b4;stroke:#1f77b4;" x="734.967869" xlink:href="#mfe9a3f56a5" y="163.833194"/>
     <use style="fill:#1f77b4;stroke:#1f77b4;" x="735.093293" xlink:href="#mfe9a3f56a5" y="129.191422"/>
     <use style="fill:#1f77b4;stroke:#1f77b4;" x="735.218716" xlink:href="#mfe9a3f56a5" y="154.468913"/>
     <use style="fill:#1f77b4;stroke:#1f77b4;" x="860.26585" xlink:href="#mfe9a3f56a5" y="254.168589"/>
     <use style="fill:#1f77b4;stroke:#1f77b4;" x="985.689255" xlink:href="#mfe9a3f56a5" y="177.187188"/>
     <use style="fill:#1f77b4;stroke:#1f77b4;" x="1111.112659" xlink:href="#mfe9a3f56a5" y="197.526103"/>
     <use style="fill:#1f77b4;stroke:#1f77b4;" x="1111.238082" xlink:href="#mfe9a3f56a5" y="195.508355"/>
     <use style="fill:#1f77b4;stroke:#1f77b4;" x="1236.536064" xlink:href="#mfe9a3f56a5" y="199.64758"/>
     <use style="fill:#1f77b4;stroke:#1f77b4;" x="1236.661487" xlink:href="#mfe9a3f56a5" y="187.916857"/>
     <use style="fill:#1f77b4;stroke:#1f77b4;" x="1236.78691" xlink:href="#mfe9a3f56a5" y="190.537274"/>
     <use style="fill:#1f77b4;stroke:#1f77b4;" x="1236.912334" xlink:href="#mfe9a3f56a5" y="179.88615"/>
     <use style="fill:#1f77b4;stroke:#1f77b4;" x="1237.037757" xlink:href="#mfe9a3f56a5" y="185.550184"/>
     <use style="fill:#1f77b4;stroke:#1f77b4;" x="1237.163181" xlink:href="#mfe9a3f56a5" y="186.336786"/>
     <use style="fill:#1f77b4;stroke:#1f77b4;" x="1237.288604" xlink:href="#mfe9a3f56a5" y="189.37599"/>
     <use style="fill:#1f77b4;stroke:#1f77b4;" x="1237.414027" xlink:href="#mfe9a3f56a5" y="192.705243"/>
     <use style="fill:#1f77b4;stroke:#1f77b4;" x="1237.539451" xlink:href="#mfe9a3f56a5" y="181.946587"/>
     <use style="fill:#1f77b4;stroke:#1f77b4;" x="1237.664874" xlink:href="#mfe9a3f56a5" y="182.565264"/>
     <use style="fill:#1f77b4;stroke:#1f77b4;" x="1237.790298" xlink:href="#mfe9a3f56a5" y="189.14165"/>
     <use style="fill:#1f77b4;stroke:#1f77b4;" x="1237.915721" xlink:href="#mfe9a3f56a5" y="199.981584"/>
     <use style="fill:#1f77b4;stroke:#1f77b4;" x="1238.041144" xlink:href="#mfe9a3f56a5" y="184.599344"/>
     <use style="fill:#1f77b4;stroke:#1f77b4;" x="1238.166568" xlink:href="#mfe9a3f56a5" y="184.493624"/>
     <use style="fill:#1f77b4;stroke:#1f77b4;" x="1238.291991" xlink:href="#mfe9a3f56a5" y="177.711461"/>
     <use style="fill:#1f77b4;stroke:#1f77b4;" x="1238.417415" xlink:href="#mfe9a3f56a5" y="184.24833"/>
     <use style="fill:#1f77b4;stroke:#1f77b4;" x="1238.542838" xlink:href="#mfe9a3f56a5" y="184.451209"/>
     <use style="fill:#1f77b4;stroke:#1f77b4;" x="1238.668261" xlink:href="#mfe9a3f56a5" y="191.484843"/>
     <use style="fill:#1f77b4;stroke:#1f77b4;" x="1238.793685" xlink:href="#mfe9a3f56a5" y="190.166802"/>
     <use style="fill:#1f77b4;stroke:#1f77b4;" x="1238.919108" xlink:href="#mfe9a3f56a5" y="186.07111"/>
     <use style="fill:#1f77b4;stroke:#1f77b4;" x="1239.044532" xlink:href="#mfe9a3f56a5" y="186.381266"/>
     <use style="fill:#1f77b4;stroke:#1f77b4;" x="1239.169955" xlink:href="#mfe9a3f56a5" y="184.156286"/>
     <use style="fill:#1f77b4;stroke:#1f77b4;" x="1239.295378" xlink:href="#mfe9a3f56a5" y="188.654493"/>
     <use style="fill:#1f77b4;stroke:#1f77b4;" x="1239.420802" xlink:href="#mfe9a3f56a5" y="187.521861"/>
     <use style="fill:#1f77b4;stroke:#1f77b4;" x="1239.546225" xlink:href="#mfe9a3f56a5" y="186.060337"/>
     <use style="fill:#1f77b4;stroke:#1f77b4;" x="1239.671649" xlink:href="#mfe9a3f56a5" y="190.192233"/>
     <use style="fill:#1f77b4;stroke:#1f77b4;" x="1239.797072" xlink:href="#mfe9a3f56a5" y="177.824503"/>
     <use style="fill:#1f77b4;stroke:#1f77b4;" x="1239.922495" xlink:href="#mfe9a3f56a5" y="178.12561"/>
     <use style="fill:#1f77b4;stroke:#1f77b4;" x="1240.047919" xlink:href="#mfe9a3f56a5" y="181.296514"/>
     <use style="fill:#1f77b4;stroke:#1f77b4;" x="1240.173342" xlink:href="#mfe9a3f56a5" y="182.989213"/>
     <use style="fill:#1f77b4;stroke:#1f77b4;" x="1240.298766" xlink:href="#mfe9a3f56a5" y="182.088685"/>
     <use style="fill:#1f77b4;stroke:#1f77b4;" x="1240.424189" xlink:href="#mfe9a3f56a5" y="183.026143"/>
     <use style="fill:#1f77b4;stroke:#1f77b4;" x="1240.549612" xlink:href="#mfe9a3f56a5" y="184.530832"/>
     <use style="fill:#1f77b4;stroke:#1f77b4;" x="1240.675036" xlink:href="#mfe9a3f56a5" y="186.810087"/>
     <use style="fill:#1f77b4;stroke:#1f77b4;" x="1240.800459" xlink:href="#mfe9a3f56a5" y="185.122955"/>
     <use style="fill:#1f77b4;stroke:#1f77b4;" x="1240.925883" xlink:href="#mfe9a3f56a5" y="166.855052"/>
     <use style="fill:#1f77b4;stroke:#1f77b4;" x="1241.051306" xlink:href="#mfe9a3f56a5" y="175.634993"/>
     <use style="fill:#1f77b4;stroke:#1f77b4;" x="1241.176729" xlink:href="#mfe9a3f56a5" y="177.477389"/>
     <use style="fill:#1f77b4;stroke:#1f77b4;" x="1361.959468" xlink:href="#mfe9a3f56a5" y="183.422813"/>
    </g>
   </g>
   <g id="line2d_18">
    <defs>
     <path d="M 0 5 
C 1.326016 5 2.597899 4.473168 3.535534 3.535534 
C 4.473168 2.597899 5 1.326016 5 0 
C 5 -1.326016 4.473168 -2.597899 3.535534 -3.535534 
C 2.597899 -4.473168 1.326016 -5 0 -5 
C -1.326016 -5 -2.597899 -4.473168 -3.535534 -3.535534 
C -4.473168 -2.597899 -5 -1.326016 -5 0 
C -5 1.326016 -4.473168 2.597899 -3.535534 3.535534 
C -2.597899 4.473168 -1.326016 5 0 5 
z
" id="m1520795812" style="stroke:#1f77b4;"/>
    </defs>
    <g clip-path="url(#pebd3e1666e)">
     <use style="fill:#1f77b4;stroke:#1f77b4;" x="233.148828" xlink:href="#m1520795812" y="82.615403"/>
     <use style="fill:#1f77b4;stroke:#1f77b4;" x="358.572232" xlink:href="#m1520795812" y="178.789655"/>
     <use style="fill:#1f77b4;stroke:#1f77b4;" x="358.697656" xlink:href="#m1520795812" y="175.051622"/>
     <use style="fill:#1f77b4;stroke:#1f77b4;" x="358.823079" xlink:href="#m1520795812" y="169.738275"/>
     <use style="fill:#1f77b4;stroke:#1f77b4;" x="358.948503" xlink:href="#m1520795812" y="161.301"/>
     <use style="fill:#1f77b4;stroke:#1f77b4;" x="359.073926" xlink:href="#m1520795812" y="199.69594"/>
     <use style="fill:#1f77b4;stroke:#1f77b4;" x="359.199349" xlink:href="#m1520795812" y="205.035987"/>
     <use style="fill:#1f77b4;stroke:#1f77b4;" x="483.995637" xlink:href="#m1520795812" y="152.383121"/>
     <use style="fill:#1f77b4;stroke:#1f77b4;" x="609.419041" xlink:href="#m1520795812" y="193.207783"/>
     <use style="fill:#1f77b4;stroke:#1f77b4;" x="734.842446" xlink:href="#m1520795812" y="182.527688"/>
     <use style="fill:#1f77b4;stroke:#1f77b4;" x="734.967869" xlink:href="#m1520795812" y="186.319122"/>
     <use style="fill:#1f77b4;stroke:#1f77b4;" x="735.093293" xlink:href="#m1520795812" y="179.777564"/>
     <use style="fill:#1f77b4;stroke:#1f77b4;" x="735.218716" xlink:href="#m1520795812" y="185.304513"/>
     <use style="fill:#1f77b4;stroke:#1f77b4;" x="860.26585" xlink:href="#m1520795812" y="261.293386"/>
     <use style="fill:#1f77b4;stroke:#1f77b4;" x="985.689255" xlink:href="#m1520795812" y="189.189397"/>
     <use style="fill:#1f77b4;stroke:#1f77b4;" x="1111.112659" xlink:href="#m1520795812" y="201.351355"/>
     <use style="fill:#1f77b4;stroke:#1f77b4;" x="1111.238082" xlink:href="#m1520795812" y="201.658407"/>
     <use style="fill:#1f77b4;stroke:#1f77b4;" x="1236.536064" xlink:href="#m1520795812" y="204.315081"/>
     <use style="fill:#1f77b4;stroke:#1f77b4;" x="1236.661487" xlink:href="#m1520795812" y="193.634986"/>
     <use style="fill:#1f77b4;stroke:#1f77b4;" x="1236.78691" xlink:href="#m1520795812" y="194.06219"/>
     <use style="fill:#1f77b4;stroke:#1f77b4;" x="1236.912334" xlink:href="#m1520795812" y="186.666225"/>
     <use style="fill:#1f77b4;stroke:#1f77b4;" x="1237.037757" xlink:href="#m1520795812" y="190.110555"/>
     <use style="fill:#1f77b4;stroke:#1f77b4;" x="1237.163181" xlink:href="#m1520795812" y="193.074281"/>
     <use style="fill:#1f77b4;stroke:#1f77b4;" x="1237.288604" xlink:href="#m1520795812" y="193.154382"/>
     <use style="fill:#1f77b4;stroke:#1f77b4;" x="1237.414027" xlink:href="#m1520795812" y="199.148585"/>
     <use style="fill:#1f77b4;stroke:#1f77b4;" x="1237.539451" xlink:href="#m1520795812" y="187.093428"/>
     <use style="fill:#1f77b4;stroke:#1f77b4;" x="1237.664874" xlink:href="#m1520795812" y="185.918618"/>
     <use style="fill:#1f77b4;stroke:#1f77b4;" x="1237.790298" xlink:href="#m1520795812" y="202.886618"/>
     <use style="fill:#1f77b4;stroke:#1f77b4;" x="1237.915721" xlink:href="#m1520795812" y="206.4244"/>
     <use style="fill:#1f77b4;stroke:#1f77b4;" x="1238.041144" xlink:href="#m1520795812" y="190.377558"/>
     <use style="fill:#1f77b4;stroke:#1f77b4;" x="1238.166568" xlink:href="#m1520795812" y="188.748843"/>
     <use style="fill:#1f77b4;stroke:#1f77b4;" x="1238.291991" xlink:href="#m1520795812" y="189.149347"/>
     <use style="fill:#1f77b4;stroke:#1f77b4;" x="1238.417415" xlink:href="#m1520795812" y="191.285366"/>
     <use style="fill:#1f77b4;stroke:#1f77b4;" x="1238.542838" xlink:href="#m1520795812" y="190.057155"/>
     <use style="fill:#1f77b4;stroke:#1f77b4;" x="1238.668261" xlink:href="#m1520795812" y="200.416846"/>
     <use style="fill:#1f77b4;stroke:#1f77b4;" x="1238.793685" xlink:href="#m1520795812" y="196.972516"/>
     <use style="fill:#1f77b4;stroke:#1f77b4;" x="1238.919108" xlink:href="#m1520795812" y="192.593677"/>
     <use style="fill:#1f77b4;stroke:#1f77b4;" x="1239.044532" xlink:href="#m1520795812" y="190.804761"/>
     <use style="fill:#1f77b4;stroke:#1f77b4;" x="1239.169955" xlink:href="#m1520795812" y="191.258665"/>
     <use style="fill:#1f77b4;stroke:#1f77b4;" x="1239.295378" xlink:href="#m1520795812" y="194.542794"/>
     <use style="fill:#1f77b4;stroke:#1f77b4;" x="1239.420802" xlink:href="#m1520795812" y="192.086373"/>
     <use style="fill:#1f77b4;stroke:#1f77b4;" x="1239.546225" xlink:href="#m1520795812" y="193.768488"/>
     <use style="fill:#1f77b4;stroke:#1f77b4;" x="1239.671649" xlink:href="#m1520795812" y="197.933724"/>
     <use style="fill:#1f77b4;stroke:#1f77b4;" x="1239.797072" xlink:href="#m1520795812" y="182.901491"/>
     <use style="fill:#1f77b4;stroke:#1f77b4;" x="1239.922495" xlink:href="#m1520795812" y="181.913583"/>
     <use style="fill:#1f77b4;stroke:#1f77b4;" x="1240.047919" xlink:href="#m1520795812" y="187.186879"/>
     <use style="fill:#1f77b4;stroke:#1f77b4;" x="1240.173342" xlink:href="#m1520795812" y="190.751361"/>
     <use style="fill:#1f77b4;stroke:#1f77b4;" x="1240.298766" xlink:href="#m1520795812" y="187.493932"/>
     <use style="fill:#1f77b4;stroke:#1f77b4;" x="1240.424189" xlink:href="#m1520795812" y="186.265721"/>
     <use style="fill:#1f77b4;stroke:#1f77b4;" x="1240.549612" xlink:href="#m1520795812" y="189.736752"/>
     <use style="fill:#1f77b4;stroke:#1f77b4;" x="1240.675036" xlink:href="#m1520795812" y="190.591159"/>
     <use style="fill:#1f77b4;stroke:#1f77b4;" x="1240.800459" xlink:href="#m1520795812" y="191.73927"/>
     <use style="fill:#1f77b4;stroke:#1f77b4;" x="1240.925883" xlink:href="#m1520795812" y="175.358675"/>
     <use style="fill:#1f77b4;stroke:#1f77b4;" x="1241.051306" xlink:href="#m1520795812" y="181.59318"/>
     <use style="fill:#1f77b4;stroke:#1f77b4;" x="1241.176729" xlink:href="#m1520795812" y="181.753381"/>
     <use style="fill:#1f77b4;stroke:#1f77b4;" x="1361.959468" xlink:href="#m1520795812" y="193.261183"/>
    </g>
   </g>
   <g id="patch_3">
    <path d="M 107.6 278.8 
L 107.6 50.4 
" style="fill:none;stroke:#000000;stroke-linecap:square;stroke-linejoin:miter;stroke-width:4;"/>
   </g>
   <g id="patch_4">
    <path d="M 1418.4 278.8 
L 1418.4 50.4 
" style="fill:none;stroke:#000000;stroke-linecap:square;stroke-linejoin:miter;stroke-width:4;"/>
   </g>
   <g id="patch_5">
    <path d="M 107.6 278.8 
L 1418.4 278.8 
" style="fill:none;stroke:#000000;stroke-linecap:square;stroke-linejoin:miter;stroke-width:4;"/>
   </g>
   <g id="patch_6">
    <path d="M 107.6 50.4 
L 1418.4 50.4 
" style="fill:none;stroke:#000000;stroke-linecap:square;stroke-linejoin:miter;stroke-width:4;"/>
   </g>
   <g id="text_18">
    <!-- WM - Genu -->
    <g transform="translate(685.685 43.455)scale(0.32 -0.32)">
     <defs>
      <path d="M 93.203125 66.203125 
L 93.203125 64.296875 
Q 89.203125 63.5 87.75 62.34375 
Q 86.296875 61.203125 84.90625 57.296875 
Q 73.5 26.703125 64.5 -1.09375 
L 63 -1.09375 
Q 56.90625 15.796875 47 41.203125 
L 31.59375 -1.09375 
L 30.09375 -1.09375 
Q 26.703125 9 19.953125 27.390625 
Q 13.203125 45.796875 10.90625 52.296875 
Q 8.40625 59.5 6.34375 61.84375 
Q 4.296875 64.203125 0.5 64.296875 
L 0.5 66.203125 
L 24.90625 66.203125 
L 24.90625 64.296875 
Q 21.203125 64.203125 19.84375 63.5 
Q 18.5 62.796875 18.5 61.203125 
Q 18.5 59.5 19.59375 56.5 
L 34 18.90625 
L 44.40625 47.203125 
L 41.59375 54.703125 
Q 39.203125 61.203125 37.5 62.703125 
Q 35.796875 64.203125 31.40625 64.296875 
L 31.40625 66.203125 
L 57.90625 66.203125 
L 57.90625 64.296875 
Q 50.203125 64.09375 50.203125 60.796875 
Q 50.203125 59.5 51.90625 55 
L 66.203125 18.59375 
L 78.796875 52.5 
Q 80.5 57.296875 80.5 60.203125 
Q 80.5 64.203125 73.5 64.296875 
L 73.5 66.203125 
z
" id="STIXGeneral-Regular-87"/>
      <path d="M 86.40625 0 
L 58.40625 0 
L 58.40625 1.90625 
Q 64.296875 2.296875 65.84375 4.140625 
Q 67.40625 6 67.40625 12.296875 
L 67.40625 57.203125 
L 41.90625 0 
L 40.5 0 
L 15.296875 54.90625 
L 15.296875 15.09375 
Q 15.296875 7 17 4.59375 
Q 18.703125 2.203125 24.59375 1.90625 
L 24.59375 0 
L 1.203125 0 
L 1.203125 1.90625 
Q 5.59375 2.203125 7.5 3.203125 
Q 9.40625 4.203125 10.15625 6.75 
Q 10.90625 9.296875 10.90625 15.09375 
L 10.90625 54.90625 
Q 10.90625 60.59375 9.203125 62.25 
Q 7.5 63.90625 1.40625 64.296875 
L 1.40625 66.203125 
L 21.203125 66.203125 
L 44.296875 16 
L 66.40625 66.203125 
L 86.296875 66.203125 
L 86.296875 64.296875 
Q 80.90625 64.203125 79.25 62.390625 
Q 77.59375 60.59375 77.59375 55 
L 77.59375 11.203125 
Q 77.59375 5.90625 79.25 4.09375 
Q 80.90625 2.296875 86.40625 1.90625 
z
" id="STIXGeneral-Regular-77"/>
      <path d="M 28.5 19.40625 
L 3.90625 19.40625 
L 3.90625 25.703125 
L 28.5 25.703125 
z
" id="STIXGeneral-Regular-45"/>
      <path d="M 70.90625 35.40625 
L 70.90625 33.59375 
Q 66.5 33.203125 65.203125 31.796875 
Q 63.90625 30.40625 63.90625 25.59375 
L 63.90625 5.59375 
Q 55.296875 -1.40625 38.5 -1.40625 
Q 30.703125 -1.40625 23.546875 1.390625 
Q 16.40625 4.203125 11.5 9.296875 
Q 3.203125 18 3.203125 32.703125 
Q 3.203125 49.296875 13.90625 59 
Q 23.296875 67.59375 37.796875 67.59375 
Q 44.203125 67.59375 51.09375 65.296875 
Q 53.796875 64.296875 55.5 64.296875 
Q 57.09375 64.296875 58.296875 65.25 
Q 59.5 66.203125 60 67.59375 
L 62.203125 67.59375 
L 63 46.5 
L 60.703125 46.5 
Q 57.5 54.296875 53.59375 58.09375 
Q 47.796875 63.59375 39 63.59375 
Q 29 63.59375 22.296875 56.703125 
Q 14.59375 49 14.59375 32.40625 
Q 14.59375 18.59375 21.796875 10.59375 
Q 29 2.59375 40.90625 2.59375 
Q 46.59375 2.59375 50.390625 4.390625 
Q 54.203125 6.203125 54.203125 8.703125 
L 54.203125 24.40625 
Q 54.203125 30.203125 52.75 31.640625 
Q 51.296875 33.09375 45.296875 33.59375 
L 45.296875 35.40625 
z
" id="STIXGeneral-Regular-71"/>
      <path d="M 48.5 0 
L 27.703125 0 
L 27.796875 1.5 
Q 31.5 1.796875 32.75 3.640625 
Q 34 5.5 34 10.5 
L 34 30.40625 
Q 34 40.5 26.703125 40.5 
Q 24.203125 40.5 22 39.296875 
Q 19.796875 38.09375 16.40625 34.796875 
L 16.40625 7.203125 
Q 16.40625 4.203125 17.75 3 
Q 19.09375 1.796875 22.90625 1.5 
L 22.90625 0 
L 1.796875 0 
L 1.796875 1.5 
Q 5.59375 1.796875 6.796875 3.34375 
Q 8 4.90625 8 9.40625 
L 8 33.703125 
Q 8 37.40625 7.296875 38.796875 
Q 6.59375 40.203125 4.5 40.203125 
Q 2.5 40.203125 1.59375 39.796875 
L 1.59375 41.5 
Q 8.59375 43.5 15.296875 46 
L 16.09375 45.703125 
L 16.09375 37.90625 
L 16.203125 37.90625 
Q 23.296875 46 30.59375 46 
Q 36.296875 46 39.34375 42 
Q 42.40625 38 42.40625 30.59375 
L 42.40625 8.5 
Q 42.40625 4.5 43.59375 3.203125 
Q 44.796875 1.90625 48.5 1.5 
z
" id="STIXGeneral-Regular-110"/>
      <path d="M 48 5 
L 48 3.59375 
Q 40.203125 1.5 34.296875 -0.90625 
L 33.796875 -0.59375 
L 33.796875 7.59375 
L 33.59375 7.59375 
Q 27.296875 -1 19.296875 -1 
Q 13.59375 -1 10.34375 2.5 
Q 7.09375 6 7.09375 11.796875 
L 7.09375 36.90625 
Q 7.09375 40.59375 5.796875 42 
Q 4.5 43.40625 0.90625 43.59375 
L 0.90625 45 
L 15.5 45 
L 15.5 12.703125 
Q 15.5 9.296875 17.546875 7.046875 
Q 19.59375 4.796875 22.59375 4.796875 
Q 27.5 4.796875 31 7.90625 
Q 32.296875 9.09375 32.796875 10.140625 
Q 33.296875 11.203125 33.296875 13.703125 
L 33.296875 36.796875 
Q 33.296875 40.703125 31.890625 41.84375 
Q 30.5 43 25.90625 43.296875 
L 25.90625 45 
L 41.703125 45 
L 41.703125 10.703125 
Q 41.703125 7.203125 42.84375 6.09375 
Q 44 5 47.40625 5 
z
" id="STIXGeneral-Regular-117"/>
     </defs>
     <use xlink:href="#STIXGeneral-Regular-87"/>
     <use x="94.399994" xlink:href="#STIXGeneral-Regular-77"/>
     <use x="183.299988" xlink:href="#STIXGeneral-Regular-32"/>
     <use x="208.299973" xlink:href="#STIXGeneral-Regular-45"/>
     <use x="241.59996" xlink:href="#STIXGeneral-Regular-32"/>
     <use x="266.599945" xlink:href="#STIXGeneral-Regular-71"/>
     <use x="338.799927" xlink:href="#STIXGeneral-Regular-101"/>
     <use x="383.199921" xlink:href="#STIXGeneral-Regular-110"/>
     <use x="433.199905" xlink:href="#STIXGeneral-Regular-117"/>
    </g>
   </g>
  </g>
 </g>
 <defs>
  <clipPath id="pebd3e1666e">
   <rect height="228.4" width="1310.8" x="107.6" y="50.4"/>
  </clipPath>
 </defs>
</svg>
