<?xml version="1.0" encoding="utf-8" standalone="no"?>
<!DOCTYPE svg PUBLIC "-//W3C//DTD SVG 1.1//EN"
  "http://www.w3.org/Graphics/SVG/1.1/DTD/svg11.dtd">
<!-- Created with matplotlib (https://matplotlib.org/) -->
<svg height="360pt" version="1.1" viewBox="0 0 1440 360" width="1440pt" xmlns="http://www.w3.org/2000/svg" xmlns:xlink="http://www.w3.org/1999/xlink">
 <metadata>
  <rdf:RDF xmlns:cc="http://creativecommons.org/ns#" xmlns:dc="http://purl.org/dc/elements/1.1/" xmlns:rdf="http://www.w3.org/1999/02/22-rdf-syntax-ns#">
   <cc:Work>
    <dc:type rdf:resource="http://purl.org/dc/dcmitype/StillImage"/>
    <dc:date>2020-08-10T12:02:52.557042</dc:date>
    <dc:format>image/svg+xml</dc:format>
    <dc:creator>
     <cc:Agent>
      <dc:title>Matplotlib v3.3.0, https://matplotlib.org/</dc:title>
     </cc:Agent>
    </dc:creator>
   </cc:Work>
  </rdf:RDF>
 </metadata>
 <defs>
  <style type="text/css">*{stroke-linecap:butt;stroke-linejoin:round;}</style>
 </defs>
 <g id="figure_1">
  <g id="patch_1">
   <path d="M 0 360 
L 1440 360 
L 1440 0 
L 0 0 
z
" style="fill:#ffffff;"/>
  </g>
  <g id="axes_1">
   <g id="patch_2">
    <path d="M 107.6 278.8 
L 1418.4 278.8 
L 1418.4 50.4 
L 107.6 50.4 
z
" style="fill:#ffffff;"/>
   </g>
   <g id="matplotlib.axis_1">
    <g id="xtick_1">
     <g id="line2d_1">
      <defs>
       <path d="M 0 0 
L 0 3.5 
" id="m3c2116b558" style="stroke:#000000;stroke-width:0.8;"/>
      </defs>
      <g>
       <use style="stroke:#000000;stroke-width:0.8;" x="107.6" xlink:href="#m3c2116b558" y="278.8"/>
      </g>
     </g>
     <g id="text_1">
      <!-- 0 -->
      <g transform="translate(101.6 302.19125)scale(0.24 -0.24)">
       <defs>
        <path d="M 47.59375 33 
Q 47.59375 26.296875 46.296875 20.34375 
Q 45 14.40625 42.453125 9.40625 
Q 39.90625 4.40625 35.40625 1.5 
Q 30.90625 -1.40625 25 -1.40625 
Q 18.90625 -1.40625 14.296875 1.6875 
Q 9.703125 4.796875 7.203125 10 
Q 4.703125 15.203125 3.546875 21.09375 
Q 2.40625 27 2.40625 33.59375 
Q 2.40625 42.90625 4.703125 50.34375 
Q 7 57.796875 12.34375 62.6875 
Q 17.703125 67.59375 25.40625 67.59375 
Q 35.203125 67.59375 41.390625 58 
Q 47.59375 48.40625 47.59375 33 
z
M 38 32.5 
Q 38 48.296875 34.640625 56.640625 
Q 31.296875 65 24.796875 65 
Q 18.59375 65 15.296875 56.59375 
Q 12 48.203125 12 32.90625 
Q 12 17.5 15.296875 9.34375 
Q 18.59375 1.203125 25 1.203125 
Q 31.296875 1.203125 34.640625 9.34375 
Q 38 17.5 38 32.5 
z
" id="STIXGeneral-Regular-48"/>
       </defs>
       <use xlink:href="#STIXGeneral-Regular-48"/>
      </g>
     </g>
    </g>
    <g id="xtick_2">
     <g id="line2d_2">
      <g>
       <use style="stroke:#000000;stroke-width:0.8;" x="233.023404" xlink:href="#m3c2116b558" y="278.8"/>
      </g>
     </g>
     <g id="text_2">
      <!-- 1 -->
      <g transform="translate(227.023404 302.19125)scale(0.24 -0.24)">
       <defs>
        <path d="M 39.40625 0 
L 11.796875 0 
L 11.796875 1.5 
Q 17.296875 1.796875 19.296875 3.546875 
Q 21.296875 5.296875 21.296875 9.5 
L 21.296875 54.40625 
Q 21.296875 59.296875 18.296875 59.296875 
Q 16.90625 59.296875 13.796875 58.09375 
L 11.09375 57.09375 
L 11.09375 58.5 
L 29 67.59375 
L 29.90625 67.296875 
L 29.90625 7.59375 
Q 29.90625 4.296875 31.90625 2.890625 
Q 33.90625 1.5 39.40625 1.5 
z
" id="STIXGeneral-Regular-49"/>
       </defs>
       <use xlink:href="#STIXGeneral-Regular-49"/>
      </g>
     </g>
    </g>
    <g id="xtick_3">
     <g id="line2d_3">
      <g>
       <use style="stroke:#000000;stroke-width:0.8;" x="358.446809" xlink:href="#m3c2116b558" y="278.8"/>
      </g>
     </g>
     <g id="text_3">
      <!-- 2 -->
      <g transform="translate(352.446809 302.19125)scale(0.24 -0.24)">
       <defs>
        <path d="M 47.40625 13.703125 
L 42 0 
L 2.90625 0 
L 2.90625 1.203125 
L 20.703125 20.09375 
Q 27.703125 27.40625 30.703125 33.5 
Q 33.703125 39.59375 33.703125 46.09375 
Q 33.703125 52.796875 30 56.5 
Q 26.296875 60.203125 19.796875 60.203125 
Q 14.40625 60.203125 11.25 57.390625 
Q 8.09375 54.59375 5.09375 47.203125 
L 3 47.703125 
Q 4.703125 57 9.84375 62.296875 
Q 15 67.59375 23.796875 67.59375 
Q 32.09375 67.59375 37.1875 62.59375 
Q 42.296875 57.59375 42.296875 50 
Q 42.296875 38.703125 29.5 25.203125 
L 13 7.59375 
L 36.40625 7.59375 
Q 39.703125 7.59375 41.640625 8.890625 
Q 43.59375 10.203125 46 14.296875 
z
" id="STIXGeneral-Regular-50"/>
       </defs>
       <use xlink:href="#STIXGeneral-Regular-50"/>
      </g>
     </g>
    </g>
    <g id="xtick_4">
     <g id="line2d_4">
      <g>
       <use style="stroke:#000000;stroke-width:0.8;" x="483.870213" xlink:href="#m3c2116b558" y="278.8"/>
      </g>
     </g>
     <g id="text_4">
      <!-- 3 -->
      <g transform="translate(477.870213 302.19125)scale(0.24 -0.24)">
       <defs>
        <path d="M 6.09375 51 
L 4.5 51.40625 
Q 6.796875 58.90625 11.6875 63.25 
Q 16.59375 67.59375 24.09375 67.59375 
Q 31.09375 67.59375 35.390625 63.796875 
Q 39.703125 60 39.703125 53.90625 
Q 39.703125 45.703125 30.40625 40.09375 
Q 35.90625 37.703125 38.703125 34.796875 
Q 43.09375 29.90625 43.09375 21.90625 
Q 43.09375 13.90625 38.5 7.90625 
Q 35.09375 3.296875 28.75 0.9375 
Q 22.40625 -1.40625 15.296875 -1.40625 
Q 4.09375 -1.40625 4.09375 4.296875 
Q 4.09375 5.90625 5.296875 6.90625 
Q 6.5 7.90625 8.203125 7.90625 
Q 10.703125 7.90625 14.296875 5.296875 
Q 18.703125 2.203125 22.90625 2.203125 
Q 28.40625 2.203125 32.15625 6.640625 
Q 35.90625 11.09375 35.90625 17.5 
Q 35.90625 29 25.5 32 
Q 22.40625 33 15.296875 33 
L 15.296875 34.40625 
Q 20.90625 36.296875 23.703125 38 
Q 31.796875 42.59375 31.796875 51.40625 
Q 31.796875 56.40625 28.9375 59 
Q 26.09375 61.59375 21 61.59375 
Q 12 61.59375 6.09375 51 
z
" id="STIXGeneral-Regular-51"/>
       </defs>
       <use xlink:href="#STIXGeneral-Regular-51"/>
      </g>
     </g>
    </g>
    <g id="xtick_5">
     <g id="line2d_5">
      <g>
       <use style="stroke:#000000;stroke-width:0.8;" x="609.293618" xlink:href="#m3c2116b558" y="278.8"/>
      </g>
     </g>
     <g id="text_5">
      <!-- 4 -->
      <g transform="translate(603.293618 302.19125)scale(0.24 -0.24)">
       <defs>
        <path d="M 47.296875 16.703125 
L 37 16.703125 
L 37 0 
L 29.203125 0 
L 29.203125 16.703125 
L 1.203125 16.703125 
L 1.203125 23.09375 
L 32.59375 67.59375 
L 37 67.59375 
L 37 23.09375 
L 47.296875 23.09375 
z
M 29.203125 23.09375 
L 29.203125 57.40625 
L 5.203125 23.09375 
z
" id="STIXGeneral-Regular-52"/>
       </defs>
       <use xlink:href="#STIXGeneral-Regular-52"/>
      </g>
     </g>
    </g>
    <g id="xtick_6">
     <g id="line2d_6">
      <g>
       <use style="stroke:#000000;stroke-width:0.8;" x="734.717022" xlink:href="#m3c2116b558" y="278.8"/>
      </g>
     </g>
     <g id="text_6">
      <!-- 5 -->
      <g transform="translate(728.717022 302.19125)scale(0.24 -0.24)">
       <defs>
        <path d="M 43.796875 68.09375 
L 40.203125 59.59375 
Q 39.59375 58.296875 37.5 58.296875 
L 18.09375 58.296875 
L 14.09375 49.796875 
Q 25.09375 47.703125 30 45.25 
Q 34.90625 42.796875 39.09375 37 
Q 42.59375 32.203125 42.59375 24.296875 
Q 42.59375 17.09375 40.25 12.1875 
Q 37.90625 7.296875 32.796875 3.5 
Q 26 -1.40625 15.796875 -1.40625 
Q 10.09375 -1.40625 6.59375 0.296875 
Q 3.09375 2 3.09375 4.796875 
Q 3.09375 8.59375 7.59375 8.59375 
Q 11.203125 8.59375 15 5.5 
Q 18.90625 2.296875 22.09375 2.296875 
Q 27.296875 2.296875 31.4375 7.5 
Q 35.59375 12.703125 35.59375 19.203125 
Q 35.59375 28.796875 28.90625 34.203125 
Q 20.203125 41.203125 7.59375 41.203125 
Q 6.40625 41.203125 6.40625 42 
L 6.5 42.5 
L 17.40625 66.203125 
L 38.09375 66.203125 
Q 39.796875 66.203125 40.75 66.703125 
Q 41.703125 67.203125 42.90625 68.796875 
z
" id="STIXGeneral-Regular-53"/>
       </defs>
       <use xlink:href="#STIXGeneral-Regular-53"/>
      </g>
     </g>
    </g>
    <g id="xtick_7">
     <g id="line2d_7">
      <g>
       <use style="stroke:#000000;stroke-width:0.8;" x="860.140427" xlink:href="#m3c2116b558" y="278.8"/>
      </g>
     </g>
     <g id="text_7">
      <!-- 6 -->
      <g transform="translate(854.140427 302.19125)scale(0.24 -0.24)">
       <defs>
        <path d="M 44.59375 68.40625 
L 44.796875 66.796875 
Q 33 64.90625 25.09375 57.25 
Q 17.203125 49.59375 15.203125 38.296875 
Q 21 42.796875 27.90625 42.796875 
Q 36.703125 42.796875 41.75 37.1875 
Q 46.796875 31.59375 46.796875 21.90625 
Q 46.796875 12.09375 41.703125 5.90625 
Q 35.796875 -1.40625 25.796875 -1.40625 
Q 13.59375 -1.40625 8.09375 8.703125 
Q 3.40625 17.296875 3.40625 27.90625 
Q 3.40625 44.296875 14.296875 55.5 
Q 20.5 61.90625 27.046875 64.546875 
Q 33.59375 67.203125 44.59375 68.40625 
z
M 37.796875 18.796875 
Q 37.796875 38.203125 24.296875 38.203125 
Q 19.296875 38.203125 16 35.546875 
Q 12.703125 32.90625 12.703125 26.59375 
Q 12.703125 14.90625 16.34375 8.15625 
Q 20 1.40625 26.90625 1.40625 
Q 32.203125 1.40625 35 6.15625 
Q 37.796875 10.90625 37.796875 18.796875 
z
" id="STIXGeneral-Regular-54"/>
       </defs>
       <use xlink:href="#STIXGeneral-Regular-54"/>
      </g>
     </g>
    </g>
    <g id="xtick_8">
     <g id="line2d_8">
      <g>
       <use style="stroke:#000000;stroke-width:0.8;" x="985.563831" xlink:href="#m3c2116b558" y="278.8"/>
      </g>
     </g>
     <g id="text_8">
      <!-- 7 -->
      <g transform="translate(979.563831 302.19125)scale(0.24 -0.24)">
       <defs>
        <path d="M 44.90625 64.59375 
L 23.703125 -0.796875 
L 17.203125 -0.796875 
L 37 58.796875 
L 15.5 58.796875 
Q 11.203125 58.796875 9.09375 57.296875 
Q 7 55.796875 3.796875 50.59375 
L 2 51.5 
L 8 66.203125 
L 44.90625 66.203125 
z
" id="STIXGeneral-Regular-55"/>
       </defs>
       <use xlink:href="#STIXGeneral-Regular-55"/>
      </g>
     </g>
    </g>
    <g id="xtick_9">
     <g id="line2d_9">
      <g>
       <use style="stroke:#000000;stroke-width:0.8;" x="1110.987236" xlink:href="#m3c2116b558" y="278.8"/>
      </g>
     </g>
     <g id="text_9">
      <!-- 8 -->
      <g transform="translate(1104.987236 302.19125)scale(0.24 -0.24)">
       <defs>
        <path d="M 44.5 15.5 
Q 44.5 7.796875 39.140625 3.1875 
Q 33.796875 -1.40625 24.796875 -1.40625 
Q 16.40625 -1.40625 11 3.1875 
Q 5.59375 7.796875 5.59375 14.90625 
Q 5.59375 20.203125 8.1875 23.953125 
Q 10.796875 27.703125 18.59375 33.203125 
Q 11.09375 39.40625 8.640625 43.203125 
Q 6.203125 47 6.203125 52 
Q 6.203125 59.09375 11.640625 63.34375 
Q 17.09375 67.59375 25.59375 67.59375 
Q 32.90625 67.59375 37.65625 63.4375 
Q 42.40625 59.296875 42.40625 53.296875 
Q 42.40625 47.796875 39.546875 44.5 
Q 36.703125 41.203125 29 37.09375 
Q 38 31.09375 41.25 26.390625 
Q 44.5 21.703125 44.5 15.5 
z
M 35.5 53.296875 
Q 35.5 58.5 32.59375 61.640625 
Q 29.703125 64.796875 24.59375 64.796875 
Q 19.5 64.796875 16.546875 62.140625 
Q 13.59375 59.5 13.59375 54.890625 
Q 13.59375 50.296875 16.546875 46.546875 
Q 19.5 42.796875 26.09375 38.90625 
Q 31.203125 41.90625 33.34375 45.25 
Q 35.5 48.59375 35.5 53.296875 
z
M 27.09375 27.203125 
L 21.203125 31.203125 
Q 16.796875 27.59375 15 24.140625 
Q 13.203125 20.703125 13.203125 15.796875 
Q 13.203125 9 16.640625 5.203125 
Q 20.09375 1.40625 25.90625 1.40625 
Q 30.796875 1.40625 33.84375 4.453125 
Q 36.90625 7.5 36.90625 12.40625 
Q 36.90625 16.90625 34.59375 20.296875 
Q 32.296875 23.703125 27.09375 27.203125 
z
" id="STIXGeneral-Regular-56"/>
       </defs>
       <use xlink:href="#STIXGeneral-Regular-56"/>
      </g>
     </g>
    </g>
    <g id="xtick_10">
     <g id="line2d_10">
      <g>
       <use style="stroke:#000000;stroke-width:0.8;" x="1236.41064" xlink:href="#m3c2116b558" y="278.8"/>
      </g>
     </g>
     <g id="text_10">
      <!-- 9 -->
      <g transform="translate(1230.41064 302.19125)scale(0.24 -0.24)">
       <defs>
        <path d="M 5.90625 -2.203125 
L 5.59375 -0.203125 
Q 17.09375 1.796875 25.046875 9.5 
Q 33 17.203125 36 29.40625 
Q 30.203125 23.703125 21 23.703125 
Q 12.90625 23.703125 7.953125 29.296875 
Q 3 34.90625 3 44 
Q 3 54.09375 8.953125 60.84375 
Q 14.90625 67.59375 23.796875 67.59375 
Q 33.296875 67.59375 39.5 60 
Q 45.90625 52 45.90625 39.40625 
Q 45.90625 30.59375 42.84375 22.84375 
Q 39.796875 15.09375 33.90625 9.703125 
Q 27.703125 4.09375 21.796875 1.640625 
Q 15.90625 -0.796875 5.90625 -2.203125 
z
M 36.203125 35.5 
L 36.203125 39.40625 
Q 36.203125 64.796875 23 64.796875 
Q 18.296875 64.796875 15.703125 61.40625 
Q 14.203125 59.40625 13.203125 55.40625 
Q 12.203125 51.40625 12.203125 47.40625 
Q 12.203125 38.5 15.546875 33.25 
Q 18.90625 28 24.5 28 
Q 28.5 28 32.34375 29.953125 
Q 36.203125 31.90625 36.203125 35.5 
z
" id="STIXGeneral-Regular-57"/>
       </defs>
       <use xlink:href="#STIXGeneral-Regular-57"/>
      </g>
     </g>
    </g>
    <g id="xtick_11">
     <g id="line2d_11">
      <g>
       <use style="stroke:#000000;stroke-width:0.8;" x="1361.834045" xlink:href="#m3c2116b558" y="278.8"/>
      </g>
     </g>
     <g id="text_11">
      <!-- 10 -->
      <g transform="translate(1349.834045 302.19125)scale(0.24 -0.24)">
       <use xlink:href="#STIXGeneral-Regular-49"/>
       <use x="49.999985" xlink:href="#STIXGeneral-Regular-48"/>
      </g>
     </g>
    </g>
    <g id="text_12">
     <!-- Site # -->
     <g transform="translate(728.410938 331.889063)scale(0.3 -0.3)">
      <defs>
       <path d="M 46.90625 46.296875 
L 44.40625 46.296875 
Q 42.703125 52.5 40.296875 55.703125 
Q 34.203125 63.5 25.796875 63.5 
Q 21.203125 63.5 18.453125 60.84375 
Q 15.703125 58.203125 15.703125 54 
Q 15.703125 52 16.703125 50.09375 
Q 17.703125 48.203125 18.84375 46.84375 
Q 20 45.5 22.890625 43.5 
Q 25.796875 41.5 27.59375 40.453125 
Q 29.40625 39.40625 33.59375 36.90625 
Q 41.703125 32.203125 45.390625 27.546875 
Q 49.09375 22.90625 49.09375 17.296875 
Q 49.09375 9 43.296875 3.796875 
Q 37.5 -1.40625 28.703125 -1.40625 
Q 22.203125 -1.40625 16.90625 0.90625 
Q 14.296875 2 12.203125 2 
Q 11 2 10.203125 1.09375 
Q 9.40625 0.203125 9.40625 -1.296875 
L 7.203125 -1.296875 
L 4.296875 19.90625 
L 6.5 19.90625 
Q 13.203125 2.203125 27.09375 2.203125 
Q 32.40625 2.203125 35.703125 5.34375 
Q 39 8.5 39 13.40625 
Q 39 18.09375 36.09375 21.296875 
Q 31.296875 26.5 19.296875 32.90625 
Q 7.09375 39.40625 7.09375 50.09375 
Q 7.09375 58.09375 12 62.84375 
Q 16.90625 67.59375 24.5 67.59375 
Q 29.796875 67.59375 35 65.40625 
Q 37.703125 64.203125 39.40625 64.203125 
Q 42 64.203125 42.59375 67.59375 
L 44.703125 67.59375 
z
" id="STIXGeneral-Regular-83"/>
       <path d="M 18 63.203125 
Q 18 61 16.5 59.546875 
Q 15 58.09375 12.796875 58.09375 
Q 10.703125 58.09375 9.25 59.546875 
Q 7.796875 61 7.796875 63.203125 
Q 7.796875 65.296875 9.296875 66.796875 
Q 10.796875 68.296875 12.90625 68.296875 
Q 15.09375 68.296875 16.546875 66.796875 
Q 18 65.296875 18 63.203125 
z
M 25.296875 0 
L 1.59375 0 
L 1.59375 1.5 
Q 6.796875 1.796875 8.140625 3.296875 
Q 9.5 4.796875 9.5 10.40625 
L 9.5 33.09375 
Q 9.5 36.59375 8.796875 38 
Q 8.09375 39.40625 6.203125 39.40625 
Q 3.796875 39.40625 2 38.90625 
L 2 40.5 
L 17.5 46 
L 17.90625 45.59375 
L 17.90625 10.5 
Q 17.90625 4.90625 19.15625 3.40625 
Q 20.40625 1.90625 25.296875 1.5 
z
" id="STIXGeneral-Regular-105"/>
       <path d="M 26.59375 7.703125 
L 27.90625 6.59375 
Q 23.09375 -1 15.796875 -1 
Q 7 -1 7 11.703125 
L 7 41.796875 
L 1.703125 41.796875 
Q 1.296875 42.09375 1.296875 42.5 
Q 1.296875 43.296875 3 44.40625 
Q 6.796875 46.59375 12.703125 55.09375 
Q 12.90625 55.40625 13.65625 56.34375 
Q 14.40625 57.296875 14.703125 57.90625 
Q 15.40625 57.90625 15.40625 56.59375 
L 15.40625 45 
L 25.5 45 
L 25.5 41.796875 
L 15.40625 41.796875 
L 15.40625 13.203125 
Q 15.40625 8.40625 16.59375 6.296875 
Q 17.796875 4.203125 20.59375 4.203125 
Q 23.59375 4.203125 26.59375 7.703125 
z
" id="STIXGeneral-Regular-116"/>
       <path d="M 40.796875 16.40625 
L 42.40625 15.703125 
Q 36.40625 -1 21.5 -1 
Q 12.703125 -1 7.59375 5.140625 
Q 2.5 11.296875 2.5 21.703125 
Q 2.5 32.40625 8.203125 39.203125 
Q 13.90625 46 23.203125 46 
Q 32.203125 46 37.09375 39.09375 
Q 40 35.09375 40.5 27.703125 
L 9.703125 27.703125 
Q 10.09375 21.40625 10.9375 18.09375 
Q 11.796875 14.796875 14.296875 11.40625 
Q 18.5 5.90625 25.40625 5.90625 
Q 30.296875 5.90625 33.640625 8.296875 
Q 37 10.703125 40.796875 16.40625 
z
M 9.90625 30.90625 
L 30.296875 30.90625 
Q 29.40625 37.203125 27.34375 39.796875 
Q 25.296875 42.40625 20.5 42.40625 
Q 16.296875 42.40625 13.5 39.453125 
Q 10.703125 36.5 9.90625 30.90625 
z
" id="STIXGeneral-Regular-101"/>
       <path id="STIXGeneral-Regular-32"/>
       <path d="M 49.5 40.5 
L 39.09375 40.5 
L 37.09375 27.09375 
L 47 27.09375 
L 47 21.59375 
L 36.203125 21.59375 
L 33.09375 0 
L 27.296875 0 
L 30.40625 21.59375 
L 17 21.59375 
L 13.703125 0 
L 7.90625 0 
L 11.203125 21.59375 
L 0.59375 21.59375 
L 0.59375 27.09375 
L 12.09375 27.09375 
L 14.203125 40.5 
L 3.296875 40.5 
L 3.296875 46 
L 15 46 
L 18.09375 66.203125 
L 23.90625 66.203125 
L 20.796875 46 
L 34.09375 46 
L 37.09375 66.203125 
L 42.90625 66.203125 
L 39.90625 46 
L 49.5 46 
z
M 33.296875 40.5 
L 20 40.5 
L 17.90625 27.09375 
L 31.296875 27.09375 
z
" id="STIXGeneral-Regular-35"/>
      </defs>
      <use xlink:href="#STIXGeneral-Regular-83"/>
      <use x="55.599991" xlink:href="#STIXGeneral-Regular-105"/>
      <use x="83.399979" xlink:href="#STIXGeneral-Regular-116"/>
      <use x="111.199966" xlink:href="#STIXGeneral-Regular-101"/>
      <use x="155.59996" xlink:href="#STIXGeneral-Regular-32"/>
      <use x="180.599945" xlink:href="#STIXGeneral-Regular-35"/>
     </g>
    </g>
   </g>
   <g id="matplotlib.axis_2">
    <g id="ytick_1">
     <g id="line2d_12">
      <defs>
       <path d="M 0 0 
L -3.5 0 
" id="m0926d5db29" style="stroke:#000000;stroke-width:0.8;"/>
      </defs>
      <g>
       <use style="stroke:#000000;stroke-width:0.8;" x="107.6" xlink:href="#m0926d5db29" y="215.129654"/>
      </g>
     </g>
     <g id="text_13">
      <!-- 750 -->
      <g transform="translate(64.6 223.325279)scale(0.24 -0.24)">
       <use xlink:href="#STIXGeneral-Regular-55"/>
       <use x="49.999985" xlink:href="#STIXGeneral-Regular-53"/>
       <use x="99.999969" xlink:href="#STIXGeneral-Regular-48"/>
      </g>
     </g>
    </g>
    <g id="ytick_2">
     <g id="line2d_13">
      <g>
       <use style="stroke:#000000;stroke-width:0.8;" x="107.6" xlink:href="#m0926d5db29" y="148.86546"/>
      </g>
     </g>
     <g id="text_14">
      <!-- 1000 -->
      <g transform="translate(52.6 157.061085)scale(0.24 -0.24)">
       <use xlink:href="#STIXGeneral-Regular-49"/>
       <use x="49.999985" xlink:href="#STIXGeneral-Regular-48"/>
       <use x="99.999969" xlink:href="#STIXGeneral-Regular-48"/>
       <use x="149.999954" xlink:href="#STIXGeneral-Regular-48"/>
      </g>
     </g>
    </g>
    <g id="ytick_3">
     <g id="line2d_14">
      <g>
       <use style="stroke:#000000;stroke-width:0.8;" x="107.6" xlink:href="#m0926d5db29" y="82.601265"/>
      </g>
     </g>
     <g id="text_15">
      <!-- 1250 -->
      <g transform="translate(52.6 90.79689)scale(0.24 -0.24)">
       <use xlink:href="#STIXGeneral-Regular-49"/>
       <use x="49.999985" xlink:href="#STIXGeneral-Regular-50"/>
       <use x="99.999969" xlink:href="#STIXGeneral-Regular-53"/>
       <use x="149.999954" xlink:href="#STIXGeneral-Regular-48"/>
      </g>
     </g>
    </g>
    <g id="text_16">
     <!-- T$_1$ (ms) -->
     <g transform="translate(42.089062 211.25)rotate(-90)scale(0.3 -0.3)">
      <defs>
       <path d="M 59.296875 49.203125 
L 56.90625 49.203125 
Q 55.296875 57.40625 52.390625 59.703125 
Q 49.5 62 41.5 62 
L 35.59375 62 
L 35.59375 11.09375 
Q 35.59375 5.40625 37.296875 3.796875 
Q 39 2.203125 45.203125 1.90625 
L 45.203125 0 
L 16 0 
L 16 1.90625 
Q 22.296875 2.296875 23.84375 4 
Q 25.40625 5.703125 25.40625 12.296875 
L 25.40625 62 
L 19.40625 62 
Q 11.296875 62 8.4375 59.640625 
Q 5.59375 57.296875 4.09375 49.203125 
L 1.703125 49.203125 
L 2.40625 66.203125 
L 58.59375 66.203125 
z
" id="STIXGeneral-Regular-84"/>
       <path d="M 30.40625 -16.09375 
L 29.203125 -17.703125 
Q 17.59375 -11.09375 11.1875 0.5 
Q 4.796875 12.09375 4.796875 25.203125 
Q 4.796875 52.90625 29.5 67.59375 
L 30.40625 66 
Q 20.203125 57.296875 16.796875 48.84375 
Q 13.40625 40.40625 13.40625 25.5 
Q 13.40625 10.703125 16.90625 1.5 
Q 20.40625 -7.703125 30.40625 -16.09375 
z
" id="STIXGeneral-Regular-40"/>
       <path d="M 77.5 0 
L 55.703125 0 
L 55.703125 1.5 
Q 59.90625 1.90625 61.046875 3.25 
Q 62.203125 4.59375 62.203125 9 
L 62.203125 29.59375 
Q 62.203125 35.59375 60.453125 38.1875 
Q 58.703125 40.796875 54.5 40.796875 
Q 51 40.796875 48.546875 39.390625 
Q 46.09375 38 43.796875 34.703125 
L 43.796875 9.5 
Q 43.796875 4.703125 45.25 3.140625 
Q 46.703125 1.59375 51 1.5 
L 51 0 
L 28.59375 0 
L 28.59375 1.5 
Q 33 1.796875 34.203125 2.9375 
Q 35.40625 4.09375 35.40625 8.59375 
L 35.40625 29.703125 
Q 35.40625 40.796875 28.90625 40.796875 
Q 26.09375 40.796875 22.9375 39.546875 
Q 19.796875 38.296875 18.296875 36.5 
Q 17 35 17 34.796875 
L 17 7 
Q 17 3.796875 18.390625 2.75 
Q 19.796875 1.703125 23.796875 1.5 
L 23.796875 0 
L 1.59375 0 
L 1.59375 1.5 
Q 5.796875 1.59375 7.1875 3.046875 
Q 8.59375 4.5 8.59375 8.796875 
L 8.59375 33.59375 
Q 8.59375 37.296875 7.796875 38.75 
Q 7 40.203125 5.09375 40.203125 
Q 3.59375 40.203125 1.90625 39.796875 
L 1.90625 41.5 
Q 8.703125 43.40625 15.796875 46 
L 16.59375 45.703125 
L 16.59375 38.296875 
L 16.796875 38.296875 
Q 21.296875 43 24.75 44.5 
Q 28.203125 46 32.09375 46 
Q 40 46 42.703125 37.59375 
Q 50.5 46 59 46 
Q 70.59375 46 70.59375 28 
L 70.59375 7.703125 
Q 70.59375 4.40625 71.59375 3.15625 
Q 72.59375 1.90625 74.90625 1.703125 
L 77.5 1.5 
z
" id="STIXGeneral-Regular-109"/>
       <path d="M 15.59375 30.09375 
L 26 23.796875 
Q 31 20.796875 32.890625 18.1875 
Q 34.796875 15.59375 34.796875 11.5 
Q 34.796875 6.5 30.640625 2.75 
Q 26.5 -1 20.796875 -1 
Q 16.09375 -1 13.5 -0.09375 
Q 10.796875 0.796875 8.90625 0.796875 
Q 7.203125 0.796875 6.5 -0.40625 
L 5.203125 -0.40625 
L 5.203125 15.296875 
L 6.796875 15.296875 
Q 8.40625 8 11.40625 4.59375 
Q 14.40625 1.203125 19.5 1.203125 
Q 23.203125 1.203125 25.5 3.296875 
Q 27.796875 5.40625 27.796875 8.59375 
Q 27.796875 13.203125 22.5 16.09375 
L 17.09375 19.09375 
Q 5.09375 25.796875 5.09375 33.59375 
Q 5.09375 39.40625 8.84375 42.65625 
Q 12.59375 45.90625 18.90625 45.90625 
Q 23.296875 45.90625 25.59375 44.796875 
Q 27.40625 44 28.40625 44 
Q 29.09375 44 30 45 
L 31.09375 45 
L 31.59375 31.40625 
L 30.09375 31.40625 
Q 28.40625 38.203125 25.84375 40.953125 
Q 23.296875 43.703125 18.796875 43.703125 
Q 15.40625 43.703125 13.34375 42 
Q 11.296875 40.296875 11.296875 36.90625 
Q 11.296875 35.203125 12.4375 33.25 
Q 13.59375 31.296875 15.59375 30.09375 
z
" id="STIXGeneral-Regular-115"/>
       <path d="M 2.90625 66 
L 4.09375 67.59375 
Q 15.5 60.796875 22 49.1875 
Q 28.5 37.59375 28.5 24.703125 
Q 28.5 -2.59375 3.796875 -17.703125 
L 2.90625 -16.09375 
Q 13.203125 -7.59375 16.546875 0.84375 
Q 19.90625 9.296875 19.90625 24.40625 
Q 19.90625 39.59375 16.546875 48.75 
Q 13.203125 57.90625 2.90625 66 
z
" id="STIXGeneral-Regular-41"/>
      </defs>
      <use transform="translate(0 0.40625)" xlink:href="#STIXGeneral-Regular-84"/>
      <use transform="translate(62.643272 -12.821875)scale(0.7)" xlink:href="#STIXGeneral-Regular-49"/>
      <use transform="translate(102.052636 0.40625)" xlink:href="#STIXGeneral-Regular-32"/>
      <use transform="translate(127.052621 0.40625)" xlink:href="#STIXGeneral-Regular-40"/>
      <use transform="translate(160.352609 0.40625)" xlink:href="#STIXGeneral-Regular-109"/>
      <use transform="translate(238.152597 0.40625)" xlink:href="#STIXGeneral-Regular-115"/>
      <use transform="translate(277.052591 0.40625)" xlink:href="#STIXGeneral-Regular-41"/>
     </g>
    </g>
   </g>
   <g id="LineCollection_1">
    <path clip-path="url(#peaa79aa515)" d="M 233.148828 84.435431 
L 233.148828 60.781818 
" style="fill:none;stroke:#1f77b4;stroke-width:3;"/>
    <path clip-path="url(#peaa79aa515)" d="M 358.572232 198.06475 
L 358.572232 146.26315 
" style="fill:none;stroke:#1f77b4;stroke-width:3;"/>
    <path clip-path="url(#peaa79aa515)" d="M 358.697656 191.518312 
L 358.697656 171.151518 
" style="fill:none;stroke:#1f77b4;stroke-width:3;"/>
    <path clip-path="url(#peaa79aa515)" d="M 358.823079 187.849116 
L 358.823079 169.625601 
" style="fill:none;stroke:#1f77b4;stroke-width:3;"/>
    <path clip-path="url(#peaa79aa515)" d="M 358.948503 170.252724 
L 358.948503 150.008021 
" style="fill:none;stroke:#1f77b4;stroke-width:3;"/>
    <path clip-path="url(#peaa79aa515)" d="M 359.073926 188.593365 
L 359.073926 166.018739 
" style="fill:none;stroke:#1f77b4;stroke-width:3;"/>
    <path clip-path="url(#peaa79aa515)" d="M 359.199349 192.554417 
L 359.199349 169.426265 
" style="fill:none;stroke:#1f77b4;stroke-width:3;"/>
    <path clip-path="url(#peaa79aa515)" d="M 483.995637 139.762579 
L 483.995637 94.089656 
" style="fill:none;stroke:#1f77b4;stroke-width:3;"/>
    <path clip-path="url(#peaa79aa515)" d="M 609.419041 200.786652 
L 609.419041 174.234824 
" style="fill:none;stroke:#1f77b4;stroke-width:3;"/>
    <path clip-path="url(#peaa79aa515)" d="M 734.842446 229.126045 
L 734.842446 149.659237 
" style="fill:none;stroke:#1f77b4;stroke-width:3;"/>
    <path clip-path="url(#peaa79aa515)" d="M 734.967869 211.326034 
L 734.967869 177.372371 
" style="fill:none;stroke:#1f77b4;stroke-width:3;"/>
    <path clip-path="url(#peaa79aa515)" d="M 735.093293 198.968405 
L 735.093293 138.149952 
" style="fill:none;stroke:#1f77b4;stroke-width:3;"/>
    <path clip-path="url(#peaa79aa515)" d="M 735.218716 189.193905 
L 735.218716 164.755556 
" style="fill:none;stroke:#1f77b4;stroke-width:3;"/>
    <path clip-path="url(#peaa79aa515)" d="M 860.26585 268.418182 
L 860.26585 259.116964 
" style="fill:none;stroke:#1f77b4;stroke-width:3;"/>
    <path clip-path="url(#peaa79aa515)" d="M 985.689255 208.460124 
L 985.689255 192.298365 
" style="fill:none;stroke:#1f77b4;stroke-width:3;"/>
    <path clip-path="url(#peaa79aa515)" d="M 1111.112659 199.688864 
L 1111.112659 190.679399 
" style="fill:none;stroke:#1f77b4;stroke-width:3;"/>
    <path clip-path="url(#peaa79aa515)" d="M 1111.238082 203.060632 
L 1111.238082 187.281125 
" style="fill:none;stroke:#1f77b4;stroke-width:3;"/>
    <path clip-path="url(#peaa79aa515)" d="M 1236.536064 207.320911 
L 1236.536064 192.986981 
" style="fill:none;stroke:#1f77b4;stroke-width:3;"/>
    <path clip-path="url(#peaa79aa515)" d="M 1236.661487 203.775941 
L 1236.661487 193.086213 
" style="fill:none;stroke:#1f77b4;stroke-width:3;"/>
    <path clip-path="url(#peaa79aa515)" d="M 1236.78691 201.487548 
L 1236.78691 193.9433 
" style="fill:none;stroke:#1f77b4;stroke-width:3;"/>
    <path clip-path="url(#peaa79aa515)" d="M 1236.912334 198.168382 
L 1236.912334 189.946898 
" style="fill:none;stroke:#1f77b4;stroke-width:3;"/>
    <path clip-path="url(#peaa79aa515)" d="M 1237.037757 196.042701 
L 1237.037757 189.740079 
" style="fill:none;stroke:#1f77b4;stroke-width:3;"/>
    <path clip-path="url(#peaa79aa515)" d="M 1237.163181 196.141452 
L 1237.163181 182.749852 
" style="fill:none;stroke:#1f77b4;stroke-width:3;"/>
    <path clip-path="url(#peaa79aa515)" d="M 1237.288604 193.576159 
L 1237.288604 185.739236 
" style="fill:none;stroke:#1f77b4;stroke-width:3;"/>
    <path clip-path="url(#peaa79aa515)" d="M 1237.414027 202.033093 
L 1237.414027 188.600227 
" style="fill:none;stroke:#1f77b4;stroke-width:3;"/>
    <path clip-path="url(#peaa79aa515)" d="M 1237.539451 196.267167 
L 1237.539451 186.122887 
" style="fill:none;stroke:#1f77b4;stroke-width:3;"/>
    <path clip-path="url(#peaa79aa515)" d="M 1237.664874 193.723892 
L 1237.664874 187.658946 
" style="fill:none;stroke:#1f77b4;stroke-width:3;"/>
    <path clip-path="url(#peaa79aa515)" d="M 1237.790298 209.709124 
L 1237.790298 198.815529 
" style="fill:none;stroke:#1f77b4;stroke-width:3;"/>
    <path clip-path="url(#peaa79aa515)" d="M 1237.915721 208.858471 
L 1237.915721 190.177149 
" style="fill:none;stroke:#1f77b4;stroke-width:3;"/>
    <path clip-path="url(#peaa79aa515)" d="M 1238.041144 197.059621 
L 1238.041144 185.436456 
" style="fill:none;stroke:#1f77b4;stroke-width:3;"/>
    <path clip-path="url(#peaa79aa515)" d="M 1238.166568 193.041976 
L 1238.166568 185.213192 
" style="fill:none;stroke:#1f77b4;stroke-width:3;"/>
    <path clip-path="url(#peaa79aa515)" d="M 1238.291991 212.229926 
L 1238.291991 197.460976 
" style="fill:none;stroke:#1f77b4;stroke-width:3;"/>
    <path clip-path="url(#peaa79aa515)" d="M 1238.417415 240.182492 
L 1238.417415 148.144834 
" style="fill:none;stroke:#1f77b4;stroke-width:3;"/>
    <path clip-path="url(#peaa79aa515)" d="M 1238.542838 238.075937 
L 1238.542838 146.858662 
" style="fill:none;stroke:#1f77b4;stroke-width:3;"/>
    <path clip-path="url(#peaa79aa515)" d="M 1238.668261 202.695701 
L 1238.668261 193.000203 
" style="fill:none;stroke:#1f77b4;stroke-width:3;"/>
    <path clip-path="url(#peaa79aa515)" d="M 1238.793685 204.624004 
L 1238.793685 188.924941 
" style="fill:none;stroke:#1f77b4;stroke-width:3;"/>
    <path clip-path="url(#peaa79aa515)" d="M 1238.919108 194.290736 
L 1238.919108 181.790967 
" style="fill:none;stroke:#1f77b4;stroke-width:3;"/>
    <path clip-path="url(#peaa79aa515)" d="M 1239.044532 192.600631 
L 1239.044532 185.177435 
" style="fill:none;stroke:#1f77b4;stroke-width:3;"/>
    <path clip-path="url(#peaa79aa515)" d="M 1239.169955 195.898897 
L 1239.169955 180.712919 
" style="fill:none;stroke:#1f77b4;stroke-width:3;"/>
    <path clip-path="url(#peaa79aa515)" d="M 1239.295378 197.438392 
L 1239.295378 183.467344 
" style="fill:none;stroke:#1f77b4;stroke-width:3;"/>
    <path clip-path="url(#peaa79aa515)" d="M 1239.420802 194.435596 
L 1239.420802 184.349686 
" style="fill:none;stroke:#1f77b4;stroke-width:3;"/>
    <path clip-path="url(#peaa79aa515)" d="M 1239.546225 199.954251 
L 1239.546225 184.503246 
" style="fill:none;stroke:#1f77b4;stroke-width:3;"/>
    <path clip-path="url(#peaa79aa515)" d="M 1239.671649 198.813906 
L 1239.671649 186.809841 
" style="fill:none;stroke:#1f77b4;stroke-width:3;"/>
    <path clip-path="url(#peaa79aa515)" d="M 1239.797072 187.373138 
L 1239.797072 176.727998 
" style="fill:none;stroke:#1f77b4;stroke-width:3;"/>
    <path clip-path="url(#peaa79aa515)" d="M 1239.922495 184.806803 
L 1239.922495 178.605185 
" style="fill:none;stroke:#1f77b4;stroke-width:3;"/>
    <path clip-path="url(#peaa79aa515)" d="M 1240.047919 197.16956 
L 1240.047919 186.068675 
" style="fill:none;stroke:#1f77b4;stroke-width:3;"/>
    <path clip-path="url(#peaa79aa515)" d="M 1240.173342 211.803126 
L 1240.173342 195.555277 
" style="fill:none;stroke:#1f77b4;stroke-width:3;"/>
    <path clip-path="url(#peaa79aa515)" d="M 1240.298766 196.723164 
L 1240.298766 181.797061 
" style="fill:none;stroke:#1f77b4;stroke-width:3;"/>
    <path clip-path="url(#peaa79aa515)" d="M 1240.424189 192.573029 
L 1240.424189 183.561685 
" style="fill:none;stroke:#1f77b4;stroke-width:3;"/>
    <path clip-path="url(#peaa79aa515)" d="M 1240.549612 207.299307 
L 1240.549612 185.533984 
" style="fill:none;stroke:#1f77b4;stroke-width:3;"/>
    <path clip-path="url(#peaa79aa515)" d="M 1240.675036 200.427354 
L 1240.675036 186.627699 
" style="fill:none;stroke:#1f77b4;stroke-width:3;"/>
    <path clip-path="url(#peaa79aa515)" d="M 1240.800459 206.047102 
L 1240.800459 194.26079 
" style="fill:none;stroke:#1f77b4;stroke-width:3;"/>
    <path clip-path="url(#peaa79aa515)" d="M 1240.925883 191.698967 
L 1240.925883 172.561203 
" style="fill:none;stroke:#1f77b4;stroke-width:3;"/>
    <path clip-path="url(#peaa79aa515)" d="M 1241.051306 181.713035 
L 1241.051306 165.053388 
" style="fill:none;stroke:#1f77b4;stroke-width:3;"/>
    <path clip-path="url(#peaa79aa515)" d="M 1241.176729 179.235514 
L 1241.176729 167.371875 
" style="fill:none;stroke:#1f77b4;stroke-width:3;"/>
    <path clip-path="url(#peaa79aa515)" d="M 1361.959468 203.08828 
L 1361.959468 189.798022 
" style="fill:none;stroke:#1f77b4;stroke-width:3;"/>
   </g>
   <g id="line2d_15">
    <defs>
     <path d="M 10 0 
L -10 -0 
" id="mc6ecd8f3af" style="stroke:#1f77b4;"/>
    </defs>
    <g clip-path="url(#peaa79aa515)">
     <use style="fill:#1f77b4;stroke:#1f77b4;" x="233.148828" xlink:href="#mc6ecd8f3af" y="84.435431"/>
     <use style="fill:#1f77b4;stroke:#1f77b4;" x="358.572232" xlink:href="#mc6ecd8f3af" y="198.06475"/>
     <use style="fill:#1f77b4;stroke:#1f77b4;" x="358.697656" xlink:href="#mc6ecd8f3af" y="191.518312"/>
     <use style="fill:#1f77b4;stroke:#1f77b4;" x="358.823079" xlink:href="#mc6ecd8f3af" y="187.849116"/>
     <use style="fill:#1f77b4;stroke:#1f77b4;" x="358.948503" xlink:href="#mc6ecd8f3af" y="170.252724"/>
     <use style="fill:#1f77b4;stroke:#1f77b4;" x="359.073926" xlink:href="#mc6ecd8f3af" y="188.593365"/>
     <use style="fill:#1f77b4;stroke:#1f77b4;" x="359.199349" xlink:href="#mc6ecd8f3af" y="192.554417"/>
     <use style="fill:#1f77b4;stroke:#1f77b4;" x="483.995637" xlink:href="#mc6ecd8f3af" y="139.762579"/>
     <use style="fill:#1f77b4;stroke:#1f77b4;" x="609.419041" xlink:href="#mc6ecd8f3af" y="200.786652"/>
     <use style="fill:#1f77b4;stroke:#1f77b4;" x="734.842446" xlink:href="#mc6ecd8f3af" y="229.126045"/>
     <use style="fill:#1f77b4;stroke:#1f77b4;" x="734.967869" xlink:href="#mc6ecd8f3af" y="211.326034"/>
     <use style="fill:#1f77b4;stroke:#1f77b4;" x="735.093293" xlink:href="#mc6ecd8f3af" y="198.968405"/>
     <use style="fill:#1f77b4;stroke:#1f77b4;" x="735.218716" xlink:href="#mc6ecd8f3af" y="189.193905"/>
     <use style="fill:#1f77b4;stroke:#1f77b4;" x="860.26585" xlink:href="#mc6ecd8f3af" y="268.418182"/>
     <use style="fill:#1f77b4;stroke:#1f77b4;" x="985.689255" xlink:href="#mc6ecd8f3af" y="208.460124"/>
     <use style="fill:#1f77b4;stroke:#1f77b4;" x="1111.112659" xlink:href="#mc6ecd8f3af" y="199.688864"/>
     <use style="fill:#1f77b4;stroke:#1f77b4;" x="1111.238082" xlink:href="#mc6ecd8f3af" y="203.060632"/>
     <use style="fill:#1f77b4;stroke:#1f77b4;" x="1236.536064" xlink:href="#mc6ecd8f3af" y="207.320911"/>
     <use style="fill:#1f77b4;stroke:#1f77b4;" x="1236.661487" xlink:href="#mc6ecd8f3af" y="203.775941"/>
     <use style="fill:#1f77b4;stroke:#1f77b4;" x="1236.78691" xlink:href="#mc6ecd8f3af" y="201.487548"/>
     <use style="fill:#1f77b4;stroke:#1f77b4;" x="1236.912334" xlink:href="#mc6ecd8f3af" y="198.168382"/>
     <use style="fill:#1f77b4;stroke:#1f77b4;" x="1237.037757" xlink:href="#mc6ecd8f3af" y="196.042701"/>
     <use style="fill:#1f77b4;stroke:#1f77b4;" x="1237.163181" xlink:href="#mc6ecd8f3af" y="196.141452"/>
     <use style="fill:#1f77b4;stroke:#1f77b4;" x="1237.288604" xlink:href="#mc6ecd8f3af" y="193.576159"/>
     <use style="fill:#1f77b4;stroke:#1f77b4;" x="1237.414027" xlink:href="#mc6ecd8f3af" y="202.033093"/>
     <use style="fill:#1f77b4;stroke:#1f77b4;" x="1237.539451" xlink:href="#mc6ecd8f3af" y="196.267167"/>
     <use style="fill:#1f77b4;stroke:#1f77b4;" x="1237.664874" xlink:href="#mc6ecd8f3af" y="193.723892"/>
     <use style="fill:#1f77b4;stroke:#1f77b4;" x="1237.790298" xlink:href="#mc6ecd8f3af" y="209.709124"/>
     <use style="fill:#1f77b4;stroke:#1f77b4;" x="1237.915721" xlink:href="#mc6ecd8f3af" y="208.858471"/>
     <use style="fill:#1f77b4;stroke:#1f77b4;" x="1238.041144" xlink:href="#mc6ecd8f3af" y="197.059621"/>
     <use style="fill:#1f77b4;stroke:#1f77b4;" x="1238.166568" xlink:href="#mc6ecd8f3af" y="193.041976"/>
     <use style="fill:#1f77b4;stroke:#1f77b4;" x="1238.291991" xlink:href="#mc6ecd8f3af" y="212.229926"/>
     <use style="fill:#1f77b4;stroke:#1f77b4;" x="1238.417415" xlink:href="#mc6ecd8f3af" y="240.182492"/>
     <use style="fill:#1f77b4;stroke:#1f77b4;" x="1238.542838" xlink:href="#mc6ecd8f3af" y="238.075937"/>
     <use style="fill:#1f77b4;stroke:#1f77b4;" x="1238.668261" xlink:href="#mc6ecd8f3af" y="202.695701"/>
     <use style="fill:#1f77b4;stroke:#1f77b4;" x="1238.793685" xlink:href="#mc6ecd8f3af" y="204.624004"/>
     <use style="fill:#1f77b4;stroke:#1f77b4;" x="1238.919108" xlink:href="#mc6ecd8f3af" y="194.290736"/>
     <use style="fill:#1f77b4;stroke:#1f77b4;" x="1239.044532" xlink:href="#mc6ecd8f3af" y="192.600631"/>
     <use style="fill:#1f77b4;stroke:#1f77b4;" x="1239.169955" xlink:href="#mc6ecd8f3af" y="195.898897"/>
     <use style="fill:#1f77b4;stroke:#1f77b4;" x="1239.295378" xlink:href="#mc6ecd8f3af" y="197.438392"/>
     <use style="fill:#1f77b4;stroke:#1f77b4;" x="1239.420802" xlink:href="#mc6ecd8f3af" y="194.435596"/>
     <use style="fill:#1f77b4;stroke:#1f77b4;" x="1239.546225" xlink:href="#mc6ecd8f3af" y="199.954251"/>
     <use style="fill:#1f77b4;stroke:#1f77b4;" x="1239.671649" xlink:href="#mc6ecd8f3af" y="198.813906"/>
     <use style="fill:#1f77b4;stroke:#1f77b4;" x="1239.797072" xlink:href="#mc6ecd8f3af" y="187.373138"/>
     <use style="fill:#1f77b4;stroke:#1f77b4;" x="1239.922495" xlink:href="#mc6ecd8f3af" y="184.806803"/>
     <use style="fill:#1f77b4;stroke:#1f77b4;" x="1240.047919" xlink:href="#mc6ecd8f3af" y="197.16956"/>
     <use style="fill:#1f77b4;stroke:#1f77b4;" x="1240.173342" xlink:href="#mc6ecd8f3af" y="211.803126"/>
     <use style="fill:#1f77b4;stroke:#1f77b4;" x="1240.298766" xlink:href="#mc6ecd8f3af" y="196.723164"/>
     <use style="fill:#1f77b4;stroke:#1f77b4;" x="1240.424189" xlink:href="#mc6ecd8f3af" y="192.573029"/>
     <use style="fill:#1f77b4;stroke:#1f77b4;" x="1240.549612" xlink:href="#mc6ecd8f3af" y="207.299307"/>
     <use style="fill:#1f77b4;stroke:#1f77b4;" x="1240.675036" xlink:href="#mc6ecd8f3af" y="200.427354"/>
     <use style="fill:#1f77b4;stroke:#1f77b4;" x="1240.800459" xlink:href="#mc6ecd8f3af" y="206.047102"/>
     <use style="fill:#1f77b4;stroke:#1f77b4;" x="1240.925883" xlink:href="#mc6ecd8f3af" y="191.698967"/>
     <use style="fill:#1f77b4;stroke:#1f77b4;" x="1241.051306" xlink:href="#mc6ecd8f3af" y="181.713035"/>
     <use style="fill:#1f77b4;stroke:#1f77b4;" x="1241.176729" xlink:href="#mc6ecd8f3af" y="179.235514"/>
     <use style="fill:#1f77b4;stroke:#1f77b4;" x="1361.959468" xlink:href="#mc6ecd8f3af" y="203.08828"/>
    </g>
   </g>
   <g id="line2d_16">
    <g clip-path="url(#peaa79aa515)">
     <use style="fill:#1f77b4;stroke:#1f77b4;" x="233.148828" xlink:href="#mc6ecd8f3af" y="60.781818"/>
     <use style="fill:#1f77b4;stroke:#1f77b4;" x="358.572232" xlink:href="#mc6ecd8f3af" y="146.26315"/>
     <use style="fill:#1f77b4;stroke:#1f77b4;" x="358.697656" xlink:href="#mc6ecd8f3af" y="171.151518"/>
     <use style="fill:#1f77b4;stroke:#1f77b4;" x="358.823079" xlink:href="#mc6ecd8f3af" y="169.625601"/>
     <use style="fill:#1f77b4;stroke:#1f77b4;" x="358.948503" xlink:href="#mc6ecd8f3af" y="150.008021"/>
     <use style="fill:#1f77b4;stroke:#1f77b4;" x="359.073926" xlink:href="#mc6ecd8f3af" y="166.018739"/>
     <use style="fill:#1f77b4;stroke:#1f77b4;" x="359.199349" xlink:href="#mc6ecd8f3af" y="169.426265"/>
     <use style="fill:#1f77b4;stroke:#1f77b4;" x="483.995637" xlink:href="#mc6ecd8f3af" y="94.089656"/>
     <use style="fill:#1f77b4;stroke:#1f77b4;" x="609.419041" xlink:href="#mc6ecd8f3af" y="174.234824"/>
     <use style="fill:#1f77b4;stroke:#1f77b4;" x="734.842446" xlink:href="#mc6ecd8f3af" y="149.659237"/>
     <use style="fill:#1f77b4;stroke:#1f77b4;" x="734.967869" xlink:href="#mc6ecd8f3af" y="177.372371"/>
     <use style="fill:#1f77b4;stroke:#1f77b4;" x="735.093293" xlink:href="#mc6ecd8f3af" y="138.149952"/>
     <use style="fill:#1f77b4;stroke:#1f77b4;" x="735.218716" xlink:href="#mc6ecd8f3af" y="164.755556"/>
     <use style="fill:#1f77b4;stroke:#1f77b4;" x="860.26585" xlink:href="#mc6ecd8f3af" y="259.116964"/>
     <use style="fill:#1f77b4;stroke:#1f77b4;" x="985.689255" xlink:href="#mc6ecd8f3af" y="192.298365"/>
     <use style="fill:#1f77b4;stroke:#1f77b4;" x="1111.112659" xlink:href="#mc6ecd8f3af" y="190.679399"/>
     <use style="fill:#1f77b4;stroke:#1f77b4;" x="1111.238082" xlink:href="#mc6ecd8f3af" y="187.281125"/>
     <use style="fill:#1f77b4;stroke:#1f77b4;" x="1236.536064" xlink:href="#mc6ecd8f3af" y="192.986981"/>
     <use style="fill:#1f77b4;stroke:#1f77b4;" x="1236.661487" xlink:href="#mc6ecd8f3af" y="193.086213"/>
     <use style="fill:#1f77b4;stroke:#1f77b4;" x="1236.78691" xlink:href="#mc6ecd8f3af" y="193.9433"/>
     <use style="fill:#1f77b4;stroke:#1f77b4;" x="1236.912334" xlink:href="#mc6ecd8f3af" y="189.946898"/>
     <use style="fill:#1f77b4;stroke:#1f77b4;" x="1237.037757" xlink:href="#mc6ecd8f3af" y="189.740079"/>
     <use style="fill:#1f77b4;stroke:#1f77b4;" x="1237.163181" xlink:href="#mc6ecd8f3af" y="182.749852"/>
     <use style="fill:#1f77b4;stroke:#1f77b4;" x="1237.288604" xlink:href="#mc6ecd8f3af" y="185.739236"/>
     <use style="fill:#1f77b4;stroke:#1f77b4;" x="1237.414027" xlink:href="#mc6ecd8f3af" y="188.600227"/>
     <use style="fill:#1f77b4;stroke:#1f77b4;" x="1237.539451" xlink:href="#mc6ecd8f3af" y="186.122887"/>
     <use style="fill:#1f77b4;stroke:#1f77b4;" x="1237.664874" xlink:href="#mc6ecd8f3af" y="187.658946"/>
     <use style="fill:#1f77b4;stroke:#1f77b4;" x="1237.790298" xlink:href="#mc6ecd8f3af" y="198.815529"/>
     <use style="fill:#1f77b4;stroke:#1f77b4;" x="1237.915721" xlink:href="#mc6ecd8f3af" y="190.177149"/>
     <use style="fill:#1f77b4;stroke:#1f77b4;" x="1238.041144" xlink:href="#mc6ecd8f3af" y="185.436456"/>
     <use style="fill:#1f77b4;stroke:#1f77b4;" x="1238.166568" xlink:href="#mc6ecd8f3af" y="185.213192"/>
     <use style="fill:#1f77b4;stroke:#1f77b4;" x="1238.291991" xlink:href="#mc6ecd8f3af" y="197.460976"/>
     <use style="fill:#1f77b4;stroke:#1f77b4;" x="1238.417415" xlink:href="#mc6ecd8f3af" y="148.144834"/>
     <use style="fill:#1f77b4;stroke:#1f77b4;" x="1238.542838" xlink:href="#mc6ecd8f3af" y="146.858662"/>
     <use style="fill:#1f77b4;stroke:#1f77b4;" x="1238.668261" xlink:href="#mc6ecd8f3af" y="193.000203"/>
     <use style="fill:#1f77b4;stroke:#1f77b4;" x="1238.793685" xlink:href="#mc6ecd8f3af" y="188.924941"/>
     <use style="fill:#1f77b4;stroke:#1f77b4;" x="1238.919108" xlink:href="#mc6ecd8f3af" y="181.790967"/>
     <use style="fill:#1f77b4;stroke:#1f77b4;" x="1239.044532" xlink:href="#mc6ecd8f3af" y="185.177435"/>
     <use style="fill:#1f77b4;stroke:#1f77b4;" x="1239.169955" xlink:href="#mc6ecd8f3af" y="180.712919"/>
     <use style="fill:#1f77b4;stroke:#1f77b4;" x="1239.295378" xlink:href="#mc6ecd8f3af" y="183.467344"/>
     <use style="fill:#1f77b4;stroke:#1f77b4;" x="1239.420802" xlink:href="#mc6ecd8f3af" y="184.349686"/>
     <use style="fill:#1f77b4;stroke:#1f77b4;" x="1239.546225" xlink:href="#mc6ecd8f3af" y="184.503246"/>
     <use style="fill:#1f77b4;stroke:#1f77b4;" x="1239.671649" xlink:href="#mc6ecd8f3af" y="186.809841"/>
     <use style="fill:#1f77b4;stroke:#1f77b4;" x="1239.797072" xlink:href="#mc6ecd8f3af" y="176.727998"/>
     <use style="fill:#1f77b4;stroke:#1f77b4;" x="1239.922495" xlink:href="#mc6ecd8f3af" y="178.605185"/>
     <use style="fill:#1f77b4;stroke:#1f77b4;" x="1240.047919" xlink:href="#mc6ecd8f3af" y="186.068675"/>
     <use style="fill:#1f77b4;stroke:#1f77b4;" x="1240.173342" xlink:href="#mc6ecd8f3af" y="195.555277"/>
     <use style="fill:#1f77b4;stroke:#1f77b4;" x="1240.298766" xlink:href="#mc6ecd8f3af" y="181.797061"/>
     <use style="fill:#1f77b4;stroke:#1f77b4;" x="1240.424189" xlink:href="#mc6ecd8f3af" y="183.561685"/>
     <use style="fill:#1f77b4;stroke:#1f77b4;" x="1240.549612" xlink:href="#mc6ecd8f3af" y="185.533984"/>
     <use style="fill:#1f77b4;stroke:#1f77b4;" x="1240.675036" xlink:href="#mc6ecd8f3af" y="186.627699"/>
     <use style="fill:#1f77b4;stroke:#1f77b4;" x="1240.800459" xlink:href="#mc6ecd8f3af" y="194.26079"/>
     <use style="fill:#1f77b4;stroke:#1f77b4;" x="1240.925883" xlink:href="#mc6ecd8f3af" y="172.561203"/>
     <use style="fill:#1f77b4;stroke:#1f77b4;" x="1241.051306" xlink:href="#mc6ecd8f3af" y="165.053388"/>
     <use style="fill:#1f77b4;stroke:#1f77b4;" x="1241.176729" xlink:href="#mc6ecd8f3af" y="167.371875"/>
     <use style="fill:#1f77b4;stroke:#1f77b4;" x="1361.959468" xlink:href="#mc6ecd8f3af" y="189.798022"/>
    </g>
   </g>
   <g id="line2d_17">
    <defs>
     <path d="M 0 5 
C 1.326016 5 2.597899 4.473168 3.535534 3.535534 
C 4.473168 2.597899 5 1.326016 5 0 
C 5 -1.326016 4.473168 -2.597899 3.535534 -3.535534 
C 2.597899 -4.473168 1.326016 -5 0 -5 
C -1.326016 -5 -2.597899 -4.473168 -3.535534 -3.535534 
C -4.473168 -2.597899 -5 -1.326016 -5 0 
C -5 1.326016 -4.473168 2.597899 -3.535534 3.535534 
C -2.597899 4.473168 -1.326016 5 0 5 
z
" id="me5be394d2a" style="stroke:#1f77b4;"/>
    </defs>
    <g clip-path="url(#peaa79aa515)">
     <use style="fill:#1f77b4;stroke:#1f77b4;" x="233.148828" xlink:href="#me5be394d2a" y="72.608625"/>
     <use style="fill:#1f77b4;stroke:#1f77b4;" x="358.572232" xlink:href="#me5be394d2a" y="172.16395"/>
     <use style="fill:#1f77b4;stroke:#1f77b4;" x="358.697656" xlink:href="#me5be394d2a" y="181.334915"/>
     <use style="fill:#1f77b4;stroke:#1f77b4;" x="358.823079" xlink:href="#me5be394d2a" y="178.737358"/>
     <use style="fill:#1f77b4;stroke:#1f77b4;" x="358.948503" xlink:href="#me5be394d2a" y="160.130373"/>
     <use style="fill:#1f77b4;stroke:#1f77b4;" x="359.073926" xlink:href="#me5be394d2a" y="177.306052"/>
     <use style="fill:#1f77b4;stroke:#1f77b4;" x="359.199349" xlink:href="#me5be394d2a" y="180.990341"/>
     <use style="fill:#1f77b4;stroke:#1f77b4;" x="483.995637" xlink:href="#me5be394d2a" y="116.926118"/>
     <use style="fill:#1f77b4;stroke:#1f77b4;" x="609.419041" xlink:href="#me5be394d2a" y="187.510738"/>
     <use style="fill:#1f77b4;stroke:#1f77b4;" x="734.842446" xlink:href="#me5be394d2a" y="189.392641"/>
     <use style="fill:#1f77b4;stroke:#1f77b4;" x="734.967869" xlink:href="#me5be394d2a" y="194.349203"/>
     <use style="fill:#1f77b4;stroke:#1f77b4;" x="735.093293" xlink:href="#me5be394d2a" y="168.559178"/>
     <use style="fill:#1f77b4;stroke:#1f77b4;" x="735.218716" xlink:href="#me5be394d2a" y="176.974731"/>
     <use style="fill:#1f77b4;stroke:#1f77b4;" x="860.26585" xlink:href="#me5be394d2a" y="263.767573"/>
     <use style="fill:#1f77b4;stroke:#1f77b4;" x="985.689255" xlink:href="#me5be394d2a" y="200.379244"/>
     <use style="fill:#1f77b4;stroke:#1f77b4;" x="1111.112659" xlink:href="#me5be394d2a" y="195.184131"/>
     <use style="fill:#1f77b4;stroke:#1f77b4;" x="1111.238082" xlink:href="#me5be394d2a" y="195.170879"/>
     <use style="fill:#1f77b4;stroke:#1f77b4;" x="1236.536064" xlink:href="#me5be394d2a" y="200.153946"/>
     <use style="fill:#1f77b4;stroke:#1f77b4;" x="1236.661487" xlink:href="#me5be394d2a" y="198.431077"/>
     <use style="fill:#1f77b4;stroke:#1f77b4;" x="1236.78691" xlink:href="#me5be394d2a" y="197.715424"/>
     <use style="fill:#1f77b4;stroke:#1f77b4;" x="1236.912334" xlink:href="#me5be394d2a" y="194.05764"/>
     <use style="fill:#1f77b4;stroke:#1f77b4;" x="1237.037757" xlink:href="#me5be394d2a" y="192.89139"/>
     <use style="fill:#1f77b4;stroke:#1f77b4;" x="1237.163181" xlink:href="#me5be394d2a" y="189.445652"/>
     <use style="fill:#1f77b4;stroke:#1f77b4;" x="1237.288604" xlink:href="#me5be394d2a" y="189.657698"/>
     <use style="fill:#1f77b4;stroke:#1f77b4;" x="1237.414027" xlink:href="#me5be394d2a" y="195.31666"/>
     <use style="fill:#1f77b4;stroke:#1f77b4;" x="1237.539451" xlink:href="#me5be394d2a" y="191.195027"/>
     <use style="fill:#1f77b4;stroke:#1f77b4;" x="1237.664874" xlink:href="#me5be394d2a" y="190.691419"/>
     <use style="fill:#1f77b4;stroke:#1f77b4;" x="1237.790298" xlink:href="#me5be394d2a" y="204.262326"/>
     <use style="fill:#1f77b4;stroke:#1f77b4;" x="1237.915721" xlink:href="#me5be394d2a" y="199.51781"/>
     <use style="fill:#1f77b4;stroke:#1f77b4;" x="1238.041144" xlink:href="#me5be394d2a" y="191.248038"/>
     <use style="fill:#1f77b4;stroke:#1f77b4;" x="1238.166568" xlink:href="#me5be394d2a" y="189.127584"/>
     <use style="fill:#1f77b4;stroke:#1f77b4;" x="1238.291991" xlink:href="#me5be394d2a" y="204.845451"/>
     <use style="fill:#1f77b4;stroke:#1f77b4;" x="1238.417415" xlink:href="#me5be394d2a" y="194.163663"/>
     <use style="fill:#1f77b4;stroke:#1f77b4;" x="1238.542838" xlink:href="#me5be394d2a" y="192.467299"/>
     <use style="fill:#1f77b4;stroke:#1f77b4;" x="1238.668261" xlink:href="#me5be394d2a" y="197.847952"/>
     <use style="fill:#1f77b4;stroke:#1f77b4;" x="1238.793685" xlink:href="#me5be394d2a" y="196.774472"/>
     <use style="fill:#1f77b4;stroke:#1f77b4;" x="1238.919108" xlink:href="#me5be394d2a" y="188.040851"/>
     <use style="fill:#1f77b4;stroke:#1f77b4;" x="1239.044532" xlink:href="#me5be394d2a" y="188.889033"/>
     <use style="fill:#1f77b4;stroke:#1f77b4;" x="1239.169955" xlink:href="#me5be394d2a" y="188.305908"/>
     <use style="fill:#1f77b4;stroke:#1f77b4;" x="1239.295378" xlink:href="#me5be394d2a" y="190.452868"/>
     <use style="fill:#1f77b4;stroke:#1f77b4;" x="1239.420802" xlink:href="#me5be394d2a" y="189.392641"/>
     <use style="fill:#1f77b4;stroke:#1f77b4;" x="1239.546225" xlink:href="#me5be394d2a" y="192.228748"/>
     <use style="fill:#1f77b4;stroke:#1f77b4;" x="1239.671649" xlink:href="#me5be394d2a" y="192.811873"/>
     <use style="fill:#1f77b4;stroke:#1f77b4;" x="1239.797072" xlink:href="#me5be394d2a" y="182.050568"/>
     <use style="fill:#1f77b4;stroke:#1f77b4;" x="1239.922495" xlink:href="#me5be394d2a" y="181.705994"/>
     <use style="fill:#1f77b4;stroke:#1f77b4;" x="1240.047919" xlink:href="#me5be394d2a" y="191.619118"/>
     <use style="fill:#1f77b4;stroke:#1f77b4;" x="1240.173342" xlink:href="#me5be394d2a" y="203.679201"/>
     <use style="fill:#1f77b4;stroke:#1f77b4;" x="1240.298766" xlink:href="#me5be394d2a" y="189.260112"/>
     <use style="fill:#1f77b4;stroke:#1f77b4;" x="1240.424189" xlink:href="#me5be394d2a" y="188.067357"/>
     <use style="fill:#1f77b4;stroke:#1f77b4;" x="1240.549612" xlink:href="#me5be394d2a" y="196.416645"/>
     <use style="fill:#1f77b4;stroke:#1f77b4;" x="1240.675036" xlink:href="#me5be394d2a" y="193.527527"/>
     <use style="fill:#1f77b4;stroke:#1f77b4;" x="1240.800459" xlink:href="#me5be394d2a" y="200.153946"/>
     <use style="fill:#1f77b4;stroke:#1f77b4;" x="1240.925883" xlink:href="#me5be394d2a" y="182.130085"/>
     <use style="fill:#1f77b4;stroke:#1f77b4;" x="1241.051306" xlink:href="#me5be394d2a" y="173.383211"/>
     <use style="fill:#1f77b4;stroke:#1f77b4;" x="1241.176729" xlink:href="#me5be394d2a" y="173.303694"/>
     <use style="fill:#1f77b4;stroke:#1f77b4;" x="1361.959468" xlink:href="#me5be394d2a" y="196.443151"/>
    </g>
   </g>
   <g id="patch_3">
    <path d="M 107.6 278.8 
L 107.6 50.4 
" style="fill:none;stroke:#000000;stroke-linecap:square;stroke-linejoin:miter;stroke-width:4;"/>
   </g>
   <g id="patch_4">
    <path d="M 1418.4 278.8 
L 1418.4 50.4 
" style="fill:none;stroke:#000000;stroke-linecap:square;stroke-linejoin:miter;stroke-width:4;"/>
   </g>
   <g id="patch_5">
    <path d="M 107.6 278.8 
L 1418.4 278.8 
" style="fill:none;stroke:#000000;stroke-linecap:square;stroke-linejoin:miter;stroke-width:4;"/>
   </g>
   <g id="patch_6">
    <path d="M 107.6 50.4 
L 1418.4 50.4 
" style="fill:none;stroke:#000000;stroke-linecap:square;stroke-linejoin:miter;stroke-width:4;"/>
   </g>
   <g id="text_17">
    <!-- WM - Splenium -->
    <g transform="translate(659 43.455)scale(0.32 -0.32)">
     <defs>
      <path d="M 93.203125 66.203125 
L 93.203125 64.296875 
Q 89.203125 63.5 87.75 62.34375 
Q 86.296875 61.203125 84.90625 57.296875 
Q 73.5 26.703125 64.5 -1.09375 
L 63 -1.09375 
Q 56.90625 15.796875 47 41.203125 
L 31.59375 -1.09375 
L 30.09375 -1.09375 
Q 26.703125 9 19.953125 27.390625 
Q 13.203125 45.796875 10.90625 52.296875 
Q 8.40625 59.5 6.34375 61.84375 
Q 4.296875 64.203125 0.5 64.296875 
L 0.5 66.203125 
L 24.90625 66.203125 
L 24.90625 64.296875 
Q 21.203125 64.203125 19.84375 63.5 
Q 18.5 62.796875 18.5 61.203125 
Q 18.5 59.5 19.59375 56.5 
L 34 18.90625 
L 44.40625 47.203125 
L 41.59375 54.703125 
Q 39.203125 61.203125 37.5 62.703125 
Q 35.796875 64.203125 31.40625 64.296875 
L 31.40625 66.203125 
L 57.90625 66.203125 
L 57.90625 64.296875 
Q 50.203125 64.09375 50.203125 60.796875 
Q 50.203125 59.5 51.90625 55 
L 66.203125 18.59375 
L 78.796875 52.5 
Q 80.5 57.296875 80.5 60.203125 
Q 80.5 64.203125 73.5 64.296875 
L 73.5 66.203125 
z
" id="STIXGeneral-Regular-87"/>
      <path d="M 86.40625 0 
L 58.40625 0 
L 58.40625 1.90625 
Q 64.296875 2.296875 65.84375 4.140625 
Q 67.40625 6 67.40625 12.296875 
L 67.40625 57.203125 
L 41.90625 0 
L 40.5 0 
L 15.296875 54.90625 
L 15.296875 15.09375 
Q 15.296875 7 17 4.59375 
Q 18.703125 2.203125 24.59375 1.90625 
L 24.59375 0 
L 1.203125 0 
L 1.203125 1.90625 
Q 5.59375 2.203125 7.5 3.203125 
Q 9.40625 4.203125 10.15625 6.75 
Q 10.90625 9.296875 10.90625 15.09375 
L 10.90625 54.90625 
Q 10.90625 60.59375 9.203125 62.25 
Q 7.5 63.90625 1.40625 64.296875 
L 1.40625 66.203125 
L 21.203125 66.203125 
L 44.296875 16 
L 66.40625 66.203125 
L 86.296875 66.203125 
L 86.296875 64.296875 
Q 80.90625 64.203125 79.25 62.390625 
Q 77.59375 60.59375 77.59375 55 
L 77.59375 11.203125 
Q 77.59375 5.90625 79.25 4.09375 
Q 80.90625 2.296875 86.40625 1.90625 
z
" id="STIXGeneral-Regular-77"/>
      <path d="M 28.5 19.40625 
L 3.90625 19.40625 
L 3.90625 25.703125 
L 28.5 25.703125 
z
" id="STIXGeneral-Regular-45"/>
      <path d="M 15.90625 45.796875 
L 15.90625 38.09375 
Q 22.203125 46 30.296875 46 
Q 37.59375 46 42.296875 40 
Q 47 34 47 24.703125 
Q 47 13.796875 40.953125 6.390625 
Q 34.90625 -1 26 -1 
Q 22.90625 -1 20.75 -0.09375 
Q 18.59375 0.796875 15.90625 3.296875 
L 15.90625 -12.40625 
Q 15.90625 -17.09375 17.5 -18.4375 
Q 19.09375 -19.796875 24.703125 -19.90625 
L 24.703125 -21.703125 
L 0.5 -21.703125 
L 0.5 -20 
Q 4.90625 -19.59375 6.203125 -18.296875 
Q 7.5 -17 7.5 -13.09375 
L 7.5 33.703125 
Q 7.5 37.203125 6.703125 38.296875 
Q 5.90625 39.40625 3.40625 39.40625 
Q 1.796875 39.40625 0.90625 39.296875 
L 0.90625 40.90625 
Q 7.90625 43 15.296875 46 
z
M 15.90625 33.40625 
L 15.90625 8.796875 
Q 15.90625 6.59375 19.34375 4.390625 
Q 22.796875 2.203125 26.296875 2.203125 
Q 31.703125 2.203125 35.046875 7.296875 
Q 38.40625 12.40625 38.40625 20.703125 
Q 38.40625 29.5 35.046875 34.75 
Q 31.703125 40 26.09375 40 
Q 22.59375 40 19.25 37.796875 
Q 15.90625 35.59375 15.90625 33.40625 
z
" id="STIXGeneral-Regular-112"/>
      <path d="M 25.703125 0 
L 2.09375 0 
L 2.09375 1.5 
Q 6.796875 1.90625 8.296875 3.453125 
Q 9.796875 5 9.796875 9.203125 
L 9.796875 56.09375 
Q 9.796875 59.703125 8.890625 61.09375 
Q 8 62.5 5.59375 62.5 
Q 3.5 62.5 1.90625 62.296875 
L 1.90625 63.90625 
Q 11.40625 66.203125 17.703125 68.296875 
L 18.203125 67.90625 
L 18.203125 8.703125 
Q 18.203125 4.5 19.59375 3.140625 
Q 21 1.796875 25.703125 1.5 
z
" id="STIXGeneral-Regular-108"/>
      <path d="M 48.5 0 
L 27.703125 0 
L 27.796875 1.5 
Q 31.5 1.796875 32.75 3.640625 
Q 34 5.5 34 10.5 
L 34 30.40625 
Q 34 40.5 26.703125 40.5 
Q 24.203125 40.5 22 39.296875 
Q 19.796875 38.09375 16.40625 34.796875 
L 16.40625 7.203125 
Q 16.40625 4.203125 17.75 3 
Q 19.09375 1.796875 22.90625 1.5 
L 22.90625 0 
L 1.796875 0 
L 1.796875 1.5 
Q 5.59375 1.796875 6.796875 3.34375 
Q 8 4.90625 8 9.40625 
L 8 33.703125 
Q 8 37.40625 7.296875 38.796875 
Q 6.59375 40.203125 4.5 40.203125 
Q 2.5 40.203125 1.59375 39.796875 
L 1.59375 41.5 
Q 8.59375 43.5 15.296875 46 
L 16.09375 45.703125 
L 16.09375 37.90625 
L 16.203125 37.90625 
Q 23.296875 46 30.59375 46 
Q 36.296875 46 39.34375 42 
Q 42.40625 38 42.40625 30.59375 
L 42.40625 8.5 
Q 42.40625 4.5 43.59375 3.203125 
Q 44.796875 1.90625 48.5 1.5 
z
" id="STIXGeneral-Regular-110"/>
      <path d="M 48 5 
L 48 3.59375 
Q 40.203125 1.5 34.296875 -0.90625 
L 33.796875 -0.59375 
L 33.796875 7.59375 
L 33.59375 7.59375 
Q 27.296875 -1 19.296875 -1 
Q 13.59375 -1 10.34375 2.5 
Q 7.09375 6 7.09375 11.796875 
L 7.09375 36.90625 
Q 7.09375 40.59375 5.796875 42 
Q 4.5 43.40625 0.90625 43.59375 
L 0.90625 45 
L 15.5 45 
L 15.5 12.703125 
Q 15.5 9.296875 17.546875 7.046875 
Q 19.59375 4.796875 22.59375 4.796875 
Q 27.5 4.796875 31 7.90625 
Q 32.296875 9.09375 32.796875 10.140625 
Q 33.296875 11.203125 33.296875 13.703125 
L 33.296875 36.796875 
Q 33.296875 40.703125 31.890625 41.84375 
Q 30.5 43 25.90625 43.296875 
L 25.90625 45 
L 41.703125 45 
L 41.703125 10.703125 
Q 41.703125 7.203125 42.84375 6.09375 
Q 44 5 47.40625 5 
z
" id="STIXGeneral-Regular-117"/>
     </defs>
     <use xlink:href="#STIXGeneral-Regular-87"/>
     <use x="94.399994" xlink:href="#STIXGeneral-Regular-77"/>
     <use x="183.299988" xlink:href="#STIXGeneral-Regular-32"/>
     <use x="208.299973" xlink:href="#STIXGeneral-Regular-45"/>
     <use x="241.59996" xlink:href="#STIXGeneral-Regular-32"/>
     <use x="266.599945" xlink:href="#STIXGeneral-Regular-83"/>
     <use x="322.199936" xlink:href="#STIXGeneral-Regular-112"/>
     <use x="372.199921" xlink:href="#STIXGeneral-Regular-108"/>
     <use x="399.999908" xlink:href="#STIXGeneral-Regular-101"/>
     <use x="444.399902" xlink:href="#STIXGeneral-Regular-110"/>
     <use x="494.399887" xlink:href="#STIXGeneral-Regular-105"/>
     <use x="522.199875" xlink:href="#STIXGeneral-Regular-117"/>
     <use x="572.19986" xlink:href="#STIXGeneral-Regular-109"/>
    </g>
   </g>
  </g>
 </g>
 <defs>
  <clipPath id="peaa79aa515">
   <rect height="228.4" width="1310.8" x="107.6" y="50.4"/>
  </clipPath>
 </defs>
</svg>
