<?xml version="1.0" encoding="utf-8" standalone="no"?>
<!DOCTYPE svg PUBLIC "-//W3C//DTD SVG 1.1//EN"
  "http://www.w3.org/Graphics/SVG/1.1/DTD/svg11.dtd">
<!-- Created with matplotlib (https://matplotlib.org/) -->
<svg height="720pt" version="1.1" viewBox="0 0 720 720" width="720pt" xmlns="http://www.w3.org/2000/svg" xmlns:xlink="http://www.w3.org/1999/xlink">
 <metadata>
  <rdf:RDF xmlns:cc="http://creativecommons.org/ns#" xmlns:dc="http://purl.org/dc/elements/1.1/" xmlns:rdf="http://www.w3.org/1999/02/22-rdf-syntax-ns#">
   <cc:Work>
    <dc:type rdf:resource="http://purl.org/dc/dcmitype/StillImage"/>
    <dc:date>2020-08-07T15:38:16.778407</dc:date>
    <dc:format>image/svg+xml</dc:format>
    <dc:creator>
     <cc:Agent>
      <dc:title>Matplotlib v3.3.0, https://matplotlib.org/</dc:title>
     </cc:Agent>
    </dc:creator>
   </cc:Work>
  </rdf:RDF>
 </metadata>
 <defs>
  <style type="text/css">*{stroke-linecap:butt;stroke-linejoin:round;}</style>
 </defs>
 <g id="figure_1">
  <g id="patch_1">
   <path d="M 0 720 
L 720 720 
L 720 0 
L 0 0 
z
" style="fill:#ffffff;"/>
  </g>
  <g id="axes_1">
   <g id="patch_2">
    <path d="M 82.6 655 
L 687.8 655 
L 687.8 43.2 
L 82.6 43.2 
z
" style="fill:#ffffff;"/>
   </g>
   <g id="matplotlib.axis_1">
    <g id="xtick_1">
     <g id="line2d_1">
      <defs>
       <path d="M 0 0 
L 0 3.5 
" id="mfe1f07f6f7" style="stroke:#000000;stroke-width:0.8;"/>
      </defs>
      <g>
       <use style="stroke:#000000;stroke-width:0.8;" x="82.6" xlink:href="#mfe1f07f6f7" y="655"/>
      </g>
     </g>
     <g id="text_1">
      <!-- 0 -->
      <g transform="translate(78.6 672.9275)scale(0.16 -0.16)">
       <defs>
        <path d="M 47.59375 33 
Q 47.59375 26.296875 46.296875 20.34375 
Q 45 14.40625 42.453125 9.40625 
Q 39.90625 4.40625 35.40625 1.5 
Q 30.90625 -1.40625 25 -1.40625 
Q 18.90625 -1.40625 14.296875 1.6875 
Q 9.703125 4.796875 7.203125 10 
Q 4.703125 15.203125 3.546875 21.09375 
Q 2.40625 27 2.40625 33.59375 
Q 2.40625 42.90625 4.703125 50.34375 
Q 7 57.796875 12.34375 62.6875 
Q 17.703125 67.59375 25.40625 67.59375 
Q 35.203125 67.59375 41.390625 58 
Q 47.59375 48.40625 47.59375 33 
z
M 38 32.5 
Q 38 48.296875 34.640625 56.640625 
Q 31.296875 65 24.796875 65 
Q 18.59375 65 15.296875 56.59375 
Q 12 48.203125 12 32.90625 
Q 12 17.5 15.296875 9.34375 
Q 18.59375 1.203125 25 1.203125 
Q 31.296875 1.203125 34.640625 9.34375 
Q 38 17.5 38 32.5 
z
" id="STIXGeneral-Regular-48"/>
       </defs>
       <use xlink:href="#STIXGeneral-Regular-48"/>
      </g>
     </g>
    </g>
    <g id="xtick_2">
     <g id="line2d_2">
      <g>
       <use style="stroke:#000000;stroke-width:0.8;" x="203.64" xlink:href="#mfe1f07f6f7" y="655"/>
      </g>
     </g>
     <g id="text_2">
      <!-- 500 -->
      <g transform="translate(191.64 672.9275)scale(0.16 -0.16)">
       <defs>
        <path d="M 43.796875 68.09375 
L 40.203125 59.59375 
Q 39.59375 58.296875 37.5 58.296875 
L 18.09375 58.296875 
L 14.09375 49.796875 
Q 25.09375 47.703125 30 45.25 
Q 34.90625 42.796875 39.09375 37 
Q 42.59375 32.203125 42.59375 24.296875 
Q 42.59375 17.09375 40.25 12.1875 
Q 37.90625 7.296875 32.796875 3.5 
Q 26 -1.40625 15.796875 -1.40625 
Q 10.09375 -1.40625 6.59375 0.296875 
Q 3.09375 2 3.09375 4.796875 
Q 3.09375 8.59375 7.59375 8.59375 
Q 11.203125 8.59375 15 5.5 
Q 18.90625 2.296875 22.09375 2.296875 
Q 27.296875 2.296875 31.4375 7.5 
Q 35.59375 12.703125 35.59375 19.203125 
Q 35.59375 28.796875 28.90625 34.203125 
Q 20.203125 41.203125 7.59375 41.203125 
Q 6.40625 41.203125 6.40625 42 
L 6.5 42.5 
L 17.40625 66.203125 
L 38.09375 66.203125 
Q 39.796875 66.203125 40.75 66.703125 
Q 41.703125 67.203125 42.90625 68.796875 
z
" id="STIXGeneral-Regular-53"/>
       </defs>
       <use xlink:href="#STIXGeneral-Regular-53"/>
       <use x="49.999985" xlink:href="#STIXGeneral-Regular-48"/>
       <use x="99.999969" xlink:href="#STIXGeneral-Regular-48"/>
      </g>
     </g>
    </g>
    <g id="xtick_3">
     <g id="line2d_3">
      <g>
       <use style="stroke:#000000;stroke-width:0.8;" x="324.68" xlink:href="#mfe1f07f6f7" y="655"/>
      </g>
     </g>
     <g id="text_3">
      <!-- 1000 -->
      <g transform="translate(308.68 672.9275)scale(0.16 -0.16)">
       <defs>
        <path d="M 39.40625 0 
L 11.796875 0 
L 11.796875 1.5 
Q 17.296875 1.796875 19.296875 3.546875 
Q 21.296875 5.296875 21.296875 9.5 
L 21.296875 54.40625 
Q 21.296875 59.296875 18.296875 59.296875 
Q 16.90625 59.296875 13.796875 58.09375 
L 11.09375 57.09375 
L 11.09375 58.5 
L 29 67.59375 
L 29.90625 67.296875 
L 29.90625 7.59375 
Q 29.90625 4.296875 31.90625 2.890625 
Q 33.90625 1.5 39.40625 1.5 
z
" id="STIXGeneral-Regular-49"/>
       </defs>
       <use xlink:href="#STIXGeneral-Regular-49"/>
       <use x="49.999985" xlink:href="#STIXGeneral-Regular-48"/>
       <use x="99.999969" xlink:href="#STIXGeneral-Regular-48"/>
       <use x="149.999954" xlink:href="#STIXGeneral-Regular-48"/>
      </g>
     </g>
    </g>
    <g id="xtick_4">
     <g id="line2d_4">
      <g>
       <use style="stroke:#000000;stroke-width:0.8;" x="445.72" xlink:href="#mfe1f07f6f7" y="655"/>
      </g>
     </g>
     <g id="text_4">
      <!-- 1500 -->
      <g transform="translate(429.72 672.9275)scale(0.16 -0.16)">
       <use xlink:href="#STIXGeneral-Regular-49"/>
       <use x="49.999985" xlink:href="#STIXGeneral-Regular-53"/>
       <use x="99.999969" xlink:href="#STIXGeneral-Regular-48"/>
       <use x="149.999954" xlink:href="#STIXGeneral-Regular-48"/>
      </g>
     </g>
    </g>
    <g id="xtick_5">
     <g id="line2d_5">
      <g>
       <use style="stroke:#000000;stroke-width:0.8;" x="566.76" xlink:href="#mfe1f07f6f7" y="655"/>
      </g>
     </g>
     <g id="text_5">
      <!-- 2000 -->
      <g transform="translate(550.76 672.9275)scale(0.16 -0.16)">
       <defs>
        <path d="M 47.40625 13.703125 
L 42 0 
L 2.90625 0 
L 2.90625 1.203125 
L 20.703125 20.09375 
Q 27.703125 27.40625 30.703125 33.5 
Q 33.703125 39.59375 33.703125 46.09375 
Q 33.703125 52.796875 30 56.5 
Q 26.296875 60.203125 19.796875 60.203125 
Q 14.40625 60.203125 11.25 57.390625 
Q 8.09375 54.59375 5.09375 47.203125 
L 3 47.703125 
Q 4.703125 57 9.84375 62.296875 
Q 15 67.59375 23.796875 67.59375 
Q 32.09375 67.59375 37.1875 62.59375 
Q 42.296875 57.59375 42.296875 50 
Q 42.296875 38.703125 29.5 25.203125 
L 13 7.59375 
L 36.40625 7.59375 
Q 39.703125 7.59375 41.640625 8.890625 
Q 43.59375 10.203125 46 14.296875 
z
" id="STIXGeneral-Regular-50"/>
       </defs>
       <use xlink:href="#STIXGeneral-Regular-50"/>
       <use x="49.999985" xlink:href="#STIXGeneral-Regular-48"/>
       <use x="99.999969" xlink:href="#STIXGeneral-Regular-48"/>
       <use x="149.999954" xlink:href="#STIXGeneral-Regular-48"/>
      </g>
     </g>
    </g>
    <g id="xtick_6">
     <g id="line2d_6">
      <g>
       <use style="stroke:#000000;stroke-width:0.8;" x="687.8" xlink:href="#mfe1f07f6f7" y="655"/>
      </g>
     </g>
     <g id="text_6">
      <!-- 2500 -->
      <g transform="translate(671.8 672.9275)scale(0.16 -0.16)">
       <use xlink:href="#STIXGeneral-Regular-50"/>
       <use x="49.999985" xlink:href="#STIXGeneral-Regular-53"/>
       <use x="99.999969" xlink:href="#STIXGeneral-Regular-48"/>
       <use x="149.999954" xlink:href="#STIXGeneral-Regular-48"/>
      </g>
     </g>
    </g>
    <g id="text_7">
     <!-- Reference T$_1$ (ms) -->
     <g transform="translate(288.87 698.157187)scale(0.26 -0.26)">
      <defs>
       <path d="M 66 0 
L 49.796875 0 
L 26 30.796875 
L 20.40625 30.59375 
L 20.40625 11.203125 
Q 20.40625 5.5 21.953125 3.890625 
Q 23.5 2.296875 29.296875 1.90625 
L 29.296875 0 
L 1.703125 0 
L 1.703125 1.90625 
Q 7.40625 2.40625 8.796875 4.09375 
Q 10.203125 5.796875 10.203125 12.40625 
L 10.203125 55.09375 
Q 10.203125 60.703125 8.796875 62.296875 
Q 7.40625 63.90625 1.703125 64.296875 
L 1.703125 66.203125 
L 28.90625 66.203125 
Q 42.59375 66.203125 49.796875 60.296875 
Q 54.703125 56.296875 54.703125 48.296875 
Q 54.703125 34.703125 36.59375 31.90625 
L 56.59375 6.59375 
Q 58.703125 4 60.59375 3.09375 
Q 62.5 2.203125 66 1.90625 
z
M 20.40625 58.296875 
L 20.40625 34.296875 
Q 27.59375 34.40625 31.09375 35.09375 
Q 34.59375 35.796875 38.09375 37.703125 
Q 43.796875 40.90625 43.796875 49.09375 
Q 43.796875 62.5 25.5 62.5 
Q 22.796875 62.5 21.59375 61.640625 
Q 20.40625 60.796875 20.40625 58.296875 
z
" id="STIXGeneral-Regular-82"/>
       <path d="M 40.796875 16.40625 
L 42.40625 15.703125 
Q 36.40625 -1 21.5 -1 
Q 12.703125 -1 7.59375 5.140625 
Q 2.5 11.296875 2.5 21.703125 
Q 2.5 32.40625 8.203125 39.203125 
Q 13.90625 46 23.203125 46 
Q 32.203125 46 37.09375 39.09375 
Q 40 35.09375 40.5 27.703125 
L 9.703125 27.703125 
Q 10.09375 21.40625 10.9375 18.09375 
Q 11.796875 14.796875 14.296875 11.40625 
Q 18.5 5.90625 25.40625 5.90625 
Q 30.296875 5.90625 33.640625 8.296875 
Q 37 10.703125 40.796875 16.40625 
z
M 9.90625 30.90625 
L 30.296875 30.90625 
Q 29.40625 37.203125 27.34375 39.796875 
Q 25.296875 42.40625 20.5 42.40625 
Q 16.296875 42.40625 13.5 39.453125 
Q 10.703125 36.5 9.90625 30.90625 
z
" id="STIXGeneral-Regular-101"/>
       <path d="M 2.09375 45 
L 10.296875 45 
Q 10.40625 51 11.09375 54.34375 
Q 11.796875 57.703125 13.796875 61.09375 
Q 18 68.296875 27.90625 68.296875 
Q 32.40625 68.296875 35.34375 66.546875 
Q 38.296875 64.796875 38.296875 62.09375 
Q 38.296875 60.40625 37.09375 59.203125 
Q 35.90625 58 34.09375 58 
Q 31.703125 58 29.59375 61.59375 
Q 27.203125 65.5 24.296875 65.5 
Q 18.703125 65.5 18.703125 56.59375 
L 18.703125 45 
L 30.90625 45 
L 30.90625 41.796875 
L 18.703125 41.796875 
L 18.703125 10.40625 
Q 18.703125 4.796875 20.296875 3.25 
Q 21.90625 1.703125 28 1.5 
L 28 0 
L 2 0 
L 2 1.5 
Q 7.40625 1.796875 8.84375 3.34375 
Q 10.296875 4.90625 10.296875 10.40625 
L 10.296875 41.796875 
L 2.09375 41.796875 
z
" id="STIXGeneral-Regular-102"/>
       <path d="M 16 45.796875 
L 16 36.59375 
Q 19.796875 42 22.34375 44 
Q 24.90625 46 28 46 
Q 30.59375 46 32.046875 44.59375 
Q 33.5 43.203125 33.5 40.703125 
Q 33.5 38.59375 32.453125 37.390625 
Q 31.40625 36.203125 29.59375 36.203125 
Q 27.703125 36.203125 25.59375 38.203125 
Q 24 39.703125 23 39.703125 
Q 20.90625 39.703125 18.453125 36.796875 
Q 16 33.90625 16 31.5 
L 16 9 
Q 16 4.703125 17.703125 3.203125 
Q 19.40625 1.703125 24.5 1.5 
L 24.5 0 
L 0.5 0 
L 0.5 1.5 
Q 5.296875 2.40625 6.4375 3.5 
Q 7.59375 4.59375 7.59375 8.40625 
L 7.59375 33.40625 
Q 7.59375 36.703125 6.84375 38.046875 
Q 6.09375 39.40625 4.203125 39.40625 
Q 2.59375 39.40625 0.703125 39 
L 0.703125 40.59375 
Q 7 42.59375 15.5 46 
z
" id="STIXGeneral-Regular-114"/>
       <path d="M 48.5 0 
L 27.703125 0 
L 27.796875 1.5 
Q 31.5 1.796875 32.75 3.640625 
Q 34 5.5 34 10.5 
L 34 30.40625 
Q 34 40.5 26.703125 40.5 
Q 24.203125 40.5 22 39.296875 
Q 19.796875 38.09375 16.40625 34.796875 
L 16.40625 7.203125 
Q 16.40625 4.203125 17.75 3 
Q 19.09375 1.796875 22.90625 1.5 
L 22.90625 0 
L 1.796875 0 
L 1.796875 1.5 
Q 5.59375 1.796875 6.796875 3.34375 
Q 8 4.90625 8 9.40625 
L 8 33.703125 
Q 8 37.40625 7.296875 38.796875 
Q 6.59375 40.203125 4.5 40.203125 
Q 2.5 40.203125 1.59375 39.796875 
L 1.59375 41.5 
Q 8.59375 43.5 15.296875 46 
L 16.09375 45.703125 
L 16.09375 37.90625 
L 16.203125 37.90625 
Q 23.296875 46 30.59375 46 
Q 36.296875 46 39.34375 42 
Q 42.40625 38 42.40625 30.59375 
L 42.40625 8.5 
Q 42.40625 4.5 43.59375 3.203125 
Q 44.796875 1.90625 48.5 1.5 
z
" id="STIXGeneral-Regular-110"/>
       <path d="M 39.796875 15.59375 
L 41.203125 14.703125 
Q 36.90625 6.296875 33 3.203125 
Q 27.90625 -1 21.5 -1 
Q 13.203125 -1 7.84375 5.25 
Q 2.5 11.5 2.5 21.203125 
Q 2.5 33.90625 10.90625 40.90625 
Q 17.09375 46 24.40625 46 
Q 30.703125 46 35.25 42.953125 
Q 39.796875 39.90625 39.796875 35.703125 
Q 39.796875 34 38.390625 32.75 
Q 37 31.5 35.09375 31.5 
Q 31.59375 31.5 30.296875 36.09375 
L 29.703125 38.296875 
Q 28.90625 41.09375 27.703125 42.09375 
Q 26.5 43.09375 23.796875 43.09375 
Q 17.703125 43.09375 13.953125 38.296875 
Q 10.203125 33.5 10.203125 25.703125 
Q 10.203125 17.09375 14.5 11.640625 
Q 18.796875 6.203125 25.703125 6.203125 
Q 30 6.203125 33.09375 8.25 
Q 36.203125 10.296875 39.796875 15.59375 
z
" id="STIXGeneral-Regular-99"/>
       <path id="STIXGeneral-Regular-32"/>
       <path d="M 59.296875 49.203125 
L 56.90625 49.203125 
Q 55.296875 57.40625 52.390625 59.703125 
Q 49.5 62 41.5 62 
L 35.59375 62 
L 35.59375 11.09375 
Q 35.59375 5.40625 37.296875 3.796875 
Q 39 2.203125 45.203125 1.90625 
L 45.203125 0 
L 16 0 
L 16 1.90625 
Q 22.296875 2.296875 23.84375 4 
Q 25.40625 5.703125 25.40625 12.296875 
L 25.40625 62 
L 19.40625 62 
Q 11.296875 62 8.4375 59.640625 
Q 5.59375 57.296875 4.09375 49.203125 
L 1.703125 49.203125 
L 2.40625 66.203125 
L 58.59375 66.203125 
z
" id="STIXGeneral-Regular-84"/>
       <path d="M 30.40625 -16.09375 
L 29.203125 -17.703125 
Q 17.59375 -11.09375 11.1875 0.5 
Q 4.796875 12.09375 4.796875 25.203125 
Q 4.796875 52.90625 29.5 67.59375 
L 30.40625 66 
Q 20.203125 57.296875 16.796875 48.84375 
Q 13.40625 40.40625 13.40625 25.5 
Q 13.40625 10.703125 16.90625 1.5 
Q 20.40625 -7.703125 30.40625 -16.09375 
z
" id="STIXGeneral-Regular-40"/>
       <path d="M 77.5 0 
L 55.703125 0 
L 55.703125 1.5 
Q 59.90625 1.90625 61.046875 3.25 
Q 62.203125 4.59375 62.203125 9 
L 62.203125 29.59375 
Q 62.203125 35.59375 60.453125 38.1875 
Q 58.703125 40.796875 54.5 40.796875 
Q 51 40.796875 48.546875 39.390625 
Q 46.09375 38 43.796875 34.703125 
L 43.796875 9.5 
Q 43.796875 4.703125 45.25 3.140625 
Q 46.703125 1.59375 51 1.5 
L 51 0 
L 28.59375 0 
L 28.59375 1.5 
Q 33 1.796875 34.203125 2.9375 
Q 35.40625 4.09375 35.40625 8.59375 
L 35.40625 29.703125 
Q 35.40625 40.796875 28.90625 40.796875 
Q 26.09375 40.796875 22.9375 39.546875 
Q 19.796875 38.296875 18.296875 36.5 
Q 17 35 17 34.796875 
L 17 7 
Q 17 3.796875 18.390625 2.75 
Q 19.796875 1.703125 23.796875 1.5 
L 23.796875 0 
L 1.59375 0 
L 1.59375 1.5 
Q 5.796875 1.59375 7.1875 3.046875 
Q 8.59375 4.5 8.59375 8.796875 
L 8.59375 33.59375 
Q 8.59375 37.296875 7.796875 38.75 
Q 7 40.203125 5.09375 40.203125 
Q 3.59375 40.203125 1.90625 39.796875 
L 1.90625 41.5 
Q 8.703125 43.40625 15.796875 46 
L 16.59375 45.703125 
L 16.59375 38.296875 
L 16.796875 38.296875 
Q 21.296875 43 24.75 44.5 
Q 28.203125 46 32.09375 46 
Q 40 46 42.703125 37.59375 
Q 50.5 46 59 46 
Q 70.59375 46 70.59375 28 
L 70.59375 7.703125 
Q 70.59375 4.40625 71.59375 3.15625 
Q 72.59375 1.90625 74.90625 1.703125 
L 77.5 1.5 
z
" id="STIXGeneral-Regular-109"/>
       <path d="M 15.59375 30.09375 
L 26 23.796875 
Q 31 20.796875 32.890625 18.1875 
Q 34.796875 15.59375 34.796875 11.5 
Q 34.796875 6.5 30.640625 2.75 
Q 26.5 -1 20.796875 -1 
Q 16.09375 -1 13.5 -0.09375 
Q 10.796875 0.796875 8.90625 0.796875 
Q 7.203125 0.796875 6.5 -0.40625 
L 5.203125 -0.40625 
L 5.203125 15.296875 
L 6.796875 15.296875 
Q 8.40625 8 11.40625 4.59375 
Q 14.40625 1.203125 19.5 1.203125 
Q 23.203125 1.203125 25.5 3.296875 
Q 27.796875 5.40625 27.796875 8.59375 
Q 27.796875 13.203125 22.5 16.09375 
L 17.09375 19.09375 
Q 5.09375 25.796875 5.09375 33.59375 
Q 5.09375 39.40625 8.84375 42.65625 
Q 12.59375 45.90625 18.90625 45.90625 
Q 23.296875 45.90625 25.59375 44.796875 
Q 27.40625 44 28.40625 44 
Q 29.09375 44 30 45 
L 31.09375 45 
L 31.59375 31.40625 
L 30.09375 31.40625 
Q 28.40625 38.203125 25.84375 40.953125 
Q 23.296875 43.703125 18.796875 43.703125 
Q 15.40625 43.703125 13.34375 42 
Q 11.296875 40.296875 11.296875 36.90625 
Q 11.296875 35.203125 12.4375 33.25 
Q 13.59375 31.296875 15.59375 30.09375 
z
" id="STIXGeneral-Regular-115"/>
       <path d="M 2.90625 66 
L 4.09375 67.59375 
Q 15.5 60.796875 22 49.1875 
Q 28.5 37.59375 28.5 24.703125 
Q 28.5 -2.59375 3.796875 -17.703125 
L 2.90625 -16.09375 
Q 13.203125 -7.59375 16.546875 0.84375 
Q 19.90625 9.296875 19.90625 24.40625 
Q 19.90625 39.59375 16.546875 48.75 
Q 13.203125 57.90625 2.90625 66 
z
" id="STIXGeneral-Regular-41"/>
      </defs>
      <use transform="translate(0 0.703125)" xlink:href="#STIXGeneral-Regular-82"/>
      <use transform="translate(66.699997 0.703125)" xlink:href="#STIXGeneral-Regular-101"/>
      <use transform="translate(111.099991 0.703125)" xlink:href="#STIXGeneral-Regular-102"/>
      <use transform="translate(144.399979 0.703125)" xlink:href="#STIXGeneral-Regular-101"/>
      <use transform="translate(188.799973 0.703125)" xlink:href="#STIXGeneral-Regular-114"/>
      <use transform="translate(222.09996 0.703125)" xlink:href="#STIXGeneral-Regular-101"/>
      <use transform="translate(266.499954 0.703125)" xlink:href="#STIXGeneral-Regular-110"/>
      <use transform="translate(316.499939 0.703125)" xlink:href="#STIXGeneral-Regular-99"/>
      <use transform="translate(360.899933 0.703125)" xlink:href="#STIXGeneral-Regular-101"/>
      <use transform="translate(405.299927 0.703125)" xlink:href="#STIXGeneral-Regular-32"/>
      <use transform="translate(430.299911 0.703125)" xlink:href="#STIXGeneral-Regular-84"/>
      <use transform="translate(492.943184 -12.525)scale(0.7)" xlink:href="#STIXGeneral-Regular-49"/>
      <use transform="translate(532.352548 0.703125)" xlink:href="#STIXGeneral-Regular-32"/>
      <use transform="translate(557.352533 0.703125)" xlink:href="#STIXGeneral-Regular-40"/>
      <use transform="translate(590.65252 0.703125)" xlink:href="#STIXGeneral-Regular-109"/>
      <use transform="translate(668.452508 0.703125)" xlink:href="#STIXGeneral-Regular-115"/>
      <use transform="translate(707.352502 0.703125)" xlink:href="#STIXGeneral-Regular-41"/>
     </g>
    </g>
   </g>
   <g id="matplotlib.axis_2">
    <g id="ytick_1">
     <g id="line2d_7">
      <defs>
       <path d="M 0 0 
L -3.5 0 
" id="m13c729d54f" style="stroke:#000000;stroke-width:0.8;"/>
      </defs>
      <g>
       <use style="stroke:#000000;stroke-width:0.8;" x="82.6" xlink:href="#m13c729d54f" y="655"/>
      </g>
     </g>
     <g id="text_8">
      <!-- 0 -->
      <g transform="translate(67.6 660.46375)scale(0.16 -0.16)">
       <use xlink:href="#STIXGeneral-Regular-48"/>
      </g>
     </g>
    </g>
    <g id="ytick_2">
     <g id="line2d_8">
      <g>
       <use style="stroke:#000000;stroke-width:0.8;" x="82.6" xlink:href="#m13c729d54f" y="532.64"/>
      </g>
     </g>
     <g id="text_9">
      <!-- 500 -->
      <g transform="translate(51.6 538.10375)scale(0.16 -0.16)">
       <use xlink:href="#STIXGeneral-Regular-53"/>
       <use x="49.999985" xlink:href="#STIXGeneral-Regular-48"/>
       <use x="99.999969" xlink:href="#STIXGeneral-Regular-48"/>
      </g>
     </g>
    </g>
    <g id="ytick_3">
     <g id="line2d_9">
      <g>
       <use style="stroke:#000000;stroke-width:0.8;" x="82.6" xlink:href="#m13c729d54f" y="410.28"/>
      </g>
     </g>
     <g id="text_10">
      <!-- 1000 -->
      <g transform="translate(43.6 415.74375)scale(0.16 -0.16)">
       <use xlink:href="#STIXGeneral-Regular-49"/>
       <use x="49.999985" xlink:href="#STIXGeneral-Regular-48"/>
       <use x="99.999969" xlink:href="#STIXGeneral-Regular-48"/>
       <use x="149.999954" xlink:href="#STIXGeneral-Regular-48"/>
      </g>
     </g>
    </g>
    <g id="ytick_4">
     <g id="line2d_10">
      <g>
       <use style="stroke:#000000;stroke-width:0.8;" x="82.6" xlink:href="#m13c729d54f" y="287.92"/>
      </g>
     </g>
     <g id="text_11">
      <!-- 1500 -->
      <g transform="translate(43.6 293.38375)scale(0.16 -0.16)">
       <use xlink:href="#STIXGeneral-Regular-49"/>
       <use x="49.999985" xlink:href="#STIXGeneral-Regular-53"/>
       <use x="99.999969" xlink:href="#STIXGeneral-Regular-48"/>
       <use x="149.999954" xlink:href="#STIXGeneral-Regular-48"/>
      </g>
     </g>
    </g>
    <g id="ytick_5">
     <g id="line2d_11">
      <g>
       <use style="stroke:#000000;stroke-width:0.8;" x="82.6" xlink:href="#m13c729d54f" y="165.56"/>
      </g>
     </g>
     <g id="text_12">
      <!-- 2000 -->
      <g transform="translate(43.6 171.02375)scale(0.16 -0.16)">
       <use xlink:href="#STIXGeneral-Regular-50"/>
       <use x="49.999985" xlink:href="#STIXGeneral-Regular-48"/>
       <use x="99.999969" xlink:href="#STIXGeneral-Regular-48"/>
       <use x="149.999954" xlink:href="#STIXGeneral-Regular-48"/>
      </g>
     </g>
    </g>
    <g id="ytick_6">
     <g id="line2d_12">
      <g>
       <use style="stroke:#000000;stroke-width:0.8;" x="82.6" xlink:href="#m13c729d54f" y="43.2"/>
      </g>
     </g>
     <g id="text_13">
      <!-- 2500 -->
      <g transform="translate(43.6 48.66375)scale(0.16 -0.16)">
       <use xlink:href="#STIXGeneral-Regular-50"/>
       <use x="49.999985" xlink:href="#STIXGeneral-Regular-53"/>
       <use x="99.999969" xlink:href="#STIXGeneral-Regular-48"/>
       <use x="149.999954" xlink:href="#STIXGeneral-Regular-48"/>
      </g>
     </g>
    </g>
    <g id="text_14">
     <!-- Measured T$_1$ (ms) -->
     <g transform="translate(33.957188 444)rotate(-90)scale(0.26 -0.26)">
      <defs>
       <path d="M 86.40625 0 
L 58.40625 0 
L 58.40625 1.90625 
Q 64.296875 2.296875 65.84375 4.140625 
Q 67.40625 6 67.40625 12.296875 
L 67.40625 57.203125 
L 41.90625 0 
L 40.5 0 
L 15.296875 54.90625 
L 15.296875 15.09375 
Q 15.296875 7 17 4.59375 
Q 18.703125 2.203125 24.59375 1.90625 
L 24.59375 0 
L 1.203125 0 
L 1.203125 1.90625 
Q 5.59375 2.203125 7.5 3.203125 
Q 9.40625 4.203125 10.15625 6.75 
Q 10.90625 9.296875 10.90625 15.09375 
L 10.90625 54.90625 
Q 10.90625 60.59375 9.203125 62.25 
Q 7.5 63.90625 1.40625 64.296875 
L 1.40625 66.203125 
L 21.203125 66.203125 
L 44.296875 16 
L 66.40625 66.203125 
L 86.296875 66.203125 
L 86.296875 64.296875 
Q 80.90625 64.203125 79.25 62.390625 
Q 77.59375 60.59375 77.59375 55 
L 77.59375 11.203125 
Q 77.59375 5.90625 79.25 4.09375 
Q 80.90625 2.296875 86.40625 1.90625 
z
" id="STIXGeneral-Regular-77"/>
       <path d="M 44.203125 6.59375 
L 44.203125 3.796875 
Q 40.40625 -1 35.203125 -1 
Q 29.5 -1 28.796875 6.296875 
L 28.703125 6.296875 
Q 22.296875 -1 14.203125 -1 
Q 9.5 -1 6.59375 1.75 
Q 3.703125 4.5 3.703125 9.40625 
Q 3.703125 16.40625 10.703125 21.09375 
Q 15.5 24.296875 28.703125 29.203125 
L 28.703125 34.59375 
Q 28.703125 39.09375 26.546875 41.34375 
Q 24.40625 43.59375 20.90625 43.59375 
Q 17.90625 43.59375 15.90625 42.140625 
Q 13.90625 40.703125 13.90625 38.703125 
Q 13.90625 37.796875 14.203125 36.6875 
Q 14.5 35.59375 14.5 34.5 
Q 14.5 33 13.140625 31.703125 
Q 11.796875 30.40625 9.90625 30.40625 
Q 8.203125 30.40625 6.890625 31.703125 
Q 5.59375 33 5.59375 35 
Q 5.59375 39.796875 10.703125 43 
Q 15.40625 46 22.203125 46 
Q 30.296875 46 34 41.5 
Q 35.796875 39.40625 36.296875 37.25 
Q 36.796875 35.09375 36.796875 30.40625 
L 36.796875 11.296875 
Q 36.796875 4.703125 39.90625 4.703125 
Q 41.90625 4.703125 44.203125 6.59375 
z
M 28.703125 12.703125 
L 28.703125 26.796875 
Q 19.5 23.59375 15.90625 20.203125 
Q 12.5 17.09375 12.5 12.5 
Q 12.5 8.703125 14.390625 6.75 
Q 16.296875 4.796875 19.40625 4.796875 
Q 22.703125 4.796875 25.203125 6.40625 
Q 27.296875 7.90625 28 9.203125 
Q 28.703125 10.5 28.703125 12.703125 
z
" id="STIXGeneral-Regular-97"/>
       <path d="M 48 5 
L 48 3.59375 
Q 40.203125 1.5 34.296875 -0.90625 
L 33.796875 -0.59375 
L 33.796875 7.59375 
L 33.59375 7.59375 
Q 27.296875 -1 19.296875 -1 
Q 13.59375 -1 10.34375 2.5 
Q 7.09375 6 7.09375 11.796875 
L 7.09375 36.90625 
Q 7.09375 40.59375 5.796875 42 
Q 4.5 43.40625 0.90625 43.59375 
L 0.90625 45 
L 15.5 45 
L 15.5 12.703125 
Q 15.5 9.296875 17.546875 7.046875 
Q 19.59375 4.796875 22.59375 4.796875 
Q 27.5 4.796875 31 7.90625 
Q 32.296875 9.09375 32.796875 10.140625 
Q 33.296875 11.203125 33.296875 13.703125 
L 33.296875 36.796875 
Q 33.296875 40.703125 31.890625 41.84375 
Q 30.5 43 25.90625 43.296875 
L 25.90625 45 
L 41.703125 45 
L 41.703125 10.703125 
Q 41.703125 7.203125 42.84375 6.09375 
Q 44 5 47.40625 5 
z
" id="STIXGeneral-Regular-117"/>
       <path d="M 49.09375 4.203125 
L 34.40625 -1 
L 34 -0.703125 
L 34 5.703125 
Q 29.203125 -1 21.203125 -1 
Q 12.90625 -1 7.796875 4.953125 
Q 2.703125 10.90625 2.703125 20.5 
Q 2.703125 31.09375 8.796875 38.546875 
Q 14.90625 46 23.5 46 
Q 28.90625 46 34 41.703125 
L 34 57.296875 
Q 34 60.40625 33.09375 61.40625 
Q 32.203125 62.40625 29.40625 62.40625 
Q 28 62.40625 27.203125 62.296875 
L 27.203125 63.90625 
Q 36.296875 66.296875 41.90625 68.296875 
L 42.40625 68.09375 
L 42.40625 11.40625 
Q 42.40625 7.90625 43.25 6.796875 
Q 44.09375 5.703125 46.796875 5.703125 
Q 47.40625 5.703125 49.09375 5.796875 
z
M 34 10.203125 
L 34 33.203125 
Q 34 37.203125 30.953125 40.203125 
Q 27.90625 43.203125 23.796875 43.203125 
Q 18.09375 43.203125 14.6875 38.09375 
Q 11.296875 33 11.296875 24.5 
Q 11.296875 15.296875 15.046875 9.75 
Q 18.796875 4.203125 25.09375 4.203125 
Q 29.796875 4.203125 32.5 7.40625 
Q 34 9.09375 34 10.203125 
z
" id="STIXGeneral-Regular-100"/>
      </defs>
      <use transform="translate(0 0.703125)" xlink:href="#STIXGeneral-Regular-77"/>
      <use transform="translate(88.899994 0.703125)" xlink:href="#STIXGeneral-Regular-101"/>
      <use transform="translate(133.299988 0.703125)" xlink:href="#STIXGeneral-Regular-97"/>
      <use transform="translate(177.699982 0.703125)" xlink:href="#STIXGeneral-Regular-115"/>
      <use transform="translate(216.599976 0.703125)" xlink:href="#STIXGeneral-Regular-117"/>
      <use transform="translate(266.59996 0.703125)" xlink:href="#STIXGeneral-Regular-114"/>
      <use transform="translate(299.899948 0.703125)" xlink:href="#STIXGeneral-Regular-101"/>
      <use transform="translate(344.299942 0.703125)" xlink:href="#STIXGeneral-Regular-100"/>
      <use transform="translate(394.299927 0.703125)" xlink:href="#STIXGeneral-Regular-32"/>
      <use transform="translate(419.299911 0.703125)" xlink:href="#STIXGeneral-Regular-84"/>
      <use transform="translate(481.943184 -12.525)scale(0.7)" xlink:href="#STIXGeneral-Regular-49"/>
      <use transform="translate(521.352548 0.703125)" xlink:href="#STIXGeneral-Regular-32"/>
      <use transform="translate(546.352533 0.703125)" xlink:href="#STIXGeneral-Regular-40"/>
      <use transform="translate(579.65252 0.703125)" xlink:href="#STIXGeneral-Regular-109"/>
      <use transform="translate(657.452508 0.703125)" xlink:href="#STIXGeneral-Regular-115"/>
      <use transform="translate(696.352502 0.703125)" xlink:href="#STIXGeneral-Regular-41"/>
     </g>
    </g>
   </g>
   <g id="LineCollection_1">
    <path clip-path="url(#p9b6b60a60b)" d="M 538.671458 199.962351 
L 538.671458 181.080529 
" style="fill:none;stroke:#1f77b4;stroke-width:2;"/>
    <path clip-path="url(#p9b6b60a60b)" d="M 404.605133 324.561445 
L 404.605133 318.601027 
" style="fill:none;stroke:#1f77b4;stroke-width:2;"/>
    <path clip-path="url(#p9b6b60a60b)" d="M 321.598322 422.748687 
L 321.598322 419.126425 
" style="fill:none;stroke:#1f77b4;stroke-width:2;"/>
    <path clip-path="url(#p9b6b60a60b)" d="M 249.654566 487.818 
L 249.654566 485.471752 
" style="fill:none;stroke:#1f77b4;stroke-width:2;"/>
    <path clip-path="url(#p9b6b60a60b)" d="M 200.001538 536.883214 
L 200.001538 535.29789 
" style="fill:none;stroke:#1f77b4;stroke-width:2;"/>
    <path clip-path="url(#p9b6b60a60b)" d="M 165.289686 572.389694 
L 165.289686 569.928162 
" style="fill:none;stroke:#1f77b4;stroke-width:2;"/>
    <path clip-path="url(#p9b6b60a60b)" d="M 140.907389 596.101045 
L 140.907389 595.136339 
" style="fill:none;stroke:#1f77b4;stroke-width:2;"/>
    <path clip-path="url(#p9b6b60a60b)" d="M 124.951896 618.796891 
L 124.951896 604.694589 
" style="fill:none;stroke:#1f77b4;stroke-width:2;"/>
    <path clip-path="url(#p9b6b60a60b)" d="M 111.911046 627.078017 
L 111.911046 622.769807 
" style="fill:none;stroke:#1f77b4;stroke-width:2;"/>
    <path clip-path="url(#p9b6b60a60b)" d="M 103.35836 634.688244 
L 103.35836 631.531348 
" style="fill:none;stroke:#1f77b4;stroke-width:2;"/>
    <path clip-path="url(#p9b6b60a60b)" d="M 97.175637 652.706076 
L 97.175637 637.373716 
" style="fill:none;stroke:#1f77b4;stroke-width:2;"/>
    <path clip-path="url(#p9b6b60a60b)" d="M 92.982811 660.775678 
L 92.982811 647.658114 
" style="fill:none;stroke:#1f77b4;stroke-width:2;"/>
    <path clip-path="url(#p9b6b60a60b)" d="M 89.959232 659.300722 
L 89.959232 649.13307 
" style="fill:none;stroke:#1f77b4;stroke-width:2;"/>
    <path clip-path="url(#p9b6b60a60b)" d="M 87.790195 661.534779 
L 87.790195 645.259389 
" style="fill:none;stroke:#1f77b4;stroke-width:2;"/>
   </g>
   <g id="line2d_13">
    <defs>
     <path d="M 5 0 
L -5 -0 
" id="m59cc98c6a7" style="stroke:#1f77b4;"/>
    </defs>
    <g clip-path="url(#p9b6b60a60b)">
     <use style="fill:#1f77b4;stroke:#1f77b4;" x="538.671458" xlink:href="#m59cc98c6a7" y="199.962351"/>
     <use style="fill:#1f77b4;stroke:#1f77b4;" x="404.605133" xlink:href="#m59cc98c6a7" y="324.561445"/>
     <use style="fill:#1f77b4;stroke:#1f77b4;" x="321.598322" xlink:href="#m59cc98c6a7" y="422.748687"/>
     <use style="fill:#1f77b4;stroke:#1f77b4;" x="249.654566" xlink:href="#m59cc98c6a7" y="487.818"/>
     <use style="fill:#1f77b4;stroke:#1f77b4;" x="200.001538" xlink:href="#m59cc98c6a7" y="536.883214"/>
     <use style="fill:#1f77b4;stroke:#1f77b4;" x="165.289686" xlink:href="#m59cc98c6a7" y="572.389694"/>
     <use style="fill:#1f77b4;stroke:#1f77b4;" x="140.907389" xlink:href="#m59cc98c6a7" y="596.101045"/>
     <use style="fill:#1f77b4;stroke:#1f77b4;" x="124.951896" xlink:href="#m59cc98c6a7" y="618.796891"/>
     <use style="fill:#1f77b4;stroke:#1f77b4;" x="111.911046" xlink:href="#m59cc98c6a7" y="627.078017"/>
     <use style="fill:#1f77b4;stroke:#1f77b4;" x="103.35836" xlink:href="#m59cc98c6a7" y="634.688244"/>
     <use style="fill:#1f77b4;stroke:#1f77b4;" x="97.175637" xlink:href="#m59cc98c6a7" y="652.706076"/>
     <use style="fill:#1f77b4;stroke:#1f77b4;" x="92.982811" xlink:href="#m59cc98c6a7" y="660.775678"/>
     <use style="fill:#1f77b4;stroke:#1f77b4;" x="89.959232" xlink:href="#m59cc98c6a7" y="659.300722"/>
     <use style="fill:#1f77b4;stroke:#1f77b4;" x="87.790195" xlink:href="#m59cc98c6a7" y="661.534779"/>
    </g>
   </g>
   <g id="line2d_14">
    <g clip-path="url(#p9b6b60a60b)">
     <use style="fill:#1f77b4;stroke:#1f77b4;" x="538.671458" xlink:href="#m59cc98c6a7" y="181.080529"/>
     <use style="fill:#1f77b4;stroke:#1f77b4;" x="404.605133" xlink:href="#m59cc98c6a7" y="318.601027"/>
     <use style="fill:#1f77b4;stroke:#1f77b4;" x="321.598322" xlink:href="#m59cc98c6a7" y="419.126425"/>
     <use style="fill:#1f77b4;stroke:#1f77b4;" x="249.654566" xlink:href="#m59cc98c6a7" y="485.471752"/>
     <use style="fill:#1f77b4;stroke:#1f77b4;" x="200.001538" xlink:href="#m59cc98c6a7" y="535.29789"/>
     <use style="fill:#1f77b4;stroke:#1f77b4;" x="165.289686" xlink:href="#m59cc98c6a7" y="569.928162"/>
     <use style="fill:#1f77b4;stroke:#1f77b4;" x="140.907389" xlink:href="#m59cc98c6a7" y="595.136339"/>
     <use style="fill:#1f77b4;stroke:#1f77b4;" x="124.951896" xlink:href="#m59cc98c6a7" y="604.694589"/>
     <use style="fill:#1f77b4;stroke:#1f77b4;" x="111.911046" xlink:href="#m59cc98c6a7" y="622.769807"/>
     <use style="fill:#1f77b4;stroke:#1f77b4;" x="103.35836" xlink:href="#m59cc98c6a7" y="631.531348"/>
     <use style="fill:#1f77b4;stroke:#1f77b4;" x="97.175637" xlink:href="#m59cc98c6a7" y="637.373716"/>
     <use style="fill:#1f77b4;stroke:#1f77b4;" x="92.982811" xlink:href="#m59cc98c6a7" y="647.658114"/>
     <use style="fill:#1f77b4;stroke:#1f77b4;" x="89.959232" xlink:href="#m59cc98c6a7" y="649.13307"/>
     <use style="fill:#1f77b4;stroke:#1f77b4;" x="87.790195" xlink:href="#m59cc98c6a7" y="645.259389"/>
    </g>
   </g>
   <g id="line2d_15">
    <path clip-path="url(#p9b6b60a60b)" d="M 82.6 655 
L 687.8 43.2 
" style="fill:none;stroke:#1f77b4;stroke-dasharray:7.4,3.2;stroke-dashoffset:0;stroke-width:2;"/>
   </g>
   <g id="line2d_16">
    <defs>
     <path d="M 0 3 
C 0.795609 3 1.55874 2.683901 2.12132 2.12132 
C 2.683901 1.55874 3 0.795609 3 0 
C 3 -0.795609 2.683901 -1.55874 2.12132 -2.12132 
C 1.55874 -2.683901 0.795609 -3 0 -3 
C -0.795609 -3 -1.55874 -2.683901 -2.12132 -2.12132 
C -2.683901 -1.55874 -3 -0.795609 -3 0 
C -3 0.795609 -2.683901 1.55874 -2.12132 2.12132 
C -1.55874 2.683901 -0.795609 3 0 3 
z
" id="m46dc654478" style="stroke:#1f77b4;"/>
    </defs>
    <g clip-path="url(#p9b6b60a60b)">
     <use style="fill:#1f77b4;stroke:#1f77b4;" x="538.671458" xlink:href="#m46dc654478" y="190.52144"/>
     <use style="fill:#1f77b4;stroke:#1f77b4;" x="404.605133" xlink:href="#m46dc654478" y="321.581236"/>
     <use style="fill:#1f77b4;stroke:#1f77b4;" x="321.598322" xlink:href="#m46dc654478" y="420.937556"/>
     <use style="fill:#1f77b4;stroke:#1f77b4;" x="249.654566" xlink:href="#m46dc654478" y="486.644876"/>
     <use style="fill:#1f77b4;stroke:#1f77b4;" x="200.001538" xlink:href="#m46dc654478" y="536.090552"/>
     <use style="fill:#1f77b4;stroke:#1f77b4;" x="165.289686" xlink:href="#m46dc654478" y="571.158928"/>
     <use style="fill:#1f77b4;stroke:#1f77b4;" x="140.907389" xlink:href="#m46dc654478" y="595.618692"/>
     <use style="fill:#1f77b4;stroke:#1f77b4;" x="124.951896" xlink:href="#m46dc654478" y="611.74574"/>
     <use style="fill:#1f77b4;stroke:#1f77b4;" x="111.911046" xlink:href="#m46dc654478" y="624.923912"/>
     <use style="fill:#1f77b4;stroke:#1f77b4;" x="103.35836" xlink:href="#m46dc654478" y="633.109796"/>
     <use style="fill:#1f77b4;stroke:#1f77b4;" x="97.175637" xlink:href="#m46dc654478" y="645.039896"/>
     <use style="fill:#1f77b4;stroke:#1f77b4;" x="92.982811" xlink:href="#m46dc654478" y="654.216896"/>
     <use style="fill:#1f77b4;stroke:#1f77b4;" x="89.959232" xlink:href="#m46dc654478" y="654.216896"/>
     <use style="fill:#1f77b4;stroke:#1f77b4;" x="87.790195" xlink:href="#m46dc654478" y="653.397084"/>
    </g>
   </g>
   <g id="patch_3">
    <path d="M 82.6 655 
L 82.6 43.2 
" style="fill:none;stroke:#000000;stroke-linecap:square;stroke-linejoin:miter;stroke-width:0.8;"/>
   </g>
   <g id="patch_4">
    <path d="M 687.8 655 
L 687.8 43.2 
" style="fill:none;stroke:#000000;stroke-linecap:square;stroke-linejoin:miter;stroke-width:0.8;"/>
   </g>
   <g id="patch_5">
    <path d="M 82.6 655 
L 687.8 655 
" style="fill:none;stroke:#000000;stroke-linecap:square;stroke-linejoin:miter;stroke-width:0.8;"/>
   </g>
   <g id="patch_6">
    <path d="M 82.6 43.2 
L 687.8 43.2 
" style="fill:none;stroke:#000000;stroke-linecap:square;stroke-linejoin:miter;stroke-width:0.8;"/>
   </g>
   <g id="text_15">
    <!-- Site ID: 4.005 -->
    <g transform="translate(300.616406 36.689062)scale(0.3 -0.3)">
     <defs>
      <path d="M 46.90625 46.296875 
L 44.40625 46.296875 
Q 42.703125 52.5 40.296875 55.703125 
Q 34.203125 63.5 25.796875 63.5 
Q 21.203125 63.5 18.453125 60.84375 
Q 15.703125 58.203125 15.703125 54 
Q 15.703125 52 16.703125 50.09375 
Q 17.703125 48.203125 18.84375 46.84375 
Q 20 45.5 22.890625 43.5 
Q 25.796875 41.5 27.59375 40.453125 
Q 29.40625 39.40625 33.59375 36.90625 
Q 41.703125 32.203125 45.390625 27.546875 
Q 49.09375 22.90625 49.09375 17.296875 
Q 49.09375 9 43.296875 3.796875 
Q 37.5 -1.40625 28.703125 -1.40625 
Q 22.203125 -1.40625 16.90625 0.90625 
Q 14.296875 2 12.203125 2 
Q 11 2 10.203125 1.09375 
Q 9.40625 0.203125 9.40625 -1.296875 
L 7.203125 -1.296875 
L 4.296875 19.90625 
L 6.5 19.90625 
Q 13.203125 2.203125 27.09375 2.203125 
Q 32.40625 2.203125 35.703125 5.34375 
Q 39 8.5 39 13.40625 
Q 39 18.09375 36.09375 21.296875 
Q 31.296875 26.5 19.296875 32.90625 
Q 7.09375 39.40625 7.09375 50.09375 
Q 7.09375 58.09375 12 62.84375 
Q 16.90625 67.59375 24.5 67.59375 
Q 29.796875 67.59375 35 65.40625 
Q 37.703125 64.203125 39.40625 64.203125 
Q 42 64.203125 42.59375 67.59375 
L 44.703125 67.59375 
z
" id="STIXGeneral-Regular-83"/>
      <path d="M 18 63.203125 
Q 18 61 16.5 59.546875 
Q 15 58.09375 12.796875 58.09375 
Q 10.703125 58.09375 9.25 59.546875 
Q 7.796875 61 7.796875 63.203125 
Q 7.796875 65.296875 9.296875 66.796875 
Q 10.796875 68.296875 12.90625 68.296875 
Q 15.09375 68.296875 16.546875 66.796875 
Q 18 65.296875 18 63.203125 
z
M 25.296875 0 
L 1.59375 0 
L 1.59375 1.5 
Q 6.796875 1.796875 8.140625 3.296875 
Q 9.5 4.796875 9.5 10.40625 
L 9.5 33.09375 
Q 9.5 36.59375 8.796875 38 
Q 8.09375 39.40625 6.203125 39.40625 
Q 3.796875 39.40625 2 38.90625 
L 2 40.5 
L 17.5 46 
L 17.90625 45.59375 
L 17.90625 10.5 
Q 17.90625 4.90625 19.15625 3.40625 
Q 20.40625 1.90625 25.296875 1.5 
z
" id="STIXGeneral-Regular-105"/>
      <path d="M 26.59375 7.703125 
L 27.90625 6.59375 
Q 23.09375 -1 15.796875 -1 
Q 7 -1 7 11.703125 
L 7 41.796875 
L 1.703125 41.796875 
Q 1.296875 42.09375 1.296875 42.5 
Q 1.296875 43.296875 3 44.40625 
Q 6.796875 46.59375 12.703125 55.09375 
Q 12.90625 55.40625 13.65625 56.34375 
Q 14.40625 57.296875 14.703125 57.90625 
Q 15.40625 57.90625 15.40625 56.59375 
L 15.40625 45 
L 25.5 45 
L 25.5 41.796875 
L 15.40625 41.796875 
L 15.40625 13.203125 
Q 15.40625 8.40625 16.59375 6.296875 
Q 17.796875 4.203125 20.59375 4.203125 
Q 23.59375 4.203125 26.59375 7.703125 
z
" id="STIXGeneral-Regular-116"/>
      <path d="M 31.5 0 
L 1.796875 0 
L 1.796875 1.90625 
Q 8.09375 2.09375 9.796875 3.75 
Q 11.5 5.40625 11.5 11.203125 
L 11.5 55.09375 
Q 11.5 60.90625 9.890625 62.40625 
Q 8.296875 63.90625 1.796875 64.296875 
L 1.796875 66.203125 
L 31.5 66.203125 
L 31.5 64.296875 
Q 25.203125 64 23.453125 62.390625 
Q 21.703125 60.796875 21.703125 55.09375 
L 21.703125 11.203125 
Q 21.703125 5.59375 23.5 3.84375 
Q 25.296875 2.09375 31.5 1.90625 
z
" id="STIXGeneral-Regular-73"/>
      <path d="M 1.59375 66.203125 
L 28.59375 66.203125 
Q 48.09375 66.203125 58.59375 57.09375 
Q 68.5 48.59375 68.5 33.40625 
Q 68.5 15.09375 54.90625 6.40625 
Q 45 0 29.703125 0 
L 1.59375 0 
L 1.59375 1.90625 
Q 7.40625 2.296875 8.90625 3.9375 
Q 10.40625 5.59375 10.40625 11.5 
L 10.40625 55 
Q 10.40625 60.796875 8.90625 62.34375 
Q 7.40625 63.90625 1.59375 64.296875 
z
M 20.59375 58.296875 
L 20.59375 8.40625 
Q 20.59375 5.703125 21.546875 4.703125 
Q 22.5 3.703125 25.40625 3.703125 
Q 33.203125 3.703125 38 4.796875 
Q 42.796875 5.90625 47.203125 8.90625 
Q 57.59375 15.90625 57.59375 32.796875 
Q 57.59375 47.296875 48.09375 55.59375 
Q 43.796875 59.40625 38.6875 60.953125 
Q 33.59375 62.5 25.90625 62.5 
Q 23 62.5 21.796875 61.59375 
Q 20.59375 60.703125 20.59375 58.296875 
z
" id="STIXGeneral-Regular-68"/>
      <path d="M 15.90625 45.90625 
Q 19.203125 42.59375 19.203125 40.296875 
Q 19.203125 38 17.59375 36.390625 
Q 16 34.796875 13.703125 34.796875 
Q 11.40625 34.796875 9.75 36.4375 
Q 8.09375 38.09375 8.09375 40.296875 
Q 8.09375 42.703125 9.6875 44.296875 
Q 11.296875 45.90625 13.703125 45.90625 
Q 15.90625 45.90625 19.203125 42.59375 
z
M 19.203125 4.40625 
Q 19.203125 2.203125 17.59375 0.546875 
Q 16 -1.09375 13.703125 -1.09375 
Q 11.40625 -1.09375 9.75 0.546875 
Q 8.09375 2.203125 8.09375 4.40625 
Q 8.09375 6.796875 9.6875 8.390625 
Q 11.296875 10 13.703125 10 
Q 15.90625 10 17.546875 8.34375 
Q 19.203125 6.703125 19.203125 4.40625 
z
" id="STIXGeneral-Regular-58"/>
      <path d="M 47.296875 16.703125 
L 37 16.703125 
L 37 0 
L 29.203125 0 
L 29.203125 16.703125 
L 1.203125 16.703125 
L 1.203125 23.09375 
L 32.59375 67.59375 
L 37 67.59375 
L 37 23.09375 
L 47.296875 23.09375 
z
M 29.203125 23.09375 
L 29.203125 57.40625 
L 5.203125 23.09375 
z
" id="STIXGeneral-Regular-52"/>
      <path d="M 18.09375 4.296875 
Q 18.09375 2.09375 16.4375 0.5 
Q 14.796875 -1.09375 12.5 -1.09375 
Q 10.203125 -1.09375 8.59375 0.5 
Q 7 2.09375 7 4.390625 
Q 7 6.703125 8.640625 8.34375 
Q 10.296875 10 12.59375 10 
Q 14.796875 10 16.4375 8.296875 
Q 18.09375 6.59375 18.09375 4.296875 
z
" id="STIXGeneral-Regular-46"/>
     </defs>
     <use xlink:href="#STIXGeneral-Regular-83"/>
     <use x="55.599991" xlink:href="#STIXGeneral-Regular-105"/>
     <use x="83.399979" xlink:href="#STIXGeneral-Regular-116"/>
     <use x="111.199966" xlink:href="#STIXGeneral-Regular-101"/>
     <use x="155.59996" xlink:href="#STIXGeneral-Regular-32"/>
     <use x="180.599945" xlink:href="#STIXGeneral-Regular-73"/>
     <use x="213.899933" xlink:href="#STIXGeneral-Regular-68"/>
     <use x="286.099915" xlink:href="#STIXGeneral-Regular-58"/>
     <use x="313.899902" xlink:href="#STIXGeneral-Regular-32"/>
     <use x="338.899887" xlink:href="#STIXGeneral-Regular-52"/>
     <use x="388.899872" xlink:href="#STIXGeneral-Regular-46"/>
     <use x="413.899857" xlink:href="#STIXGeneral-Regular-48"/>
     <use x="463.899841" xlink:href="#STIXGeneral-Regular-48"/>
     <use x="513.899826" xlink:href="#STIXGeneral-Regular-53"/>
    </g>
   </g>
  </g>
 </g>
 <defs>
  <clipPath id="p9b6b60a60b">
   <rect height="611.8" width="605.2" x="82.6" y="43.2"/>
  </clipPath>
 </defs>
</svg>
