<?xml version="1.0" encoding="utf-8" standalone="no"?>
<!DOCTYPE svg PUBLIC "-//W3C//DTD SVG 1.1//EN"
  "http://www.w3.org/Graphics/SVG/1.1/DTD/svg11.dtd">
<svg height="720pt" version="1.1" viewBox="0 0 720 720" width="720pt" xmlns="http://www.w3.org/2000/svg" xmlns:xlink="http://www.w3.org/1999/xlink">
 <metadata>
  <rdf:RDF xmlns:cc="http://creativecommons.org/ns#" xmlns:dc="http://purl.org/dc/elements/1.1/" xmlns:rdf="http://www.w3.org/1999/02/22-rdf-syntax-ns#">
   <cc:Work>
    <dc:type rdf:resource="http://purl.org/dc/dcmitype/StillImage"/>
    <dc:date>2021-08-11T22:17:04.433309</dc:date>
    <dc:format>image/svg+xml</dc:format>
    <dc:creator>
     <cc:Agent>
      <dc:title>Matplotlib v3.4.2, https://matplotlib.org/</dc:title>
     </cc:Agent>
    </dc:creator>
   </cc:Work>
  </rdf:RDF>
 </metadata>
 <defs>
  <style type="text/css">*{stroke-linecap:butt;stroke-linejoin:round;}</style>
 </defs>
 <g id="figure_1">
  <g id="patch_1">
   <path d="M 0 720 
L 720 720 
L 720 0 
L 0 0 
z
" style="fill:#ffffff;"/>
  </g>
  <g id="axes_1">
   <g id="patch_2">
    <path d="M 104 642.4 
L 674.4 642.4 
L 674.4 48.6 
L 104 48.6 
z
" style="fill:#ffffff;"/>
   </g>
   <g id="matplotlib.axis_1">
    <g id="xtick_1">
     <g id="line2d_1">
      <defs>
       <path d="M 0 0 
L 0 3.5 
" id="m9325de4d52" style="stroke:#000000;stroke-width:0.8;"/>
      </defs>
      <g>
       <use style="stroke:#000000;stroke-width:0.8;" x="104" xlink:href="#m9325de4d52" y="642.4"/>
      </g>
     </g>
     <g id="text_1">
      <!-- 0 -->
      <g transform="translate(98 665.79125)scale(0.24 -0.24)">
       <defs>
        <path d="M 3046 2112 
Q 3046 1683 2963 1302 
Q 2880 922 2717 602 
Q 2554 282 2266 96 
Q 1978 -90 1600 -90 
Q 1210 -90 915 108 
Q 621 307 461 640 
Q 301 973 227 1350 
Q 154 1728 154 2150 
Q 154 2746 301 3222 
Q 448 3699 790 4012 
Q 1133 4326 1626 4326 
Q 2253 4326 2649 3712 
Q 3046 3098 3046 2112 
z
M 2432 2080 
Q 2432 3091 2217 3625 
Q 2003 4160 1587 4160 
Q 1190 4160 979 3622 
Q 768 3085 768 2106 
Q 768 1120 979 598 
Q 1190 77 1600 77 
Q 2003 77 2217 598 
Q 2432 1120 2432 2080 
z
" id="STIXGeneral-Regular-30" transform="scale(0.015625)"/>
       </defs>
       <use xlink:href="#STIXGeneral-Regular-30"/>
      </g>
     </g>
    </g>
    <g id="xtick_2">
     <g id="line2d_2">
      <g>
       <use style="stroke:#000000;stroke-width:0.8;" x="218.08" xlink:href="#m9325de4d52" y="642.4"/>
      </g>
     </g>
     <g id="text_2">
      <!-- 500 -->
      <g transform="translate(200.08 665.79125)scale(0.24 -0.24)">
       <defs>
        <path d="M 2803 4358 
L 2573 3814 
Q 2534 3731 2400 3731 
L 1158 3731 
L 902 3187 
Q 1606 3053 1920 2896 
Q 2234 2739 2502 2368 
Q 2726 2061 2726 1555 
Q 2726 1094 2576 780 
Q 2426 467 2099 224 
Q 1664 -90 1011 -90 
Q 646 -90 422 19 
Q 198 128 198 307 
Q 198 550 486 550 
Q 717 550 960 352 
Q 1210 147 1414 147 
Q 1747 147 2012 480 
Q 2278 813 2278 1229 
Q 2278 1843 1850 2189 
Q 1293 2637 486 2637 
Q 410 2637 410 2688 
L 416 2720 
L 1114 4237 
L 2438 4237 
Q 2547 4237 2608 4269 
Q 2669 4301 2746 4403 
L 2803 4358 
z
" id="STIXGeneral-Regular-35" transform="scale(0.015625)"/>
       </defs>
       <use xlink:href="#STIXGeneral-Regular-35"/>
       <use x="49.999985" xlink:href="#STIXGeneral-Regular-30"/>
       <use x="99.999969" xlink:href="#STIXGeneral-Regular-30"/>
      </g>
     </g>
    </g>
    <g id="xtick_3">
     <g id="line2d_3">
      <g>
       <use style="stroke:#000000;stroke-width:0.8;" x="332.16" xlink:href="#m9325de4d52" y="642.4"/>
      </g>
     </g>
     <g id="text_3">
      <!-- 1000 -->
      <g transform="translate(308.16 665.79125)scale(0.24 -0.24)">
       <defs>
        <path d="M 2522 0 
L 755 0 
L 755 96 
Q 1107 115 1235 227 
Q 1363 339 1363 608 
L 1363 3482 
Q 1363 3795 1171 3795 
Q 1082 3795 883 3718 
L 710 3654 
L 710 3744 
L 1856 4326 
L 1914 4307 
L 1914 486 
Q 1914 275 2042 185 
Q 2170 96 2522 96 
L 2522 0 
z
" id="STIXGeneral-Regular-31" transform="scale(0.015625)"/>
       </defs>
       <use xlink:href="#STIXGeneral-Regular-31"/>
       <use x="49.999985" xlink:href="#STIXGeneral-Regular-30"/>
       <use x="99.999969" xlink:href="#STIXGeneral-Regular-30"/>
       <use x="149.999954" xlink:href="#STIXGeneral-Regular-30"/>
      </g>
     </g>
    </g>
    <g id="xtick_4">
     <g id="line2d_4">
      <g>
       <use style="stroke:#000000;stroke-width:0.8;" x="446.24" xlink:href="#m9325de4d52" y="642.4"/>
      </g>
     </g>
     <g id="text_4">
      <!-- 1500 -->
      <g transform="translate(422.24 665.79125)scale(0.24 -0.24)">
       <use xlink:href="#STIXGeneral-Regular-31"/>
       <use x="49.999985" xlink:href="#STIXGeneral-Regular-35"/>
       <use x="99.999969" xlink:href="#STIXGeneral-Regular-30"/>
       <use x="149.999954" xlink:href="#STIXGeneral-Regular-30"/>
      </g>
     </g>
    </g>
    <g id="xtick_5">
     <g id="line2d_5">
      <g>
       <use style="stroke:#000000;stroke-width:0.8;" x="560.32" xlink:href="#m9325de4d52" y="642.4"/>
      </g>
     </g>
     <g id="text_5">
      <!-- 2000 -->
      <g transform="translate(536.32 665.79125)scale(0.24 -0.24)">
       <defs>
        <path d="M 3034 877 
L 2688 0 
L 186 0 
L 186 77 
L 1325 1286 
Q 1773 1754 1965 2144 
Q 2157 2534 2157 2950 
Q 2157 3379 1920 3616 
Q 1683 3853 1267 3853 
Q 922 3853 720 3673 
Q 518 3494 326 3021 
L 192 3053 
Q 301 3648 630 3987 
Q 960 4326 1523 4326 
Q 2054 4326 2380 4006 
Q 2707 3686 2707 3200 
Q 2707 2477 1888 1613 
L 832 486 
L 2330 486 
Q 2541 486 2665 569 
Q 2790 653 2944 915 
L 3034 877 
z
" id="STIXGeneral-Regular-32" transform="scale(0.015625)"/>
       </defs>
       <use xlink:href="#STIXGeneral-Regular-32"/>
       <use x="49.999985" xlink:href="#STIXGeneral-Regular-30"/>
       <use x="99.999969" xlink:href="#STIXGeneral-Regular-30"/>
       <use x="149.999954" xlink:href="#STIXGeneral-Regular-30"/>
      </g>
     </g>
    </g>
    <g id="xtick_6">
     <g id="line2d_6">
      <g>
       <use style="stroke:#000000;stroke-width:0.8;" x="674.4" xlink:href="#m9325de4d52" y="642.4"/>
      </g>
     </g>
     <g id="text_6">
      <!-- 2500 -->
      <g transform="translate(650.4 665.79125)scale(0.24 -0.24)">
       <use xlink:href="#STIXGeneral-Regular-32"/>
       <use x="49.999985" xlink:href="#STIXGeneral-Regular-35"/>
       <use x="99.999969" xlink:href="#STIXGeneral-Regular-30"/>
       <use x="149.999954" xlink:href="#STIXGeneral-Regular-30"/>
      </g>
     </g>
    </g>
    <g id="text_7">
     <!-- Reference T$_1$ (ms) -->
     <g transform="translate(292.87 692.757187)scale(0.26 -0.26)">
      <defs>
       <path d="M 4224 0 
L 3187 0 
L 1664 1971 
L 1306 1958 
L 1306 717 
Q 1306 352 1405 249 
Q 1504 147 1875 122 
L 1875 0 
L 109 0 
L 109 122 
Q 474 154 563 262 
Q 653 371 653 794 
L 653 3526 
Q 653 3885 563 3987 
Q 474 4090 109 4115 
L 109 4237 
L 1850 4237 
Q 2726 4237 3187 3859 
Q 3501 3603 3501 3091 
Q 3501 2221 2342 2042 
L 3622 422 
Q 3757 256 3878 198 
Q 4000 141 4224 122 
L 4224 0 
z
M 1306 3731 
L 1306 2195 
Q 1766 2202 1990 2246 
Q 2214 2291 2438 2413 
Q 2803 2618 2803 3142 
Q 2803 4000 1632 4000 
Q 1459 4000 1382 3945 
Q 1306 3891 1306 3731 
z
" id="STIXGeneral-Regular-52" transform="scale(0.015625)"/>
       <path d="M 2611 1050 
L 2714 1005 
Q 2330 -64 1376 -64 
Q 813 -64 486 329 
Q 160 723 160 1389 
Q 160 2074 525 2509 
Q 890 2944 1485 2944 
Q 2061 2944 2374 2502 
Q 2560 2246 2592 1773 
L 621 1773 
Q 646 1370 700 1158 
Q 755 947 915 730 
Q 1184 378 1626 378 
Q 1939 378 2153 531 
Q 2368 685 2611 1050 
z
M 634 1978 
L 1939 1978 
Q 1882 2381 1750 2547 
Q 1619 2714 1312 2714 
Q 1043 2714 864 2525 
Q 685 2336 634 1978 
z
" id="STIXGeneral-Regular-65" transform="scale(0.015625)"/>
       <path d="M 134 2880 
L 659 2880 
Q 666 3264 710 3478 
Q 755 3693 883 3910 
Q 1152 4371 1786 4371 
Q 2074 4371 2262 4259 
Q 2451 4147 2451 3974 
Q 2451 3866 2374 3789 
Q 2298 3712 2182 3712 
Q 2029 3712 1894 3942 
Q 1741 4192 1555 4192 
Q 1197 4192 1197 3622 
L 1197 2880 
L 1978 2880 
L 1978 2675 
L 1197 2675 
L 1197 666 
Q 1197 307 1299 208 
Q 1402 109 1792 96 
L 1792 0 
L 128 0 
L 128 96 
Q 474 115 566 214 
Q 659 314 659 666 
L 659 2675 
L 134 2675 
L 134 2880 
z
" id="STIXGeneral-Regular-66" transform="scale(0.015625)"/>
       <path d="M 1024 2931 
L 1024 2342 
Q 1267 2688 1430 2816 
Q 1594 2944 1792 2944 
Q 1958 2944 2051 2854 
Q 2144 2765 2144 2605 
Q 2144 2470 2077 2393 
Q 2010 2317 1894 2317 
Q 1773 2317 1638 2445 
Q 1536 2541 1472 2541 
Q 1338 2541 1181 2355 
Q 1024 2170 1024 2016 
L 1024 576 
Q 1024 301 1133 205 
Q 1242 109 1568 96 
L 1568 0 
L 32 0 
L 32 96 
Q 339 154 412 224 
Q 486 294 486 538 
L 486 2138 
Q 486 2349 438 2435 
Q 390 2522 269 2522 
Q 166 2522 45 2496 
L 45 2598 
Q 448 2726 992 2944 
L 1024 2931 
z
" id="STIXGeneral-Regular-72" transform="scale(0.015625)"/>
       <path d="M 3104 0 
L 1773 0 
L 1779 96 
Q 2016 115 2096 233 
Q 2176 352 2176 672 
L 2176 1946 
Q 2176 2592 1709 2592 
Q 1549 2592 1408 2515 
Q 1267 2438 1050 2227 
L 1050 461 
Q 1050 269 1136 192 
Q 1222 115 1466 96 
L 1466 0 
L 115 0 
L 115 96 
Q 358 115 435 214 
Q 512 314 512 602 
L 512 2157 
Q 512 2394 467 2483 
Q 422 2573 288 2573 
Q 160 2573 102 2547 
L 102 2656 
Q 550 2784 979 2944 
L 1030 2925 
L 1030 2426 
L 1037 2426 
Q 1491 2944 1958 2944 
Q 2323 2944 2518 2688 
Q 2714 2432 2714 1958 
L 2714 544 
Q 2714 288 2790 205 
Q 2867 122 3104 96 
L 3104 0 
z
" id="STIXGeneral-Regular-6e" transform="scale(0.015625)"/>
       <path d="M 2547 998 
L 2637 941 
Q 2362 403 2112 205 
Q 1786 -64 1376 -64 
Q 845 -64 502 336 
Q 160 736 160 1357 
Q 160 2170 698 2618 
Q 1094 2944 1562 2944 
Q 1965 2944 2256 2749 
Q 2547 2554 2547 2285 
Q 2547 2176 2457 2096 
Q 2368 2016 2246 2016 
Q 2022 2016 1939 2310 
L 1901 2451 
Q 1850 2630 1773 2694 
Q 1696 2758 1523 2758 
Q 1133 2758 893 2451 
Q 653 2144 653 1645 
Q 653 1094 928 745 
Q 1203 397 1645 397 
Q 1920 397 2118 528 
Q 2317 659 2547 998 
z
" id="STIXGeneral-Regular-63" transform="scale(0.015625)"/>
       <path id="STIXGeneral-Regular-20" transform="scale(0.015625)"/>
       <path d="M 3795 3149 
L 3642 3149 
Q 3539 3674 3353 3821 
Q 3168 3968 2656 3968 
L 2278 3968 
L 2278 710 
Q 2278 346 2387 243 
Q 2496 141 2893 122 
L 2893 0 
L 1024 0 
L 1024 122 
Q 1427 147 1526 256 
Q 1626 365 1626 787 
L 1626 3968 
L 1242 3968 
Q 723 3968 540 3817 
Q 358 3667 262 3149 
L 109 3149 
L 154 4237 
L 3750 4237 
L 3795 3149 
z
" id="STIXGeneral-Regular-54" transform="scale(0.015625)"/>
       <path d="M 1946 -1030 
L 1869 -1133 
Q 1126 -710 716 32 
Q 307 774 307 1613 
Q 307 3386 1888 4326 
L 1946 4224 
Q 1293 3667 1075 3126 
Q 858 2586 858 1632 
Q 858 685 1082 96 
Q 1306 -493 1946 -1030 
z
" id="STIXGeneral-Regular-28" transform="scale(0.015625)"/>
       <path d="M 4960 0 
L 3565 0 
L 3565 96 
Q 3834 122 3907 208 
Q 3981 294 3981 576 
L 3981 1894 
Q 3981 2278 3869 2444 
Q 3757 2611 3488 2611 
Q 3264 2611 3107 2521 
Q 2950 2432 2803 2221 
L 2803 608 
Q 2803 301 2896 201 
Q 2989 102 3264 96 
L 3264 0 
L 1830 0 
L 1830 96 
Q 2112 115 2189 188 
Q 2266 262 2266 550 
L 2266 1901 
Q 2266 2611 1850 2611 
Q 1670 2611 1468 2531 
Q 1267 2451 1171 2336 
Q 1088 2240 1088 2227 
L 1088 448 
Q 1088 243 1177 176 
Q 1267 109 1523 96 
L 1523 0 
L 102 0 
L 102 96 
Q 371 102 460 195 
Q 550 288 550 563 
L 550 2150 
Q 550 2387 499 2480 
Q 448 2573 326 2573 
Q 230 2573 122 2547 
L 122 2656 
Q 557 2778 1011 2944 
L 1062 2925 
L 1062 2451 
L 1075 2451 
Q 1363 2752 1584 2848 
Q 1805 2944 2054 2944 
Q 2560 2944 2733 2406 
Q 3232 2944 3776 2944 
Q 4518 2944 4518 1792 
L 4518 493 
Q 4518 282 4582 202 
Q 4646 122 4794 109 
L 4960 96 
L 4960 0 
z
" id="STIXGeneral-Regular-6d" transform="scale(0.015625)"/>
       <path d="M 998 1926 
L 1664 1523 
Q 1984 1331 2105 1164 
Q 2227 998 2227 736 
Q 2227 416 1961 176 
Q 1696 -64 1331 -64 
Q 1030 -64 864 -6 
Q 691 51 570 51 
Q 461 51 416 -26 
L 333 -26 
L 333 979 
L 435 979 
Q 538 512 730 294 
Q 922 77 1248 77 
Q 1485 77 1632 211 
Q 1779 346 1779 550 
Q 1779 845 1440 1030 
L 1094 1222 
Q 326 1651 326 2150 
Q 326 2522 566 2730 
Q 806 2938 1210 2938 
Q 1491 2938 1638 2867 
Q 1754 2816 1818 2816 
Q 1862 2816 1920 2880 
L 1990 2880 
L 2022 2010 
L 1926 2010 
Q 1818 2445 1654 2621 
Q 1491 2797 1203 2797 
Q 986 2797 854 2688 
Q 723 2579 723 2362 
Q 723 2253 796 2128 
Q 870 2003 998 1926 
z
" id="STIXGeneral-Regular-73" transform="scale(0.015625)"/>
       <path d="M 186 4224 
L 262 4326 
Q 992 3891 1408 3148 
Q 1824 2406 1824 1581 
Q 1824 -166 243 -1133 
L 186 -1030 
Q 845 -486 1059 54 
Q 1274 595 1274 1562 
Q 1274 2534 1059 3120 
Q 845 3706 186 4224 
z
" id="STIXGeneral-Regular-29" transform="scale(0.015625)"/>
      </defs>
      <use transform="translate(0 0.703125)" xlink:href="#STIXGeneral-Regular-52"/>
      <use transform="translate(66.699997 0.703125)" xlink:href="#STIXGeneral-Regular-65"/>
      <use transform="translate(111.099991 0.703125)" xlink:href="#STIXGeneral-Regular-66"/>
      <use transform="translate(144.399979 0.703125)" xlink:href="#STIXGeneral-Regular-65"/>
      <use transform="translate(188.799973 0.703125)" xlink:href="#STIXGeneral-Regular-72"/>
      <use transform="translate(222.09996 0.703125)" xlink:href="#STIXGeneral-Regular-65"/>
      <use transform="translate(266.499954 0.703125)" xlink:href="#STIXGeneral-Regular-6e"/>
      <use transform="translate(316.499939 0.703125)" xlink:href="#STIXGeneral-Regular-63"/>
      <use transform="translate(360.899933 0.703125)" xlink:href="#STIXGeneral-Regular-65"/>
      <use transform="translate(405.299927 0.703125)" xlink:href="#STIXGeneral-Regular-20"/>
      <use transform="translate(430.299911 0.703125)" xlink:href="#STIXGeneral-Regular-54"/>
      <use transform="translate(492.943184 -12.525)scale(0.7)" xlink:href="#STIXGeneral-Regular-31"/>
      <use transform="translate(532.352548 0.703125)" xlink:href="#STIXGeneral-Regular-20"/>
      <use transform="translate(557.352533 0.703125)" xlink:href="#STIXGeneral-Regular-28"/>
      <use transform="translate(590.65252 0.703125)" xlink:href="#STIXGeneral-Regular-6d"/>
      <use transform="translate(668.452508 0.703125)" xlink:href="#STIXGeneral-Regular-73"/>
      <use transform="translate(707.352502 0.703125)" xlink:href="#STIXGeneral-Regular-29"/>
     </g>
    </g>
   </g>
   <g id="matplotlib.axis_2">
    <g id="ytick_1">
     <g id="line2d_7">
      <defs>
       <path d="M 0 0 
L -3.5 0 
" id="m90239a0015" style="stroke:#000000;stroke-width:0.8;"/>
      </defs>
      <g>
       <use style="stroke:#000000;stroke-width:0.8;" x="104" xlink:href="#m90239a0015" y="642.4"/>
      </g>
     </g>
     <g id="text_8">
      <!-- 0 -->
      <g transform="translate(85 650.595625)scale(0.24 -0.24)">
       <use xlink:href="#STIXGeneral-Regular-30"/>
      </g>
     </g>
    </g>
    <g id="ytick_2">
     <g id="line2d_8">
      <g>
       <use style="stroke:#000000;stroke-width:0.8;" x="104" xlink:href="#m90239a0015" y="523.64"/>
      </g>
     </g>
     <g id="text_9">
      <!-- 500 -->
      <g transform="translate(61 531.835625)scale(0.24 -0.24)">
       <use xlink:href="#STIXGeneral-Regular-35"/>
       <use x="49.999985" xlink:href="#STIXGeneral-Regular-30"/>
       <use x="99.999969" xlink:href="#STIXGeneral-Regular-30"/>
      </g>
     </g>
    </g>
    <g id="ytick_3">
     <g id="line2d_9">
      <g>
       <use style="stroke:#000000;stroke-width:0.8;" x="104" xlink:href="#m90239a0015" y="404.88"/>
      </g>
     </g>
     <g id="text_10">
      <!-- 1000 -->
      <g transform="translate(49 413.075625)scale(0.24 -0.24)">
       <use xlink:href="#STIXGeneral-Regular-31"/>
       <use x="49.999985" xlink:href="#STIXGeneral-Regular-30"/>
       <use x="99.999969" xlink:href="#STIXGeneral-Regular-30"/>
       <use x="149.999954" xlink:href="#STIXGeneral-Regular-30"/>
      </g>
     </g>
    </g>
    <g id="ytick_4">
     <g id="line2d_10">
      <g>
       <use style="stroke:#000000;stroke-width:0.8;" x="104" xlink:href="#m90239a0015" y="286.12"/>
      </g>
     </g>
     <g id="text_11">
      <!-- 1500 -->
      <g transform="translate(49 294.315625)scale(0.24 -0.24)">
       <use xlink:href="#STIXGeneral-Regular-31"/>
       <use x="49.999985" xlink:href="#STIXGeneral-Regular-35"/>
       <use x="99.999969" xlink:href="#STIXGeneral-Regular-30"/>
       <use x="149.999954" xlink:href="#STIXGeneral-Regular-30"/>
      </g>
     </g>
    </g>
    <g id="ytick_5">
     <g id="line2d_11">
      <g>
       <use style="stroke:#000000;stroke-width:0.8;" x="104" xlink:href="#m90239a0015" y="167.36"/>
      </g>
     </g>
     <g id="text_12">
      <!-- 2000 -->
      <g transform="translate(49 175.555625)scale(0.24 -0.24)">
       <use xlink:href="#STIXGeneral-Regular-32"/>
       <use x="49.999985" xlink:href="#STIXGeneral-Regular-30"/>
       <use x="99.999969" xlink:href="#STIXGeneral-Regular-30"/>
       <use x="149.999954" xlink:href="#STIXGeneral-Regular-30"/>
      </g>
     </g>
    </g>
    <g id="ytick_6">
     <g id="line2d_12">
      <g>
       <use style="stroke:#000000;stroke-width:0.8;" x="104" xlink:href="#m90239a0015" y="48.6"/>
      </g>
     </g>
     <g id="text_13">
      <!-- 2500 -->
      <g transform="translate(49 56.795625)scale(0.24 -0.24)">
       <use xlink:href="#STIXGeneral-Regular-32"/>
       <use x="49.999985" xlink:href="#STIXGeneral-Regular-35"/>
       <use x="99.999969" xlink:href="#STIXGeneral-Regular-30"/>
       <use x="149.999954" xlink:href="#STIXGeneral-Regular-30"/>
      </g>
     </g>
    </g>
    <g id="text_14">
     <!-- T$_1$ estimate(ms) -->
     <g transform="translate(39.357188 429.22)rotate(-90)scale(0.26 -0.26)">
      <defs>
       <path d="M 1702 493 
L 1786 422 
Q 1478 -64 1011 -64 
Q 448 -64 448 749 
L 448 2675 
L 109 2675 
Q 83 2694 83 2720 
Q 83 2771 192 2842 
Q 435 2982 813 3526 
Q 826 3546 874 3606 
Q 922 3667 941 3706 
Q 986 3706 986 3622 
L 986 2880 
L 1632 2880 
L 1632 2675 
L 986 2675 
L 986 845 
Q 986 538 1062 403 
Q 1139 269 1318 269 
Q 1510 269 1702 493 
z
" id="STIXGeneral-Regular-74" transform="scale(0.015625)"/>
       <path d="M 1152 4045 
Q 1152 3904 1056 3811 
Q 960 3718 819 3718 
Q 685 3718 592 3811 
Q 499 3904 499 4045 
Q 499 4179 595 4275 
Q 691 4371 826 4371 
Q 966 4371 1059 4275 
Q 1152 4179 1152 4045 
z
M 1619 0 
L 102 0 
L 102 96 
Q 435 115 521 211 
Q 608 307 608 666 
L 608 2118 
Q 608 2342 563 2432 
Q 518 2522 397 2522 
Q 243 2522 128 2490 
L 128 2592 
L 1120 2944 
L 1146 2918 
L 1146 672 
Q 1146 314 1226 218 
Q 1306 122 1619 96 
L 1619 0 
z
" id="STIXGeneral-Regular-69" transform="scale(0.015625)"/>
       <path d="M 2829 422 
L 2829 243 
Q 2586 -64 2253 -64 
Q 1888 -64 1843 403 
L 1837 403 
Q 1427 -64 909 -64 
Q 608 -64 422 112 
Q 237 288 237 602 
Q 237 1050 685 1350 
Q 992 1555 1837 1869 
L 1837 2214 
Q 1837 2502 1699 2646 
Q 1562 2790 1338 2790 
Q 1146 2790 1018 2697 
Q 890 2605 890 2477 
Q 890 2419 909 2348 
Q 928 2278 928 2208 
Q 928 2112 841 2029 
Q 755 1946 634 1946 
Q 525 1946 441 2029 
Q 358 2112 358 2240 
Q 358 2547 685 2752 
Q 986 2944 1421 2944 
Q 1939 2944 2176 2656 
Q 2291 2522 2323 2384 
Q 2355 2246 2355 1946 
L 2355 723 
Q 2355 301 2554 301 
Q 2682 301 2829 422 
z
M 1837 813 
L 1837 1715 
Q 1248 1510 1018 1293 
Q 800 1094 800 800 
Q 800 557 921 432 
Q 1043 307 1242 307 
Q 1453 307 1613 410 
Q 1747 506 1792 589 
Q 1837 672 1837 813 
z
" id="STIXGeneral-Regular-61" transform="scale(0.015625)"/>
      </defs>
      <use transform="translate(0 0.703125)" xlink:href="#STIXGeneral-Regular-54"/>
      <use transform="translate(62.643272 -12.525)scale(0.7)" xlink:href="#STIXGeneral-Regular-31"/>
      <use transform="translate(102.052636 0.703125)" xlink:href="#STIXGeneral-Regular-20"/>
      <use transform="translate(127.052621 0.703125)" xlink:href="#STIXGeneral-Regular-65"/>
      <use transform="translate(171.452615 0.703125)" xlink:href="#STIXGeneral-Regular-73"/>
      <use transform="translate(210.352609 0.703125)" xlink:href="#STIXGeneral-Regular-74"/>
      <use transform="translate(238.152597 0.703125)" xlink:href="#STIXGeneral-Regular-69"/>
      <use transform="translate(265.952585 0.703125)" xlink:href="#STIXGeneral-Regular-6d"/>
      <use transform="translate(343.752572 0.703125)" xlink:href="#STIXGeneral-Regular-61"/>
      <use transform="translate(388.152566 0.703125)" xlink:href="#STIXGeneral-Regular-74"/>
      <use transform="translate(415.952554 0.703125)" xlink:href="#STIXGeneral-Regular-65"/>
      <use transform="translate(460.352548 0.703125)" xlink:href="#STIXGeneral-Regular-28"/>
      <use transform="translate(493.652536 0.703125)" xlink:href="#STIXGeneral-Regular-6d"/>
      <use transform="translate(571.452523 0.703125)" xlink:href="#STIXGeneral-Regular-73"/>
      <use transform="translate(610.352517 0.703125)" xlink:href="#STIXGeneral-Regular-29"/>
     </g>
    </g>
   </g>
   <g id="LineCollection_1">
    <path clip-path="url(#p4ef2b717d2)" d="M 557.81024 156.662506 
L 557.81024 126.396894 
" style="fill:none;stroke:#1f77b4;stroke-width:3;"/>
    <path clip-path="url(#p4ef2b717d2)" d="M 435.74464 293.385478 
L 435.74464 280.422154 
" style="fill:none;stroke:#1f77b4;stroke-width:3;"/>
    <path clip-path="url(#p4ef2b717d2)" d="M 328.532256 408.353747 
L 328.532256 402.237573 
" style="fill:none;stroke:#1f77b4;stroke-width:3;"/>
    <path clip-path="url(#p4ef2b717d2)" d="M 265.08096 474.063852 
L 265.08096 470.5125 
" style="fill:none;stroke:#1f77b4;stroke-width:3;"/>
    <path clip-path="url(#p4ef2b717d2)" d="M 217.16736 525.019744 
L 217.16736 522.165248 
" style="fill:none;stroke:#1f77b4;stroke-width:3;"/>
    <path clip-path="url(#p4ef2b717d2)" d="M 184.19824 567.881671 
L 184.19824 565.428073 
" style="fill:none;stroke:#1f77b4;stroke-width:3;"/>
    <path clip-path="url(#p4ef2b717d2)" d="M 160.385181 584.385591 
L 160.385181 582.438225 
" style="fill:none;stroke:#1f77b4;stroke-width:3;"/>
    <path clip-path="url(#p4ef2b717d2)" d="M 143.996448 618.840008 
L 143.996448 585.915752 
" style="fill:none;stroke:#1f77b4;stroke-width:3;"/>
    <path clip-path="url(#p4ef2b717d2)" d="M 132.725344 611.023758 
L 132.725344 598.909938 
" style="fill:none;stroke:#1f77b4;stroke-width:3;"/>
    <path clip-path="url(#p4ef2b717d2)" d="M 124.30624 625.790121 
L 124.30624 615.163687 
" style="fill:none;stroke:#1f77b4;stroke-width:3;"/>
    <path clip-path="url(#p4ef2b717d2)" d="M 118.305632 636.500257 
L 118.305632 619.132287 
" style="fill:none;stroke:#1f77b4;stroke-width:3;"/>
    <path clip-path="url(#p4ef2b717d2)" d="M 114.159965 638.000019 
L 114.159965 618.250077 
" style="fill:none;stroke:#1f77b4;stroke-width:3;"/>
    <path clip-path="url(#p4ef2b717d2)" d="M 111.036454 638.085566 
L 111.036454 616.525642 
" style="fill:none;stroke:#1f77b4;stroke-width:3;"/>
    <path clip-path="url(#p4ef2b717d2)" d="M 108.955407 655.190737 
L 108.955407 625.951455 
" style="fill:none;stroke:#1f77b4;stroke-width:3;"/>
   </g>
   <g id="LineCollection_2">
    <path clip-path="url(#p4ef2b717d2)" d="M 557.81024 175.705169 
L 557.81024 156.661255 
" style="fill:none;stroke:#ff6961;stroke-width:3;"/>
    <path clip-path="url(#p4ef2b717d2)" d="M 435.74464 300.846544 
L 435.74464 292.611087 
" style="fill:none;stroke:#ff6961;stroke-width:3;"/>
    <path clip-path="url(#p4ef2b717d2)" d="M 328.532256 411.033181 
L 328.532256 407.09575 
" style="fill:none;stroke:#ff6961;stroke-width:3;"/>
    <path clip-path="url(#p4ef2b717d2)" d="M 265.08096 476.212 
L 265.08096 473.481499 
" style="fill:none;stroke:#ff6961;stroke-width:3;"/>
    <path clip-path="url(#p4ef2b717d2)" d="M 217.16736 526.675467 
L 217.16736 524.341364 
" style="fill:none;stroke:#ff6961;stroke-width:3;"/>
    <path clip-path="url(#p4ef2b717d2)" d="M 184.19824 568.485553 
L 184.19824 566.723394 
" style="fill:none;stroke:#ff6961;stroke-width:3;"/>
    <path clip-path="url(#p4ef2b717d2)" d="M 160.385181 585.280577 
L 160.385181 583.637949 
" style="fill:none;stroke:#ff6961;stroke-width:3;"/>
    <path clip-path="url(#p4ef2b717d2)" d="M 143.996448 604.037706 
L 143.996448 602.81374 
" style="fill:none;stroke:#ff6961;stroke-width:3;"/>
    <path clip-path="url(#p4ef2b717d2)" d="M 132.725344 613.963968 
L 132.725344 612.914623 
" style="fill:none;stroke:#ff6961;stroke-width:3;"/>
    <path clip-path="url(#p4ef2b717d2)" d="M 124.30624 623.732063 
L 124.30624 620.255845 
" style="fill:none;stroke:#ff6961;stroke-width:3;"/>
    <path clip-path="url(#p4ef2b717d2)" d="M 118.305632 630.429809 
L 118.305632 625.204233 
" style="fill:none;stroke:#ff6961;stroke-width:3;"/>
    <path clip-path="url(#p4ef2b717d2)" d="M 114.159965 634.857442 
L 114.159965 630.614819 
" style="fill:none;stroke:#ff6961;stroke-width:3;"/>
    <path clip-path="url(#p4ef2b717d2)" d="M 111.036454 635.412738 
L 111.036454 635.019607 
" style="fill:none;stroke:#ff6961;stroke-width:3;"/>
    <path clip-path="url(#p4ef2b717d2)" d="M 108.955407 637.595641 
L 108.955407 637.132477 
" style="fill:none;stroke:#ff6961;stroke-width:3;"/>
   </g>
   <g id="line2d_13">
    <defs>
     <path d="M 10 0 
L -10 -0 
" id="mfe323f2c29" style="stroke:#1f77b4;"/>
    </defs>
    <g clip-path="url(#p4ef2b717d2)">
     <use style="fill:#1f77b4;stroke:#1f77b4;" x="557.81024" xlink:href="#mfe323f2c29" y="156.662506"/>
     <use style="fill:#1f77b4;stroke:#1f77b4;" x="435.74464" xlink:href="#mfe323f2c29" y="293.385478"/>
     <use style="fill:#1f77b4;stroke:#1f77b4;" x="328.532256" xlink:href="#mfe323f2c29" y="408.353747"/>
     <use style="fill:#1f77b4;stroke:#1f77b4;" x="265.08096" xlink:href="#mfe323f2c29" y="474.063852"/>
     <use style="fill:#1f77b4;stroke:#1f77b4;" x="217.16736" xlink:href="#mfe323f2c29" y="525.019744"/>
     <use style="fill:#1f77b4;stroke:#1f77b4;" x="184.19824" xlink:href="#mfe323f2c29" y="567.881671"/>
     <use style="fill:#1f77b4;stroke:#1f77b4;" x="160.385181" xlink:href="#mfe323f2c29" y="584.385591"/>
     <use style="fill:#1f77b4;stroke:#1f77b4;" x="143.996448" xlink:href="#mfe323f2c29" y="618.840008"/>
     <use style="fill:#1f77b4;stroke:#1f77b4;" x="132.725344" xlink:href="#mfe323f2c29" y="611.023758"/>
     <use style="fill:#1f77b4;stroke:#1f77b4;" x="124.30624" xlink:href="#mfe323f2c29" y="625.790121"/>
     <use style="fill:#1f77b4;stroke:#1f77b4;" x="118.305632" xlink:href="#mfe323f2c29" y="636.500257"/>
     <use style="fill:#1f77b4;stroke:#1f77b4;" x="114.159965" xlink:href="#mfe323f2c29" y="638.000019"/>
     <use style="fill:#1f77b4;stroke:#1f77b4;" x="111.036454" xlink:href="#mfe323f2c29" y="638.085566"/>
     <use style="fill:#1f77b4;stroke:#1f77b4;" x="108.955407" xlink:href="#mfe323f2c29" y="655.190737"/>
    </g>
   </g>
   <g id="line2d_14">
    <g clip-path="url(#p4ef2b717d2)">
     <use style="fill:#1f77b4;stroke:#1f77b4;" x="557.81024" xlink:href="#mfe323f2c29" y="126.396894"/>
     <use style="fill:#1f77b4;stroke:#1f77b4;" x="435.74464" xlink:href="#mfe323f2c29" y="280.422154"/>
     <use style="fill:#1f77b4;stroke:#1f77b4;" x="328.532256" xlink:href="#mfe323f2c29" y="402.237573"/>
     <use style="fill:#1f77b4;stroke:#1f77b4;" x="265.08096" xlink:href="#mfe323f2c29" y="470.5125"/>
     <use style="fill:#1f77b4;stroke:#1f77b4;" x="217.16736" xlink:href="#mfe323f2c29" y="522.165248"/>
     <use style="fill:#1f77b4;stroke:#1f77b4;" x="184.19824" xlink:href="#mfe323f2c29" y="565.428073"/>
     <use style="fill:#1f77b4;stroke:#1f77b4;" x="160.385181" xlink:href="#mfe323f2c29" y="582.438225"/>
     <use style="fill:#1f77b4;stroke:#1f77b4;" x="143.996448" xlink:href="#mfe323f2c29" y="585.915752"/>
     <use style="fill:#1f77b4;stroke:#1f77b4;" x="132.725344" xlink:href="#mfe323f2c29" y="598.909938"/>
     <use style="fill:#1f77b4;stroke:#1f77b4;" x="124.30624" xlink:href="#mfe323f2c29" y="615.163687"/>
     <use style="fill:#1f77b4;stroke:#1f77b4;" x="118.305632" xlink:href="#mfe323f2c29" y="619.132287"/>
     <use style="fill:#1f77b4;stroke:#1f77b4;" x="114.159965" xlink:href="#mfe323f2c29" y="618.250077"/>
     <use style="fill:#1f77b4;stroke:#1f77b4;" x="111.036454" xlink:href="#mfe323f2c29" y="616.525642"/>
     <use style="fill:#1f77b4;stroke:#1f77b4;" x="108.955407" xlink:href="#mfe323f2c29" y="625.951455"/>
    </g>
   </g>
   <g id="line2d_15">
    <defs>
     <path d="M 10 0 
L -10 -0 
" id="me6c1fab48c" style="stroke:#ff6961;"/>
    </defs>
    <g clip-path="url(#p4ef2b717d2)">
     <use style="fill:#ff6961;stroke:#ff6961;" x="557.81024" xlink:href="#me6c1fab48c" y="175.705169"/>
     <use style="fill:#ff6961;stroke:#ff6961;" x="435.74464" xlink:href="#me6c1fab48c" y="300.846544"/>
     <use style="fill:#ff6961;stroke:#ff6961;" x="328.532256" xlink:href="#me6c1fab48c" y="411.033181"/>
     <use style="fill:#ff6961;stroke:#ff6961;" x="265.08096" xlink:href="#me6c1fab48c" y="476.212"/>
     <use style="fill:#ff6961;stroke:#ff6961;" x="217.16736" xlink:href="#me6c1fab48c" y="526.675467"/>
     <use style="fill:#ff6961;stroke:#ff6961;" x="184.19824" xlink:href="#me6c1fab48c" y="568.485553"/>
     <use style="fill:#ff6961;stroke:#ff6961;" x="160.385181" xlink:href="#me6c1fab48c" y="585.280577"/>
     <use style="fill:#ff6961;stroke:#ff6961;" x="143.996448" xlink:href="#me6c1fab48c" y="604.037706"/>
     <use style="fill:#ff6961;stroke:#ff6961;" x="132.725344" xlink:href="#me6c1fab48c" y="613.963968"/>
     <use style="fill:#ff6961;stroke:#ff6961;" x="124.30624" xlink:href="#me6c1fab48c" y="623.732063"/>
     <use style="fill:#ff6961;stroke:#ff6961;" x="118.305632" xlink:href="#me6c1fab48c" y="630.429809"/>
     <use style="fill:#ff6961;stroke:#ff6961;" x="114.159965" xlink:href="#me6c1fab48c" y="634.857442"/>
     <use style="fill:#ff6961;stroke:#ff6961;" x="111.036454" xlink:href="#me6c1fab48c" y="635.412738"/>
     <use style="fill:#ff6961;stroke:#ff6961;" x="108.955407" xlink:href="#me6c1fab48c" y="637.595641"/>
    </g>
   </g>
   <g id="line2d_16">
    <g clip-path="url(#p4ef2b717d2)">
     <use style="fill:#ff6961;stroke:#ff6961;" x="557.81024" xlink:href="#me6c1fab48c" y="156.661255"/>
     <use style="fill:#ff6961;stroke:#ff6961;" x="435.74464" xlink:href="#me6c1fab48c" y="292.611087"/>
     <use style="fill:#ff6961;stroke:#ff6961;" x="328.532256" xlink:href="#me6c1fab48c" y="407.09575"/>
     <use style="fill:#ff6961;stroke:#ff6961;" x="265.08096" xlink:href="#me6c1fab48c" y="473.481499"/>
     <use style="fill:#ff6961;stroke:#ff6961;" x="217.16736" xlink:href="#me6c1fab48c" y="524.341364"/>
     <use style="fill:#ff6961;stroke:#ff6961;" x="184.19824" xlink:href="#me6c1fab48c" y="566.723394"/>
     <use style="fill:#ff6961;stroke:#ff6961;" x="160.385181" xlink:href="#me6c1fab48c" y="583.637949"/>
     <use style="fill:#ff6961;stroke:#ff6961;" x="143.996448" xlink:href="#me6c1fab48c" y="602.81374"/>
     <use style="fill:#ff6961;stroke:#ff6961;" x="132.725344" xlink:href="#me6c1fab48c" y="612.914623"/>
     <use style="fill:#ff6961;stroke:#ff6961;" x="124.30624" xlink:href="#me6c1fab48c" y="620.255845"/>
     <use style="fill:#ff6961;stroke:#ff6961;" x="118.305632" xlink:href="#me6c1fab48c" y="625.204233"/>
     <use style="fill:#ff6961;stroke:#ff6961;" x="114.159965" xlink:href="#me6c1fab48c" y="630.614819"/>
     <use style="fill:#ff6961;stroke:#ff6961;" x="111.036454" xlink:href="#me6c1fab48c" y="635.019607"/>
     <use style="fill:#ff6961;stroke:#ff6961;" x="108.955407" xlink:href="#me6c1fab48c" y="637.132477"/>
    </g>
   </g>
   <g id="line2d_17">
    <path clip-path="url(#p4ef2b717d2)" d="M 104 642.4 
L 674.4 48.6 
" style="fill:none;stroke:#1f77b4;stroke-dasharray:11.1,4.8;stroke-dashoffset:0;stroke-width:3;"/>
   </g>
   <g id="line2d_18">
    <defs>
     <path d="M 0 5 
C 1.326016 5 2.597899 4.473168 3.535534 3.535534 
C 4.473168 2.597899 5 1.326016 5 0 
C 5 -1.326016 4.473168 -2.597899 3.535534 -3.535534 
C 2.597899 -4.473168 1.326016 -5 0 -5 
C -1.326016 -5 -2.597899 -4.473168 -3.535534 -3.535534 
C -4.473168 -2.597899 -5 -1.326016 -5 0 
C -5 1.326016 -4.473168 2.597899 -3.535534 3.535534 
C -2.597899 4.473168 -1.326016 5 0 5 
z
" id="m220154a57f" style="stroke:#1f77b4;"/>
    </defs>
    <g clip-path="url(#p4ef2b717d2)">
     <use style="fill:#1f77b4;stroke:#1f77b4;" x="557.81024" xlink:href="#m220154a57f" y="141.5297"/>
     <use style="fill:#1f77b4;stroke:#1f77b4;" x="435.74464" xlink:href="#m220154a57f" y="286.903816"/>
     <use style="fill:#1f77b4;stroke:#1f77b4;" x="328.532256" xlink:href="#m220154a57f" y="405.29566"/>
     <use style="fill:#1f77b4;stroke:#1f77b4;" x="265.08096" xlink:href="#m220154a57f" y="472.288176"/>
     <use style="fill:#1f77b4;stroke:#1f77b4;" x="217.16736" xlink:href="#m220154a57f" y="523.592496"/>
     <use style="fill:#1f77b4;stroke:#1f77b4;" x="184.19824" xlink:href="#m220154a57f" y="566.654872"/>
     <use style="fill:#1f77b4;stroke:#1f77b4;" x="160.385181" xlink:href="#m220154a57f" y="583.411908"/>
     <use style="fill:#1f77b4;stroke:#1f77b4;" x="143.996448" xlink:href="#m220154a57f" y="602.37788"/>
     <use style="fill:#1f77b4;stroke:#1f77b4;" x="132.725344" xlink:href="#m220154a57f" y="604.966848"/>
     <use style="fill:#1f77b4;stroke:#1f77b4;" x="124.30624" xlink:href="#m220154a57f" y="620.476904"/>
     <use style="fill:#1f77b4;stroke:#1f77b4;" x="118.305632" xlink:href="#m220154a57f" y="627.816272"/>
     <use style="fill:#1f77b4;stroke:#1f77b4;" x="114.159965" xlink:href="#m220154a57f" y="628.125048"/>
     <use style="fill:#1f77b4;stroke:#1f77b4;" x="111.036454" xlink:href="#m220154a57f" y="627.305604"/>
     <use style="fill:#1f77b4;stroke:#1f77b4;" x="108.955407" xlink:href="#m220154a57f" y="640.571096"/>
    </g>
   </g>
   <g id="line2d_19">
    <defs>
     <path d="M 0 5 
C 1.326016 5 2.597899 4.473168 3.535534 3.535534 
C 4.473168 2.597899 5 1.326016 5 0 
C 5 -1.326016 4.473168 -2.597899 3.535534 -3.535534 
C 2.597899 -4.473168 1.326016 -5 0 -5 
C -1.326016 -5 -2.597899 -4.473168 -3.535534 -3.535534 
C -4.473168 -2.597899 -5 -1.326016 -5 0 
C -5 1.326016 -4.473168 2.597899 -3.535534 3.535534 
C -2.597899 4.473168 -1.326016 5 0 5 
z
" id="m5ed2f0c35b" style="stroke:#ff6961;"/>
    </defs>
    <g clip-path="url(#p4ef2b717d2)">
     <use style="fill:#ff6961;stroke:#ff6961;" x="557.81024" xlink:href="#m5ed2f0c35b" y="166.183212"/>
     <use style="fill:#ff6961;stroke:#ff6961;" x="435.74464" xlink:href="#m5ed2f0c35b" y="296.728816"/>
     <use style="fill:#ff6961;stroke:#ff6961;" x="328.532256" xlink:href="#m5ed2f0c35b" y="409.064465"/>
     <use style="fill:#ff6961;stroke:#ff6961;" x="265.08096" xlink:href="#m5ed2f0c35b" y="474.846749"/>
     <use style="fill:#ff6961;stroke:#ff6961;" x="217.16736" xlink:href="#m5ed2f0c35b" y="525.508415"/>
     <use style="fill:#ff6961;stroke:#ff6961;" x="184.19824" xlink:href="#m5ed2f0c35b" y="567.604473"/>
     <use style="fill:#ff6961;stroke:#ff6961;" x="160.385181" xlink:href="#m5ed2f0c35b" y="584.459263"/>
     <use style="fill:#ff6961;stroke:#ff6961;" x="143.996448" xlink:href="#m5ed2f0c35b" y="603.425723"/>
     <use style="fill:#ff6961;stroke:#ff6961;" x="132.725344" xlink:href="#m5ed2f0c35b" y="613.439295"/>
     <use style="fill:#ff6961;stroke:#ff6961;" x="124.30624" xlink:href="#m5ed2f0c35b" y="621.993954"/>
     <use style="fill:#ff6961;stroke:#ff6961;" x="118.305632" xlink:href="#m5ed2f0c35b" y="627.817021"/>
     <use style="fill:#ff6961;stroke:#ff6961;" x="114.159965" xlink:href="#m5ed2f0c35b" y="632.73613"/>
     <use style="fill:#ff6961;stroke:#ff6961;" x="111.036454" xlink:href="#m5ed2f0c35b" y="635.216173"/>
     <use style="fill:#ff6961;stroke:#ff6961;" x="108.955407" xlink:href="#m5ed2f0c35b" y="637.364059"/>
    </g>
   </g>
   <g id="patch_3">
    <path d="M 104 642.4 
L 104 48.6 
" style="fill:none;stroke:#000000;stroke-linecap:square;stroke-linejoin:miter;stroke-width:4;"/>
   </g>
   <g id="patch_4">
    <path d="M 674.4 642.4 
L 674.4 48.6 
" style="fill:none;stroke:#000000;stroke-linecap:square;stroke-linejoin:miter;stroke-width:4;"/>
   </g>
   <g id="patch_5">
    <path d="M 104 642.4 
L 674.4 642.4 
" style="fill:none;stroke:#000000;stroke-linecap:square;stroke-linejoin:miter;stroke-width:4;"/>
   </g>
   <g id="patch_6">
    <path d="M 104 48.6 
L 674.4 48.6 
" style="fill:none;stroke:#000000;stroke-linecap:square;stroke-linejoin:miter;stroke-width:4;"/>
   </g>
   <g id="text_15">
    <!-- Site ID: 6.001 -->
    <g transform="translate(304.616406 42.089063)scale(0.3 -0.3)">
     <defs>
      <path d="M 3002 2963 
L 2842 2963 
Q 2733 3360 2579 3565 
Q 2189 4064 1651 4064 
Q 1357 4064 1181 3894 
Q 1005 3725 1005 3456 
Q 1005 3328 1069 3206 
Q 1133 3085 1206 2998 
Q 1280 2912 1465 2784 
Q 1651 2656 1766 2589 
Q 1882 2522 2150 2362 
Q 2669 2061 2905 1763 
Q 3142 1466 3142 1107 
Q 3142 576 2771 243 
Q 2400 -90 1837 -90 
Q 1421 -90 1082 58 
Q 915 128 781 128 
Q 704 128 653 70 
Q 602 13 602 -83 
L 461 -83 
L 275 1274 
L 416 1274 
Q 845 141 1734 141 
Q 2074 141 2285 342 
Q 2496 544 2496 858 
Q 2496 1158 2310 1363 
Q 2003 1696 1235 2106 
Q 454 2522 454 3206 
Q 454 3718 768 4022 
Q 1082 4326 1568 4326 
Q 1907 4326 2240 4186 
Q 2413 4109 2522 4109 
Q 2688 4109 2726 4326 
L 2861 4326 
L 3002 2963 
z
" id="STIXGeneral-Regular-53" transform="scale(0.015625)"/>
      <path d="M 2016 0 
L 115 0 
L 115 122 
Q 518 134 627 240 
Q 736 346 736 717 
L 736 3526 
Q 736 3898 633 3994 
Q 531 4090 115 4115 
L 115 4237 
L 2016 4237 
L 2016 4115 
Q 1613 4096 1501 3993 
Q 1389 3891 1389 3526 
L 1389 717 
Q 1389 358 1504 246 
Q 1619 134 2016 122 
L 2016 0 
z
" id="STIXGeneral-Regular-49" transform="scale(0.015625)"/>
      <path d="M 102 4237 
L 1830 4237 
Q 3078 4237 3750 3654 
Q 4384 3110 4384 2138 
Q 4384 966 3514 410 
Q 2880 0 1901 0 
L 102 0 
L 102 122 
Q 474 147 570 252 
Q 666 358 666 736 
L 666 3520 
Q 666 3891 570 3990 
Q 474 4090 102 4115 
L 102 4237 
z
M 1318 3731 
L 1318 538 
Q 1318 365 1379 301 
Q 1440 237 1626 237 
Q 2125 237 2432 307 
Q 2739 378 3021 570 
Q 3686 1018 3686 2099 
Q 3686 3027 3078 3558 
Q 2803 3802 2476 3901 
Q 2150 4000 1658 4000 
Q 1472 4000 1395 3942 
Q 1318 3885 1318 3731 
z
" id="STIXGeneral-Regular-44" transform="scale(0.015625)"/>
      <path d="M 1123 2832 
Q 1229 2726 1229 2579 
Q 1229 2432 1126 2329 
Q 1024 2227 877 2227 
Q 730 2227 624 2332 
Q 518 2438 518 2579 
Q 518 2733 620 2835 
Q 723 2938 877 2938 
Q 1018 2938 1123 2832 
z
M 1229 282 
Q 1229 141 1126 35 
Q 1024 -70 877 -70 
Q 730 -70 624 35 
Q 518 141 518 282 
Q 518 435 620 537 
Q 723 640 877 640 
Q 1018 640 1123 534 
Q 1229 429 1229 282 
z
" id="STIXGeneral-Regular-3a" transform="scale(0.015625)"/>
      <path d="M 2854 4378 
L 2867 4275 
Q 2112 4154 1606 3664 
Q 1101 3174 973 2451 
Q 1344 2739 1786 2739 
Q 2349 2739 2672 2380 
Q 2995 2022 2995 1402 
Q 2995 774 2669 378 
Q 2291 -90 1651 -90 
Q 870 -90 518 557 
Q 218 1107 218 1786 
Q 218 2835 915 3552 
Q 1312 3962 1731 4131 
Q 2150 4301 2854 4378 
z
M 2419 1203 
Q 2419 2445 1555 2445 
Q 1235 2445 1024 2275 
Q 813 2106 813 1702 
Q 813 954 1046 522 
Q 1280 90 1722 90 
Q 2061 90 2240 394 
Q 2419 698 2419 1203 
z
" id="STIXGeneral-Regular-36" transform="scale(0.015625)"/>
      <path d="M 1158 275 
Q 1158 134 1052 32 
Q 947 -70 800 -70 
Q 653 -70 550 32 
Q 448 134 448 281 
Q 448 429 553 534 
Q 659 640 806 640 
Q 947 640 1052 531 
Q 1158 422 1158 275 
z
" id="STIXGeneral-Regular-2e" transform="scale(0.015625)"/>
     </defs>
     <use xlink:href="#STIXGeneral-Regular-53"/>
     <use x="55.599991" xlink:href="#STIXGeneral-Regular-69"/>
     <use x="83.399979" xlink:href="#STIXGeneral-Regular-74"/>
     <use x="111.199966" xlink:href="#STIXGeneral-Regular-65"/>
     <use x="155.59996" xlink:href="#STIXGeneral-Regular-20"/>
     <use x="180.599945" xlink:href="#STIXGeneral-Regular-49"/>
     <use x="213.899933" xlink:href="#STIXGeneral-Regular-44"/>
     <use x="286.099915" xlink:href="#STIXGeneral-Regular-3a"/>
     <use x="313.899902" xlink:href="#STIXGeneral-Regular-20"/>
     <use x="338.899887" xlink:href="#STIXGeneral-Regular-36"/>
     <use x="388.899872" xlink:href="#STIXGeneral-Regular-2e"/>
     <use x="413.899857" xlink:href="#STIXGeneral-Regular-30"/>
     <use x="463.899841" xlink:href="#STIXGeneral-Regular-30"/>
     <use x="513.899826" xlink:href="#STIXGeneral-Regular-31"/>
    </g>
   </g>
   <g id="legend_1">
    <g id="patch_7">
     <path d="M 113.1 95.842813 
L 231.597031 95.842813 
Q 234.197031 95.842813 234.197031 93.242813 
L 234.197031 57.7 
Q 234.197031 55.1 231.597031 55.1 
L 113.1 55.1 
Q 110.5 55.1 110.5 57.7 
L 110.5 93.242813 
Q 110.5 95.842813 113.1 95.842813 
z
" style="fill:#ffffff;opacity:0.8;stroke:#cccccc;stroke-linejoin:miter;"/>
    </g>
    <g id="LineCollection_3">
     <path d="M 128.7 71.35 
L 128.7 58.35 
" style="fill:none;stroke:#1f77b4;stroke-width:3;"/>
    </g>
    <g id="line2d_20">
     <g>
      <use style="fill:#1f77b4;stroke:#1f77b4;" x="128.7" xlink:href="#mfe323f2c29" y="71.35"/>
     </g>
    </g>
    <g id="line2d_21">
     <g>
      <use style="fill:#1f77b4;stroke:#1f77b4;" x="128.7" xlink:href="#mfe323f2c29" y="58.35"/>
     </g>
    </g>
    <g id="line2d_22"/>
    <g id="line2d_23">
     <g>
      <use style="fill:#1f77b4;stroke:#1f77b4;" x="128.7" xlink:href="#m220154a57f" y="64.85"/>
     </g>
    </g>
    <g id="text_16">
     <!-- Barral model -->
     <g transform="translate(152.1 69.4)scale(0.13 -0.13)">
      <defs>
       <path d="M 2701 2234 
L 2701 2227 
Q 3181 2150 3482 1875 
Q 3795 1594 3795 1139 
Q 3795 608 3379 304 
Q 2963 0 2266 0 
L 109 0 
L 109 122 
Q 486 134 604 246 
Q 723 358 723 723 
L 723 3520 
Q 723 3891 614 3990 
Q 506 4090 109 4115 
L 109 4237 
L 1901 4237 
Q 2726 4237 3152 3958 
Q 3578 3680 3578 3168 
Q 3578 2733 3315 2502 
Q 3130 2342 2701 2234 
z
M 1376 2342 
L 1965 2342 
Q 2925 2342 2925 3136 
Q 2925 3546 2640 3773 
Q 2355 4000 1792 4000 
L 1530 4000 
Q 1376 4000 1376 3795 
L 1376 2342 
z
M 1376 2086 
L 1376 525 
Q 1376 365 1462 301 
Q 1549 237 1773 237 
Q 2208 237 2413 285 
Q 2618 333 2816 512 
Q 3059 723 3059 1146 
Q 3059 1632 2758 1830 
Q 2688 1882 2617 1917 
Q 2547 1952 2492 1974 
Q 2438 1997 2348 2016 
Q 2259 2035 2211 2044 
Q 2163 2054 2041 2060 
Q 1920 2067 1862 2070 
Q 1805 2074 1635 2080 
Q 1466 2086 1376 2086 
z
" id="STIXGeneral-Regular-42" transform="scale(0.015625)"/>
       <path d="M 1645 0 
L 134 0 
L 134 96 
Q 435 122 531 221 
Q 627 320 627 589 
L 627 3590 
Q 627 3821 569 3910 
Q 512 4000 358 4000 
Q 224 4000 122 3987 
L 122 4090 
Q 730 4237 1133 4371 
L 1165 4346 
L 1165 557 
Q 1165 288 1254 201 
Q 1344 115 1645 96 
L 1645 0 
z
" id="STIXGeneral-Regular-6c" transform="scale(0.015625)"/>
       <path d="M 3008 1478 
Q 3008 806 2608 371 
Q 2208 -64 1568 -64 
Q 979 -64 582 368 
Q 186 800 186 1459 
Q 186 2125 582 2534 
Q 979 2944 1626 2944 
Q 2221 2944 2614 2537 
Q 3008 2131 3008 1478 
z
M 2432 1306 
Q 2432 2035 2112 2445 
Q 1856 2765 1504 2765 
Q 1171 2765 966 2493 
Q 762 2221 762 1747 
Q 762 928 1101 435 
Q 1318 115 1677 115 
Q 2029 115 2230 432 
Q 2432 749 2432 1306 
z
" id="STIXGeneral-Regular-6f" transform="scale(0.015625)"/>
       <path d="M 3142 269 
L 2202 -64 
L 2176 -45 
L 2176 365 
Q 1869 -64 1357 -64 
Q 826 -64 499 317 
Q 173 698 173 1312 
Q 173 1990 563 2467 
Q 954 2944 1504 2944 
Q 1850 2944 2176 2669 
L 2176 3667 
Q 2176 3866 2118 3930 
Q 2061 3994 1882 3994 
Q 1792 3994 1741 3987 
L 1741 4090 
Q 2323 4243 2682 4371 
L 2714 4358 
L 2714 730 
Q 2714 506 2768 435 
Q 2822 365 2995 365 
Q 3034 365 3142 371 
L 3142 269 
z
M 2176 653 
L 2176 2125 
Q 2176 2381 1981 2573 
Q 1786 2765 1523 2765 
Q 1158 2765 940 2438 
Q 723 2112 723 1568 
Q 723 979 963 624 
Q 1203 269 1606 269 
Q 1907 269 2080 474 
Q 2176 582 2176 653 
z
" id="STIXGeneral-Regular-64" transform="scale(0.015625)"/>
      </defs>
      <use xlink:href="#STIXGeneral-Regular-42"/>
      <use x="66.699997" xlink:href="#STIXGeneral-Regular-61"/>
      <use x="111.099991" xlink:href="#STIXGeneral-Regular-72"/>
      <use x="144.399979" xlink:href="#STIXGeneral-Regular-72"/>
      <use x="177.699966" xlink:href="#STIXGeneral-Regular-61"/>
      <use x="222.09996" xlink:href="#STIXGeneral-Regular-6c"/>
      <use x="249.899948" xlink:href="#STIXGeneral-Regular-20"/>
      <use x="274.899933" xlink:href="#STIXGeneral-Regular-6d"/>
      <use x="352.699921" xlink:href="#STIXGeneral-Regular-6f"/>
      <use x="402.699905" xlink:href="#STIXGeneral-Regular-64"/>
      <use x="452.69989" xlink:href="#STIXGeneral-Regular-65"/>
      <use x="497.099884" xlink:href="#STIXGeneral-Regular-6c"/>
     </g>
    </g>
    <g id="LineCollection_4">
     <path d="M 128.7 89.771406 
L 128.7 76.771406 
" style="fill:none;stroke:#ff6961;stroke-width:3;"/>
    </g>
    <g id="line2d_24">
     <g>
      <use style="fill:#ff6961;stroke:#ff6961;" x="128.7" xlink:href="#me6c1fab48c" y="89.771406"/>
     </g>
    </g>
    <g id="line2d_25">
     <g>
      <use style="fill:#ff6961;stroke:#ff6961;" x="128.7" xlink:href="#me6c1fab48c" y="76.771406"/>
     </g>
    </g>
    <g id="line2d_26"/>
    <g id="line2d_27">
     <g>
      <use style="fill:#ff6961;stroke:#ff6961;" x="128.7" xlink:href="#m5ed2f0c35b" y="83.271406"/>
     </g>
    </g>
    <g id="text_17">
     <!-- General model -->
     <g transform="translate(152.1 87.821406)scale(0.13 -0.13)">
      <defs>
       <path d="M 4538 2266 
L 4538 2150 
Q 4256 2125 4173 2035 
Q 4090 1946 4090 1638 
L 4090 358 
Q 3539 -90 2464 -90 
Q 1965 -90 1507 89 
Q 1050 269 736 595 
Q 205 1152 205 2093 
Q 205 3155 890 3776 
Q 1491 4326 2419 4326 
Q 2829 4326 3270 4179 
Q 3443 4115 3552 4115 
Q 3654 4115 3731 4176 
Q 3808 4237 3840 4326 
L 3981 4326 
L 4032 2976 
L 3885 2976 
Q 3680 3475 3430 3718 
Q 3059 4070 2496 4070 
Q 1856 4070 1427 3629 
Q 934 3136 934 2074 
Q 934 1190 1395 678 
Q 1856 166 2618 166 
Q 2982 166 3225 281 
Q 3469 397 3469 557 
L 3469 1562 
Q 3469 1933 3376 2025 
Q 3283 2118 2899 2150 
L 2899 2266 
L 4538 2266 
z
" id="STIXGeneral-Regular-47" transform="scale(0.015625)"/>
      </defs>
      <use xlink:href="#STIXGeneral-Regular-47"/>
      <use x="72.199982" xlink:href="#STIXGeneral-Regular-65"/>
      <use x="116.599976" xlink:href="#STIXGeneral-Regular-6e"/>
      <use x="166.59996" xlink:href="#STIXGeneral-Regular-65"/>
      <use x="210.999954" xlink:href="#STIXGeneral-Regular-72"/>
      <use x="244.299942" xlink:href="#STIXGeneral-Regular-61"/>
      <use x="288.699936" xlink:href="#STIXGeneral-Regular-6c"/>
      <use x="316.499924" xlink:href="#STIXGeneral-Regular-20"/>
      <use x="341.499908" xlink:href="#STIXGeneral-Regular-6d"/>
      <use x="419.299896" xlink:href="#STIXGeneral-Regular-6f"/>
      <use x="469.299881" xlink:href="#STIXGeneral-Regular-64"/>
      <use x="519.299866" xlink:href="#STIXGeneral-Regular-65"/>
      <use x="563.69986" xlink:href="#STIXGeneral-Regular-6c"/>
     </g>
    </g>
   </g>
  </g>
 </g>
 <defs>
  <clipPath id="p4ef2b717d2">
   <rect height="593.8" width="570.4" x="104" y="48.6"/>
  </clipPath>
 </defs>
</svg>
